<?xml version="1.0" encoding="us-ascii" standalone="no"?><svg xmlns="http://www.w3.org/2000/svg" xmlns:xlink="http://www.w3.org/1999/xlink" contentStyleType="text/css" height="558px" preserveAspectRatio="none" style="width:1066px;height:558px;background:#FFFFFF;" version="1.1" viewBox="0 0 1066 558" width="1066px" zoomAndPan="magnify"><defs/><g><!--class TurnActivable--><a href="java:interfaces.TurnActivable" target="_top" title="java:interfaces.TurnActivable" xlink:actuate="onRequest" xlink:href="java:interfaces.TurnActivable" xlink:show="new" xlink:title="java:interfaces.TurnActivable" xlink:type="simple"><g id="elem_TurnActivable"><rect codeLine="2" fill="#F1F1F1" height="65.6094" id="TurnActivable" rx="2.5" ry="2.5" style="stroke:#181818;stroke-width:0.5;" width="157" x="7" y="95"/><ellipse cx="39.55" cy="111" fill="#B4A7E5" rx="11" ry="11" style="stroke:#181818;stroke-width:1.0;"/><path d="M40.5031,107.6406 L40.5031,114.2969 L42.2219,114.2969 Q42.8313,114.2969 43.0969,114.5313 Q43.3625,114.7656 43.3625,115.1563 Q43.3625,115.5313 43.0969,115.7656 Q42.8313,116 42.2219,116 L37.0813,116 Q36.4719,116 36.2063,115.7656 Q35.9406,115.5313 35.9406,115.1406 Q35.9406,114.7656 36.2063,114.5313 Q36.4719,114.2969 37.0813,114.2969 L38.8,114.2969 L38.8,107.6406 L37.0813,107.6406 Q36.4719,107.6406 36.2063,107.4063 Q35.9406,107.1719 35.9406,106.7813 Q35.9406,106.4063 36.2063,106.1719 Q36.4719,105.9375 37.0813,105.9375 L42.2219,105.9375 Q42.8313,105.9375 43.0969,106.1719 Q43.3625,106.4063 43.3625,106.7813 Q43.3625,107.1719 43.0969,107.4063 Q42.8313,107.6406 42.2219,107.6406 L40.5031,107.6406 Z " fill="#000000"/><text fill="#000000" font-family="sans-serif" font-size="14" font-style="italic" lengthAdjust="spacing" textLength="86" x="57.45" y="116.7285">TurnActivable</text><line style="stroke:#181818;stroke-width:0.5;" x1="8" x2="163" y1="127" y2="127"/><line style="stroke:#181818;stroke-width:0.5;" x1="8" x2="163" y1="135" y2="135"/><text fill="#000000" font-family="sans-serif" font-size="14" lengthAdjust="spacing" textLength="145" x="13" y="153.5332">activatePerTurn(): void</text></g></a><!--class StatUpdatable--><a href="java:interfaces.StatUpdatable" target="_top" title="java:interfaces.StatUpdatable" xlink:actuate="onRequest" xlink:href="java:interfaces.StatUpdatable" xlink:show="new" xlink:title="java:interfaces.StatUpdatable" xlink:type="simple"><g id="elem_StatUpdatable"><rect codeLine="5" fill="#F1F1F1" height="65.6094" id="StatUpdatable" rx="2.5" ry="2.5" style="stroke:#181818;stroke-width:0.5;" width="124" x="801.5" y="95"/><ellipse cx="817.4" cy="111" fill="#B4A7E5" rx="11" ry="11" style="stroke:#181818;stroke-width:1.0;"/><path d="M818.3531,107.6406 L818.3531,114.2969 L820.0719,114.2969 Q820.6813,114.2969 820.9469,114.5313 Q821.2125,114.7656 821.2125,115.1563 Q821.2125,115.5313 820.9469,115.7656 Q820.6813,116 820.0719,116 L814.9313,116 Q814.3219,116 814.0563,115.7656 Q813.7906,115.5313 813.7906,115.1406 Q813.7906,114.7656 814.0563,114.5313 Q814.3219,114.2969 814.9313,114.2969 L816.65,114.2969 L816.65,107.6406 L814.9313,107.6406 Q814.3219,107.6406 814.0563,107.4063 Q813.7906,107.1719 813.7906,106.7813 Q813.7906,106.4063 814.0563,106.1719 Q814.3219,105.9375 814.9313,105.9375 L820.0719,105.9375 Q820.6813,105.9375 820.9469,106.1719 Q821.2125,106.4063 821.2125,106.7813 Q821.2125,107.1719 820.9469,107.4063 Q820.6813,107.6406 820.0719,107.6406 L818.3531,107.6406 Z " fill="#000000"/><text fill="#000000" font-family="sans-serif" font-size="14" font-style="italic" lengthAdjust="spacing" textLength="90" x="831.6" y="116.7285">StatUpdatable</text><line style="stroke:#181818;stroke-width:0.5;" x1="802.5" x2="924.5" y1="127" y2="127"/><line style="stroke:#181818;stroke-width:0.5;" x1="802.5" x2="924.5" y1="135" y2="135"/><text fill="#000000" font-family="sans-serif" font-size="14" lengthAdjust="spacing" textLength="112" x="807.5" y="153.5332">statUpdate(): void</text></g></a><!--class Clickable--><a href="java:interfaces.Clickable" target="_top" title="java:interfaces.Clickable" xlink:actuate="onRequest" xlink:href="java:interfaces.Clickable" xlink:show="new" xlink:title="java:interfaces.Clickable" xlink:type="simple"><g id="elem_Clickable"><rect codeLine="8" fill="#F1F1F1" height="83.2188" id="Clickable" rx="2.5" ry="2.5" style="stroke:#181818;stroke-width:0.5;" width="185" x="199" y="86.5"/><ellipse cx="258.25" cy="102.5" fill="#B4A7E5" rx="11" ry="11" style="stroke:#181818;stroke-width:1.0;"/><path d="M259.2031,99.1406 L259.2031,105.7969 L260.9219,105.7969 Q261.5313,105.7969 261.7969,106.0313 Q262.0625,106.2656 262.0625,106.6563 Q262.0625,107.0313 261.7969,107.2656 Q261.5313,107.5 260.9219,107.5 L255.7813,107.5 Q255.1719,107.5 254.9063,107.2656 Q254.6406,107.0313 254.6406,106.6406 Q254.6406,106.2656 254.9063,106.0313 Q255.1719,105.7969 255.7813,105.7969 L257.5,105.7969 L257.5,99.1406 L255.7813,99.1406 Q255.1719,99.1406 254.9063,98.9063 Q254.6406,98.6719 254.6406,98.2813 Q254.6406,97.9063 254.9063,97.6719 Q255.1719,97.4375 255.7813,97.4375 L260.9219,97.4375 Q261.5313,97.4375 261.7969,97.6719 Q262.0625,97.9063 262.0625,98.2813 Q262.0625,98.6719 261.7969,98.9063 Q261.5313,99.1406 260.9219,99.1406 L259.2031,99.1406 Z " fill="#000000"/><text fill="#000000" font-family="sans-serif" font-size="14" font-style="italic" lengthAdjust="spacing" textLength="58" x="278.75" y="108.2285">Clickable</text><line style="stroke:#181818;stroke-width:0.5;" x1="200" x2="383" y1="118.5" y2="118.5"/><line style="stroke:#181818;stroke-width:0.5;" x1="200" x2="383" y1="126.5" y2="126.5"/><text fill="#000000" font-family="sans-serif" font-size="14" lengthAdjust="spacing" textLength="145" x="205" y="145.0332">activatePerClick(): void</text><text fill="#000000" font-family="sans-serif" font-size="14" lengthAdjust="spacing" textLength="173" x="205" y="162.6426">isEnoughEnergy(): boolean</text></g></a><!--class Item--><a href="java:game.item.Item" target="_top" title="java:game.item.Item" xlink:actuate="onRequest" xlink:href="java:game.item.Item" xlink:show="new" xlink:title="java:game.item.Item" xlink:type="simple"><g id="elem_Item"><rect codeLine="12" fill="#F1F1F1" height="48" id="Item" rx="2.5" ry="2.5" style="stroke:#181818;stroke-width:0.5;" width="59" x="566" y="415"/><ellipse cx="581" cy="431" fill="#A9DCDF" rx="11" ry="11" style="stroke:#181818;stroke-width:1.0;"/><path d="M583.1875,432.7656 L579.0469,432.7656 L578.625,433.7969 L579.0469,433.7969 Q579.6563,433.7969 579.9219,434.0313 Q580.1875,434.2656 580.1875,434.6563 Q580.1875,435.0313 579.9219,435.2656 Q579.6563,435.5 579.0469,435.5 L576.75,435.5 Q576.1406,435.5 575.8906,435.2656 Q575.625,435.0313 575.625,434.6406 Q575.625,434.2656 575.9063,434.0313 Q576.1719,433.7813 576.7969,433.7969 L579.4688,427.1406 L578.3594,427.1406 Q577.75,427.1406 577.4844,426.9063 Q577.2188,426.6719 577.2188,426.2813 Q577.2188,425.9063 577.4844,425.6719 Q577.75,425.4375 578.3594,425.4375 L582.0313,425.4375 L585.4219,433.7969 Q586.0156,433.7969 586.2031,433.9375 Q586.5938,434.2031 586.5938,434.6563 Q586.5938,435.0313 586.3281,435.2656 Q586.0781,435.5 585.4688,435.5 L583.1719,435.5 Q582.5625,435.5 582.2969,435.2656 Q582.0313,435.0313 582.0313,434.6406 Q582.0313,434.2656 582.2969,434.0313 Q582.5625,433.7969 583.1719,433.7969 L583.5938,433.7969 L583.1875,432.7656 Z M582.4688,431.0625 L581.1094,427.6875 L579.7344,431.0625 L582.4688,431.0625 Z " fill="#000000"/><text fill="#000000" font-family="sans-serif" font-size="14" font-style="italic" lengthAdjust="spacing" textLength="27" x="595" y="436.7285">Item</text><line style="stroke:#181818;stroke-width:0.5;" x1="567" x2="624" y1="447" y2="447"/><line style="stroke:#181818;stroke-width:0.5;" x1="567" x2="624" y1="455" y2="455"/></g></a><!--class Relic--><a href="java:game.item.relic.Relic" target="_top" title="java:game.item.relic.Relic" xlink:actuate="onRequest" xlink:href="java:game.item.relic.Relic" xlink:show="new" xlink:title="java:game.item.relic.Relic" xlink:type="simple"><g id="elem_Relic"><rect codeLine="13" fill="#F1F1F1" height="241.7031" id="Relic" rx="2.5" ry="2.5" style="stroke:#181818;stroke-width:0.5;" width="347" x="419" y="7"/><ellipse cx="572.75" cy="23" fill="#A9DCDF" rx="11" ry="11" style="stroke:#181818;stroke-width:1.0;"/><path d="M574.9375,24.7656 L570.7969,24.7656 L570.375,25.7969 L570.7969,25.7969 Q571.4063,25.7969 571.6719,26.0313 Q571.9375,26.2656 571.9375,26.6563 Q571.9375,27.0313 571.6719,27.2656 Q571.4063,27.5 570.7969,27.5 L568.5,27.5 Q567.8906,27.5 567.6406,27.2656 Q567.375,27.0313 567.375,26.6406 Q567.375,26.2656 567.6563,26.0313 Q567.9219,25.7813 568.5469,25.7969 L571.2188,19.1406 L570.1094,19.1406 Q569.5,19.1406 569.2344,18.9063 Q568.9688,18.6719 568.9688,18.2813 Q568.9688,17.9063 569.2344,17.6719 Q569.5,17.4375 570.1094,17.4375 L573.7813,17.4375 L577.1719,25.7969 Q577.7656,25.7969 577.9531,25.9375 Q578.3438,26.2031 578.3438,26.6563 Q578.3438,27.0313 578.0781,27.2656 Q577.8281,27.5 577.2188,27.5 L574.9219,27.5 Q574.3125,27.5 574.0469,27.2656 Q573.7813,27.0313 573.7813,26.6406 Q573.7813,26.2656 574.0469,26.0313 Q574.3125,25.7969 574.9219,25.7969 L575.3438,25.7969 L574.9375,24.7656 Z M574.2188,23.0625 L572.8594,19.6875 L571.4844,23.0625 L574.2188,23.0625 Z " fill="#000000"/><text fill="#000000" font-family="sans-serif" font-size="14" font-style="italic" lengthAdjust="spacing" textLength="31" x="593.25" y="28.7285">Relic</text><line style="stroke:#181818;stroke-width:0.5;" x1="420" x2="765" y1="39" y2="39"/><rect fill="none" height="6" style="stroke:#C82930;stroke-width:1.0;" width="6" x="427" y="50.3047"/><text fill="#000000" font-family="sans-serif" font-size="14" lengthAdjust="spacing" textLength="79" x="439" y="57.5332">effect: Effect</text><polygon fill="none" points="430,65.9141,434,69.9141,430,73.9141,426,69.9141" style="stroke:#B38D22;stroke-width:1.0;"/><text fill="#000000" font-family="sans-serif" font-size="14" lengthAdjust="spacing" textLength="60" x="439" y="75.1426">range: int</text><line style="stroke:#181818;stroke-width:0.5;" x1="420" x2="765" y1="82.2188" y2="82.2188"/><ellipse cx="430" cy="96.5234" fill="#84BE84" rx="3" ry="3" style="stroke:#038048;stroke-width:1.0;"/><text fill="#000000" font-family="sans-serif" font-size="14" lengthAdjust="spacing" textLength="321" x="439" y="100.752">Relic(name, detail, effect, range, width, height, tier)</text><ellipse cx="430" cy="114.1328" fill="#84BE84" rx="3" ry="3" style="stroke:#038048;stroke-width:1.0;"/><text fill="#000000" font-family="sans-serif" font-size="14" lengthAdjust="spacing" textLength="281" x="439" y="118.3613">Relic(name, detail, effect, range, height, tier)</text><rect fill="#F24D5C" height="6" style="stroke:#C82930;stroke-width:1.0;" width="6" x="427" y="128.7422"/><text fill="#000000" font-family="sans-serif" font-size="14" lengthAdjust="spacing" textLength="276" x="439" y="135.9707">increaseShield(items: ArrayList&lt;Item&gt;): void</text><rect fill="#F24D5C" height="6" style="stroke:#C82930;stroke-width:1.0;" width="6" x="427" y="146.3516"/><text fill="#000000" font-family="sans-serif" font-size="14" lengthAdjust="spacing" textLength="290" x="439" y="153.5801">increaseDamage(items: ArrayList&lt;Item&gt;): void</text><ellipse cx="430" cy="166.9609" fill="#84BE84" rx="3" ry="3" style="stroke:#038048;stroke-width:1.0;"/><text fill="#000000" font-family="sans-serif" font-size="14" lengthAdjust="spacing" textLength="93" x="439" y="171.1895">activate(): void</text><polygon fill="#FFFF44" points="430,179.5703,434,183.5703,430,187.5703,426,183.5703" style="stroke:#B38D22;stroke-width:1.0;"/><text fill="#000000" font-family="sans-serif" font-size="14" lengthAdjust="spacing" textLength="123" x="439" y="188.7988">getProvide(): String</text><ellipse cx="430" cy="202.1797" fill="#84BE84" rx="3" ry="3" style="stroke:#038048;stroke-width:1.0;"/><text fill="#000000" font-family="sans-serif" font-size="14" lengthAdjust="spacing" textLength="174" x="439" y="206.4082">getEffectType(): EffectType</text><ellipse cx="430" cy="219.7891" fill="#84BE84" rx="3" ry="3" style="stroke:#038048;stroke-width:1.0;"/><text fill="#000000" font-family="sans-serif" font-size="14" lengthAdjust="spacing" textLength="137" x="439" y="224.0176">getEffectAmount(): int</text><ellipse cx="430" cy="237.3984" fill="#84BE84" rx="3" ry="3" style="stroke:#038048;stroke-width:1.0;"/><text fill="#000000" font-family="sans-serif" font-size="14" lengthAdjust="spacing" textLength="95" x="439" y="241.627">getRange(): int</text></g></a><!--class ActiveRelic--><a href="java:game.item.relic.ActiveRelic" target="_top" title="java:game.item.relic.ActiveRelic" xlink:actuate="onRequest" xlink:href="java:game.item.relic.ActiveRelic" xlink:show="new" xlink:title="java:game.item.relic.ActiveRelic" xlink:type="simple"><g id="elem_ActiveRelic"><rect codeLine="26" fill="#F1F1F1" height="224.0938" id="ActiveRelic" rx="2.5" ry="2.5" style="stroke:#181818;stroke-width:0.5;" width="469" x="57" y="327"/><ellipse cx="252.75" cy="343" fill="#ADD1B2" rx="11" ry="11" style="stroke:#181818;stroke-width:1.0;"/><path d="M255.5156,338.875 Q255.6719,338.6563 255.8594,338.5469 Q256.0469,338.4375 256.2656,338.4375 Q256.6406,338.4375 256.875,338.7031 Q257.1094,338.9531 257.1094,339.5625 L257.1094,341.0156 Q257.1094,341.625 256.875,341.8906 Q256.6406,342.1563 256.2656,342.1563 Q255.9219,342.1563 255.7188,341.9531 Q255.5156,341.7656 255.4063,341.25 Q255.3594,340.8906 255.1719,340.7031 Q254.8438,340.3281 254.2344,340.1094 Q253.625,339.8906 253,339.8906 Q252.2344,339.8906 251.5938,340.2188 Q250.9688,340.5469 250.4688,341.2969 Q249.9844,342.0469 249.9844,343.0781 L249.9844,344.1719 Q249.9844,345.4063 250.875,346.2344 Q251.7656,347.0469 253.3594,347.0469 Q254.2969,347.0469 254.9531,346.7969 Q255.3438,346.6406 255.7656,346.2031 Q256.0313,345.9375 256.1719,345.8594 Q256.3281,345.7813 256.5313,345.7813 Q256.8594,345.7813 257.1094,346.0469 Q257.375,346.2969 257.375,346.6406 Q257.375,346.9844 257.0313,347.3906 Q256.5313,347.9688 255.7344,348.2969 Q254.6563,348.75 253.3594,348.75 Q251.8438,348.75 250.6406,348.125 Q249.6563,347.625 248.9688,346.5625 Q248.2813,345.4844 248.2813,344.2031 L248.2813,343.0469 Q248.2813,341.7188 248.8906,340.5781 Q249.5156,339.4219 250.6094,338.8125 Q251.7031,338.1875 252.9375,338.1875 Q253.6719,338.1875 254.3125,338.3594 Q254.9688,338.5156 255.5156,338.875 Z " fill="#000000"/><text fill="#000000" font-family="sans-serif" font-size="14" lengthAdjust="spacing" textLength="69" x="273.25" y="348.7285">ActiveRelic</text><line style="stroke:#181818;stroke-width:0.5;" x1="58" x2="525" y1="359" y2="359"/><rect fill="none" height="6" style="stroke:#C82930;stroke-width:1.0;" width="6" x="65" y="370.3047"/><text fill="#000000" font-family="sans-serif" font-size="14" lengthAdjust="spacing" textLength="99" x="77" y="377.5332">costActivate: int</text><rect fill="none" height="6" style="stroke:#C82930;stroke-width:1.0;" width="6" x="65" y="387.9141"/><text fill="#000000" font-family="sans-serif" font-size="14" lengthAdjust="spacing" textLength="101" x="77" y="395.1426">isUsed: boolean</text><line style="stroke:#181818;stroke-width:0.5;" x1="58" x2="525" y1="402.2188" y2="402.2188"/><ellipse cx="68" cy="416.5234" fill="#84BE84" rx="3" ry="3" style="stroke:#038048;stroke-width:1.0;"/><text fill="#000000" font-family="sans-serif" font-size="14" lengthAdjust="spacing" textLength="443" x="77" y="420.752">ActiveRelic(name, detail, effect, costActivate, range, width, height, tier)</text><ellipse cx="68" cy="434.1328" fill="#84BE84" rx="3" ry="3" style="stroke:#038048;stroke-width:1.0;"/><text fill="#000000" font-family="sans-serif" font-size="14" lengthAdjust="spacing" textLength="403" x="77" y="438.3613">ActiveRelic(name, detail, effect, costActivate, range, height, tier)</text><ellipse cx="68" cy="451.7422" fill="#84BE84" rx="3" ry="3" style="stroke:#038048;stroke-width:1.0;"/><text fill="#000000" font-family="sans-serif" font-size="14" lengthAdjust="spacing" textLength="173" x="77" y="455.9707">isEnoughEnergy(): boolean</text><ellipse cx="68" cy="469.3516" fill="#84BE84" rx="3" ry="3" style="stroke:#038048;stroke-width:1.0;"/><text fill="#000000" font-family="sans-serif" font-size="14" lengthAdjust="spacing" textLength="145" x="77" y="473.5801">activatePerClick(): void</text><ellipse cx="68" cy="486.9609" fill="#84BE84" rx="3" ry="3" style="stroke:#038048;stroke-width:1.0;"/><text fill="#000000" font-family="sans-serif" font-size="14" lengthAdjust="spacing" textLength="132" x="77" y="491.1895">getCostActivate(): int</text><ellipse cx="68" cy="504.5703" fill="#84BE84" rx="3" ry="3" style="stroke:#038048;stroke-width:1.0;"/><text fill="#000000" font-family="sans-serif" font-size="14" lengthAdjust="spacing" textLength="241" x="77" y="508.7988">setCostActivate(costActivate: int): void</text><ellipse cx="68" cy="522.1797" fill="#84BE84" rx="3" ry="3" style="stroke:#038048;stroke-width:1.0;"/><text fill="#000000" font-family="sans-serif" font-size="14" lengthAdjust="spacing" textLength="145" x="77" y="526.4082">activatePerTurn(): void</text><ellipse cx="68" cy="539.7891" fill="#84BE84" rx="3" ry="3" style="stroke:#038048;stroke-width:1.0;"/><text fill="#000000" font-family="sans-serif" font-size="14" lengthAdjust="spacing" textLength="104" x="77" y="544.0176">toString(): String</text></g></a><!--class PassiveRelic--><a href="java:game.item.relic.PassiveRelic" target="_top" title="java:game.item.relic.PassiveRelic" xlink:actuate="onRequest" xlink:href="java:game.item.relic.PassiveRelic" xlink:show="new" xlink:title="java:game.item.relic.PassiveRelic" xlink:type="simple"><g id="elem_PassiveRelic"><rect codeLine="38" fill="#F1F1F1" height="118.4375" id="PassiveRelic" rx="2.5" ry="2.5" style="stroke:#181818;stroke-width:0.5;" width="396" x="663.5" y="380"/><ellipse cx="817.25" cy="396" fill="#ADD1B2" rx="11" ry="11" style="stroke:#181818;stroke-width:1.0;"/><path d="M820.0156,391.875 Q820.1719,391.6563 820.3594,391.5469 Q820.5469,391.4375 820.7656,391.4375 Q821.1406,391.4375 821.375,391.7031 Q821.6094,391.9531 821.6094,392.5625 L821.6094,394.0156 Q821.6094,394.625 821.375,394.8906 Q821.1406,395.1563 820.7656,395.1563 Q820.4219,395.1563 820.2188,394.9531 Q820.0156,394.7656 819.9063,394.25 Q819.8594,393.8906 819.6719,393.7031 Q819.3438,393.3281 818.7344,393.1094 Q818.125,392.8906 817.5,392.8906 Q816.7344,392.8906 816.0938,393.2188 Q815.4688,393.5469 814.9688,394.2969 Q814.4844,395.0469 814.4844,396.0781 L814.4844,397.1719 Q814.4844,398.4063 815.375,399.2344 Q816.2656,400.0469 817.8594,400.0469 Q818.7969,400.0469 819.4531,399.7969 Q819.8438,399.6406 820.2656,399.2031 Q820.5313,398.9375 820.6719,398.8594 Q820.8281,398.7813 821.0313,398.7813 Q821.3594,398.7813 821.6094,399.0469 Q821.875,399.2969 821.875,399.6406 Q821.875,399.9844 821.5313,400.3906 Q821.0313,400.9688 820.2344,401.2969 Q819.1563,401.75 817.8594,401.75 Q816.3438,401.75 815.1406,401.125 Q814.1563,400.625 813.4688,399.5625 Q812.7813,398.4844 812.7813,397.2031 L812.7813,396.0469 Q812.7813,394.7188 813.3906,393.5781 Q814.0156,392.4219 815.1094,391.8125 Q816.2031,391.1875 817.4375,391.1875 Q818.1719,391.1875 818.8125,391.3594 Q819.4688,391.5156 820.0156,391.875 Z " fill="#000000"/><text fill="#000000" font-family="sans-serif" font-size="14" lengthAdjust="spacing" textLength="80" x="837.75" y="401.7285">PassiveRelic</text><line style="stroke:#181818;stroke-width:0.5;" x1="664.5" x2="1058.5" y1="412" y2="412"/><line style="stroke:#181818;stroke-width:0.5;" x1="664.5" x2="1058.5" y1="420" y2="420"/><ellipse cx="674.5" cy="434.3047" fill="#84BE84" rx="3" ry="3" style="stroke:#038048;stroke-width:1.0;"/><text fill="#000000" font-family="sans-serif" font-size="14" lengthAdjust="spacing" textLength="370" x="683.5" y="438.5332">PassiveRelic(name, detail, effect, range, width, height, tier)</text><ellipse cx="674.5" cy="451.9141" fill="#84BE84" rx="3" ry="3" style="stroke:#038048;stroke-width:1.0;"/><text fill="#000000" font-family="sans-serif" font-size="14" lengthAdjust="spacing" textLength="330" x="683.5" y="456.1426">PassiveRelic(name, detail, effect, range, height, tier)</text><ellipse cx="674.5" cy="469.5234" fill="#84BE84" rx="3" ry="3" style="stroke:#038048;stroke-width:1.0;"/><text fill="#000000" font-family="sans-serif" font-size="14" lengthAdjust="spacing" textLength="112" x="683.5" y="473.752">statUpdate(): void</text><ellipse cx="674.5" cy="487.1328" fill="#84BE84" rx="3" ry="3" style="stroke:#038048;stroke-width:1.0;"/><text fill="#000000" font-family="sans-serif" font-size="14" lengthAdjust="spacing" textLength="104" x="683.5" y="491.3613">toString(): String</text></g></a><!--reverse link Item to Relic--><g id="link_Item_Relic"><path codeLine="44" d="M608.3749,397.6848 C616.3449,374.0648 625.1,354.24 645.5,327 C657.78,310.6 671.94,315.61 680.5,297 C683.84,289.73 682.6,286.72 680.5,279 C677.81,269.09 674.28,259.17 670.18,249.42 " fill="none" id="Item-backto-Relic" style="stroke:#181818;stroke-width:1.0;"/><polygon fill="none" points="602.62,414.74,614.06,399.603,602.6898,395.7665,602.62,414.74" style="stroke:#181818;stroke-width:1.0;"/></g><!--link Relic to Item--><g id="link_Relic_Item"><path codeLine="45" d="M584.25,249.21 C583.89,265.27 583.9,281.54 584.5,297 C586.11,338.46 589.8088,380.6582 592.5288,408.6082 " fill="none" id="Relic-to-Item" style="stroke:#181818;stroke-width:1.0;"/><polygon fill="#181818" points="593.11,414.58,596.2195,405.2349,592.6257,409.6035,588.2571,406.0098,593.11,414.58" style="stroke:#181818;stroke-width:1.0;"/><text fill="#000000" font-family="sans-serif" font-size="13" lengthAdjust="spacing" textLength="86" x="585.5" y="293.4951">findItemInSlot()</text><text fill="#000000" font-family="sans-serif" font-size="13" lengthAdjust="spacing" textLength="5" x="586.9181" y="404.2156">*</text></g><!--reverse link Relic to ActiveRelic--><g id="link_Relic_ActiveRelic"><path codeLine="46" d="M462.7026,262.2461 C437.8626,287.7561 424.3,301.67 399.81,326.81 " fill="none" id="Relic-backto-ActiveRelic" style="stroke:#181818;stroke-width:1.0;"/><polygon fill="none" points="475.26,249.35,458.4038,258.0603,467.0013,266.432,475.26,249.35" style="stroke:#181818;stroke-width:1.0;"/></g><!--reverse link Relic to PassiveRelic--><g id="link_Relic_PassiveRelic"><path codeLine="47" d="M709.0891,262.926 C748.0391,307.666 778.66,342.85 810.65,379.58 " fill="none" id="Relic-backto-PassiveRelic" style="stroke:#181818;stroke-width:1.0;"/><polygon fill="none" points="697.27,249.35,704.5638,266.8657,713.6144,258.9863,697.27,249.35" style="stroke:#181818;stroke-width:1.0;"/></g><!--reverse link Clickable to ActiveRelic--><g id="link_Clickable_ActiveRelic"><path codeLine="48" d="M291.5,187.71 C291.5,227.62 291.5,272.25 291.5,326.96 " fill="none" id="Clickable-backto-ActiveRelic" style="stroke:#181818;stroke-width:1.0;stroke-dasharray:7.0,7.0;"/><polygon fill="none" points="291.5,169.71,285.5,187.71,297.5,187.71,291.5,169.71" style="stroke:#181818;stroke-width:1.0;"/></g><!--reverse link TurnActivable to ActiveRelic--><g id="link_TurnActivable_ActiveRelic"><path codeLine="49" d="M116.9446,176.1669 C142.9646,215.1969 178.22,268.08 217.39,326.84 " fill="none" id="TurnActivable-backto-ActiveRelic" style="stroke:#181818;stroke-width:1.0;stroke-dasharray:7.0,7.0;"/><polygon fill="none" points="106.96,161.19,111.9523,179.4951,121.9369,172.8387,106.96,161.19" style="stroke:#181818;stroke-width:1.0;"/></g><!--reverse link StatUpdatable to PassiveRelic--><g id="link_StatUpdatable_PassiveRelic"><path codeLine="50" d="M863.1751,179.1896 C862.8451,230.8996 862.29,315.19 861.88,379.9 " fill="none" id="StatUpdatable-backto-PassiveRelic" style="stroke:#181818;stroke-width:1.0;stroke-dasharray:7.0,7.0;"/><polygon fill="none" points="863.29,161.19,857.1753,179.1513,869.175,179.2279,863.29,161.19" style="stroke:#181818;stroke-width:1.0;"/></g><!--SRC=[dLJ1JkCm43sJhnZ1fMoJV41K8LLi3qXxg2YS40StdYQ6nAxiQLVLmh-lxJIjqpGKSKdYzsRUsFES8RK6Kh1KHAe6BZJc99ICX2JKAvOZF6sqd5fmovOLmilB6zkox42RjCE_liA_w8hv9U4SjMD7jnbibU3HPo2x84RFQyveGBR3DxAcXV2iudqbylS1jGFNsw1d3dfNmioasXJbJA8kTWvVAbKXaxOKMnhIDXNoYXa33uHrMwfWDQR20gb3NP5U-2FQIlruxU3Katvl00ckLjQ536R-RP4RpMI16TW3sTNO1u-abOY18p5HnT3anE0ZO_WhE9Knb2YAqg8aKDz-C_Kq9n4oryWCBag15H-vNPiCfbgptHzXQE9EVDSsC8Z_pMfMuCNuSMl6w8ZT54XphRQ2UtH1MiZ2nLgywShJRksfuwf3JskraUG2zZsppACxNmjzHeqh_kRYbzu48Qr3kJ8qtM-xBP48ysoG7o-ChHga3ZGzLBhetW_bUZh3bpome_TlD5sy3oe4_JKdJAz3Pmm_7G-M8jLu7RZUEZMtZqjMXJ5xhyOXzhEVvliAlTGp8sleb7wSJ3wIf9aKKNFG9Bc3wr_NpR39O2KaTvyFSb4fUx_tKJujk1qX7Eu-Eix8oKUQTbAwSxv7T-UrfqFb_m00]--></g></svg>