<?xml version="1.0" encoding="us-ascii" standalone="no"?><svg xmlns="http://www.w3.org/2000/svg" xmlns:xlink="http://www.w3.org/1999/xlink" contentStyleType="text/css" height="841px" preserveAspectRatio="none" style="width:1861px;height:841px;background:#FFFFFF;" version="1.1" viewBox="0 0 1861 841" width="1861px" zoomAndPan="magnify"><defs/><g><!--class MobTier--><a href="java:game.util.MobTier" target="_top" title="java:game.util.MobTier" xlink:actuate="onRequest" xlink:href="java:game.util.MobTier" xlink:show="new" xlink:title="java:game.util.MobTier" xlink:type="simple"><g id="elem_MobTier"><rect codeLine="1" fill="#F1F1F1" height="171.2656" id="MobTier" rx="2.5" ry="2.5" style="stroke:#181818;stroke-width:0.5;" width="84" x="13" y="7"/><ellipse cx="28" cy="23" fill="#EB937F" rx="11" ry="11" style="stroke:#181818;stroke-width:1.0;"/><path d="M26.8594,23.7969 L26.8594,26.2969 L31.1875,26.2969 L31.1875,25.375 Q31.1875,24.7656 31.4219,24.5 Q31.6719,24.2344 32.0469,24.2344 Q32.4219,24.2344 32.6563,24.5 Q32.8906,24.7656 32.8906,25.375 L32.8906,28 L24.8906,28 Q24.2656,28 24,27.7656 Q23.75,27.5313 23.75,27.1406 Q23.75,26.7656 24.0156,26.5313 Q24.2813,26.2969 24.8906,26.2969 L25.1563,26.2969 L25.1563,19.6406 L24.8906,19.6406 Q24.2656,19.6406 24,19.4063 Q23.75,19.1719 23.75,18.7813 Q23.75,18.4063 24,18.1719 Q24.2656,17.9375 24.8906,17.9375 L32.5156,17.9375 L32.5156,20.5313 Q32.5156,21.1406 32.2813,21.4063 Q32.0625,21.6563 31.6719,21.6563 Q31.2969,21.6563 31.0625,21.4063 Q30.8281,21.1406 30.8281,20.5313 L30.8281,19.6406 L26.8594,19.6406 L26.8594,22.0938 L28.3438,22.0938 Q28.3438,21.4375 28.4688,21.25 Q28.7344,20.8438 29.2031,20.8438 Q29.5781,20.8438 29.8125,21.1094 Q30.0469,21.3594 30.0469,21.9688 L30.0469,23.9375 Q30.0469,24.4844 29.9219,24.6719 Q29.6563,25.0625 29.2031,25.0625 Q28.7344,25.0625 28.4688,24.6563 Q28.3438,24.4688 28.3438,23.7969 L26.8594,23.7969 Z " fill="#000000"/><text fill="#000000" font-family="sans-serif" font-size="14" lengthAdjust="spacing" textLength="52" x="42" y="28.7285">MobTier</text><line style="stroke:#181818;stroke-width:0.5;" x1="14" x2="96" y1="39" y2="39"/><text fill="#000000" font-family="sans-serif" font-size="14" lengthAdjust="spacing" textLength="9" x="19" y="57.5332">E</text><text fill="#000000" font-family="sans-serif" font-size="14" lengthAdjust="spacing" textLength="10" x="19" y="75.1426">D</text><text fill="#000000" font-family="sans-serif" font-size="14" lengthAdjust="spacing" textLength="10" x="19" y="92.752">C</text><text fill="#000000" font-family="sans-serif" font-size="14" lengthAdjust="spacing" textLength="9" x="19" y="110.3613">B</text><text fill="#000000" font-family="sans-serif" font-size="14" lengthAdjust="spacing" textLength="9" x="19" y="127.9707">A</text><text fill="#000000" font-family="sans-serif" font-size="14" lengthAdjust="spacing" textLength="9" x="19" y="145.5801">S</text><text fill="#000000" font-family="sans-serif" font-size="14" lengthAdjust="spacing" textLength="17" x="19" y="163.1895">EX</text><line style="stroke:#181818;stroke-width:0.5;" x1="14" x2="96" y1="170.2656" y2="170.2656"/></g></a><!--class ItemRotation--><a href="java:game.util.ItemRotation" target="_top" title="java:game.util.ItemRotation" xlink:actuate="onRequest" xlink:href="java:game.util.ItemRotation" xlink:show="new" xlink:title="java:game.util.ItemRotation" xlink:type="simple"><g id="elem_ItemRotation"><rect codeLine="10" fill="#F1F1F1" height="118.4375" id="ItemRotation" rx="2.5" ry="2.5" style="stroke:#181818;stroke-width:0.5;" width="132" x="132" y="33.5"/><ellipse cx="156.45" cy="49.5" fill="#EB937F" rx="11" ry="11" style="stroke:#181818;stroke-width:1.0;"/><path d="M155.3094,50.2969 L155.3094,52.7969 L159.6375,52.7969 L159.6375,51.875 Q159.6375,51.2656 159.8719,51 Q160.1219,50.7344 160.4969,50.7344 Q160.8719,50.7344 161.1063,51 Q161.3406,51.2656 161.3406,51.875 L161.3406,54.5 L153.3406,54.5 Q152.7156,54.5 152.45,54.2656 Q152.2,54.0313 152.2,53.6406 Q152.2,53.2656 152.4656,53.0313 Q152.7313,52.7969 153.3406,52.7969 L153.6063,52.7969 L153.6063,46.1406 L153.3406,46.1406 Q152.7156,46.1406 152.45,45.9063 Q152.2,45.6719 152.2,45.2813 Q152.2,44.9063 152.45,44.6719 Q152.7156,44.4375 153.3406,44.4375 L160.9656,44.4375 L160.9656,47.0313 Q160.9656,47.6406 160.7313,47.9063 Q160.5125,48.1563 160.1219,48.1563 Q159.7469,48.1563 159.5125,47.9063 Q159.2781,47.6406 159.2781,47.0313 L159.2781,46.1406 L155.3094,46.1406 L155.3094,48.5938 L156.7938,48.5938 Q156.7938,47.9375 156.9188,47.75 Q157.1844,47.3438 157.6531,47.3438 Q158.0281,47.3438 158.2625,47.6094 Q158.4969,47.8594 158.4969,48.4688 L158.4969,50.4375 Q158.4969,50.9844 158.3719,51.1719 Q158.1063,51.5625 157.6531,51.5625 Q157.1844,51.5625 156.9188,51.1563 Q156.7938,50.9688 156.7938,50.2969 L155.3094,50.2969 Z " fill="#000000"/><text fill="#000000" font-family="sans-serif" font-size="14" lengthAdjust="spacing" textLength="79" x="172.55" y="55.2285">ItemRotation</text><line style="stroke:#181818;stroke-width:0.5;" x1="133" x2="263" y1="65.5" y2="65.5"/><text fill="#000000" font-family="sans-serif" font-size="14" lengthAdjust="spacing" textLength="67" x="138" y="84.0332">VERTICAL</text><text fill="#000000" font-family="sans-serif" font-size="14" lengthAdjust="spacing" textLength="87" x="138" y="101.6426">HORIZONTAL</text><text fill="#000000" font-family="sans-serif" font-size="14" lengthAdjust="spacing" textLength="113" x="138" y="119.252">DIAGONAL_LEFT</text><text fill="#000000" font-family="sans-serif" font-size="14" lengthAdjust="spacing" textLength="120" x="138" y="136.8613">DIAGONAL_RIGHT</text><line style="stroke:#181818;stroke-width:0.5;" x1="133" x2="263" y1="143.9375" y2="143.9375"/></g></a><!--class ItemTier--><a href="java:game.util.ItemTier" target="_top" title="java:game.util.ItemTier" xlink:actuate="onRequest" xlink:href="java:game.util.ItemTier" xlink:show="new" xlink:title="java:game.util.ItemTier" xlink:type="simple"><g id="elem_ItemTier"><rect codeLine="16" fill="#F1F1F1" height="153.6563" id="ItemTier" rx="2.5" ry="2.5" style="stroke:#181818;stroke-width:0.5;" width="96" x="7" y="282"/><ellipse cx="27.85" cy="298" fill="#EB937F" rx="11" ry="11" style="stroke:#181818;stroke-width:1.0;"/><path d="M26.7094,298.7969 L26.7094,301.2969 L31.0375,301.2969 L31.0375,300.375 Q31.0375,299.7656 31.2719,299.5 Q31.5219,299.2344 31.8969,299.2344 Q32.2719,299.2344 32.5063,299.5 Q32.7406,299.7656 32.7406,300.375 L32.7406,303 L24.7406,303 Q24.1156,303 23.85,302.7656 Q23.6,302.5313 23.6,302.1406 Q23.6,301.7656 23.8656,301.5313 Q24.1313,301.2969 24.7406,301.2969 L25.0063,301.2969 L25.0063,294.6406 L24.7406,294.6406 Q24.1156,294.6406 23.85,294.4063 Q23.6,294.1719 23.6,293.7813 Q23.6,293.4063 23.85,293.1719 Q24.1156,292.9375 24.7406,292.9375 L32.3656,292.9375 L32.3656,295.5313 Q32.3656,296.1406 32.1313,296.4063 Q31.9125,296.6563 31.5219,296.6563 Q31.1469,296.6563 30.9125,296.4063 Q30.6781,296.1406 30.6781,295.5313 L30.6781,294.6406 L26.7094,294.6406 L26.7094,297.0938 L28.1938,297.0938 Q28.1938,296.4375 28.3188,296.25 Q28.5844,295.8438 29.0531,295.8438 Q29.4281,295.8438 29.6625,296.1094 Q29.8969,296.3594 29.8969,296.9688 L29.8969,298.9375 Q29.8969,299.4844 29.7719,299.6719 Q29.5063,300.0625 29.0531,300.0625 Q28.5844,300.0625 28.3188,299.6563 Q28.1938,299.4688 28.1938,298.7969 L26.7094,298.7969 Z " fill="#000000"/><text fill="#000000" font-family="sans-serif" font-size="14" lengthAdjust="spacing" textLength="51" x="43.15" y="303.7285">ItemTier</text><line style="stroke:#181818;stroke-width:0.5;" x1="8" x2="102" y1="314" y2="314"/><text fill="#000000" font-family="sans-serif" font-size="14" lengthAdjust="spacing" textLength="63" x="13" y="332.5332">COMMON</text><text fill="#000000" font-family="sans-serif" font-size="14" lengthAdjust="spacing" textLength="81" x="13" y="350.1426">UNCOMMON</text><text fill="#000000" font-family="sans-serif" font-size="14" lengthAdjust="spacing" textLength="38" x="13" y="367.752">RARE</text><text fill="#000000" font-family="sans-serif" font-size="14" lengthAdjust="spacing" textLength="31" x="13" y="385.3613">EPIC</text><text fill="#000000" font-family="sans-serif" font-size="14" lengthAdjust="spacing" textLength="84" x="13" y="402.9707">LEGENDARY</text><text fill="#000000" font-family="sans-serif" font-size="14" lengthAdjust="spacing" textLength="32" x="13" y="420.5801">GOD</text><line style="stroke:#181818;stroke-width:0.5;" x1="8" x2="102" y1="427.6563" y2="427.6563"/></g></a><!--class EffectType--><a href="java:game.util.EffectType" target="_top" title="java:game.util.EffectType" xlink:actuate="onRequest" xlink:href="java:game.util.EffectType" xlink:show="new" xlink:title="java:game.util.EffectType" xlink:type="simple"><g id="elem_EffectType"><rect codeLine="24" fill="#F1F1F1" height="294.5313" id="EffectType" rx="2.5" ry="2.5" style="stroke:#181818;stroke-width:0.5;" width="100" x="1190" y="540"/><ellipse cx="1205" cy="556" fill="#EB937F" rx="11" ry="11" style="stroke:#181818;stroke-width:1.0;"/><path d="M1203.8594,556.7969 L1203.8594,559.2969 L1208.1875,559.2969 L1208.1875,558.375 Q1208.1875,557.7656 1208.4219,557.5 Q1208.6719,557.2344 1209.0469,557.2344 Q1209.4219,557.2344 1209.6563,557.5 Q1209.8906,557.7656 1209.8906,558.375 L1209.8906,561 L1201.8906,561 Q1201.2656,561 1201,560.7656 Q1200.75,560.5313 1200.75,560.1406 Q1200.75,559.7656 1201.0156,559.5313 Q1201.2813,559.2969 1201.8906,559.2969 L1202.1563,559.2969 L1202.1563,552.6406 L1201.8906,552.6406 Q1201.2656,552.6406 1201,552.4063 Q1200.75,552.1719 1200.75,551.7813 Q1200.75,551.4063 1201,551.1719 Q1201.2656,550.9375 1201.8906,550.9375 L1209.5156,550.9375 L1209.5156,553.5313 Q1209.5156,554.1406 1209.2813,554.4063 Q1209.0625,554.6563 1208.6719,554.6563 Q1208.2969,554.6563 1208.0625,554.4063 Q1207.8281,554.1406 1207.8281,553.5313 L1207.8281,552.6406 L1203.8594,552.6406 L1203.8594,555.0938 L1205.3438,555.0938 Q1205.3438,554.4375 1205.4688,554.25 Q1205.7344,553.8438 1206.2031,553.8438 Q1206.5781,553.8438 1206.8125,554.1094 Q1207.0469,554.3594 1207.0469,554.9688 L1207.0469,556.9375 Q1207.0469,557.4844 1206.9219,557.6719 Q1206.6563,558.0625 1206.2031,558.0625 Q1205.7344,558.0625 1205.4688,557.6563 Q1205.3438,557.4688 1205.3438,556.7969 L1203.8594,556.7969 Z " fill="#000000"/><text fill="#000000" font-family="sans-serif" font-size="14" lengthAdjust="spacing" textLength="68" x="1219" y="561.7285">EffectType</text><line style="stroke:#181818;stroke-width:0.5;" x1="1191" x2="1289" y1="572" y2="572"/><text fill="#000000" font-family="sans-serif" font-size="14" lengthAdjust="spacing" textLength="31" x="1196" y="590.5332">FIRE</text><text fill="#000000" font-family="sans-serif" font-size="14" lengthAdjust="spacing" textLength="52" x="1196" y="608.1426">POISON</text><text fill="#000000" font-family="sans-serif" font-size="14" lengthAdjust="spacing" textLength="64" x="1196" y="625.752">STUNNED</text><text fill="#000000" font-family="sans-serif" font-size="14" lengthAdjust="spacing" textLength="59" x="1196" y="643.3613">DAMAGE</text><text fill="#000000" font-family="sans-serif" font-size="14" lengthAdjust="spacing" textLength="48" x="1196" y="660.9707">THORN</text><text fill="#000000" font-family="sans-serif" font-size="14" lengthAdjust="spacing" textLength="48" x="1196" y="678.5801">SHIELD</text><text fill="#000000" font-family="sans-serif" font-size="14" lengthAdjust="spacing" textLength="51" x="1196" y="696.1895">DODGE</text><text fill="#000000" font-family="sans-serif" font-size="14" lengthAdjust="spacing" textLength="64" x="1196" y="713.7988">VAMPIRIC</text><text fill="#000000" font-family="sans-serif" font-size="14" lengthAdjust="spacing" textLength="79" x="1196" y="731.4082">SUMMONER</text><text fill="#000000" font-family="sans-serif" font-size="14" lengthAdjust="spacing" textLength="48" x="1196" y="749.0176">ANGER</text><text fill="#000000" font-family="sans-serif" font-size="14" lengthAdjust="spacing" textLength="35" x="1196" y="766.627">HEAL</text><text fill="#000000" font-family="sans-serif" font-size="14" lengthAdjust="spacing" textLength="57" x="1196" y="784.2363">ENERGY</text><text fill="#000000" font-family="sans-serif" font-size="14" lengthAdjust="spacing" textLength="48" x="1196" y="801.8457">REGEN</text><text fill="#000000" font-family="sans-serif" font-size="14" lengthAdjust="spacing" textLength="36" x="1196" y="819.4551">LUCK</text><line style="stroke:#181818;stroke-width:0.5;" x1="1191" x2="1289" y1="826.5313" y2="826.5313"/></g></a><!--class Effect--><a href="java:game.util.Effect" target="_top" title="java:game.util.Effect" xlink:actuate="onRequest" xlink:href="java:game.util.Effect" xlink:show="new" xlink:title="java:game.util.Effect" xlink:type="simple"><g id="elem_Effect"><rect codeLine="40" fill="#F1F1F1" height="153.6563" id="Effect" rx="2.5" ry="2.5" style="stroke:#181818;stroke-width:0.5;" width="253" x="982.5" y="282"/><ellipse cx="1086.75" cy="298" fill="#ADD1B2" rx="11" ry="11" style="stroke:#181818;stroke-width:1.0;"/><path d="M1089.5156,293.875 Q1089.6719,293.6563 1089.8594,293.5469 Q1090.0469,293.4375 1090.2656,293.4375 Q1090.6406,293.4375 1090.875,293.7031 Q1091.1094,293.9531 1091.1094,294.5625 L1091.1094,296.0156 Q1091.1094,296.625 1090.875,296.8906 Q1090.6406,297.1563 1090.2656,297.1563 Q1089.9219,297.1563 1089.7188,296.9531 Q1089.5156,296.7656 1089.4063,296.25 Q1089.3594,295.8906 1089.1719,295.7031 Q1088.8438,295.3281 1088.2344,295.1094 Q1087.625,294.8906 1087,294.8906 Q1086.2344,294.8906 1085.5938,295.2188 Q1084.9688,295.5469 1084.4688,296.2969 Q1083.9844,297.0469 1083.9844,298.0781 L1083.9844,299.1719 Q1083.9844,300.4063 1084.875,301.2344 Q1085.7656,302.0469 1087.3594,302.0469 Q1088.2969,302.0469 1088.9531,301.7969 Q1089.3438,301.6406 1089.7656,301.2031 Q1090.0313,300.9375 1090.1719,300.8594 Q1090.3281,300.7813 1090.5313,300.7813 Q1090.8594,300.7813 1091.1094,301.0469 Q1091.375,301.2969 1091.375,301.6406 Q1091.375,301.9844 1091.0313,302.3906 Q1090.5313,302.9688 1089.7344,303.2969 Q1088.6563,303.75 1087.3594,303.75 Q1085.8438,303.75 1084.6406,303.125 Q1083.6563,302.625 1082.9688,301.5625 Q1082.2813,300.4844 1082.2813,299.2031 L1082.2813,298.0469 Q1082.2813,296.7188 1082.8906,295.5781 Q1083.5156,294.4219 1084.6094,293.8125 Q1085.7031,293.1875 1086.9375,293.1875 Q1087.6719,293.1875 1088.3125,293.3594 Q1088.9688,293.5156 1089.5156,293.875 Z " fill="#000000"/><text fill="#000000" font-family="sans-serif" font-size="14" lengthAdjust="spacing" textLength="36" x="1107.25" y="303.7285">Effect</text><line style="stroke:#181818;stroke-width:0.5;" x1="983.5" x2="1234.5" y1="314" y2="314"/><rect fill="none" height="6" style="stroke:#C82930;stroke-width:1.0;" width="6" x="990.5" y="325.3047"/><text fill="#000000" font-family="sans-serif" font-size="14" lengthAdjust="spacing" textLength="70" x="1002.5" y="332.5332">amount: int</text><line style="stroke:#181818;stroke-width:0.5;" x1="983.5" x2="1234.5" y1="339.6094" y2="339.6094"/><ellipse cx="993.5" cy="353.9141" fill="#84BE84" rx="3" ry="3" style="stroke:#038048;stroke-width:1.0;"/><text fill="#000000" font-family="sans-serif" font-size="14" lengthAdjust="spacing" textLength="227" x="1002.5" y="358.1426">Effect(amount: int, type: EffectType)</text><ellipse cx="993.5" cy="371.5234" fill="#84BE84" rx="3" ry="3" style="stroke:#038048;stroke-width:1.0;"/><text fill="#000000" font-family="sans-serif" font-size="14" lengthAdjust="spacing" textLength="101" x="1002.5" y="375.752">getAmount(): int</text><ellipse cx="993.5" cy="389.1328" fill="#84BE84" rx="3" ry="3" style="stroke:#038048;stroke-width:1.0;"/><text fill="#000000" font-family="sans-serif" font-size="14" lengthAdjust="spacing" textLength="181" x="1002.5" y="393.3613">setAmount(amount: int): void</text><ellipse cx="993.5" cy="406.7422" fill="#84BE84" rx="3" ry="3" style="stroke:#038048;stroke-width:1.0;"/><text fill="#000000" font-family="sans-serif" font-size="14" lengthAdjust="spacing" textLength="198" x="1002.5" y="410.9707">setType(type: EffectType): void</text><ellipse cx="993.5" cy="424.3516" fill="#84BE84" rx="3" ry="3" style="stroke:#038048;stroke-width:1.0;"/><text fill="#000000" font-family="sans-serif" font-size="14" lengthAdjust="spacing" textLength="143" x="1002.5" y="428.5801">getTypeName(): String</text></g></a><!--class EffectIcon--><a href="java:game.util.EffectIcon" target="_top" title="java:game.util.EffectIcon" xlink:actuate="onRequest" xlink:href="java:game.util.EffectIcon" xlink:show="new" xlink:title="java:game.util.EffectIcon" xlink:type="simple"><g id="elem_EffectIcon"><rect codeLine="48" fill="#F1F1F1" height="206.4844" id="EffectIcon" rx="2.5" ry="2.5" style="stroke:#181818;stroke-width:0.5;" width="216" x="1271" y="256"/><ellipse cx="1343.75" cy="272" fill="#ADD1B2" rx="11" ry="11" style="stroke:#181818;stroke-width:1.0;"/><path d="M1346.5156,267.875 Q1346.6719,267.6563 1346.8594,267.5469 Q1347.0469,267.4375 1347.2656,267.4375 Q1347.6406,267.4375 1347.875,267.7031 Q1348.1094,267.9531 1348.1094,268.5625 L1348.1094,270.0156 Q1348.1094,270.625 1347.875,270.8906 Q1347.6406,271.1563 1347.2656,271.1563 Q1346.9219,271.1563 1346.7188,270.9531 Q1346.5156,270.7656 1346.4063,270.25 Q1346.3594,269.8906 1346.1719,269.7031 Q1345.8438,269.3281 1345.2344,269.1094 Q1344.625,268.8906 1344,268.8906 Q1343.2344,268.8906 1342.5938,269.2188 Q1341.9688,269.5469 1341.4688,270.2969 Q1340.9844,271.0469 1340.9844,272.0781 L1340.9844,273.1719 Q1340.9844,274.4063 1341.875,275.2344 Q1342.7656,276.0469 1344.3594,276.0469 Q1345.2969,276.0469 1345.9531,275.7969 Q1346.3438,275.6406 1346.7656,275.2031 Q1347.0313,274.9375 1347.1719,274.8594 Q1347.3281,274.7813 1347.5313,274.7813 Q1347.8594,274.7813 1348.1094,275.0469 Q1348.375,275.2969 1348.375,275.6406 Q1348.375,275.9844 1348.0313,276.3906 Q1347.5313,276.9688 1346.7344,277.2969 Q1345.6563,277.75 1344.3594,277.75 Q1342.8438,277.75 1341.6406,277.125 Q1340.6563,276.625 1339.9688,275.5625 Q1339.2813,274.4844 1339.2813,273.2031 L1339.2813,272.0469 Q1339.2813,270.7188 1339.8906,269.5781 Q1340.5156,268.4219 1341.6094,267.8125 Q1342.7031,267.1875 1343.9375,267.1875 Q1344.6719,267.1875 1345.3125,267.3594 Q1345.9688,267.5156 1346.5156,267.875 Z " fill="#000000"/><text fill="#000000" font-family="sans-serif" font-size="14" lengthAdjust="spacing" textLength="62" x="1364.25" y="277.7285">EffectIcon</text><line style="stroke:#181818;stroke-width:0.5;" x1="1272" x2="1486" y1="288" y2="288"/><rect fill="none" height="6" style="stroke:#C82930;stroke-width:1.0;" width="6" x="1279" y="299.3047"/><text fill="#000000" font-family="sans-serif" font-size="14" lengthAdjust="spacing" textLength="101" x="1291" y="306.5332">icon: ImageView</text><rect fill="none" height="6" style="stroke:#C82930;stroke-width:1.0;" width="6" x="1279" y="316.9141"/><text fill="#000000" font-family="sans-serif" font-size="14" lengthAdjust="spacing" textLength="57" x="1291" y="324.1426">text: Text</text><rect fill="none" height="6" style="stroke:#C82930;stroke-width:1.0;" width="6" x="1279" y="334.5234"/><text fill="#000000" font-family="sans-serif" font-size="14" lengthAdjust="spacing" textLength="143" x="1291" y="341.752">fadeIn: FadeTransition</text><line style="stroke:#181818;stroke-width:0.5;" x1="1272" x2="1486" y1="348.8281" y2="348.8281"/><ellipse cx="1282" cy="363.1328" fill="#84BE84" rx="3" ry="3" style="stroke:#038048;stroke-width:1.0;"/><text fill="#000000" font-family="sans-serif" font-size="14" lengthAdjust="spacing" textLength="175" x="1291" y="367.3613">EffectIcon(type: EffectType)</text><ellipse cx="1282" cy="380.7422" fill="#84BE84" rx="3" ry="3" style="stroke:#038048;stroke-width:1.0;"/><text fill="#000000" font-family="sans-serif" font-size="14" lengthAdjust="spacing" textLength="131" x="1291" y="384.9707">getIcon(): ImageView</text><ellipse cx="1282" cy="398.3516" fill="#84BE84" rx="3" ry="3" style="stroke:#038048;stroke-width:1.0;"/><text fill="#000000" font-family="sans-serif" font-size="14" lengthAdjust="spacing" textLength="190" x="1291" y="402.5801">setIcon(icon: ImageView): void</text><ellipse cx="1282" cy="415.9609" fill="#84BE84" rx="3" ry="3" style="stroke:#038048;stroke-width:1.0;"/><text fill="#000000" font-family="sans-serif" font-size="14" lengthAdjust="spacing" textLength="92" x="1291" y="420.1895">getText(): Text</text><ellipse cx="1282" cy="433.5703" fill="#84BE84" rx="3" ry="3" style="stroke:#038048;stroke-width:1.0;"/><text fill="#000000" font-family="sans-serif" font-size="14" lengthAdjust="spacing" textLength="172" x="1291" y="437.7988">setText(amount: Text): void</text><ellipse cx="1282" cy="451.1797" fill="#84BE84" rx="3" ry="3" style="stroke:#038048;stroke-width:1.0;"/><text fill="#000000" font-family="sans-serif" font-size="14" lengthAdjust="spacing" textLength="178" x="1291" y="455.4082">getFadeIn(): FadeTransition</text></g></a><!--class IconList--><a href="java:game.util.IconList" target="_top" title="java:game.util.IconList" xlink:actuate="onRequest" xlink:href="java:game.util.IconList" xlink:show="new" xlink:title="java:game.util.IconList" xlink:type="simple"><g id="elem_IconList"><rect codeLine="59" fill="#F1F1F1" height="83.2188" id="IconList" rx="2.5" ry="2.5" style="stroke:#181818;stroke-width:0.5;" width="325" x="1522.5" y="317.5"/><ellipse cx="1656.75" cy="333.5" fill="#ADD1B2" rx="11" ry="11" style="stroke:#181818;stroke-width:1.0;"/><path d="M1659.5156,329.375 Q1659.6719,329.1563 1659.8594,329.0469 Q1660.0469,328.9375 1660.2656,328.9375 Q1660.6406,328.9375 1660.875,329.2031 Q1661.1094,329.4531 1661.1094,330.0625 L1661.1094,331.5156 Q1661.1094,332.125 1660.875,332.3906 Q1660.6406,332.6563 1660.2656,332.6563 Q1659.9219,332.6563 1659.7188,332.4531 Q1659.5156,332.2656 1659.4063,331.75 Q1659.3594,331.3906 1659.1719,331.2031 Q1658.8438,330.8281 1658.2344,330.6094 Q1657.625,330.3906 1657,330.3906 Q1656.2344,330.3906 1655.5938,330.7188 Q1654.9688,331.0469 1654.4688,331.7969 Q1653.9844,332.5469 1653.9844,333.5781 L1653.9844,334.6719 Q1653.9844,335.9063 1654.875,336.7344 Q1655.7656,337.5469 1657.3594,337.5469 Q1658.2969,337.5469 1658.9531,337.2969 Q1659.3438,337.1406 1659.7656,336.7031 Q1660.0313,336.4375 1660.1719,336.3594 Q1660.3281,336.2813 1660.5313,336.2813 Q1660.8594,336.2813 1661.1094,336.5469 Q1661.375,336.7969 1661.375,337.1406 Q1661.375,337.4844 1661.0313,337.8906 Q1660.5313,338.4688 1659.7344,338.7969 Q1658.6563,339.25 1657.3594,339.25 Q1655.8438,339.25 1654.6406,338.625 Q1653.6563,338.125 1652.9688,337.0625 Q1652.2813,335.9844 1652.2813,334.7031 L1652.2813,333.5469 Q1652.2813,332.2188 1652.8906,331.0781 Q1653.5156,329.9219 1654.6094,329.3125 Q1655.7031,328.6875 1656.9375,328.6875 Q1657.6719,328.6875 1658.3125,328.8594 Q1658.9688,329.0156 1659.5156,329.375 Z " fill="#000000"/><text fill="#000000" font-family="sans-serif" font-size="14" lengthAdjust="spacing" textLength="48" x="1677.25" y="339.2285">IconList</text><line style="stroke:#181818;stroke-width:0.5;" x1="1523.5" x2="1846.5" y1="349.5" y2="349.5"/><rect fill="none" height="6" style="stroke:#C82930;stroke-width:1.0;" width="6" x="1530.5" y="360.8047"/><text fill="#000000" font-family="sans-serif" font-size="14" lengthAdjust="spacing" text-decoration="underline" textLength="269" x="1542.5" y="368.0332">iconMap: HashMap&lt;EffectType,Resource&gt;</text><line style="stroke:#181818;stroke-width:0.5;" x1="1523.5" x2="1846.5" y1="375.1094" y2="375.1094"/><ellipse cx="1533.5" cy="389.4141" fill="#84BE84" rx="3" ry="3" style="stroke:#038048;stroke-width:1.0;"/><text fill="#000000" font-family="sans-serif" font-size="14" lengthAdjust="spacing" text-decoration="underline" textLength="299" x="1542.5" y="393.6426">getIconMap(): HashMap&lt;EffectType,Resource&gt;</text></g></a><!--class IconLoader--><a href="java:game.util.IconLoader" target="_top" title="java:game.util.IconLoader" xlink:actuate="onRequest" xlink:href="java:game.util.IconLoader" xlink:show="new" xlink:title="java:game.util.IconLoader" xlink:type="simple"><g id="elem_IconLoader"><rect codeLine="63" fill="#F1F1F1" height="65.6094" id="IconLoader" rx="2.5" ry="2.5" style="stroke:#181818;stroke-width:0.5;" width="338" x="1516" y="59.5"/><ellipse cx="1645.25" cy="75.5" fill="#ADD1B2" rx="11" ry="11" style="stroke:#181818;stroke-width:1.0;"/><path d="M1648.0156,71.375 Q1648.1719,71.1563 1648.3594,71.0469 Q1648.5469,70.9375 1648.7656,70.9375 Q1649.1406,70.9375 1649.375,71.2031 Q1649.6094,71.4531 1649.6094,72.0625 L1649.6094,73.5156 Q1649.6094,74.125 1649.375,74.3906 Q1649.1406,74.6563 1648.7656,74.6563 Q1648.4219,74.6563 1648.2188,74.4531 Q1648.0156,74.2656 1647.9063,73.75 Q1647.8594,73.3906 1647.6719,73.2031 Q1647.3438,72.8281 1646.7344,72.6094 Q1646.125,72.3906 1645.5,72.3906 Q1644.7344,72.3906 1644.0938,72.7188 Q1643.4688,73.0469 1642.9688,73.7969 Q1642.4844,74.5469 1642.4844,75.5781 L1642.4844,76.6719 Q1642.4844,77.9063 1643.375,78.7344 Q1644.2656,79.5469 1645.8594,79.5469 Q1646.7969,79.5469 1647.4531,79.2969 Q1647.8438,79.1406 1648.2656,78.7031 Q1648.5313,78.4375 1648.6719,78.3594 Q1648.8281,78.2813 1649.0313,78.2813 Q1649.3594,78.2813 1649.6094,78.5469 Q1649.875,78.7969 1649.875,79.1406 Q1649.875,79.4844 1649.5313,79.8906 Q1649.0313,80.4688 1648.2344,80.7969 Q1647.1563,81.25 1645.8594,81.25 Q1644.3438,81.25 1643.1406,80.625 Q1642.1563,80.125 1641.4688,79.0625 Q1640.7813,77.9844 1640.7813,76.7031 L1640.7813,75.5469 Q1640.7813,74.2188 1641.3906,73.0781 Q1642.0156,71.9219 1643.1094,71.3125 Q1644.2031,70.6875 1645.4375,70.6875 Q1646.1719,70.6875 1646.8125,70.8594 Q1647.4688,71.0156 1648.0156,71.375 Z " fill="#000000"/><text fill="#000000" font-family="sans-serif" font-size="14" lengthAdjust="spacing" textLength="71" x="1665.75" y="81.2285">IconLoader</text><line style="stroke:#181818;stroke-width:0.5;" x1="1517" x2="1853" y1="91.5" y2="91.5"/><line style="stroke:#181818;stroke-width:0.5;" x1="1517" x2="1853" y1="99.5" y2="99.5"/><ellipse cx="1527" cy="113.8047" fill="#84BE84" rx="3" ry="3" style="stroke:#038048;stroke-width:1.0;"/><text fill="#000000" font-family="sans-serif" font-size="14" lengthAdjust="spacing" text-decoration="underline" textLength="312" x="1536" y="118.0332">newIcon(type: EffectType, amount: int): EffectIcon</text></g></a><!--class Resource--><a href="java:game.util.Resource" target="_top" title="java:game.util.Resource" xlink:actuate="onRequest" xlink:href="java:game.util.Resource" xlink:show="new" xlink:title="java:game.util.Resource" xlink:type="simple"><g id="elem_Resource"><rect codeLine="66" fill="#F1F1F1" height="136.0469" id="Resource" rx="2.5" ry="2.5" style="stroke:#181818;stroke-width:0.5;" width="338" x="1516" y="619.5"/><ellipse cx="1650.25" cy="635.5" fill="#ADD1B2" rx="11" ry="11" style="stroke:#181818;stroke-width:1.0;"/><path d="M1653.0156,631.375 Q1653.1719,631.1563 1653.3594,631.0469 Q1653.5469,630.9375 1653.7656,630.9375 Q1654.1406,630.9375 1654.375,631.2031 Q1654.6094,631.4531 1654.6094,632.0625 L1654.6094,633.5156 Q1654.6094,634.125 1654.375,634.3906 Q1654.1406,634.6563 1653.7656,634.6563 Q1653.4219,634.6563 1653.2188,634.4531 Q1653.0156,634.2656 1652.9063,633.75 Q1652.8594,633.3906 1652.6719,633.2031 Q1652.3438,632.8281 1651.7344,632.6094 Q1651.125,632.3906 1650.5,632.3906 Q1649.7344,632.3906 1649.0938,632.7188 Q1648.4688,633.0469 1647.9688,633.7969 Q1647.4844,634.5469 1647.4844,635.5781 L1647.4844,636.6719 Q1647.4844,637.9063 1648.375,638.7344 Q1649.2656,639.5469 1650.8594,639.5469 Q1651.7969,639.5469 1652.4531,639.2969 Q1652.8438,639.1406 1653.2656,638.7031 Q1653.5313,638.4375 1653.6719,638.3594 Q1653.8281,638.2813 1654.0313,638.2813 Q1654.3594,638.2813 1654.6094,638.5469 Q1654.875,638.7969 1654.875,639.1406 Q1654.875,639.4844 1654.5313,639.8906 Q1654.0313,640.4688 1653.2344,640.7969 Q1652.1563,641.25 1650.8594,641.25 Q1649.3438,641.25 1648.1406,640.625 Q1647.1563,640.125 1646.4688,639.0625 Q1645.7813,637.9844 1645.7813,636.7031 L1645.7813,635.5469 Q1645.7813,634.2188 1646.3906,633.0781 Q1647.0156,631.9219 1648.1094,631.3125 Q1649.2031,630.6875 1650.4375,630.6875 Q1651.1719,630.6875 1651.8125,630.8594 Q1652.4688,631.0156 1653.0156,631.375 Z " fill="#000000"/><text fill="#000000" font-family="sans-serif" font-size="14" lengthAdjust="spacing" textLength="61" x="1670.75" y="641.2285">Resource</text><line style="stroke:#181818;stroke-width:0.5;" x1="1517" x2="1853" y1="651.5" y2="651.5"/><rect fill="none" height="6" style="stroke:#C82930;stroke-width:1.0;" width="6" x="1524" y="662.8047"/><text fill="#000000" font-family="sans-serif" font-size="14" lengthAdjust="spacing" textLength="73" x="1536" y="670.0332">path: String</text><rect fill="none" height="6" style="stroke:#C82930;stroke-width:1.0;" width="6" x="1524" y="680.4141"/><text fill="#000000" font-family="sans-serif" font-size="14" lengthAdjust="spacing" textLength="84" x="1536" y="687.6426">image: Image</text><line style="stroke:#181818;stroke-width:0.5;" x1="1517" x2="1853" y1="694.7188" y2="694.7188"/><ellipse cx="1527" cy="709.0234" fill="#84BE84" rx="3" ry="3" style="stroke:#038048;stroke-width:1.0;"/><text fill="#000000" font-family="sans-serif" font-size="14" lengthAdjust="spacing" textLength="144" x="1536" y="713.252">Resource(path: String)</text><ellipse cx="1527" cy="726.6328" fill="#84BE84" rx="3" ry="3" style="stroke:#038048;stroke-width:1.0;"/><text fill="#000000" font-family="sans-serif" font-size="14" lengthAdjust="spacing" textLength="312" x="1536" y="730.8613">newIcon(type: EffectType, amount: int): EffectIcon</text><rect fill="#F24D5C" height="6" style="stroke:#C82930;stroke-width:1.0;" width="6" x="1524" y="741.2422"/><text fill="#000000" font-family="sans-serif" font-size="14" lengthAdjust="spacing" textLength="114" x="1536" y="748.4707">getImage(): Image</text></g></a><!--class Position--><a href="java:game.util.Position" target="_top" title="java:game.util.Position" xlink:actuate="onRequest" xlink:href="java:game.util.Position" xlink:show="new" xlink:title="java:game.util.Position" xlink:type="simple"><g id="elem_Position"><rect codeLine="74" fill="#F1F1F1" height="171.2656" id="Position" rx="2.5" ry="2.5" style="stroke:#181818;stroke-width:0.5;" width="153" x="794.5" y="273.5"/><ellipse cx="841.75" cy="289.5" fill="#ADD1B2" rx="11" ry="11" style="stroke:#181818;stroke-width:1.0;"/><path d="M844.5156,285.375 Q844.6719,285.1563 844.8594,285.0469 Q845.0469,284.9375 845.2656,284.9375 Q845.6406,284.9375 845.875,285.2031 Q846.1094,285.4531 846.1094,286.0625 L846.1094,287.5156 Q846.1094,288.125 845.875,288.3906 Q845.6406,288.6563 845.2656,288.6563 Q844.9219,288.6563 844.7188,288.4531 Q844.5156,288.2656 844.4063,287.75 Q844.3594,287.3906 844.1719,287.2031 Q843.8438,286.8281 843.2344,286.6094 Q842.625,286.3906 842,286.3906 Q841.2344,286.3906 840.5938,286.7188 Q839.9688,287.0469 839.4688,287.7969 Q838.9844,288.5469 838.9844,289.5781 L838.9844,290.6719 Q838.9844,291.9063 839.875,292.7344 Q840.7656,293.5469 842.3594,293.5469 Q843.2969,293.5469 843.9531,293.2969 Q844.3438,293.1406 844.7656,292.7031 Q845.0313,292.4375 845.1719,292.3594 Q845.3281,292.2813 845.5313,292.2813 Q845.8594,292.2813 846.1094,292.5469 Q846.375,292.7969 846.375,293.1406 Q846.375,293.4844 846.0313,293.8906 Q845.5313,294.4688 844.7344,294.7969 Q843.6563,295.25 842.3594,295.25 Q840.8438,295.25 839.6406,294.625 Q838.6563,294.125 837.9688,293.0625 Q837.2813,291.9844 837.2813,290.7031 L837.2813,289.5469 Q837.2813,288.2188 837.8906,287.0781 Q838.5156,285.9219 839.6094,285.3125 Q840.7031,284.6875 841.9375,284.6875 Q842.6719,284.6875 843.3125,284.8594 Q843.9688,285.0156 844.5156,285.375 Z " fill="#000000"/><text fill="#000000" font-family="sans-serif" font-size="14" lengthAdjust="spacing" textLength="50" x="862.25" y="295.2285">Position</text><line style="stroke:#181818;stroke-width:0.5;" x1="795.5" x2="946.5" y1="305.5" y2="305.5"/><rect fill="none" height="6" style="stroke:#C82930;stroke-width:1.0;" width="6" x="802.5" y="316.8047"/><text fill="#000000" font-family="sans-serif" font-size="14" lengthAdjust="spacing" textLength="29" x="814.5" y="324.0332">x: int</text><rect fill="none" height="6" style="stroke:#C82930;stroke-width:1.0;" width="6" x="802.5" y="334.4141"/><text fill="#000000" font-family="sans-serif" font-size="14" lengthAdjust="spacing" textLength="30" x="814.5" y="341.6426">y: int</text><line style="stroke:#181818;stroke-width:0.5;" x1="795.5" x2="946.5" y1="348.7188" y2="348.7188"/><ellipse cx="805.5" cy="363.0234" fill="#84BE84" rx="3" ry="3" style="stroke:#038048;stroke-width:1.0;"/><text fill="#000000" font-family="sans-serif" font-size="14" lengthAdjust="spacing" textLength="127" x="814.5" y="367.252">Position(x: int, y: int)</text><ellipse cx="805.5" cy="380.6328" fill="#84BE84" rx="3" ry="3" style="stroke:#038048;stroke-width:1.0;"/><text fill="#000000" font-family="sans-serif" font-size="14" lengthAdjust="spacing" textLength="61" x="814.5" y="384.8613">getX(): int</text><ellipse cx="805.5" cy="398.2422" fill="#84BE84" rx="3" ry="3" style="stroke:#038048;stroke-width:1.0;"/><text fill="#000000" font-family="sans-serif" font-size="14" lengthAdjust="spacing" textLength="62" x="814.5" y="402.4707">getY(): int</text><ellipse cx="805.5" cy="415.8516" fill="#84BE84" rx="3" ry="3" style="stroke:#038048;stroke-width:1.0;"/><text fill="#000000" font-family="sans-serif" font-size="14" lengthAdjust="spacing" textLength="100" x="814.5" y="420.0801">setX(x: int): void</text><ellipse cx="805.5" cy="433.4609" fill="#84BE84" rx="3" ry="3" style="stroke:#038048;stroke-width:1.0;"/><text fill="#000000" font-family="sans-serif" font-size="14" lengthAdjust="spacing" textLength="102" x="814.5" y="437.6895">setY(y: int): void</text></g></a><!--class GameDialog--><a href="java:game.dialog.GameDialog" target="_top" title="java:game.dialog.GameDialog" xlink:actuate="onRequest" xlink:href="java:game.dialog.GameDialog" xlink:show="new" xlink:title="java:game.dialog.GameDialog" xlink:type="simple"><g id="elem_GameDialog"><rect codeLine="83" fill="#F1F1F1" height="206.4844" id="GameDialog" rx="2.5" ry="2.5" style="stroke:#181818;stroke-width:0.5;" width="621" x="138.5" y="256"/><ellipse cx="405.75" cy="272" fill="#ADD1B2" rx="11" ry="11" style="stroke:#181818;stroke-width:1.0;"/><path d="M408.5156,267.875 Q408.6719,267.6563 408.8594,267.5469 Q409.0469,267.4375 409.2656,267.4375 Q409.6406,267.4375 409.875,267.7031 Q410.1094,267.9531 410.1094,268.5625 L410.1094,270.0156 Q410.1094,270.625 409.875,270.8906 Q409.6406,271.1563 409.2656,271.1563 Q408.9219,271.1563 408.7188,270.9531 Q408.5156,270.7656 408.4063,270.25 Q408.3594,269.8906 408.1719,269.7031 Q407.8438,269.3281 407.2344,269.1094 Q406.625,268.8906 406,268.8906 Q405.2344,268.8906 404.5938,269.2188 Q403.9688,269.5469 403.4688,270.2969 Q402.9844,271.0469 402.9844,272.0781 L402.9844,273.1719 Q402.9844,274.4063 403.875,275.2344 Q404.7656,276.0469 406.3594,276.0469 Q407.2969,276.0469 407.9531,275.7969 Q408.3438,275.6406 408.7656,275.2031 Q409.0313,274.9375 409.1719,274.8594 Q409.3281,274.7813 409.5313,274.7813 Q409.8594,274.7813 410.1094,275.0469 Q410.375,275.2969 410.375,275.6406 Q410.375,275.9844 410.0313,276.3906 Q409.5313,276.9688 408.7344,277.2969 Q407.6563,277.75 406.3594,277.75 Q404.8438,277.75 403.6406,277.125 Q402.6563,276.625 401.9688,275.5625 Q401.2813,274.4844 401.2813,273.2031 L401.2813,272.0469 Q401.2813,270.7188 401.8906,269.5781 Q402.5156,268.4219 403.6094,267.8125 Q404.7031,267.1875 405.9375,267.1875 Q406.6719,267.1875 407.3125,267.3594 Q407.9688,267.5156 408.5156,267.875 Z " fill="#000000"/><text fill="#000000" font-family="sans-serif" font-size="14" lengthAdjust="spacing" textLength="78" x="426.25" y="277.7285">GameDialog</text><line style="stroke:#181818;stroke-width:0.5;" x1="139.5" x2="758.5" y1="288" y2="288"/><rect fill="none" height="6" style="stroke:#C82930;stroke-width:1.0;" width="6" x="146.5" y="299.3047"/><text fill="#000000" font-family="sans-serif" font-size="14" lengthAdjust="spacing" text-decoration="underline" textLength="120" x="158.5" y="306.5332">frameImage: Image</text><rect fill="none" height="6" style="stroke:#C82930;stroke-width:1.0;" width="6" x="146.5" y="316.9141"/><text fill="#000000" font-family="sans-serif" font-size="14" lengthAdjust="spacing" textLength="100" x="158.5" y="324.1426">dialogText: Text</text><rect fill="none" height="6" style="stroke:#C82930;stroke-width:1.0;" width="6" x="146.5" y="334.5234"/><text fill="#000000" font-family="sans-serif" font-size="14" lengthAdjust="spacing" textLength="102" x="158.5" y="341.752">optionBox: VBox</text><line style="stroke:#181818;stroke-width:0.5;" x1="139.5" x2="758.5" y1="348.8281" y2="348.8281"/><ellipse cx="149.5" cy="363.1328" fill="#84BE84" rx="3" ry="3" style="stroke:#038048;stroke-width:1.0;"/><text fill="#000000" font-family="sans-serif" font-size="14" lengthAdjust="spacing" textLength="155" x="158.5" y="367.3613">GameDialog(title: String)</text><ellipse cx="149.5" cy="380.7422" fill="#84BE84" rx="3" ry="3" style="stroke:#038048;stroke-width:1.0;"/><text fill="#000000" font-family="sans-serif" font-size="14" lengthAdjust="spacing" textLength="157" x="158.5" y="384.9707">setText(text: String): void</text><ellipse cx="149.5" cy="398.3516" fill="#84BE84" rx="3" ry="3" style="stroke:#038048;stroke-width:1.0;"/><text fill="#000000" font-family="sans-serif" font-size="14" lengthAdjust="spacing" textLength="595" x="158.5" y="402.5801">addOption(textStr: String, onMouseClickedHandler: EventHandler&lt;? super MouseEvent&gt;): void</text><ellipse cx="149.5" cy="415.9609" fill="#84BE84" rx="3" ry="3" style="stroke:#038048;stroke-width:1.0;"/><text fill="#000000" font-family="sans-serif" font-size="14" lengthAdjust="spacing" textLength="76" x="158.5" y="420.1895">show(): void</text><ellipse cx="149.5" cy="433.5703" fill="#84BE84" rx="3" ry="3" style="stroke:#038048;stroke-width:1.0;"/><text fill="#000000" font-family="sans-serif" font-size="14" lengthAdjust="spacing" textLength="71" x="158.5" y="437.7988">hide(): void</text><rect fill="#F24D5C" height="6" style="stroke:#C82930;stroke-width:1.0;" width="6" x="146.5" y="448.1797"/><text fill="#000000" font-family="sans-serif" font-size="14" lengthAdjust="spacing" text-decoration="underline" textLength="155" x="158.5" y="455.4082">getFrameImage(): Image</text></g></a><!--class VBox--><g id="elem_VBox"><rect fill="#F1F1F1" height="48" id="VBox" rx="2.5" ry="2.5" style="stroke:#181818;stroke-width:0.5;" width="64" x="1347" y="68.5"/><ellipse cx="1362" cy="84.5" fill="#ADD1B2" rx="11" ry="11" style="stroke:#181818;stroke-width:1.0;"/><path d="M1364.7656,80.375 Q1364.9219,80.1563 1365.1094,80.0469 Q1365.2969,79.9375 1365.5156,79.9375 Q1365.8906,79.9375 1366.125,80.2031 Q1366.3594,80.4531 1366.3594,81.0625 L1366.3594,82.5156 Q1366.3594,83.125 1366.125,83.3906 Q1365.8906,83.6563 1365.5156,83.6563 Q1365.1719,83.6563 1364.9688,83.4531 Q1364.7656,83.2656 1364.6563,82.75 Q1364.6094,82.3906 1364.4219,82.2031 Q1364.0938,81.8281 1363.4844,81.6094 Q1362.875,81.3906 1362.25,81.3906 Q1361.4844,81.3906 1360.8438,81.7188 Q1360.2188,82.0469 1359.7188,82.7969 Q1359.2344,83.5469 1359.2344,84.5781 L1359.2344,85.6719 Q1359.2344,86.9063 1360.125,87.7344 Q1361.0156,88.5469 1362.6094,88.5469 Q1363.5469,88.5469 1364.2031,88.2969 Q1364.5938,88.1406 1365.0156,87.7031 Q1365.2813,87.4375 1365.4219,87.3594 Q1365.5781,87.2813 1365.7813,87.2813 Q1366.1094,87.2813 1366.3594,87.5469 Q1366.625,87.7969 1366.625,88.1406 Q1366.625,88.4844 1366.2813,88.8906 Q1365.7813,89.4688 1364.9844,89.7969 Q1363.9063,90.25 1362.6094,90.25 Q1361.0938,90.25 1359.8906,89.625 Q1358.9063,89.125 1358.2188,88.0625 Q1357.5313,86.9844 1357.5313,85.7031 L1357.5313,84.5469 Q1357.5313,83.2188 1358.1406,82.0781 Q1358.7656,80.9219 1359.8594,80.3125 Q1360.9531,79.6875 1362.1875,79.6875 Q1362.9219,79.6875 1363.5625,79.8594 Q1364.2188,80.0156 1364.7656,80.375 Z " fill="#000000"/><text fill="#000000" font-family="sans-serif" font-size="14" lengthAdjust="spacing" textLength="32" x="1376" y="90.2285">VBox</text><line style="stroke:#181818;stroke-width:0.5;" x1="1348" x2="1410" y1="100.5" y2="100.5"/><line style="stroke:#181818;stroke-width:0.5;" x1="1348" x2="1410" y1="108.5" y2="108.5"/></g><!--class BorderPane--><g id="elem_BorderPane"><rect fill="#F1F1F1" height="48" id="BorderPane" rx="2.5" ry="2.5" style="stroke:#181818;stroke-width:0.5;" width="108" x="395" y="68.5"/><ellipse cx="410" cy="84.5" fill="#ADD1B2" rx="11" ry="11" style="stroke:#181818;stroke-width:1.0;"/><path d="M412.7656,80.375 Q412.9219,80.1563 413.1094,80.0469 Q413.2969,79.9375 413.5156,79.9375 Q413.8906,79.9375 414.125,80.2031 Q414.3594,80.4531 414.3594,81.0625 L414.3594,82.5156 Q414.3594,83.125 414.125,83.3906 Q413.8906,83.6563 413.5156,83.6563 Q413.1719,83.6563 412.9688,83.4531 Q412.7656,83.2656 412.6563,82.75 Q412.6094,82.3906 412.4219,82.2031 Q412.0938,81.8281 411.4844,81.6094 Q410.875,81.3906 410.25,81.3906 Q409.4844,81.3906 408.8438,81.7188 Q408.2188,82.0469 407.7188,82.7969 Q407.2344,83.5469 407.2344,84.5781 L407.2344,85.6719 Q407.2344,86.9063 408.125,87.7344 Q409.0156,88.5469 410.6094,88.5469 Q411.5469,88.5469 412.2031,88.2969 Q412.5938,88.1406 413.0156,87.7031 Q413.2813,87.4375 413.4219,87.3594 Q413.5781,87.2813 413.7813,87.2813 Q414.1094,87.2813 414.3594,87.5469 Q414.625,87.7969 414.625,88.1406 Q414.625,88.4844 414.2813,88.8906 Q413.7813,89.4688 412.9844,89.7969 Q411.9063,90.25 410.6094,90.25 Q409.0938,90.25 407.8906,89.625 Q406.9063,89.125 406.2188,88.0625 Q405.5313,86.9844 405.5313,85.7031 L405.5313,84.5469 Q405.5313,83.2188 406.1406,82.0781 Q406.7656,80.9219 407.8594,80.3125 Q408.9531,79.6875 410.1875,79.6875 Q410.9219,79.6875 411.5625,79.8594 Q412.2188,80.0156 412.7656,80.375 Z " fill="#000000"/><text fill="#000000" font-family="sans-serif" font-size="14" lengthAdjust="spacing" textLength="76" x="424" y="90.2285">BorderPane</text><line style="stroke:#181818;stroke-width:0.5;" x1="396" x2="502" y1="100.5" y2="100.5"/><line style="stroke:#181818;stroke-width:0.5;" x1="396" x2="502" y1="108.5" y2="108.5"/></g><!--reverse link VBox to EffectIcon--><g id="link_VBox_EffectIcon"><path codeLine="95" d="M1379,134.51 C1379,165.55 1379,204.85 1379,255.84 " fill="none" id="VBox-backto-EffectIcon" style="stroke:#181818;stroke-width:1.0;"/><polygon fill="none" points="1379,116.51,1373,134.51,1385,134.51,1379,116.51" style="stroke:#181818;stroke-width:1.0;"/></g><!--reverse link BorderPane to GameDialog--><g id="link_BorderPane_GameDialog"><path codeLine="96" d="M449,134.51 C449,165.55 449,204.85 449,255.84 " fill="none" id="BorderPane-backto-GameDialog" style="stroke:#181818;stroke-width:1.0;"/><polygon fill="none" points="449,116.51,443,134.51,455,134.51,449,116.51" style="stroke:#181818;stroke-width:1.0;"/></g><!--link Effect to EffectType--><g id="link_Effect_EffectType"><path codeLine="97" d="M1106.29,436.33 C1107.48,460.44 1110.96,486.82 1119,510 C1134.34,554.23 1160.152,592.9867 1186.212,625.7067 " fill="none" id="Effect-to-EffectType" style="stroke:#181818;stroke-width:1.0;"/><polygon fill="#181818" points="1189.95,630.4,1187.4719,620.868,1186.835,626.4889,1181.2141,625.852,1189.95,630.4" style="stroke:#181818;stroke-width:1.0;"/><text fill="#000000" font-family="sans-serif" font-size="13" lengthAdjust="spacing" textLength="25" x="1120" y="506.4951">type</text><text fill="#000000" font-family="sans-serif" font-size="13" lengthAdjust="spacing" textLength="7" x="1175.0848" y="618.3938">1</text></g><!--link Effect to EffectType--><g id="link_Effect_EffectType"><path codeLine="98" d="M1139.55,436.14 C1154.52,473.45 1170.6953,513.7717 1187.6553,556.0317 " fill="none" id="Effect-to-EffectType-1" style="stroke:#181818;stroke-width:1.0;"/><polygon fill="#181818" points="1189.89,561.6,1190.2502,551.7577,1188.0277,556.9597,1182.8257,554.7373,1189.89,561.6" style="stroke:#181818;stroke-width:1.0;"/><text fill="#000000" font-family="sans-serif" font-size="13" lengthAdjust="spacing" textLength="54" x="1167" y="506.4951">getType()</text><text fill="#000000" font-family="sans-serif" font-size="13" lengthAdjust="spacing" textLength="7" x="1175.016" y="539.4888">1</text></g><!--link EffectIcon to EffectType--><g id="link_EffectIcon_EffectType"><path codeLine="99" d="M1304.41,462.1 C1298.74,471.96 1293.49,482.01 1289,492 C1282.18,507.16 1278.0158,517.7213 1272.7958,534.1613 " fill="none" id="EffectIcon-to-EffectType" style="stroke:#181818;stroke-width:1.0;"/><polygon fill="#181818" points="1270.98,539.88,1277.5161,532.5125,1272.4931,535.1145,1269.8912,530.0915,1270.98,539.88" style="stroke:#181818;stroke-width:1.0;"/><text fill="#000000" font-family="sans-serif" font-size="13" lengthAdjust="spacing" textLength="25" x="1290" y="506.4951">type</text><text fill="#000000" font-family="sans-serif" font-size="13" lengthAdjust="spacing" textLength="7" x="1265.3969" y="529.3721">1</text></g><!--link EffectIcon to EffectType--><g id="link_EffectIcon_EffectType"><path codeLine="100" d="M1339.54,462.35 C1333.14,478.36 1326.49,494.67 1320,510 C1310.63,532.15 1302.7106,550.2277 1292.6206,572.6677 " fill="none" id="EffectIcon-to-EffectType-1" style="stroke:#181818;stroke-width:1.0;"/><polygon fill="#181818" points="1290.16,578.14,1297.499,571.572,1292.2105,573.5798,1290.2027,568.2912,1290.16,578.14" style="stroke:#181818;stroke-width:1.0;"/><text fill="#000000" font-family="sans-serif" font-size="13" lengthAdjust="spacing" textLength="54" x="1327" y="506.4951">getType()</text><text fill="#000000" font-family="sans-serif" font-size="13" lengthAdjust="spacing" textLength="7" x="1298.0413" y="558.4581">1</text></g><!--link IconLoader to IconList--><g id="link_IconLoader_IconList"><path codeLine="102" d="M1685,125.67 C1685,173.85 1685,258.73 1685,311.41 " fill="none" id="IconLoader-to-IconList" style="stroke:#181818;stroke-width:1.0;"/><polygon fill="#181818" points="1685,317.41,1689,308.41,1685,312.41,1681,308.41,1685,317.41" style="stroke:#181818;stroke-width:1.0;"/><text fill="#000000" font-family="sans-serif" font-size="13" lengthAdjust="spacing" textLength="24" x="1686" y="222.4951">icon</text><text fill="#000000" font-family="sans-serif" font-size="13" lengthAdjust="spacing" textLength="7" x="1677.4203" y="306.7028">1</text></g><!--link IconList to Resource--><g id="link_IconList_Resource"><path codeLine="103" d="M1685,400.69 C1685,455.48 1685,547.67 1685,613.45 " fill="none" id="IconList-to-Resource" style="stroke:#181818;stroke-width:1.0;"/><polygon fill="#181818" points="1685,619.45,1689,610.45,1685,614.45,1681,610.45,1685,619.45" style="stroke:#181818;stroke-width:1.0;"/><text fill="#000000" font-family="sans-serif" font-size="13" lengthAdjust="spacing" textLength="50" x="1686" y="506.4951">resource</text><text fill="#000000" font-family="sans-serif" font-size="13" lengthAdjust="spacing" textLength="7" x="1677.6172" y="608.6438">1</text></g><!--SRC=[dLLjRzem4FwUNs7jKz18fNsDgaufX10D4XG2QbTLaqSCP8CO9QOlwlhVTsVinE6ba_R1mRxdNfuxtnbMxBTap7-cEIl9myCl-aJT5Tsogxt8DrSAU7maRnOXFgm-h1wiMrWUh2dAxwntYw6ZKB1jmWKLEIzElPceSZdtapJiUIFO3kCa_1v7gJpqGo-88s_qO-GFKlESXC4mDSET9wuH5QONZyTn19jPL6yJBy64_4c8-Opym8_wNd8F-o3kwmZ-SiaM8dtTiTCO3QQY34BfSHA7KnbXciwYoCUAzRsn5o2MGfOI6eR-I29nNm9pRpm94qbbEaE6Ve8LZWBvE_HbLNoG1iWmGRR8UjRx1bGN6rfLYkibdegZGxTyNmYNv8M0u-S3Q1lIBX6Gackata755HEULB8xjN5LomnxW9zudYaSxUqJXutAwg0I0LjqF1LbNgoEKWeNvxgfmNHgEUnT4cxfYirpzemYmLw0LGfVF2rfna9G6S1lMjAYoh4LcpAWC_jIzXBijFrZXb9-5FeeGGYFbeg6B0kATD7mqBOOIA9eSqHL5mQ3ZlBgp6rhH1VbhSA1MxmJf3YcEvSCQRM6pNMJOZTX5T-N2tQ3yMiBbJJe8fCFpLgyE70kBp2JcEBMH2hOyzdQTqcxiPfhgYDg3gVnDA8hiQDYNNSOjWlUbheqPAFrRLDHtlv_q0F_M3xqNJSDS1OSf6kepfkYF-67cpsbhn5D_qMFdVDQ3w3MiL_Kw1uWtR9tngp2yRuzkdVAgZsmz_PhIwhh702nVautVDMYcadHLOEUzDso12nirzevcAMjwUGxJEMM0wivV95FuzOMkTYmrgteCJhCk0AQN6YMnTAZL01OwtG9z3JVLwotoHU_MJQaHRPX0FjFh13gTFsLLFiTN9JKbCYDMQWrVxQDyphFc75sp1aQr0KmE-7TmYJ9zH_7CVlcbfSm81DQi0FKLC1IxxlZt91FNpwPVqskVB8_L53lhDsnZ3VrNwukApNkB6FajQf-Wrpvw5ZrOwLnFMakATNkBm00]--></g></svg>