<?xml version="1.0" encoding="us-ascii" standalone="no"?><svg xmlns="http://www.w3.org/2000/svg" xmlns:xlink="http://www.w3.org/1999/xlink" contentStyleType="text/css" height="1074px" preserveAspectRatio="none" style="width:1002px;height:1074px;background:#FFFFFF;" version="1.1" viewBox="0 0 1002 1074" width="1002px" zoomAndPan="magnify"><defs/><g><!--class Pane--><g id="elem_Pane"><rect codeLine="1" fill="#F1F1F1" height="48" id="Pane" rx="2.5" ry="2.5" style="stroke:#181818;stroke-width:0.5;" width="65" x="215.5" y="7"/><ellipse cx="230.5" cy="23" fill="#ADD1B2" rx="11" ry="11" style="stroke:#181818;stroke-width:1.0;"/><path d="M233.2656,18.875 Q233.4219,18.6563 233.6094,18.5469 Q233.7969,18.4375 234.0156,18.4375 Q234.3906,18.4375 234.625,18.7031 Q234.8594,18.9531 234.8594,19.5625 L234.8594,21.0156 Q234.8594,21.625 234.625,21.8906 Q234.3906,22.1563 234.0156,22.1563 Q233.6719,22.1563 233.4688,21.9531 Q233.2656,21.7656 233.1563,21.25 Q233.1094,20.8906 232.9219,20.7031 Q232.5938,20.3281 231.9844,20.1094 Q231.375,19.8906 230.75,19.8906 Q229.9844,19.8906 229.3438,20.2188 Q228.7188,20.5469 228.2188,21.2969 Q227.7344,22.0469 227.7344,23.0781 L227.7344,24.1719 Q227.7344,25.4063 228.625,26.2344 Q229.5156,27.0469 231.1094,27.0469 Q232.0469,27.0469 232.7031,26.7969 Q233.0938,26.6406 233.5156,26.2031 Q233.7813,25.9375 233.9219,25.8594 Q234.0781,25.7813 234.2813,25.7813 Q234.6094,25.7813 234.8594,26.0469 Q235.125,26.2969 235.125,26.6406 Q235.125,26.9844 234.7813,27.3906 Q234.2813,27.9688 233.4844,28.2969 Q232.4063,28.75 231.1094,28.75 Q229.5938,28.75 228.3906,28.125 Q227.4063,27.625 226.7188,26.5625 Q226.0313,25.4844 226.0313,24.2031 L226.0313,23.0469 Q226.0313,21.7188 226.6406,20.5781 Q227.2656,19.4219 228.3594,18.8125 Q229.4531,18.1875 230.6875,18.1875 Q231.4219,18.1875 232.0625,18.3594 Q232.7188,18.5156 233.2656,18.875 Z " fill="#000000"/><text fill="#000000" font-family="sans-serif" font-size="14" lengthAdjust="spacing" textLength="33" x="244.5" y="28.7285">Pane</text><line style="stroke:#181818;stroke-width:0.5;" x1="216.5" x2="279.5" y1="39" y2="39"/><line style="stroke:#181818;stroke-width:0.5;" x1="216.5" x2="279.5" y1="47" y2="47"/></g><!--class GridPane--><g id="elem_GridPane"><rect codeLine="2" fill="#F1F1F1" height="48" id="GridPane" rx="2.5" ry="2.5" style="stroke:#181818;stroke-width:0.5;" width="92" x="714" y="7"/><ellipse cx="729" cy="23" fill="#ADD1B2" rx="11" ry="11" style="stroke:#181818;stroke-width:1.0;"/><path d="M731.7656,18.875 Q731.9219,18.6563 732.1094,18.5469 Q732.2969,18.4375 732.5156,18.4375 Q732.8906,18.4375 733.125,18.7031 Q733.3594,18.9531 733.3594,19.5625 L733.3594,21.0156 Q733.3594,21.625 733.125,21.8906 Q732.8906,22.1563 732.5156,22.1563 Q732.1719,22.1563 731.9688,21.9531 Q731.7656,21.7656 731.6563,21.25 Q731.6094,20.8906 731.4219,20.7031 Q731.0938,20.3281 730.4844,20.1094 Q729.875,19.8906 729.25,19.8906 Q728.4844,19.8906 727.8438,20.2188 Q727.2188,20.5469 726.7188,21.2969 Q726.2344,22.0469 726.2344,23.0781 L726.2344,24.1719 Q726.2344,25.4063 727.125,26.2344 Q728.0156,27.0469 729.6094,27.0469 Q730.5469,27.0469 731.2031,26.7969 Q731.5938,26.6406 732.0156,26.2031 Q732.2813,25.9375 732.4219,25.8594 Q732.5781,25.7813 732.7813,25.7813 Q733.1094,25.7813 733.3594,26.0469 Q733.625,26.2969 733.625,26.6406 Q733.625,26.9844 733.2813,27.3906 Q732.7813,27.9688 731.9844,28.2969 Q730.9063,28.75 729.6094,28.75 Q728.0938,28.75 726.8906,28.125 Q725.9063,27.625 725.2188,26.5625 Q724.5313,25.4844 724.5313,24.2031 L724.5313,23.0469 Q724.5313,21.7188 725.1406,20.5781 Q725.7656,19.4219 726.8594,18.8125 Q727.9531,18.1875 729.1875,18.1875 Q729.9219,18.1875 730.5625,18.3594 Q731.2188,18.5156 731.7656,18.875 Z " fill="#000000"/><text fill="#000000" font-family="sans-serif" font-size="14" lengthAdjust="spacing" textLength="60" x="743" y="28.7285">GridPane</text><line style="stroke:#181818;stroke-width:0.5;" x1="715" x2="805" y1="39" y2="39"/><line style="stroke:#181818;stroke-width:0.5;" x1="715" x2="805" y1="47" y2="47"/></g><!--class MapMarker--><a href="java:game.map.MapMarker" target="_top" title="java:game.map.MapMarker" xlink:actuate="onRequest" xlink:href="java:game.map.MapMarker" xlink:show="new" xlink:title="java:game.map.MapMarker" xlink:type="simple"><g id="elem_MapMarker"><rect codeLine="3" fill="#F1F1F1" height="171.2656" id="MapMarker" rx="2.5" ry="2.5" style="stroke:#181818;stroke-width:0.5;" width="103" x="32.5" y="700"/><ellipse cx="47.5" cy="716" fill="#EB937F" rx="11" ry="11" style="stroke:#181818;stroke-width:1.0;"/><path d="M46.3594,716.7969 L46.3594,719.2969 L50.6875,719.2969 L50.6875,718.375 Q50.6875,717.7656 50.9219,717.5 Q51.1719,717.2344 51.5469,717.2344 Q51.9219,717.2344 52.1563,717.5 Q52.3906,717.7656 52.3906,718.375 L52.3906,721 L44.3906,721 Q43.7656,721 43.5,720.7656 Q43.25,720.5313 43.25,720.1406 Q43.25,719.7656 43.5156,719.5313 Q43.7813,719.2969 44.3906,719.2969 L44.6563,719.2969 L44.6563,712.6406 L44.3906,712.6406 Q43.7656,712.6406 43.5,712.4063 Q43.25,712.1719 43.25,711.7813 Q43.25,711.4063 43.5,711.1719 Q43.7656,710.9375 44.3906,710.9375 L52.0156,710.9375 L52.0156,713.5313 Q52.0156,714.1406 51.7813,714.4063 Q51.5625,714.6563 51.1719,714.6563 Q50.7969,714.6563 50.5625,714.4063 Q50.3281,714.1406 50.3281,713.5313 L50.3281,712.6406 L46.3594,712.6406 L46.3594,715.0938 L47.8438,715.0938 Q47.8438,714.4375 47.9688,714.25 Q48.2344,713.8438 48.7031,713.8438 Q49.0781,713.8438 49.3125,714.1094 Q49.5469,714.3594 49.5469,714.9688 L49.5469,716.9375 Q49.5469,717.4844 49.4219,717.6719 Q49.1563,718.0625 48.7031,718.0625 Q48.2344,718.0625 47.9688,717.6563 Q47.8438,717.4688 47.8438,716.7969 L46.3594,716.7969 Z " fill="#000000"/><text fill="#000000" font-family="sans-serif" font-size="14" lengthAdjust="spacing" textLength="71" x="61.5" y="721.7285">MapMarker</text><line style="stroke:#181818;stroke-width:0.5;" x1="33.5" x2="134.5" y1="732" y2="732"/><text fill="#000000" font-family="sans-serif" font-size="14" lengthAdjust="spacing" textLength="66" x="38.5" y="750.5332">MYSTERY</text><text fill="#000000" font-family="sans-serif" font-size="14" lengthAdjust="spacing" textLength="42" x="38.5" y="768.1426">DOOR</text><text fill="#000000" font-family="sans-serif" font-size="14" lengthAdjust="spacing" textLength="68" x="38.5" y="785.752">MONSTER</text><text fill="#000000" font-family="sans-serif" font-size="14" lengthAdjust="spacing" textLength="36" x="38.5" y="803.3613">PATH</text><text fill="#000000" font-family="sans-serif" font-size="14" lengthAdjust="spacing" textLength="54" x="38.5" y="820.9707">PLAYER</text><text fill="#000000" font-family="sans-serif" font-size="14" lengthAdjust="spacing" textLength="61" x="38.5" y="838.5801">DOCTOR</text><text fill="#000000" font-family="sans-serif" font-size="14" lengthAdjust="spacing" textLength="38" x="38.5" y="856.1895">FINAL</text><line style="stroke:#181818;stroke-width:0.5;" x1="33.5" x2="134.5" y1="863.2656" y2="863.2656"/></g></a><!--class Map--><a href="java:game.map.Map" target="_top" title="java:game.map.Map" xlink:actuate="onRequest" xlink:href="java:game.map.Map" xlink:show="new" xlink:title="java:game.map.Map" xlink:type="simple"><g id="elem_Map"><rect codeLine="12" fill="#F1F1F1" height="505.8438" id="Map" rx="2.5" ry="2.5" style="stroke:#181818;stroke-width:0.5;" width="471" x="524.5" y="116"/><ellipse cx="742.25" cy="132" fill="#ADD1B2" rx="11" ry="11" style="stroke:#181818;stroke-width:1.0;"/><path d="M745.0156,127.875 Q745.1719,127.6563 745.3594,127.5469 Q745.5469,127.4375 745.7656,127.4375 Q746.1406,127.4375 746.375,127.7031 Q746.6094,127.9531 746.6094,128.5625 L746.6094,130.0156 Q746.6094,130.625 746.375,130.8906 Q746.1406,131.1563 745.7656,131.1563 Q745.4219,131.1563 745.2188,130.9531 Q745.0156,130.7656 744.9063,130.25 Q744.8594,129.8906 744.6719,129.7031 Q744.3438,129.3281 743.7344,129.1094 Q743.125,128.8906 742.5,128.8906 Q741.7344,128.8906 741.0938,129.2188 Q740.4688,129.5469 739.9688,130.2969 Q739.4844,131.0469 739.4844,132.0781 L739.4844,133.1719 Q739.4844,134.4063 740.375,135.2344 Q741.2656,136.0469 742.8594,136.0469 Q743.7969,136.0469 744.4531,135.7969 Q744.8438,135.6406 745.2656,135.2031 Q745.5313,134.9375 745.6719,134.8594 Q745.8281,134.7813 746.0313,134.7813 Q746.3594,134.7813 746.6094,135.0469 Q746.875,135.2969 746.875,135.6406 Q746.875,135.9844 746.5313,136.3906 Q746.0313,136.9688 745.2344,137.2969 Q744.1563,137.75 742.8594,137.75 Q741.3438,137.75 740.1406,137.125 Q739.1563,136.625 738.4688,135.5625 Q737.7813,134.4844 737.7813,133.2031 L737.7813,132.0469 Q737.7813,130.7188 738.3906,129.5781 Q739.0156,128.4219 740.1094,127.8125 Q741.2031,127.1875 742.4375,127.1875 Q743.1719,127.1875 743.8125,127.3594 Q744.4688,127.5156 745.0156,127.875 Z " fill="#000000"/><text fill="#000000" font-family="sans-serif" font-size="14" lengthAdjust="spacing" textLength="27" x="762.75" y="137.7285">Map</text><line style="stroke:#181818;stroke-width:0.5;" x1="525.5" x2="994.5" y1="148" y2="148"/><rect fill="none" height="6" style="stroke:#C82930;stroke-width:1.0;" width="6" x="532.5" y="159.3047"/><text fill="#000000" font-family="sans-serif" font-size="14" lengthAdjust="spacing" text-decoration="underline" textLength="88" x="544.5" y="166.5332">instance: Map</text><rect fill="none" height="6" style="stroke:#C82930;stroke-width:1.0;" width="6" x="532.5" y="176.9141"/><text fill="#000000" font-family="sans-serif" font-size="14" lengthAdjust="spacing" textLength="55" x="544.5" y="184.1426">width: int</text><rect fill="none" height="6" style="stroke:#C82930;stroke-width:1.0;" width="6" x="532.5" y="194.5234"/><text fill="#000000" font-family="sans-serif" font-size="14" lengthAdjust="spacing" textLength="62" x="544.5" y="201.752">height: int</text><rect fill="none" height="6" style="stroke:#C82930;stroke-width:1.0;" width="6" x="532.5" y="212.1328"/><text fill="#000000" font-family="sans-serif" font-size="14" lengthAdjust="spacing" textLength="148" x="544.5" y="219.3613">squares: MapSquare[][]</text><rect fill="none" height="6" style="stroke:#C82930;stroke-width:1.0;" width="6" x="532.5" y="229.7422"/><text fill="#000000" font-family="sans-serif" font-size="14" lengthAdjust="spacing" textLength="168" x="544.5" y="236.9707">marks: ArrayList&lt;Position&gt;</text><rect fill="none" height="6" style="stroke:#C82930;stroke-width:1.0;" width="6" x="532.5" y="247.3516"/><text fill="#000000" font-family="sans-serif" font-size="14" lengthAdjust="spacing" textLength="103" x="544.5" y="254.5801">noHeal: boolean</text><line style="stroke:#181818;stroke-width:0.5;" x1="525.5" x2="994.5" y1="261.6563" y2="261.6563"/><ellipse cx="535.5" cy="275.9609" fill="#84BE84" rx="3" ry="3" style="stroke:#038048;stroke-width:1.0;"/><text fill="#000000" font-family="sans-serif" font-size="14" lengthAdjust="spacing" textLength="162" x="544.5" y="280.1895">Map(width: int, height: int)</text><rect fill="#F24D5C" height="6" style="stroke:#C82930;stroke-width:1.0;" width="6" x="532.5" y="290.5703"/><text fill="#000000" font-family="sans-serif" font-size="14" lengthAdjust="spacing" textLength="93" x="544.5" y="297.7988">initialize(): void</text><rect fill="#F24D5C" height="6" style="stroke:#C82930;stroke-width:1.0;" width="6" x="532.5" y="308.1797"/><text fill="#000000" font-family="sans-serif" font-size="14" lengthAdjust="spacing" textLength="323" x="544.5" y="315.4082">placeRandomMarker(marker: MapMarker): boolean</text><rect fill="#F24D5C" height="6" style="stroke:#C82930;stroke-width:1.0;" width="6" x="532.5" y="325.7891"/><text fill="#000000" font-family="sans-serif" font-size="14" lengthAdjust="spacing" textLength="105" x="544.5" y="333.0176">findRoute(): void</text><rect fill="#F24D5C" height="6" style="stroke:#C82930;stroke-width:1.0;" width="6" x="532.5" y="343.3984"/><text fill="#000000" font-family="sans-serif" font-size="14" lengthAdjust="spacing" textLength="309" x="544.5" y="350.627">isAdjacent(prev: Position, pos: Position): boolean</text><rect fill="#F24D5C" height="6" style="stroke:#C82930;stroke-width:1.0;" width="6" x="532.5" y="361.0078"/><text fill="#000000" font-family="sans-serif" font-size="14" lengthAdjust="spacing" textLength="279" x="544.5" y="368.2363">buildPath(start: Position, end: Position): void</text><rect fill="#F24D5C" height="6" style="stroke:#C82930;stroke-width:1.0;" width="6" x="532.5" y="378.6172"/><text fill="#000000" font-family="sans-serif" font-size="14" lengthAdjust="spacing" textLength="344" x="544.5" y="385.8457">randomHeading(start: Position, end: Position): Position</text><ellipse cx="535.5" cy="399.2266" fill="#84BE84" rx="3" ry="3" style="stroke:#038048;stroke-width:1.0;"/><text fill="#000000" font-family="sans-serif" font-size="14" lengthAdjust="spacing" textLength="311" x="544.5" y="403.4551">isReachable(targetSquare: MapSquare): boolean</text><rect fill="#F24D5C" height="6" style="stroke:#C82930;stroke-width:1.0;" width="6" x="532.5" y="413.8359"/><text fill="#000000" font-family="sans-serif" font-size="14" lengthAdjust="spacing" textLength="445" x="544.5" y="421.0645">recur(x: int, y: int, visited: boolean[][], targetPosition: Position): boolean</text><ellipse cx="535.5" cy="434.4453" fill="#84BE84" rx="3" ry="3" style="stroke:#038048;stroke-width:1.0;"/><text fill="#000000" font-family="sans-serif" font-size="14" lengthAdjust="spacing" textLength="86" x="544.5" y="438.6738">render(): void</text><ellipse cx="535.5" cy="452.0547" fill="#84BE84" rx="3" ry="3" style="stroke:#038048;stroke-width:1.0;"/><text fill="#000000" font-family="sans-serif" font-size="14" lengthAdjust="spacing" textLength="162" x="544.5" y="456.2832">removePlayerMark(): void</text><rect fill="#F24D5C" height="6" style="stroke:#C82930;stroke-width:1.0;" width="6" x="532.5" y="466.6641"/><text fill="#000000" font-family="sans-serif" font-size="14" lengthAdjust="spacing" textLength="128" x="544.5" y="473.8926">random(limit: int): int</text><ellipse cx="535.5" cy="487.2734" fill="#84BE84" rx="3" ry="3" style="stroke:#038048;stroke-width:1.0;"/><text fill="#000000" font-family="sans-serif" font-size="14" lengthAdjust="spacing" textLength="137" x="544.5" y="491.502">createNewMap(): void</text><ellipse cx="535.5" cy="504.8828" fill="#84BE84" rx="3" ry="3" style="stroke:#038048;stroke-width:1.0;"/><text fill="#000000" font-family="sans-serif" font-size="14" lengthAdjust="spacing" textLength="180" x="544.5" y="509.1113">getSquares(): MapSquare[][]</text><ellipse cx="535.5" cy="522.4922" fill="#84BE84" rx="3" ry="3" style="stroke:#038048;stroke-width:1.0;"/><text fill="#000000" font-family="sans-serif" font-size="14" lengthAdjust="spacing" text-decoration="underline" textLength="118" x="544.5" y="526.7207">getInstance(): Map</text><ellipse cx="535.5" cy="540.1016" fill="#84BE84" rx="3" ry="3" style="stroke:#038048;stroke-width:1.0;"/><text fill="#000000" font-family="sans-serif" font-size="14" lengthAdjust="spacing" text-decoration="underline" textLength="204" x="544.5" y="544.3301">setInstance(instance: Map): void</text><ellipse cx="535.5" cy="557.7109" fill="#84BE84" rx="3" ry="3" style="stroke:#038048;stroke-width:1.0;"/><text fill="#000000" font-family="sans-serif" font-size="14" lengthAdjust="spacing" textLength="116" x="544.5" y="561.9395">getMapWidth(): int</text><ellipse cx="535.5" cy="575.3203" fill="#84BE84" rx="3" ry="3" style="stroke:#038048;stroke-width:1.0;"/><text fill="#000000" font-family="sans-serif" font-size="14" lengthAdjust="spacing" textLength="120" x="544.5" y="579.5488">getMapHeight(): int</text><ellipse cx="535.5" cy="592.9297" fill="#84BE84" rx="3" ry="3" style="stroke:#038048;stroke-width:1.0;"/><text fill="#000000" font-family="sans-serif" font-size="14" lengthAdjust="spacing" textLength="124" x="544.5" y="597.1582">isNoHeal(): boolean</text><ellipse cx="535.5" cy="610.5391" fill="#84BE84" rx="3" ry="3" style="stroke:#038048;stroke-width:1.0;"/><text fill="#000000" font-family="sans-serif" font-size="14" lengthAdjust="spacing" textLength="211" x="544.5" y="614.7676">setNoHeal(noHeal: boolean): void</text></g></a><!--class MapSquare--><a href="java:game.map.MapSquare" target="_top" title="java:game.map.MapSquare" xlink:actuate="onRequest" xlink:href="java:game.map.MapSquare" xlink:show="new" xlink:title="java:game.map.MapSquare" xlink:type="simple"><g id="elem_MapSquare"><rect codeLine="40" fill="#F1F1F1" height="188.875" id="MapSquare" rx="2.5" ry="2.5" style="stroke:#181818;stroke-width:0.5;" width="482" x="7" y="274.5"/><ellipse cx="207.25" cy="290.5" fill="#ADD1B2" rx="11" ry="11" style="stroke:#181818;stroke-width:1.0;"/><path d="M210.0156,286.375 Q210.1719,286.1563 210.3594,286.0469 Q210.5469,285.9375 210.7656,285.9375 Q211.1406,285.9375 211.375,286.2031 Q211.6094,286.4531 211.6094,287.0625 L211.6094,288.5156 Q211.6094,289.125 211.375,289.3906 Q211.1406,289.6563 210.7656,289.6563 Q210.4219,289.6563 210.2188,289.4531 Q210.0156,289.2656 209.9063,288.75 Q209.8594,288.3906 209.6719,288.2031 Q209.3438,287.8281 208.7344,287.6094 Q208.125,287.3906 207.5,287.3906 Q206.7344,287.3906 206.0938,287.7188 Q205.4688,288.0469 204.9688,288.7969 Q204.4844,289.5469 204.4844,290.5781 L204.4844,291.6719 Q204.4844,292.9063 205.375,293.7344 Q206.2656,294.5469 207.8594,294.5469 Q208.7969,294.5469 209.4531,294.2969 Q209.8438,294.1406 210.2656,293.7031 Q210.5313,293.4375 210.6719,293.3594 Q210.8281,293.2813 211.0313,293.2813 Q211.3594,293.2813 211.6094,293.5469 Q211.875,293.7969 211.875,294.1406 Q211.875,294.4844 211.5313,294.8906 Q211.0313,295.4688 210.2344,295.7969 Q209.1563,296.25 207.8594,296.25 Q206.3438,296.25 205.1406,295.625 Q204.1563,295.125 203.4688,294.0625 Q202.7813,292.9844 202.7813,291.7031 L202.7813,290.5469 Q202.7813,289.2188 203.3906,288.0781 Q204.0156,286.9219 205.1094,286.3125 Q206.2031,285.6875 207.4375,285.6875 Q208.1719,285.6875 208.8125,285.8594 Q209.4688,286.0156 210.0156,286.375 Z " fill="#000000"/><text fill="#000000" font-family="sans-serif" font-size="14" lengthAdjust="spacing" textLength="73" x="227.75" y="296.2285">MapSquare</text><line style="stroke:#181818;stroke-width:0.5;" x1="8" x2="488" y1="306.5" y2="306.5"/><ellipse cx="18" cy="320.8047" fill="none" rx="3" ry="3" style="stroke:#038048;stroke-width:1.0;"/><text fill="#000000" font-family="sans-serif" font-size="14" lengthAdjust="spacing" text-decoration="underline" textLength="52" x="27" y="325.0332">SIZE: int</text><rect fill="none" height="6" style="stroke:#C82930;stroke-width:1.0;" width="6" x="15" y="335.4141"/><text fill="#000000" font-family="sans-serif" font-size="14" lengthAdjust="spacing" textLength="107" x="27" y="342.6426">position: Position</text><line style="stroke:#181818;stroke-width:0.5;" x1="8" x2="488" y1="349.7188" y2="349.7188"/><ellipse cx="18" cy="364.0234" fill="#84BE84" rx="3" ry="3" style="stroke:#038048;stroke-width:1.0;"/><text fill="#000000" font-family="sans-serif" font-size="14" lengthAdjust="spacing" textLength="83" x="27" y="368.252">MapSquare()</text><ellipse cx="18" cy="381.6328" fill="#84BE84" rx="3" ry="3" style="stroke:#038048;stroke-width:1.0;"/><text fill="#000000" font-family="sans-serif" font-size="14" lengthAdjust="spacing" textLength="206" x="27" y="385.8613">MapSquare(marker: MapMarker)</text><ellipse cx="18" cy="399.2422" fill="#84BE84" rx="3" ry="3" style="stroke:#038048;stroke-width:1.0;"/><text fill="#000000" font-family="sans-serif" font-size="14" lengthAdjust="spacing" textLength="456" x="27" y="403.4707">render(top: boolean, right: boolean, bottom: boolean, left: boolean): void</text><ellipse cx="18" cy="416.8516" fill="#84BE84" rx="3" ry="3" style="stroke:#038048;stroke-width:1.0;"/><text fill="#000000" font-family="sans-serif" font-size="14" lengthAdjust="spacing" textLength="230" x="27" y="421.0801">setMarker(marker: MapMarker): void</text><ellipse cx="18" cy="434.4609" fill="#84BE84" rx="3" ry="3" style="stroke:#038048;stroke-width:1.0;"/><text fill="#000000" font-family="sans-serif" font-size="14" lengthAdjust="spacing" textLength="138" x="27" y="438.6895">getPosition(): Position</text><ellipse cx="18" cy="452.0703" fill="#84BE84" rx="3" ry="3" style="stroke:#038048;stroke-width:1.0;"/><text fill="#000000" font-family="sans-serif" font-size="14" lengthAdjust="spacing" textLength="180" x="27" y="456.2988">setPosition(x: int, y: int): void</text></g></a><!--class MarkerLoader--><a href="java:game.map.MarkerLoader" target="_top" title="java:game.map.MarkerLoader" xlink:actuate="onRequest" xlink:href="java:game.map.MarkerLoader" xlink:show="new" xlink:title="java:game.map.MarkerLoader" xlink:type="simple"><g id="elem_MarkerLoader"><rect codeLine="50" fill="#F1F1F1" height="83.2188" id="MarkerLoader" rx="2.5" ry="2.5" style="stroke:#181818;stroke-width:0.5;" width="316" x="171" y="744"/><ellipse cx="280.25" cy="760" fill="#ADD1B2" rx="11" ry="11" style="stroke:#181818;stroke-width:1.0;"/><path d="M283.0156,755.875 Q283.1719,755.6563 283.3594,755.5469 Q283.5469,755.4375 283.7656,755.4375 Q284.1406,755.4375 284.375,755.7031 Q284.6094,755.9531 284.6094,756.5625 L284.6094,758.0156 Q284.6094,758.625 284.375,758.8906 Q284.1406,759.1563 283.7656,759.1563 Q283.4219,759.1563 283.2188,758.9531 Q283.0156,758.7656 282.9063,758.25 Q282.8594,757.8906 282.6719,757.7031 Q282.3438,757.3281 281.7344,757.1094 Q281.125,756.8906 280.5,756.8906 Q279.7344,756.8906 279.0938,757.2188 Q278.4688,757.5469 277.9688,758.2969 Q277.4844,759.0469 277.4844,760.0781 L277.4844,761.1719 Q277.4844,762.4063 278.375,763.2344 Q279.2656,764.0469 280.8594,764.0469 Q281.7969,764.0469 282.4531,763.7969 Q282.8438,763.6406 283.2656,763.2031 Q283.5313,762.9375 283.6719,762.8594 Q283.8281,762.7813 284.0313,762.7813 Q284.3594,762.7813 284.6094,763.0469 Q284.875,763.2969 284.875,763.6406 Q284.875,763.9844 284.5313,764.3906 Q284.0313,764.9688 283.2344,765.2969 Q282.1563,765.75 280.8594,765.75 Q279.3438,765.75 278.1406,765.125 Q277.1563,764.625 276.4688,763.5625 Q275.7813,762.4844 275.7813,761.2031 L275.7813,760.0469 Q275.7813,758.7188 276.3906,757.5781 Q277.0156,756.4219 278.1094,755.8125 Q279.2031,755.1875 280.4375,755.1875 Q281.1719,755.1875 281.8125,755.3594 Q282.4688,755.5156 283.0156,755.875 Z " fill="#000000"/><text fill="#000000" font-family="sans-serif" font-size="14" lengthAdjust="spacing" textLength="89" x="300.75" y="765.7285">MarkerLoader</text><line style="stroke:#181818;stroke-width:0.5;" x1="172" x2="486" y1="776" y2="776"/><rect fill="none" height="6" style="stroke:#C82930;stroke-width:1.0;" width="6" x="179" y="787.3047"/><text fill="#000000" font-family="sans-serif" font-size="14" lengthAdjust="spacing" text-decoration="underline" textLength="290" x="191" y="794.5332">markerMap: HashMap&lt;MapMarker,Resource&gt;</text><line style="stroke:#181818;stroke-width:0.5;" x1="172" x2="486" y1="801.6094" y2="801.6094"/><ellipse cx="182" cy="815.9141" fill="#84BE84" rx="3" ry="3" style="stroke:#038048;stroke-width:1.0;"/><text fill="#000000" font-family="sans-serif" font-size="14" lengthAdjust="spacing" text-decoration="underline" textLength="237" x="191" y="820.1426">getImage(marker: MapMarker): Image</text></g></a><!--class Resource--><a href="java:game.map.Resource" target="_top" title="java:game.map.Resource" xlink:actuate="onRequest" xlink:href="java:game.map.Resource" xlink:show="new" xlink:title="java:game.map.Resource" xlink:type="simple"><g id="elem_Resource"><rect codeLine="54" fill="#F1F1F1" height="118.4375" id="Resource" rx="2.5" ry="2.5" style="stroke:#181818;stroke-width:0.5;" width="170" x="244" y="949"/><ellipse cx="294.25" cy="965" fill="#ADD1B2" rx="11" ry="11" style="stroke:#181818;stroke-width:1.0;"/><path d="M297.0156,960.875 Q297.1719,960.6563 297.3594,960.5469 Q297.5469,960.4375 297.7656,960.4375 Q298.1406,960.4375 298.375,960.7031 Q298.6094,960.9531 298.6094,961.5625 L298.6094,963.0156 Q298.6094,963.625 298.375,963.8906 Q298.1406,964.1563 297.7656,964.1563 Q297.4219,964.1563 297.2188,963.9531 Q297.0156,963.7656 296.9063,963.25 Q296.8594,962.8906 296.6719,962.7031 Q296.3438,962.3281 295.7344,962.1094 Q295.125,961.8906 294.5,961.8906 Q293.7344,961.8906 293.0938,962.2188 Q292.4688,962.5469 291.9688,963.2969 Q291.4844,964.0469 291.4844,965.0781 L291.4844,966.1719 Q291.4844,967.4063 292.375,968.2344 Q293.2656,969.0469 294.8594,969.0469 Q295.7969,969.0469 296.4531,968.7969 Q296.8438,968.6406 297.2656,968.2031 Q297.5313,967.9375 297.6719,967.8594 Q297.8281,967.7813 298.0313,967.7813 Q298.3594,967.7813 298.6094,968.0469 Q298.875,968.2969 298.875,968.6406 Q298.875,968.9844 298.5313,969.3906 Q298.0313,969.9688 297.2344,970.2969 Q296.1563,970.75 294.8594,970.75 Q293.3438,970.75 292.1406,970.125 Q291.1563,969.625 290.4688,968.5625 Q289.7813,967.4844 289.7813,966.2031 L289.7813,965.0469 Q289.7813,963.7188 290.3906,962.5781 Q291.0156,961.4219 292.1094,960.8125 Q293.2031,960.1875 294.4375,960.1875 Q295.1719,960.1875 295.8125,960.3594 Q296.4688,960.5156 297.0156,960.875 Z " fill="#000000"/><text fill="#000000" font-family="sans-serif" font-size="14" lengthAdjust="spacing" textLength="61" x="314.75" y="970.7285">Resource</text><line style="stroke:#181818;stroke-width:0.5;" x1="245" x2="413" y1="981" y2="981"/><rect fill="none" height="6" style="stroke:#C82930;stroke-width:1.0;" width="6" x="252" y="992.3047"/><text fill="#000000" font-family="sans-serif" font-size="14" lengthAdjust="spacing" textLength="84" x="264" y="999.5332">image: Image</text><rect fill="none" height="6" style="stroke:#C82930;stroke-width:1.0;" width="6" x="252" y="1009.9141"/><text fill="#000000" font-family="sans-serif" font-size="14" lengthAdjust="spacing" textLength="73" x="264" y="1017.1426">path: String</text><line style="stroke:#181818;stroke-width:0.5;" x1="245" x2="413" y1="1024.2188" y2="1024.2188"/><ellipse cx="255" cy="1038.5234" fill="#84BE84" rx="3" ry="3" style="stroke:#038048;stroke-width:1.0;"/><text fill="#000000" font-family="sans-serif" font-size="14" lengthAdjust="spacing" textLength="144" x="264" y="1042.752">Resource(path: String)</text><ellipse cx="255" cy="1056.1328" fill="#84BE84" rx="3" ry="3" style="stroke:#038048;stroke-width:1.0;"/><text fill="#000000" font-family="sans-serif" font-size="14" lengthAdjust="spacing" textLength="114" x="264" y="1060.3613">getImage(): Image</text></g></a><!--class Position--><g id="elem_Position"><rect fill="#F1F1F1" height="48" id="Position" rx="2.5" ry="2.5" style="stroke:#181818;stroke-width:0.5;" width="82" x="522" y="761.5"/><ellipse cx="537" cy="777.5" fill="#ADD1B2" rx="11" ry="11" style="stroke:#181818;stroke-width:1.0;"/><path d="M539.7656,773.375 Q539.9219,773.1563 540.1094,773.0469 Q540.2969,772.9375 540.5156,772.9375 Q540.8906,772.9375 541.125,773.2031 Q541.3594,773.4531 541.3594,774.0625 L541.3594,775.5156 Q541.3594,776.125 541.125,776.3906 Q540.8906,776.6563 540.5156,776.6563 Q540.1719,776.6563 539.9688,776.4531 Q539.7656,776.2656 539.6563,775.75 Q539.6094,775.3906 539.4219,775.2031 Q539.0938,774.8281 538.4844,774.6094 Q537.875,774.3906 537.25,774.3906 Q536.4844,774.3906 535.8438,774.7188 Q535.2188,775.0469 534.7188,775.7969 Q534.2344,776.5469 534.2344,777.5781 L534.2344,778.6719 Q534.2344,779.9063 535.125,780.7344 Q536.0156,781.5469 537.6094,781.5469 Q538.5469,781.5469 539.2031,781.2969 Q539.5938,781.1406 540.0156,780.7031 Q540.2813,780.4375 540.4219,780.3594 Q540.5781,780.2813 540.7813,780.2813 Q541.1094,780.2813 541.3594,780.5469 Q541.625,780.7969 541.625,781.1406 Q541.625,781.4844 541.2813,781.8906 Q540.7813,782.4688 539.9844,782.7969 Q538.9063,783.25 537.6094,783.25 Q536.0938,783.25 534.8906,782.625 Q533.9063,782.125 533.2188,781.0625 Q532.5313,779.9844 532.5313,778.7031 L532.5313,777.5469 Q532.5313,776.2188 533.1406,775.0781 Q533.7656,773.9219 534.8594,773.3125 Q535.9531,772.6875 537.1875,772.6875 Q537.9219,772.6875 538.5625,772.8594 Q539.2188,773.0156 539.7656,773.375 Z " fill="#000000"/><text fill="#000000" font-family="sans-serif" font-size="14" lengthAdjust="spacing" textLength="50" x="551" y="783.2285">Position</text><line style="stroke:#181818;stroke-width:0.5;" x1="523" x2="603" y1="793.5" y2="793.5"/><line style="stroke:#181818;stroke-width:0.5;" x1="523" x2="603" y1="801.5" y2="801.5"/></g><!--reverse link GridPane to Map--><g id="link_GridPane_Map"><path codeLine="60" d="M760,73.09 C760,88.07 760,91.31 760,115.77 " fill="none" id="GridPane-backto-Map" style="stroke:#181818;stroke-width:1.0;"/><polygon fill="none" points="760,55.09,754,73.09,766,73.09,760,55.09" style="stroke:#181818;stroke-width:1.0;"/></g><!--link Map to Position--><g id="link_Map_Position"><path codeLine="61" d="M640.15,622.17 C612.8,679.72 590.3255,727.0009 576.5855,755.9109 " fill="none" id="Map-to-Position" style="stroke:#181818;stroke-width:1.0;"/><polygon fill="#181818" points="574.01,761.33,581.486,754.9184,576.1563,756.8141,574.2606,751.4843,574.01,761.33" style="stroke:#181818;stroke-width:1.0;"/><text fill="#000000" font-family="sans-serif" font-size="13" lengthAdjust="spacing" textLength="36" x="622" y="666.4951">marks</text><text fill="#000000" font-family="sans-serif" font-size="13" lengthAdjust="spacing" textLength="5" x="571.1907" y="750.6266">*</text></g><!--reverse link Pane to MapSquare--><g id="link_Pane_MapSquare"><path codeLine="62" d="M248,73.09 C248,117.57 248,199.36 248,274.36 " fill="none" id="Pane-backto-MapSquare" style="stroke:#181818;stroke-width:1.0;"/><polygon fill="none" points="248,55.09,242,73.09,254,73.09,248,55.09" style="stroke:#181818;stroke-width:1.0;"/></g><!--link MapSquare to MapMarker--><g id="link_MapSquare_MapMarker"><path codeLine="63" d="M193.89,463.52 C164.93,517.16 130.82,586.64 109,652 C103.92,667.21 100.993,677.896 97.643,693.986 " fill="none" id="MapSquare-to-MapMarker" style="stroke:#181818;stroke-width:1.0;"/><polygon fill="#181818" points="96.42,699.86,102.1705,691.8643,97.4392,694.965,94.3385,690.2336,96.42,699.86" style="stroke:#181818;stroke-width:1.0;"/><text fill="#000000" font-family="sans-serif" font-size="13" lengthAdjust="spacing" textLength="40" x="110" y="666.4951">marker</text><text fill="#000000" font-family="sans-serif" font-size="13" lengthAdjust="spacing" textLength="7" x="90.2144" y="689.0191">1</text></g><!--link MapSquare to MapMarker--><g id="link_MapSquare_MapMarker"><path codeLine="65" d="M225.51,463.83 C209.47,524.14 185.37,603.39 155,670 C149.37,682.34 145.6549,689.7767 138.6249,701.9267 " fill="none" id="MapSquare-to-MapMarker-1" style="stroke:#181818;stroke-width:1.0;"/><polygon fill="#181818" points="135.62,707.12,143.5895,701.3332,138.1241,702.7922,136.6651,697.3267,135.62,707.12" style="stroke:#181818;stroke-width:1.0;"/><text fill="#000000" font-family="sans-serif" font-size="13" lengthAdjust="spacing" textLength="66" x="162" y="666.4951">getMarker()</text><text fill="#000000" font-family="sans-serif" font-size="13" lengthAdjust="spacing" textLength="7" x="143.3713" y="692.474">1</text></g><!--link MapSquare to Position--><g id="link_MapSquare_Position"><path codeLine="64" d="M267.82,463.5 C286.8,530.48 322.16,617.74 385,670 C427.27,705.15 459.85,668.64 505,700 C527.07,715.33 540.6079,736.5979 550.1979,755.8779 " fill="none" id="MapSquare-to-Position" style="stroke:#181818;stroke-width:1.0;"/><polygon fill="#181818" points="552.87,761.25,552.4432,751.4104,550.6432,756.7732,545.2804,754.9732,552.87,761.25" style="stroke:#181818;stroke-width:1.0;"/><text fill="#000000" font-family="sans-serif" font-size="13" lengthAdjust="spacing" textLength="45" x="386" y="666.4951">position</text><text fill="#000000" font-family="sans-serif" font-size="13" lengthAdjust="spacing" textLength="7" x="542.3773" y="750.5261">1</text></g><!--link MapSquare to Position--><g id="link_MapSquare_Position"><path codeLine="66" d="M323.48,463.8 C375.52,529.22 445.72,618.98 505,700 C519.92,720.39 532.7897,739.1758 544.2697,756.3058 " fill="none" id="MapSquare-to-Position-1" style="stroke:#181818;stroke-width:1.0;"/><polygon fill="#181818" points="547.61,761.29,545.9224,751.5868,544.8264,757.1365,539.2768,756.0405,547.61,761.29" style="stroke:#181818;stroke-width:1.0;"/><text fill="#000000" font-family="sans-serif" font-size="13" lengthAdjust="spacing" textLength="73" x="479" y="666.4951">getPosition()</text><text fill="#000000" font-family="sans-serif" font-size="13" lengthAdjust="spacing" textLength="7" x="535.7694" y="750.5763">1</text></g><!--link MapSquare to MarkerLoader--><g id="link_MapSquare_MarkerLoader"><path codeLine="67" d="M261.75,463.65 C271.01,523.02 284.19,601.31 299,670 C304.33,694.71 309.8746,716.3233 315.8446,738.1133 " fill="none" id="MapSquare-to-MarkerLoader" style="stroke:#181818;stroke-width:1.0;"/><polygon fill="#181818" points="317.43,743.9,318.9097,734.1629,316.1088,739.0777,311.194,736.2769,317.43,743.9" style="stroke:#181818;stroke-width:1.0;"/><text fill="#000000" font-family="sans-serif" font-size="13" lengthAdjust="spacing" textLength="44" x="300" y="666.4951">render()</text><text fill="#000000" font-family="sans-serif" font-size="13" lengthAdjust="spacing" textLength="7" x="307.934" y="733.1911">1</text></g><!--link MarkerLoader to Resource--><g id="link_MarkerLoader_Resource"><path codeLine="68" d="M329,827.2 C329,861.3 329,904.39 329,942.67 " fill="none" id="MarkerLoader-to-Resource" style="stroke:#181818;stroke-width:1.0;"/><polygon fill="#181818" points="329,948.67,333,939.67,329,943.67,325,939.67,329,948.67" style="stroke:#181818;stroke-width:1.0;"/><text fill="#000000" font-family="sans-serif" font-size="13" lengthAdjust="spacing" textLength="61" x="330" y="915.4951">getImage()</text><text fill="#000000" font-family="sans-serif" font-size="13" lengthAdjust="spacing" textLength="7" x="321.5734" y="937.954">1</text></g><!--SRC=[XLLHRzem47uclyBgapEWqbwZgX9Qkr690e9A4qCycEGAxf8uimrTr_Q_xnB7ZWDH-mA-Ez_TTtVVEN7Ab29pbWDvVG_YIleXUM8ra1yoSi-AUoP_WoJhzHCxicZ7ChZCM77fB9iDUGrwzwlbm-rY5VHkPhC5YhDfAGUz-UXXZB-JqQgKRcRV7ahpzxlfQ1BOh1YgAxm9F7nLccaUlnEUuocF8IeTqF3C4xsFKArHs0FVxRMLr9y3aw2gcylglDwiDsZ843AgHrAobmbN-cek5DTSvDTepCKOM1gHhH0fi3pezT6TDca6nCiIeWFFqPUb_1_GC297mHDK5YcBOS7oH6IcGJIh_gAccQ6NO_Z8ysGX3jgFmTKeUS8mkQQ5X6D4BCm1AOHgn5QWxO6dE3szfzWdgNqdo9EMKvr6LYYnw8Jdky-zx14RmzK2MBndsnGekkr0cpPx7MzXan0V9FrRj_6b_Zzo30Y9krWEQK1CF9kikzY-H73OMbSBAZ9nX7dANa2MNQQdPTAKPxoUNSsJVYo1QPZ2Spde9fOhHvNA4mxr7I7nsbtDoVgURrMUjKNTLXwKVvO4emwJKOuhfZLQhgOLEsch2vYZLfzmr-RmLipKqBLencBMhS6_lFjrQ_UfE1k6MGxZISEMT4xtPbvQ50xZW4YpJKxU2gr5vYbIUDHdDLLbVx1QJNCjMDech_8iRKgUjwsCEH4iwNm16-FfMsLm8Qg8Z9dQu-7AGHmiG8c3ZE7wb4mPsq5dIPN5eRB-PuYieKR3Io_hZ4DavJksr1AN7JFRozJNXwPn1ecNs7qOhjw6muhfvQCz75wJYoyNhhSagWfNGUkgeKNGKB1o-thXVLoYkc4TbxpObeMVXDevTeGVnsinf3EeD_s8s2SdQEdjPJUKg1bb6Fm7]--></g></svg>