<?xml version="1.0" encoding="us-ascii" standalone="no"?><svg xmlns="http://www.w3.org/2000/svg" xmlns:xlink="http://www.w3.org/1999/xlink" contentStyleType="text/css" height="575px" preserveAspectRatio="none" style="width:993px;height:575px;background:#FFFFFF;" version="1.1" viewBox="0 0 993 575" width="993px" zoomAndPan="magnify"><defs/><g><!--class GameButtonType--><a href="java:component.GameButtonType" target="_top" title="java:component.GameButtonType" xlink:actuate="onRequest" xlink:href="java:component.GameButtonType" xlink:show="new" xlink:title="java:component.GameButtonType" xlink:type="simple"><g id="elem_GameButtonType"><rect codeLine="1" fill="#F1F1F1" height="188.875" id="GameButtonType" rx="2.5" ry="2.5" style="stroke:#181818;stroke-width:0.5;" width="143" x="432.5" y="361.5"/><ellipse cx="447.5" cy="377.5" fill="#EB937F" rx="11" ry="11" style="stroke:#181818;stroke-width:1.0;"/><path d="M446.3594,378.2969 L446.3594,380.7969 L450.6875,380.7969 L450.6875,379.875 Q450.6875,379.2656 450.9219,379 Q451.1719,378.7344 451.5469,378.7344 Q451.9219,378.7344 452.1563,379 Q452.3906,379.2656 452.3906,379.875 L452.3906,382.5 L444.3906,382.5 Q443.7656,382.5 443.5,382.2656 Q443.25,382.0313 443.25,381.6406 Q443.25,381.2656 443.5156,381.0313 Q443.7813,380.7969 444.3906,380.7969 L444.6563,380.7969 L444.6563,374.1406 L444.3906,374.1406 Q443.7656,374.1406 443.5,373.9063 Q443.25,373.6719 443.25,373.2813 Q443.25,372.9063 443.5,372.6719 Q443.7656,372.4375 444.3906,372.4375 L452.0156,372.4375 L452.0156,375.0313 Q452.0156,375.6406 451.7813,375.9063 Q451.5625,376.1563 451.1719,376.1563 Q450.7969,376.1563 450.5625,375.9063 Q450.3281,375.6406 450.3281,375.0313 L450.3281,374.1406 L446.3594,374.1406 L446.3594,376.5938 L447.8438,376.5938 Q447.8438,375.9375 447.9688,375.75 Q448.2344,375.3438 448.7031,375.3438 Q449.0781,375.3438 449.3125,375.6094 Q449.5469,375.8594 449.5469,376.4688 L449.5469,378.4375 Q449.5469,378.9844 449.4219,379.1719 Q449.1563,379.5625 448.7031,379.5625 Q448.2344,379.5625 447.9688,379.1563 Q447.8438,378.9688 447.8438,378.2969 L446.3594,378.2969 Z " fill="#000000"/><text fill="#000000" font-family="sans-serif" font-size="14" lengthAdjust="spacing" textLength="111" x="461.5" y="383.2285">GameButtonType</text><line style="stroke:#181818;stroke-width:0.5;" x1="433.5" x2="574.5" y1="393.5" y2="393.5"/><text fill="#000000" font-family="sans-serif" font-size="14" lengthAdjust="spacing" textLength="69" x="438.5" y="412.0332">CONTINUE</text><text fill="#000000" font-family="sans-serif" font-size="14" lengthAdjust="spacing" textLength="79" x="438.5" y="429.6426">NEW_GAME</text><text fill="#000000" font-family="sans-serif" font-size="14" lengthAdjust="spacing" textLength="59" x="438.5" y="447.252">SETTING</text><text fill="#000000" font-family="sans-serif" font-size="14" lengthAdjust="spacing" textLength="91" x="438.5" y="464.8613">JOURNEY_ON</text><text fill="#000000" font-family="sans-serif" font-size="14" lengthAdjust="spacing" textLength="47" x="438.5" y="482.4707">CLOSE</text><text fill="#000000" font-family="sans-serif" font-size="14" lengthAdjust="spacing" textLength="38" x="438.5" y="500.0801">MENU</text><text fill="#000000" font-family="sans-serif" font-size="14" lengthAdjust="spacing" textLength="29" x="438.5" y="517.6895">EXIT</text><text fill="#000000" font-family="sans-serif" font-size="14" lengthAdjust="spacing" textLength="28" x="438.5" y="535.2988">END</text><line style="stroke:#181818;stroke-width:0.5;" x1="433.5" x2="574.5" y1="542.375" y2="542.375"/></g></a><!--class GameButton--><a href="java:component.GameButton" target="_top" title="java:component.GameButton" xlink:actuate="onRequest" xlink:href="java:component.GameButton" xlink:show="new" xlink:title="java:component.GameButton" xlink:type="simple"><g id="elem_GameButton"><rect codeLine="11" fill="#F1F1F1" height="118.4375" id="GameButton" rx="2.5" ry="2.5" style="stroke:#181818;stroke-width:0.5;" width="450" x="536" y="77.5"/><ellipse cx="717.25" cy="93.5" fill="#ADD1B2" rx="11" ry="11" style="stroke:#181818;stroke-width:1.0;"/><path d="M720.0156,89.375 Q720.1719,89.1563 720.3594,89.0469 Q720.5469,88.9375 720.7656,88.9375 Q721.1406,88.9375 721.375,89.2031 Q721.6094,89.4531 721.6094,90.0625 L721.6094,91.5156 Q721.6094,92.125 721.375,92.3906 Q721.1406,92.6563 720.7656,92.6563 Q720.4219,92.6563 720.2188,92.4531 Q720.0156,92.2656 719.9063,91.75 Q719.8594,91.3906 719.6719,91.2031 Q719.3438,90.8281 718.7344,90.6094 Q718.125,90.3906 717.5,90.3906 Q716.7344,90.3906 716.0938,90.7188 Q715.4688,91.0469 714.9688,91.7969 Q714.4844,92.5469 714.4844,93.5781 L714.4844,94.6719 Q714.4844,95.9063 715.375,96.7344 Q716.2656,97.5469 717.8594,97.5469 Q718.7969,97.5469 719.4531,97.2969 Q719.8438,97.1406 720.2656,96.7031 Q720.5313,96.4375 720.6719,96.3594 Q720.8281,96.2813 721.0313,96.2813 Q721.3594,96.2813 721.6094,96.5469 Q721.875,96.7969 721.875,97.1406 Q721.875,97.4844 721.5313,97.8906 Q721.0313,98.4688 720.2344,98.7969 Q719.1563,99.25 717.8594,99.25 Q716.3438,99.25 715.1406,98.625 Q714.1563,98.125 713.4688,97.0625 Q712.7813,95.9844 712.7813,94.7031 L712.7813,93.5469 Q712.7813,92.2188 713.3906,91.0781 Q714.0156,89.9219 715.1094,89.3125 Q716.2031,88.6875 717.4375,88.6875 Q718.1719,88.6875 718.8125,88.8594 Q719.4688,89.0156 720.0156,89.375 Z " fill="#000000"/><text fill="#000000" font-family="sans-serif" font-size="14" lengthAdjust="spacing" textLength="79" x="737.75" y="99.2285">GameButton</text><line style="stroke:#181818;stroke-width:0.5;" x1="537" x2="985" y1="109.5" y2="109.5"/><rect fill="none" height="6" style="stroke:#C82930;stroke-width:1.0;" width="6" x="544" y="120.8047"/><text fill="#000000" font-family="sans-serif" font-size="14" lengthAdjust="spacing" text-decoration="underline" textLength="313" x="556" y="128.0332">typeMap: HashMap&lt;GameButtonType,Resource&gt;</text><line style="stroke:#181818;stroke-width:0.5;" x1="537" x2="985" y1="135.1094" y2="135.1094"/><ellipse cx="547" cy="149.4141" fill="#84BE84" rx="3" ry="3" style="stroke:#038048;stroke-width:1.0;"/><text fill="#000000" font-family="sans-serif" font-size="14" lengthAdjust="spacing" textLength="424" x="556" y="153.6426">GameButton(width: double, height: double, type: GameButtonType)</text><rect fill="#F24D5C" height="6" style="stroke:#C82930;stroke-width:1.0;" width="6" x="544" y="164.0234"/><text fill="#000000" font-family="sans-serif" font-size="14" lengthAdjust="spacing" text-decoration="underline" textLength="282" x="556" y="171.252">getIdleImage(type: GameButtonType): Image</text><rect fill="#F24D5C" height="6" style="stroke:#C82930;stroke-width:1.0;" width="6" x="544" y="181.6328"/><text fill="#000000" font-family="sans-serif" font-size="14" lengthAdjust="spacing" text-decoration="underline" textLength="297" x="556" y="188.8613">getHoverImage(type: GameButtonType): Image</text></g></a><!--class Resource--><a href="java:component.Resource" target="_top" title="java:component.Resource" xlink:actuate="onRequest" xlink:href="java:component.Resource" xlink:show="new" xlink:title="java:component.Resource" xlink:type="simple"><g id="elem_Resource"><rect codeLine="17" fill="#F1F1F1" height="171.2656" id="Resource" rx="2.5" ry="2.5" style="stroke:#181818;stroke-width:0.5;" width="311" x="610.5" y="370.5"/><ellipse cx="731.25" cy="386.5" fill="#ADD1B2" rx="11" ry="11" style="stroke:#181818;stroke-width:1.0;"/><path d="M734.0156,382.375 Q734.1719,382.1563 734.3594,382.0469 Q734.5469,381.9375 734.7656,381.9375 Q735.1406,381.9375 735.375,382.2031 Q735.6094,382.4531 735.6094,383.0625 L735.6094,384.5156 Q735.6094,385.125 735.375,385.3906 Q735.1406,385.6563 734.7656,385.6563 Q734.4219,385.6563 734.2188,385.4531 Q734.0156,385.2656 733.9063,384.75 Q733.8594,384.3906 733.6719,384.2031 Q733.3438,383.8281 732.7344,383.6094 Q732.125,383.3906 731.5,383.3906 Q730.7344,383.3906 730.0938,383.7188 Q729.4688,384.0469 728.9688,384.7969 Q728.4844,385.5469 728.4844,386.5781 L728.4844,387.6719 Q728.4844,388.9063 729.375,389.7344 Q730.2656,390.5469 731.8594,390.5469 Q732.7969,390.5469 733.4531,390.2969 Q733.8438,390.1406 734.2656,389.7031 Q734.5313,389.4375 734.6719,389.3594 Q734.8281,389.2813 735.0313,389.2813 Q735.3594,389.2813 735.6094,389.5469 Q735.875,389.7969 735.875,390.1406 Q735.875,390.4844 735.5313,390.8906 Q735.0313,391.4688 734.2344,391.7969 Q733.1563,392.25 731.8594,392.25 Q730.3438,392.25 729.1406,391.625 Q728.1563,391.125 727.4688,390.0625 Q726.7813,388.9844 726.7813,387.7031 L726.7813,386.5469 Q726.7813,385.2188 727.3906,384.0781 Q728.0156,382.9219 729.1094,382.3125 Q730.2031,381.6875 731.4375,381.6875 Q732.1719,381.6875 732.8125,381.8594 Q733.4688,382.0156 734.0156,382.375 Z " fill="#000000"/><text fill="#000000" font-family="sans-serif" font-size="14" lengthAdjust="spacing" textLength="61" x="751.75" y="392.2285">Resource</text><line style="stroke:#181818;stroke-width:0.5;" x1="611.5" x2="920.5" y1="402.5" y2="402.5"/><rect fill="none" height="6" style="stroke:#C82930;stroke-width:1.0;" width="6" x="618.5" y="413.8047"/><text fill="#000000" font-family="sans-serif" font-size="14" lengthAdjust="spacing" textLength="106" x="630.5" y="421.0332">idleImage: Image</text><rect fill="none" height="6" style="stroke:#C82930;stroke-width:1.0;" width="6" x="618.5" y="431.4141"/><text fill="#000000" font-family="sans-serif" font-size="14" lengthAdjust="spacing" textLength="120" x="630.5" y="438.6426">hoverImage: Image</text><rect fill="none" height="6" style="stroke:#C82930;stroke-width:1.0;" width="6" x="618.5" y="449.0234"/><text fill="#000000" font-family="sans-serif" font-size="14" lengthAdjust="spacing" textLength="96" x="630.5" y="456.252">idlePath: String</text><rect fill="none" height="6" style="stroke:#C82930;stroke-width:1.0;" width="6" x="618.5" y="466.6328"/><text fill="#000000" font-family="sans-serif" font-size="14" lengthAdjust="spacing" textLength="110" x="630.5" y="473.8613">hoverPath: String</text><line style="stroke:#181818;stroke-width:0.5;" x1="611.5" x2="920.5" y1="480.9375" y2="480.9375"/><ellipse cx="621.5" cy="495.2422" fill="#84BE84" rx="3" ry="3" style="stroke:#038048;stroke-width:1.0;"/><text fill="#000000" font-family="sans-serif" font-size="14" lengthAdjust="spacing" textLength="285" x="630.5" y="499.4707">Resource(idlePath: String, hoverPath: String)</text><ellipse cx="621.5" cy="512.8516" fill="#84BE84" rx="3" ry="3" style="stroke:#038048;stroke-width:1.0;"/><text fill="#000000" font-family="sans-serif" font-size="14" lengthAdjust="spacing" textLength="136" x="630.5" y="517.0801">getIdleImage(): Image</text><ellipse cx="621.5" cy="530.4609" fill="#84BE84" rx="3" ry="3" style="stroke:#038048;stroke-width:1.0;"/><text fill="#000000" font-family="sans-serif" font-size="14" lengthAdjust="spacing" textLength="151" x="630.5" y="534.6895">getHoverImage(): Image</text></g></a><!--class EnergyOrb--><a href="java:component.EnergyOrb" target="_top" title="java:component.EnergyOrb" xlink:actuate="onRequest" xlink:href="java:component.EnergyOrb" xlink:show="new" xlink:title="java:component.EnergyOrb" xlink:type="simple"><g id="elem_EnergyOrb"><rect codeLine="26" fill="#F1F1F1" height="136.0469" id="EnergyOrb" rx="2.5" ry="2.5" style="stroke:#181818;stroke-width:0.5;" width="112" x="146" y="68.5"/><ellipse cx="165.95" cy="84.5" fill="#ADD1B2" rx="11" ry="11" style="stroke:#181818;stroke-width:1.0;"/><path d="M168.7156,80.375 Q168.8719,80.1563 169.0594,80.0469 Q169.2469,79.9375 169.4656,79.9375 Q169.8406,79.9375 170.075,80.2031 Q170.3094,80.4531 170.3094,81.0625 L170.3094,82.5156 Q170.3094,83.125 170.075,83.3906 Q169.8406,83.6563 169.4656,83.6563 Q169.1219,83.6563 168.9188,83.4531 Q168.7156,83.2656 168.6063,82.75 Q168.5594,82.3906 168.3719,82.2031 Q168.0438,81.8281 167.4344,81.6094 Q166.825,81.3906 166.2,81.3906 Q165.4344,81.3906 164.7938,81.7188 Q164.1688,82.0469 163.6688,82.7969 Q163.1844,83.5469 163.1844,84.5781 L163.1844,85.6719 Q163.1844,86.9063 164.075,87.7344 Q164.9656,88.5469 166.5594,88.5469 Q167.4969,88.5469 168.1531,88.2969 Q168.5438,88.1406 168.9656,87.7031 Q169.2313,87.4375 169.3719,87.3594 Q169.5281,87.2813 169.7313,87.2813 Q170.0594,87.2813 170.3094,87.5469 Q170.575,87.7969 170.575,88.1406 Q170.575,88.4844 170.2313,88.8906 Q169.7313,89.4688 168.9344,89.7969 Q167.8563,90.25 166.5594,90.25 Q165.0438,90.25 163.8406,89.625 Q162.8563,89.125 162.1688,88.0625 Q161.4813,86.9844 161.4813,85.7031 L161.4813,84.5469 Q161.4813,83.2188 162.0906,82.0781 Q162.7156,80.9219 163.8094,80.3125 Q164.9031,79.6875 166.1375,79.6875 Q166.8719,79.6875 167.5125,79.8594 Q168.1688,80.0156 168.7156,80.375 Z " fill="#000000"/><text fill="#000000" font-family="sans-serif" font-size="14" lengthAdjust="spacing" textLength="69" x="181.05" y="90.2285">EnergyOrb</text><line style="stroke:#181818;stroke-width:0.5;" x1="147" x2="257" y1="100.5" y2="100.5"/><rect fill="none" height="6" style="stroke:#C82930;stroke-width:1.0;" width="6" x="154" y="111.8047"/><text fill="#000000" font-family="sans-serif" font-size="14" lengthAdjust="spacing" text-decoration="underline" textLength="52" x="166" y="119.0332">SIZE: int</text><rect fill="none" height="6" style="stroke:#C82930;stroke-width:1.0;" width="6" x="154" y="129.4141"/><text fill="#000000" font-family="sans-serif" font-size="14" lengthAdjust="spacing" text-decoration="underline" textLength="84" x="166" y="136.6426">image: Image</text><rect fill="none" height="6" style="stroke:#C82930;stroke-width:1.0;" width="6" x="154" y="147.0234"/><text fill="#000000" font-family="sans-serif" font-size="14" lengthAdjust="spacing" textLength="57" x="166" y="154.252">text: Text</text><line style="stroke:#181818;stroke-width:0.5;" x1="147" x2="257" y1="161.3281" y2="161.3281"/><ellipse cx="157" cy="175.6328" fill="#84BE84" rx="3" ry="3" style="stroke:#038048;stroke-width:1.0;"/><text fill="#000000" font-family="sans-serif" font-size="14" lengthAdjust="spacing" textLength="79" x="166" y="179.8613">EnergyOrb()</text><ellipse cx="157" cy="193.2422" fill="#84BE84" rx="3" ry="3" style="stroke:#038048;stroke-width:1.0;"/><text fill="#000000" font-family="sans-serif" font-size="14" lengthAdjust="spacing" textLength="86" x="166" y="197.4707">render(): void</text></g></a><!--class HpBar--><a href="java:component.HpBar" target="_top" title="java:component.HpBar" xlink:actuate="onRequest" xlink:href="java:component.HpBar" xlink:show="new" xlink:title="java:component.HpBar" xlink:type="simple"><g id="elem_HpBar"><rect codeLine="33" fill="#F1F1F1" height="259.3125" id="HpBar" rx="2.5" ry="2.5" style="stroke:#181818;stroke-width:0.5;" width="201" x="293.5" y="7"/><ellipse cx="370.25" cy="23" fill="#ADD1B2" rx="11" ry="11" style="stroke:#181818;stroke-width:1.0;"/><path d="M373.0156,18.875 Q373.1719,18.6563 373.3594,18.5469 Q373.5469,18.4375 373.7656,18.4375 Q374.1406,18.4375 374.375,18.7031 Q374.6094,18.9531 374.6094,19.5625 L374.6094,21.0156 Q374.6094,21.625 374.375,21.8906 Q374.1406,22.1563 373.7656,22.1563 Q373.4219,22.1563 373.2188,21.9531 Q373.0156,21.7656 372.9063,21.25 Q372.8594,20.8906 372.6719,20.7031 Q372.3438,20.3281 371.7344,20.1094 Q371.125,19.8906 370.5,19.8906 Q369.7344,19.8906 369.0938,20.2188 Q368.4688,20.5469 367.9688,21.2969 Q367.4844,22.0469 367.4844,23.0781 L367.4844,24.1719 Q367.4844,25.4063 368.375,26.2344 Q369.2656,27.0469 370.8594,27.0469 Q371.7969,27.0469 372.4531,26.7969 Q372.8438,26.6406 373.2656,26.2031 Q373.5313,25.9375 373.6719,25.8594 Q373.8281,25.7813 374.0313,25.7813 Q374.3594,25.7813 374.6094,26.0469 Q374.875,26.2969 374.875,26.6406 Q374.875,26.9844 374.5313,27.3906 Q374.0313,27.9688 373.2344,28.2969 Q372.1563,28.75 370.8594,28.75 Q369.3438,28.75 368.1406,28.125 Q367.1563,27.625 366.4688,26.5625 Q365.7813,25.4844 365.7813,24.2031 L365.7813,23.0469 Q365.7813,21.7188 366.3906,20.5781 Q367.0156,19.4219 368.1094,18.8125 Q369.2031,18.1875 370.4375,18.1875 Q371.1719,18.1875 371.8125,18.3594 Q372.4688,18.5156 373.0156,18.875 Z " fill="#000000"/><text fill="#000000" font-family="sans-serif" font-size="14" lengthAdjust="spacing" textLength="39" x="390.75" y="28.7285">HpBar</text><line style="stroke:#181818;stroke-width:0.5;" x1="294.5" x2="493.5" y1="39" y2="39"/><rect fill="none" height="6" style="stroke:#C82930;stroke-width:1.0;" width="6" x="301.5" y="50.3047"/><text fill="#000000" font-family="sans-serif" font-size="14" lengthAdjust="spacing" text-decoration="underline" textLength="52" x="313.5" y="57.5332">SIZE: int</text><rect fill="none" height="6" style="stroke:#C82930;stroke-width:1.0;" width="6" x="301.5" y="67.9141"/><text fill="#000000" font-family="sans-serif" font-size="14" lengthAdjust="spacing" text-decoration="underline" textLength="117" x="313.5" y="75.1426">heartImage: Image</text><rect fill="none" height="6" style="stroke:#C82930;stroke-width:1.0;" width="6" x="301.5" y="85.5234"/><text fill="#000000" font-family="sans-serif" font-size="14" lengthAdjust="spacing" text-decoration="underline" textLength="157" x="313.5" y="92.752">shieldAdjust: ColorAdjust</text><rect fill="none" height="6" style="stroke:#C82930;stroke-width:1.0;" width="6" x="301.5" y="103.1328"/><text fill="#000000" font-family="sans-serif" font-size="14" lengthAdjust="spacing" textLength="125" x="313.5" y="110.3613">hpBar: ProgressBar</text><rect fill="none" height="6" style="stroke:#C82930;stroke-width:1.0;" width="6" x="301.5" y="120.7422"/><text fill="#000000" font-family="sans-serif" font-size="14" lengthAdjust="spacing" textLength="175" x="313.5" y="127.9707">heartImageView: ImageView</text><rect fill="none" height="6" style="stroke:#C82930;stroke-width:1.0;" width="6" x="301.5" y="138.3516"/><text fill="#000000" font-family="sans-serif" font-size="14" lengthAdjust="spacing" textLength="100" x="313.5" y="145.5801">hpBarText: Text</text><rect fill="none" height="6" style="stroke:#C82930;stroke-width:1.0;" width="6" x="301.5" y="155.9609"/><text fill="#000000" font-family="sans-serif" font-size="14" lengthAdjust="spacing" textLength="99" x="313.5" y="163.1895">shieldText: Text</text><rect fill="none" height="6" style="stroke:#C82930;stroke-width:1.0;" width="6" x="301.5" y="173.5703"/><text fill="#000000" font-family="sans-serif" font-size="14" lengthAdjust="spacing" textLength="95" x="313.5" y="180.7988">thread: Thread</text><line style="stroke:#181818;stroke-width:0.5;" x1="294.5" x2="493.5" y1="187.875" y2="187.875"/><ellipse cx="304.5" cy="202.1797" fill="#84BE84" rx="3" ry="3" style="stroke:#038048;stroke-width:1.0;"/><text fill="#000000" font-family="sans-serif" font-size="14" lengthAdjust="spacing" textLength="128" x="313.5" y="206.4082">HpBar(being: Being)</text><ellipse cx="304.5" cy="219.7891" fill="#84BE84" rx="3" ry="3" style="stroke:#038048;stroke-width:1.0;"/><text fill="#000000" font-family="sans-serif" font-size="14" lengthAdjust="spacing" textLength="86" x="313.5" y="224.0176">render(): void</text><ellipse cx="304.5" cy="237.3984" fill="#84BE84" rx="3" ry="3" style="stroke:#038048;stroke-width:1.0;"/><text fill="#000000" font-family="sans-serif" font-size="14" lengthAdjust="spacing" textLength="102" x="313.5" y="241.627">setHpBar(): void</text><ellipse cx="304.5" cy="255.0078" fill="#84BE84" rx="3" ry="3" style="stroke:#038048;stroke-width:1.0;"/><text fill="#000000" font-family="sans-serif" font-size="14" lengthAdjust="spacing" textLength="102" x="313.5" y="259.2363">setShield(): void</text></g></a><!--class VolumeSlider--><a href="java:component.VolumeSlider" target="_top" title="java:component.VolumeSlider" xlink:actuate="onRequest" xlink:href="java:component.VolumeSlider" xlink:show="new" xlink:title="java:component.VolumeSlider" xlink:type="simple"><g id="elem_VolumeSlider"><rect codeLine="47" fill="#F1F1F1" height="224.0938" id="VolumeSlider" rx="2.5" ry="2.5" style="stroke:#181818;stroke-width:0.5;" width="390" x="7" y="344"/><ellipse cx="156.25" cy="360" fill="#ADD1B2" rx="11" ry="11" style="stroke:#181818;stroke-width:1.0;"/><path d="M159.0156,355.875 Q159.1719,355.6563 159.3594,355.5469 Q159.5469,355.4375 159.7656,355.4375 Q160.1406,355.4375 160.375,355.7031 Q160.6094,355.9531 160.6094,356.5625 L160.6094,358.0156 Q160.6094,358.625 160.375,358.8906 Q160.1406,359.1563 159.7656,359.1563 Q159.4219,359.1563 159.2188,358.9531 Q159.0156,358.7656 158.9063,358.25 Q158.8594,357.8906 158.6719,357.7031 Q158.3438,357.3281 157.7344,357.1094 Q157.125,356.8906 156.5,356.8906 Q155.7344,356.8906 155.0938,357.2188 Q154.4688,357.5469 153.9688,358.2969 Q153.4844,359.0469 153.4844,360.0781 L153.4844,361.1719 Q153.4844,362.4063 154.375,363.2344 Q155.2656,364.0469 156.8594,364.0469 Q157.7969,364.0469 158.4531,363.7969 Q158.8438,363.6406 159.2656,363.2031 Q159.5313,362.9375 159.6719,362.8594 Q159.8281,362.7813 160.0313,362.7813 Q160.3594,362.7813 160.6094,363.0469 Q160.875,363.2969 160.875,363.6406 Q160.875,363.9844 160.5313,364.3906 Q160.0313,364.9688 159.2344,365.2969 Q158.1563,365.75 156.8594,365.75 Q155.3438,365.75 154.1406,365.125 Q153.1563,364.625 152.4688,363.5625 Q151.7813,362.4844 151.7813,361.2031 L151.7813,360.0469 Q151.7813,358.7188 152.3906,357.5781 Q153.0156,356.4219 154.1094,355.8125 Q155.2031,355.1875 156.4375,355.1875 Q157.1719,355.1875 157.8125,355.3594 Q158.4688,355.5156 159.0156,355.875 Z " fill="#000000"/><text fill="#000000" font-family="sans-serif" font-size="14" lengthAdjust="spacing" textLength="83" x="176.75" y="365.7285">VolumeSlider</text><line style="stroke:#181818;stroke-width:0.5;" x1="8" x2="396" y1="376" y2="376"/><rect fill="none" height="6" style="stroke:#C82930;stroke-width:1.0;" width="6" x="15" y="387.3047"/><text fill="#000000" font-family="sans-serif" font-size="14" lengthAdjust="spacing" text-decoration="underline" textLength="77" x="27" y="394.5332">mute: Image</text><rect fill="none" height="6" style="stroke:#C82930;stroke-width:1.0;" width="6" x="15" y="404.9141"/><text fill="#000000" font-family="sans-serif" font-size="14" lengthAdjust="spacing" text-decoration="underline" textLength="72" x="27" y="412.1426">vol1: Image</text><rect fill="none" height="6" style="stroke:#C82930;stroke-width:1.0;" width="6" x="15" y="422.5234"/><text fill="#000000" font-family="sans-serif" font-size="14" lengthAdjust="spacing" text-decoration="underline" textLength="72" x="27" y="429.752">vol2: Image</text><rect fill="none" height="6" style="stroke:#C82930;stroke-width:1.0;" width="6" x="15" y="440.1328"/><text fill="#000000" font-family="sans-serif" font-size="14" lengthAdjust="spacing" text-decoration="underline" textLength="72" x="27" y="447.3613">vol3: Image</text><rect fill="none" height="6" style="stroke:#C82930;stroke-width:1.0;" width="6" x="15" y="457.7422"/><text fill="#000000" font-family="sans-serif" font-size="14" lengthAdjust="spacing" textLength="109" x="27" y="464.9707">lastValue: double</text><rect fill="none" height="6" style="stroke:#C82930;stroke-width:1.0;" width="6" x="15" y="475.3516"/><text fill="#000000" font-family="sans-serif" font-size="14" lengthAdjust="spacing" textLength="78" x="27" y="482.5801">slider: Slider</text><line style="stroke:#181818;stroke-width:0.5;" x1="8" x2="396" y1="489.6563" y2="489.6563"/><ellipse cx="18" cy="503.9609" fill="#84BE84" rx="3" ry="3" style="stroke:#038048;stroke-width:1.0;"/><text fill="#000000" font-family="sans-serif" font-size="14" lengthAdjust="spacing" textLength="196" x="27" y="508.1895">VolumeSlider(iconSize: double)</text><ellipse cx="18" cy="521.5703" fill="#84BE84" rx="3" ry="3" style="stroke:#038048;stroke-width:1.0;"/><text fill="#000000" font-family="sans-serif" font-size="14" lengthAdjust="spacing" textLength="323" x="27" y="525.7988">VolumeSlider(iconSize: double, isOnMute: boolean)</text><rect fill="#F24D5C" height="6" style="stroke:#C82930;stroke-width:1.0;" width="6" x="15" y="536.1797"/><text fill="#000000" font-family="sans-serif" font-size="14" lengthAdjust="spacing" text-decoration="underline" textLength="364" x="27" y="543.4082">calcIcon(muteButtonView: ImageView, value: double): void</text><ellipse cx="18" cy="556.7891" fill="#84BE84" rx="3" ry="3" style="stroke:#038048;stroke-width:1.0;"/><text fill="#000000" font-family="sans-serif" font-size="14" lengthAdjust="spacing" textLength="110" x="27" y="561.0176">getSlider(): Slider</text></g></a><!--link GameButton to GameButtonType--><g id="link_GameButton_GameButtonType"><path codeLine="60" d="M713.46,195.71 C679.76,237.03 633.51,293.84 593,344 C587.34,351.01 581.48,358.28 575.59,365.59 " fill="none" id="GameButton-GameButtonType" style="stroke:#181818;stroke-width:1.0;"/></g><!--link GameButton to Resource--><g id="link_GameButton_Resource"><path codeLine="61" d="M761.92,195.73 C762.69,244.61 763.7064,309.0707 764.5664,364.2107 " fill="none" id="GameButton-to-Resource" style="stroke:#181818;stroke-width:1.0;"/><polygon fill="#181818" points="764.66,370.21,768.5192,361.1487,764.582,365.2106,760.5201,361.2735,764.66,370.21" style="stroke:#181818;stroke-width:1.0;"/><text fill="#000000" font-family="sans-serif" font-size="13" lengthAdjust="spacing" textLength="50" x="765" y="310.4951">resource</text><text fill="#000000" font-family="sans-serif" font-size="13" lengthAdjust="spacing" textLength="7" x="757.2441" y="359.6487">1</text></g><!--SRC=[ZLJVRvim47xFNs7rYIZ9f6vlQAhKT2XXMg0g9FjHLPK39t1bxCWswReg__ji9r03xTONVFxkplVTTzZ0wWejS0NpMYdEqgSTeDlR1xp7ViQh7MV0r8Uk_-uEFOyGkegZD8pMWJQZuFlzud9bp2H8DRhGrjTuVHC5F-_Zo0H_YnFZNWNHMY_1Zp0rI_HbT1Xb54lfSFXN_LFjsRDKM97iW9GcjC8x7osnBBNnkSjrUWEIroA32vqrUV5vZoHNfOzoNcyfJ549f2ZLozuSw_Tq6NSA5w32d49OuGAyLyDzP9tzh2NVWtX7MYDCqy5GbiRJY48QFaxbigtcW2Rm6fl-4oK8Azh07ZXfAdZz3ArOFzx8C-ceuYWmwJO-Q39W88gdM6o7NRQkmUoJy5VW8y9K1oMzPXNyreDDzTVmQ4_pB5y1B0TX-EmvoLiwozqSYo4L2x-JHWbOgBxmhLUM16X-cJ_KKfExufIBuyQEmfJnqRNWXG0fzSQYxO4R0e-dGutPfgHkfxDZYIwcIW4urtkx6W5iIzuMz01zD8TcZZrTD2Br06ri5qjibO606qxh2X9Az2b37LtlGCwgLgzAjkVq_0tyunlu9mVNjDG6qngQIsuriXJq7snNqv9BpICPPmdvqwQC_ninHKJ6R6LRs79E0RFkiv5XceKwoJDj7czzRvnJj7TfEdBhEtGgEsuf7qOZv-MSpNglITTvWSxEpruU51-9a_aN]--></g></svg>