<?xml version="1.0" encoding="us-ascii" standalone="no"?><svg xmlns="http://www.w3.org/2000/svg" xmlns:xlink="http://www.w3.org/1999/xlink" contentStyleType="text/css" height="321px" preserveAspectRatio="none" style="width:1462px;height:321px;background:#FFFFFF;" version="1.1" viewBox="0 0 1462 321" width="1462px" zoomAndPan="magnify"><defs/><g><!--class Entity--><a href="java:entities.Entity" target="_top" title="java:entities.Entity" xlink:actuate="onRequest" xlink:href="java:entities.Entity" xlink:show="new" xlink:title="java:entities.Entity" xlink:type="simple"><g id="elem_Entity"><rect codeLine="2" fill="#F1F1F1" height="48" id="Entity" rx="2.5" ry="2.5" style="stroke:#181818;stroke-width:0.5;" width="67" x="1388" y="240.5"/><ellipse cx="1403" cy="256.5" fill="#ADD1B2" rx="11" ry="11" style="stroke:#181818;stroke-width:1.0;"/><path d="M1405.7656,252.375 Q1405.9219,252.1563 1406.1094,252.0469 Q1406.2969,251.9375 1406.5156,251.9375 Q1406.8906,251.9375 1407.125,252.2031 Q1407.3594,252.4531 1407.3594,253.0625 L1407.3594,254.5156 Q1407.3594,255.125 1407.125,255.3906 Q1406.8906,255.6563 1406.5156,255.6563 Q1406.1719,255.6563 1405.9688,255.4531 Q1405.7656,255.2656 1405.6563,254.75 Q1405.6094,254.3906 1405.4219,254.2031 Q1405.0938,253.8281 1404.4844,253.6094 Q1403.875,253.3906 1403.25,253.3906 Q1402.4844,253.3906 1401.8438,253.7188 Q1401.2188,254.0469 1400.7188,254.7969 Q1400.2344,255.5469 1400.2344,256.5781 L1400.2344,257.6719 Q1400.2344,258.9063 1401.125,259.7344 Q1402.0156,260.5469 1403.6094,260.5469 Q1404.5469,260.5469 1405.2031,260.2969 Q1405.5938,260.1406 1406.0156,259.7031 Q1406.2813,259.4375 1406.4219,259.3594 Q1406.5781,259.2813 1406.7813,259.2813 Q1407.1094,259.2813 1407.3594,259.5469 Q1407.625,259.7969 1407.625,260.1406 Q1407.625,260.4844 1407.2813,260.8906 Q1406.7813,261.4688 1405.9844,261.7969 Q1404.9063,262.25 1403.6094,262.25 Q1402.0938,262.25 1400.8906,261.625 Q1399.9063,261.125 1399.2188,260.0625 Q1398.5313,258.9844 1398.5313,257.7031 L1398.5313,256.5469 Q1398.5313,255.2188 1399.1406,254.0781 Q1399.7656,252.9219 1400.8594,252.3125 Q1401.9531,251.6875 1403.1875,251.6875 Q1403.9219,251.6875 1404.5625,251.8594 Q1405.2188,252.0156 1405.7656,252.375 Z " fill="#000000"/><text fill="#000000" font-family="sans-serif" font-size="14" lengthAdjust="spacing" textLength="35" x="1417" y="262.2285">Entity</text><line style="stroke:#181818;stroke-width:0.5;" x1="1389" x2="1454" y1="272.5" y2="272.5"/><line style="stroke:#181818;stroke-width:0.5;" x1="1389" x2="1454" y1="280.5" y2="280.5"/></g></a><!--class EntitySpawner--><a href="java:entities.EntitySpawner" target="_top" title="java:entities.EntitySpawner" xlink:actuate="onRequest" xlink:href="java:entities.EntitySpawner" xlink:show="new" xlink:title="java:entities.EntitySpawner" xlink:type="simple"><g id="elem_EntitySpawner"><rect codeLine="3" fill="#F1F1F1" height="188.875" id="EntitySpawner" rx="2.5" ry="2.5" style="stroke:#181818;stroke-width:0.5;" width="307" x="7" y="7"/><ellipse cx="111.25" cy="23" fill="#ADD1B2" rx="11" ry="11" style="stroke:#181818;stroke-width:1.0;"/><path d="M114.0156,18.875 Q114.1719,18.6563 114.3594,18.5469 Q114.5469,18.4375 114.7656,18.4375 Q115.1406,18.4375 115.375,18.7031 Q115.6094,18.9531 115.6094,19.5625 L115.6094,21.0156 Q115.6094,21.625 115.375,21.8906 Q115.1406,22.1563 114.7656,22.1563 Q114.4219,22.1563 114.2188,21.9531 Q114.0156,21.7656 113.9063,21.25 Q113.8594,20.8906 113.6719,20.7031 Q113.3438,20.3281 112.7344,20.1094 Q112.125,19.8906 111.5,19.8906 Q110.7344,19.8906 110.0938,20.2188 Q109.4688,20.5469 108.9688,21.2969 Q108.4844,22.0469 108.4844,23.0781 L108.4844,24.1719 Q108.4844,25.4063 109.375,26.2344 Q110.2656,27.0469 111.8594,27.0469 Q112.7969,27.0469 113.4531,26.7969 Q113.8438,26.6406 114.2656,26.2031 Q114.5313,25.9375 114.6719,25.8594 Q114.8281,25.7813 115.0313,25.7813 Q115.3594,25.7813 115.6094,26.0469 Q115.875,26.2969 115.875,26.6406 Q115.875,26.9844 115.5313,27.3906 Q115.0313,27.9688 114.2344,28.2969 Q113.1563,28.75 111.8594,28.75 Q110.3438,28.75 109.1406,28.125 Q108.1563,27.625 107.4688,26.5625 Q106.7813,25.4844 106.7813,24.2031 L106.7813,23.0469 Q106.7813,21.7188 107.3906,20.5781 Q108.0156,19.4219 109.1094,18.8125 Q110.2031,18.1875 111.4375,18.1875 Q112.1719,18.1875 112.8125,18.3594 Q113.4688,18.5156 114.0156,18.875 Z " fill="#000000"/><text fill="#000000" font-family="sans-serif" font-size="14" lengthAdjust="spacing" textLength="90" x="131.75" y="28.7285">EntitySpawner</text><line style="stroke:#181818;stroke-width:0.5;" x1="8" x2="313" y1="39" y2="39"/><rect fill="none" height="6" style="stroke:#C82930;stroke-width:1.0;" width="6" x="15" y="50.3047"/><text fill="#000000" font-family="sans-serif" font-size="14" lengthAdjust="spacing" text-decoration="underline" textLength="125" x="27" y="57.5332">e: ArrayList&lt;String&gt;</text><rect fill="none" height="6" style="stroke:#C82930;stroke-width:1.0;" width="6" x="15" y="67.9141"/><text fill="#000000" font-family="sans-serif" font-size="14" lengthAdjust="spacing" text-decoration="underline" textLength="125" x="27" y="75.1426">d: ArrayList&lt;String&gt;</text><rect fill="none" height="6" style="stroke:#C82930;stroke-width:1.0;" width="6" x="15" y="85.5234"/><text fill="#000000" font-family="sans-serif" font-size="14" lengthAdjust="spacing" text-decoration="underline" textLength="124" x="27" y="92.752">c: ArrayList&lt;String&gt;</text><rect fill="none" height="6" style="stroke:#C82930;stroke-width:1.0;" width="6" x="15" y="103.1328"/><text fill="#000000" font-family="sans-serif" font-size="14" lengthAdjust="spacing" text-decoration="underline" textLength="125" x="27" y="110.3613">b: ArrayList&lt;String&gt;</text><rect fill="none" height="6" style="stroke:#C82930;stroke-width:1.0;" width="6" x="15" y="120.7422"/><text fill="#000000" font-family="sans-serif" font-size="14" lengthAdjust="spacing" text-decoration="underline" textLength="125" x="27" y="127.9707">a: ArrayList&lt;String&gt;</text><rect fill="none" height="6" style="stroke:#C82930;stroke-width:1.0;" width="6" x="15" y="138.3516"/><text fill="#000000" font-family="sans-serif" font-size="14" lengthAdjust="spacing" text-decoration="underline" textLength="124" x="27" y="145.5801">s: ArrayList&lt;String&gt;</text><line style="stroke:#181818;stroke-width:0.5;" x1="8" x2="313" y1="152.6563" y2="152.6563"/><ellipse cx="18" cy="166.9609" fill="#84BE84" rx="3" ry="3" style="stroke:#038048;stroke-width:1.0;"/><text fill="#000000" font-family="sans-serif" font-size="14" lengthAdjust="spacing" text-decoration="underline" textLength="115" x="27" y="171.1895">getTier(): MobTier</text><ellipse cx="18" cy="184.5703" fill="#84BE84" rx="3" ry="3" style="stroke:#038048;stroke-width:1.0;"/><text fill="#000000" font-family="sans-serif" font-size="14" lengthAdjust="spacing" text-decoration="underline" textLength="281" x="27" y="188.7988">getNameFromTier(mobTier: MobTier): String</text></g></a><!--class EntityLoader--><a href="java:entities.EntityLoader" target="_top" title="java:entities.EntityLoader" xlink:actuate="onRequest" xlink:href="java:entities.EntityLoader" xlink:show="new" xlink:title="java:entities.EntityLoader" xlink:type="simple"><g id="elem_EntityLoader"><rect codeLine="13" fill="#F1F1F1" height="65.6094" id="EntityLoader" rx="2.5" ry="2.5" style="stroke:#181818;stroke-width:0.5;" width="219" x="51" y="231.5"/><ellipse cx="116.25" cy="247.5" fill="#ADD1B2" rx="11" ry="11" style="stroke:#181818;stroke-width:1.0;"/><path d="M119.0156,243.375 Q119.1719,243.1563 119.3594,243.0469 Q119.5469,242.9375 119.7656,242.9375 Q120.1406,242.9375 120.375,243.2031 Q120.6094,243.4531 120.6094,244.0625 L120.6094,245.5156 Q120.6094,246.125 120.375,246.3906 Q120.1406,246.6563 119.7656,246.6563 Q119.4219,246.6563 119.2188,246.4531 Q119.0156,246.2656 118.9063,245.75 Q118.8594,245.3906 118.6719,245.2031 Q118.3438,244.8281 117.7344,244.6094 Q117.125,244.3906 116.5,244.3906 Q115.7344,244.3906 115.0938,244.7188 Q114.4688,245.0469 113.9688,245.7969 Q113.4844,246.5469 113.4844,247.5781 L113.4844,248.6719 Q113.4844,249.9063 114.375,250.7344 Q115.2656,251.5469 116.8594,251.5469 Q117.7969,251.5469 118.4531,251.2969 Q118.8438,251.1406 119.2656,250.7031 Q119.5313,250.4375 119.6719,250.3594 Q119.8281,250.2813 120.0313,250.2813 Q120.3594,250.2813 120.6094,250.5469 Q120.875,250.7969 120.875,251.1406 Q120.875,251.4844 120.5313,251.8906 Q120.0313,252.4688 119.2344,252.7969 Q118.1563,253.25 116.8594,253.25 Q115.3438,253.25 114.1406,252.625 Q113.1563,252.125 112.4688,251.0625 Q111.7813,249.9844 111.7813,248.7031 L111.7813,247.5469 Q111.7813,246.2188 112.3906,245.0781 Q113.0156,243.9219 114.1094,243.3125 Q115.2031,242.6875 116.4375,242.6875 Q117.1719,242.6875 117.8125,242.8594 Q118.4688,243.0156 119.0156,243.375 Z " fill="#000000"/><text fill="#000000" font-family="sans-serif" font-size="14" lengthAdjust="spacing" textLength="80" x="136.75" y="253.2285">EntityLoader</text><line style="stroke:#181818;stroke-width:0.5;" x1="52" x2="269" y1="263.5" y2="263.5"/><line style="stroke:#181818;stroke-width:0.5;" x1="52" x2="269" y1="271.5" y2="271.5"/><ellipse cx="62" cy="285.8047" fill="#84BE84" rx="3" ry="3" style="stroke:#038048;stroke-width:1.0;"/><text fill="#000000" font-family="sans-serif" font-size="14" lengthAdjust="spacing" text-decoration="underline" textLength="193" x="71" y="290.0332">newEntity(name: String): Entity</text></g></a><!--class EntityList--><a href="java:entities.EntityList" target="_top" title="java:entities.EntityList" xlink:actuate="onRequest" xlink:href="java:entities.EntityList" xlink:show="new" xlink:title="java:entities.EntityList" xlink:type="simple"><g id="elem_EntityList"><rect codeLine="16" fill="#F1F1F1" height="83.2188" id="EntityList" rx="2.5" ry="2.5" style="stroke:#181818;stroke-width:0.5;" width="303" x="408" y="223"/><ellipse cx="526.75" cy="239" fill="#ADD1B2" rx="11" ry="11" style="stroke:#181818;stroke-width:1.0;"/><path d="M529.5156,234.875 Q529.6719,234.6563 529.8594,234.5469 Q530.0469,234.4375 530.2656,234.4375 Q530.6406,234.4375 530.875,234.7031 Q531.1094,234.9531 531.1094,235.5625 L531.1094,237.0156 Q531.1094,237.625 530.875,237.8906 Q530.6406,238.1563 530.2656,238.1563 Q529.9219,238.1563 529.7188,237.9531 Q529.5156,237.7656 529.4063,237.25 Q529.3594,236.8906 529.1719,236.7031 Q528.8438,236.3281 528.2344,236.1094 Q527.625,235.8906 527,235.8906 Q526.2344,235.8906 525.5938,236.2188 Q524.9688,236.5469 524.4688,237.2969 Q523.9844,238.0469 523.9844,239.0781 L523.9844,240.1719 Q523.9844,241.4063 524.875,242.2344 Q525.7656,243.0469 527.3594,243.0469 Q528.2969,243.0469 528.9531,242.7969 Q529.3438,242.6406 529.7656,242.2031 Q530.0313,241.9375 530.1719,241.8594 Q530.3281,241.7813 530.5313,241.7813 Q530.8594,241.7813 531.1094,242.0469 Q531.375,242.2969 531.375,242.6406 Q531.375,242.9844 531.0313,243.3906 Q530.5313,243.9688 529.7344,244.2969 Q528.6563,244.75 527.3594,244.75 Q525.8438,244.75 524.6406,244.125 Q523.6563,243.625 522.9688,242.5625 Q522.2813,241.4844 522.2813,240.2031 L522.2813,239.0469 Q522.2813,237.7188 522.8906,236.5781 Q523.5156,235.4219 524.6094,234.8125 Q525.7031,234.1875 526.9375,234.1875 Q527.6719,234.1875 528.3125,234.3594 Q528.9688,234.5156 529.5156,234.875 Z " fill="#000000"/><text fill="#000000" font-family="sans-serif" font-size="14" lengthAdjust="spacing" textLength="57" x="547.25" y="244.7285">EntityList</text><line style="stroke:#181818;stroke-width:0.5;" x1="409" x2="710" y1="255" y2="255"/><rect fill="none" height="6" style="stroke:#C82930;stroke-width:1.0;" width="6" x="416" y="266.3047"/><text fill="#000000" font-family="sans-serif" font-size="14" lengthAdjust="spacing" text-decoration="underline" textLength="246" x="428" y="273.5332">entityMap: HashMap&lt;String,Resource&gt;</text><line style="stroke:#181818;stroke-width:0.5;" x1="409" x2="710" y1="280.6094" y2="280.6094"/><ellipse cx="419" cy="294.9141" fill="#84BE84" rx="3" ry="3" style="stroke:#038048;stroke-width:1.0;"/><text fill="#000000" font-family="sans-serif" font-size="14" lengthAdjust="spacing" text-decoration="underline" textLength="277" x="428" y="299.1426">getEntityMap(): HashMap&lt;String,Resource&gt;</text></g></a><!--class Resource--><a href="java:entities.Resource" target="_top" title="java:entities.Resource" xlink:actuate="onRequest" xlink:href="java:entities.Resource" xlink:show="new" xlink:title="java:entities.Resource" xlink:type="simple"><g id="elem_Resource"><rect codeLine="20" fill="#F1F1F1" height="100.8281" id="Resource" rx="2.5" ry="2.5" style="stroke:#181818;stroke-width:0.5;" width="438" x="823" y="214"/><ellipse cx="1007.25" cy="230" fill="#ADD1B2" rx="11" ry="11" style="stroke:#181818;stroke-width:1.0;"/><path d="M1010.0156,225.875 Q1010.1719,225.6563 1010.3594,225.5469 Q1010.5469,225.4375 1010.7656,225.4375 Q1011.1406,225.4375 1011.375,225.7031 Q1011.6094,225.9531 1011.6094,226.5625 L1011.6094,228.0156 Q1011.6094,228.625 1011.375,228.8906 Q1011.1406,229.1563 1010.7656,229.1563 Q1010.4219,229.1563 1010.2188,228.9531 Q1010.0156,228.7656 1009.9063,228.25 Q1009.8594,227.8906 1009.6719,227.7031 Q1009.3438,227.3281 1008.7344,227.1094 Q1008.125,226.8906 1007.5,226.8906 Q1006.7344,226.8906 1006.0938,227.2188 Q1005.4688,227.5469 1004.9688,228.2969 Q1004.4844,229.0469 1004.4844,230.0781 L1004.4844,231.1719 Q1004.4844,232.4063 1005.375,233.2344 Q1006.2656,234.0469 1007.8594,234.0469 Q1008.7969,234.0469 1009.4531,233.7969 Q1009.8438,233.6406 1010.2656,233.2031 Q1010.5313,232.9375 1010.6719,232.8594 Q1010.8281,232.7813 1011.0313,232.7813 Q1011.3594,232.7813 1011.6094,233.0469 Q1011.875,233.2969 1011.875,233.6406 Q1011.875,233.9844 1011.5313,234.3906 Q1011.0313,234.9688 1010.2344,235.2969 Q1009.1563,235.75 1007.8594,235.75 Q1006.3438,235.75 1005.1406,235.125 Q1004.1563,234.625 1003.4688,233.5625 Q1002.7813,232.4844 1002.7813,231.2031 L1002.7813,230.0469 Q1002.7813,228.7188 1003.3906,227.5781 Q1004.0156,226.4219 1005.1094,225.8125 Q1006.2031,225.1875 1007.4375,225.1875 Q1008.1719,225.1875 1008.8125,225.3594 Q1009.4688,225.5156 1010.0156,225.875 Z " fill="#000000"/><text fill="#000000" font-family="sans-serif" font-size="14" lengthAdjust="spacing" textLength="61" x="1027.75" y="235.7285">Resource</text><line style="stroke:#181818;stroke-width:0.5;" x1="824" x2="1260" y1="246" y2="246"/><rect fill="none" height="6" style="stroke:#C82930;stroke-width:1.0;" width="6" x="831" y="257.3047"/><text fill="#000000" font-family="sans-serif" font-size="14" lengthAdjust="spacing" textLength="152" x="843" y="264.5332">paths: ArrayList&lt;String&gt;</text><rect fill="none" height="6" style="stroke:#C82930;stroke-width:1.0;" width="6" x="831" y="274.9141"/><text fill="#000000" font-family="sans-serif" font-size="14" lengthAdjust="spacing" textLength="163" x="843" y="282.1426">images: ArrayList&lt;Image&gt;</text><line style="stroke:#181818;stroke-width:0.5;" x1="824" x2="1260" y1="289.2188" y2="289.2188"/><ellipse cx="834" cy="303.5234" fill="#84BE84" rx="3" ry="3" style="stroke:#038048;stroke-width:1.0;"/><text fill="#000000" font-family="sans-serif" font-size="14" lengthAdjust="spacing" textLength="412" x="843" y="307.752">Resource(supplier: Supplier&lt;Entity&gt;, arrayList: ArrayList&lt;String&gt;)</text></g></a><!--link EntityLoader to EntityList--><g id="link_EntityLoader_EntityList"><path codeLine="26" d="M270.24,264.5 C312.71,264.5 356.13,264.5 401.92,264.5 " fill="none" id="EntityLoader-to-EntityList" style="stroke:#181818;stroke-width:1.0;"/><polygon fill="#181818" points="407.92,264.5,398.92,260.5,402.92,264.5,398.92,268.5,407.92,264.5" style="stroke:#181818;stroke-width:1.0;"/><text fill="#000000" font-family="sans-serif" font-size="13" lengthAdjust="spacing" textLength="32" x="345" y="260.9951">entity</text><text fill="#000000" font-family="sans-serif" font-size="13" lengthAdjust="spacing" textLength="7" x="392.9237" y="278.411">1</text></g><!--link EntityList to Resource--><g id="link_EntityList_Resource"><path codeLine="27" d="M711.21,264.5 C746.58,264.5 778.97,264.5 816.63,264.5 " fill="none" id="EntityList-to-Resource" style="stroke:#181818;stroke-width:1.0;"/><polygon fill="#181818" points="822.63,264.5,813.63,260.5,817.63,264.5,813.63,268.5,822.63,264.5" style="stroke:#181818;stroke-width:1.0;"/><text fill="#000000" font-family="sans-serif" font-size="13" lengthAdjust="spacing" textLength="50" x="742" y="260.9951">resource</text><text fill="#000000" font-family="sans-serif" font-size="13" lengthAdjust="spacing" textLength="7" x="808.3171" y="278.2662">1</text></g><!--link Resource to Entity--><g id="link_Resource_Entity"><path codeLine="28" d="M1261.23,264.5 C1311.02,264.5 1352.01,264.5 1381.87,264.5 " fill="none" id="Resource-to-Entity" style="stroke:#181818;stroke-width:1.0;"/><polygon fill="#181818" points="1387.87,264.5,1378.87,260.5,1382.87,264.5,1378.87,268.5,1387.87,264.5" style="stroke:#181818;stroke-width:1.0;"/><text fill="#000000" font-family="sans-serif" font-size="13" lengthAdjust="spacing" textLength="45" x="1302" y="260.9951">supplier</text><text fill="#000000" font-family="sans-serif" font-size="13" lengthAdjust="spacing" textLength="97" x="1283.042" y="278.7744">Supplier&lt;Entity&gt;</text></g><!--link Resource to Entity--><g id="link_Resource_Entity"><path codeLine="29" d="M1261.23,298.29 C1293.84,298.79 1326.92,296.71 1358,290.5 C1368.03,288.5 1372.9264,287.1694 1382.3264,283.2294 " fill="none" id="Resource-to-Entity-1" style="stroke:#181818;stroke-width:1.0;"/><polygon fill="#181818" points="1387.86,280.91,1378.0134,280.7,1383.2487,282.8428,1381.1059,288.0781,1387.86,280.91" style="stroke:#181818;stroke-width:1.0;"/><text fill="#000000" font-family="sans-serif" font-size="13" lengthAdjust="spacing" textLength="65" x="1292" y="286.9951">newEntity()</text><text fill="#000000" font-family="sans-serif" font-size="13" lengthAdjust="spacing" textLength="7" x="1373.1999" y="299.4759">1</text></g><!--SRC=[XLB1Re904BtlLqmyOIfDl19ZqeDDcsWFjJVZOOGHje65xAurnlZlNLWM1IJSXddlpRnzGqf73Je7oUD4GyGbXPhdWeKfAWKheRc-m6xtYtyOKFd5IRtQzduFrrkBk2tmB4WEy6kqb340_weqQXxUW09uan8lQwxqOgib5_6oHOZ62E4OuJ16m362UavuQGWnwHzEqfi6iCaFPTc5lp2ZTvbd5Ispd8PiP7OgQqUwpZ4QJDI2TQ3tNOBE5lU4MUa6cmssszrWNZGqtq3zSrNG1ei0Fb0bfgZpc7sJoayof5umAoSfqnaKELkkqpFb06UfG9qCtCNd6SRK0Z_BJcNDpV7KgIZIwWhRkbfOgyiPe1C-MJ0rNbdhFhw_XCbyyXXfK2V57dgErZmn05cNhEbLfAuXDzeedEkEOlv0kVy1K_OF]--></g></svg>