<?xml version="1.0" encoding="us-ascii" standalone="no"?><svg xmlns="http://www.w3.org/2000/svg" xmlns:xlink="http://www.w3.org/1999/xlink" contentStyleType="text/css" height="646px" preserveAspectRatio="none" style="width:1059px;height:646px;background:#FFFFFF;" version="1.1" viewBox="0 0 1059 646" width="1059px" zoomAndPan="magnify"><defs/><g><!--class Item--><a href="java:game.item.Item" target="_top" title="java:game.item.Item" xlink:actuate="onRequest" xlink:href="java:game.item.Item" xlink:show="new" xlink:title="java:game.item.Item" xlink:type="simple"><g id="elem_Item"><rect codeLine="1" fill="#F1F1F1" height="48" id="Item" rx="2.5" ry="2.5" style="stroke:#181818;stroke-width:0.5;" width="59" x="174" y="591"/><ellipse cx="189" cy="607" fill="#A9DCDF" rx="11" ry="11" style="stroke:#181818;stroke-width:1.0;"/><path d="M191.1875,608.7656 L187.0469,608.7656 L186.625,609.7969 L187.0469,609.7969 Q187.6563,609.7969 187.9219,610.0313 Q188.1875,610.2656 188.1875,610.6563 Q188.1875,611.0313 187.9219,611.2656 Q187.6563,611.5 187.0469,611.5 L184.75,611.5 Q184.1406,611.5 183.8906,611.2656 Q183.625,611.0313 183.625,610.6406 Q183.625,610.2656 183.9063,610.0313 Q184.1719,609.7813 184.7969,609.7969 L187.4688,603.1406 L186.3594,603.1406 Q185.75,603.1406 185.4844,602.9063 Q185.2188,602.6719 185.2188,602.2813 Q185.2188,601.9063 185.4844,601.6719 Q185.75,601.4375 186.3594,601.4375 L190.0313,601.4375 L193.4219,609.7969 Q194.0156,609.7969 194.2031,609.9375 Q194.5938,610.2031 194.5938,610.6563 Q194.5938,611.0313 194.3281,611.2656 Q194.0781,611.5 193.4688,611.5 L191.1719,611.5 Q190.5625,611.5 190.2969,611.2656 Q190.0313,611.0313 190.0313,610.6406 Q190.0313,610.2656 190.2969,610.0313 Q190.5625,609.7969 191.1719,609.7969 L191.5938,609.7969 L191.1875,608.7656 Z M190.4688,607.0625 L189.1094,603.6875 L187.7344,607.0625 L190.4688,607.0625 Z " fill="#000000"/><text fill="#000000" font-family="sans-serif" font-size="14" font-style="italic" lengthAdjust="spacing" textLength="27" x="203" y="612.7285">Item</text><line style="stroke:#181818;stroke-width:0.5;" x1="175" x2="232" y1="623" y2="623"/><line style="stroke:#181818;stroke-width:0.5;" x1="175" x2="232" y1="631" y2="631"/></g></a><!--class Entity--><a href="java:entities.Entity" target="_top" title="java:entities.Entity" xlink:actuate="onRequest" xlink:href="java:entities.Entity" xlink:show="new" xlink:title="java:entities.Entity" xlink:type="simple"><g id="elem_Entity"><rect codeLine="2" fill="#F1F1F1" height="48" id="Entity" rx="2.5" ry="2.5" style="stroke:#181818;stroke-width:0.5;" width="67" x="657" y="591"/><ellipse cx="672" cy="607" fill="#ADD1B2" rx="11" ry="11" style="stroke:#181818;stroke-width:1.0;"/><path d="M674.7656,602.875 Q674.9219,602.6563 675.1094,602.5469 Q675.2969,602.4375 675.5156,602.4375 Q675.8906,602.4375 676.125,602.7031 Q676.3594,602.9531 676.3594,603.5625 L676.3594,605.0156 Q676.3594,605.625 676.125,605.8906 Q675.8906,606.1563 675.5156,606.1563 Q675.1719,606.1563 674.9688,605.9531 Q674.7656,605.7656 674.6563,605.25 Q674.6094,604.8906 674.4219,604.7031 Q674.0938,604.3281 673.4844,604.1094 Q672.875,603.8906 672.25,603.8906 Q671.4844,603.8906 670.8438,604.2188 Q670.2188,604.5469 669.7188,605.2969 Q669.2344,606.0469 669.2344,607.0781 L669.2344,608.1719 Q669.2344,609.4063 670.125,610.2344 Q671.0156,611.0469 672.6094,611.0469 Q673.5469,611.0469 674.2031,610.7969 Q674.5938,610.6406 675.0156,610.2031 Q675.2813,609.9375 675.4219,609.8594 Q675.5781,609.7813 675.7813,609.7813 Q676.1094,609.7813 676.3594,610.0469 Q676.625,610.2969 676.625,610.6406 Q676.625,610.9844 676.2813,611.3906 Q675.7813,611.9688 674.9844,612.2969 Q673.9063,612.75 672.6094,612.75 Q671.0938,612.75 669.8906,612.125 Q668.9063,611.625 668.2188,610.5625 Q667.5313,609.4844 667.5313,608.2031 L667.5313,607.0469 Q667.5313,605.7188 668.1406,604.5781 Q668.7656,603.4219 669.8594,602.8125 Q670.9531,602.1875 672.1875,602.1875 Q672.9219,602.1875 673.5625,602.3594 Q674.2188,602.5156 674.7656,602.875 Z " fill="#000000"/><text fill="#000000" font-family="sans-serif" font-size="14" lengthAdjust="spacing" textLength="35" x="686" y="612.7285">Entity</text><line style="stroke:#181818;stroke-width:0.5;" x1="658" x2="723" y1="623" y2="623"/><line style="stroke:#181818;stroke-width:0.5;" x1="658" x2="723" y1="631" y2="631"/></g></a><!--class GameLogic--><a href="java:logic.GameLogic" target="_top" title="java:logic.GameLogic" xlink:actuate="onRequest" xlink:href="java:logic.GameLogic" xlink:show="new" xlink:title="java:logic.GameLogic" xlink:type="simple"><g id="elem_GameLogic"><rect codeLine="3" fill="#F1F1F1" height="453.0156" id="GameLogic" rx="2.5" ry="2.5" style="stroke:#181818;stroke-width:0.5;" width="321" x="7" y="33.5"/><ellipse cx="127.25" cy="49.5" fill="#ADD1B2" rx="11" ry="11" style="stroke:#181818;stroke-width:1.0;"/><path d="M130.0156,45.375 Q130.1719,45.1563 130.3594,45.0469 Q130.5469,44.9375 130.7656,44.9375 Q131.1406,44.9375 131.375,45.2031 Q131.6094,45.4531 131.6094,46.0625 L131.6094,47.5156 Q131.6094,48.125 131.375,48.3906 Q131.1406,48.6563 130.7656,48.6563 Q130.4219,48.6563 130.2188,48.4531 Q130.0156,48.2656 129.9063,47.75 Q129.8594,47.3906 129.6719,47.2031 Q129.3438,46.8281 128.7344,46.6094 Q128.125,46.3906 127.5,46.3906 Q126.7344,46.3906 126.0938,46.7188 Q125.4688,47.0469 124.9688,47.7969 Q124.4844,48.5469 124.4844,49.5781 L124.4844,50.6719 Q124.4844,51.9063 125.375,52.7344 Q126.2656,53.5469 127.8594,53.5469 Q128.7969,53.5469 129.4531,53.2969 Q129.8438,53.1406 130.2656,52.7031 Q130.5313,52.4375 130.6719,52.3594 Q130.8281,52.2813 131.0313,52.2813 Q131.3594,52.2813 131.6094,52.5469 Q131.875,52.7969 131.875,53.1406 Q131.875,53.4844 131.5313,53.8906 Q131.0313,54.4688 130.2344,54.7969 Q129.1563,55.25 127.8594,55.25 Q126.3438,55.25 125.1406,54.625 Q124.1563,54.125 123.4688,53.0625 Q122.7813,51.9844 122.7813,50.7031 L122.7813,49.5469 Q122.7813,48.2188 123.3906,47.0781 Q124.0156,45.9219 125.1094,45.3125 Q126.2031,44.6875 127.4375,44.6875 Q128.1719,44.6875 128.8125,44.8594 Q129.4688,45.0156 130.0156,45.375 Z " fill="#000000"/><text fill="#000000" font-family="sans-serif" font-size="14" lengthAdjust="spacing" textLength="72" x="147.75" y="55.2285">GameLogic</text><line style="stroke:#181818;stroke-width:0.5;" x1="8" x2="327" y1="65.5" y2="65.5"/><rect fill="none" height="6" style="stroke:#C82930;stroke-width:1.0;" width="6" x="15" y="76.8047"/><text fill="#000000" font-family="sans-serif" font-size="14" lengthAdjust="spacing" text-decoration="underline" textLength="133" x="27" y="84.0332">instance: GameLogic</text><rect fill="none" height="6" style="stroke:#C82930;stroke-width:1.0;" width="6" x="15" y="94.4141"/><text fill="#000000" font-family="sans-serif" font-size="14" lengthAdjust="spacing" textLength="101" x="27" y="101.6426">currentFloor: int</text><rect fill="none" height="6" style="stroke:#C82930;stroke-width:1.0;" width="6" x="15" y="112.0234"/><text fill="#000000" font-family="sans-serif" font-size="14" lengthAdjust="spacing" textLength="126" x="27" y="119.252">currentSubFloor: int</text><rect fill="none" height="6" style="stroke:#C82930;stroke-width:1.0;" width="6" x="15" y="129.6328"/><text fill="#000000" font-family="sans-serif" font-size="14" lengthAdjust="spacing" textLength="89" x="27" y="136.8613">boss: boolean</text><rect fill="none" height="6" style="stroke:#C82930;stroke-width:1.0;" width="6" x="15" y="147.2422"/><text fill="#000000" font-family="sans-serif" font-size="14" lengthAdjust="spacing" textLength="99" x="27" y="154.4707">doctor: boolean</text><rect fill="none" height="6" style="stroke:#C82930;stroke-width:1.0;" width="6" x="15" y="164.8516"/><text fill="#000000" font-family="sans-serif" font-size="14" lengthAdjust="spacing" textLength="150" x="27" y="172.0801">levelupSfx: MediaPlayer</text><rect fill="none" height="6" style="stroke:#C82930;stroke-width:1.0;" width="6" x="15" y="182.4609"/><text fill="#000000" font-family="sans-serif" font-size="14" lengthAdjust="spacing" textLength="139" x="27" y="189.6895">announce: StackPane</text><line style="stroke:#181818;stroke-width:0.5;" x1="8" x2="327" y1="196.7656" y2="196.7656"/><ellipse cx="18" cy="211.0703" fill="#84BE84" rx="3" ry="3" style="stroke:#038048;stroke-width:1.0;"/><text fill="#000000" font-family="sans-serif" font-size="14" lengthAdjust="spacing" textLength="82" x="27" y="215.2988">GameLogic()</text><ellipse cx="18" cy="228.6797" fill="#84BE84" rx="3" ry="3" style="stroke:#038048;stroke-width:1.0;"/><text fill="#000000" font-family="sans-serif" font-size="14" lengthAdjust="spacing" textLength="125" x="27" y="232.9082">initializeFight(): void</text><ellipse cx="18" cy="246.2891" fill="#84BE84" rx="3" ry="3" style="stroke:#038048;stroke-width:1.0;"/><text fill="#000000" font-family="sans-serif" font-size="14" lengthAdjust="spacing" textLength="110" x="27" y="250.5176">gameOver(): void</text><ellipse cx="18" cy="263.8984" fill="#84BE84" rx="3" ry="3" style="stroke:#038048;stroke-width:1.0;"/><text fill="#000000" font-family="sans-serif" font-size="14" lengthAdjust="spacing" textLength="100" x="27" y="268.127">endFight(): void</text><ellipse cx="18" cy="281.5078" fill="#84BE84" rx="3" ry="3" style="stroke:#038048;stroke-width:1.0;"/><text fill="#000000" font-family="sans-serif" font-size="14" lengthAdjust="spacing" textLength="165" x="27" y="285.7363">isLimitReached(): boolean</text><ellipse cx="18" cy="299.1172" fill="#84BE84" rx="3" ry="3" style="stroke:#038048;stroke-width:1.0;"/><text fill="#000000" font-family="sans-serif" font-size="14" lengthAdjust="spacing" text-decoration="underline" textLength="182" x="27" y="303.3457">updateBackpackItems(): void</text><ellipse cx="18" cy="316.7266" fill="#84BE84" rx="3" ry="3" style="stroke:#038048;stroke-width:1.0;"/><text fill="#000000" font-family="sans-serif" font-size="14" lengthAdjust="spacing" textLength="134" x="27" y="320.9551">getCurrentFloor(): int</text><ellipse cx="18" cy="334.3359" fill="#84BE84" rx="3" ry="3" style="stroke:#038048;stroke-width:1.0;"/><text fill="#000000" font-family="sans-serif" font-size="14" lengthAdjust="spacing" textLength="245" x="27" y="338.5645">setCurrentFloor(currentFloor: int): void</text><ellipse cx="18" cy="351.9453" fill="#84BE84" rx="3" ry="3" style="stroke:#038048;stroke-width:1.0;"/><text fill="#000000" font-family="sans-serif" font-size="14" lengthAdjust="spacing" text-decoration="underline" textLength="163" x="27" y="356.1738">getInstance(): GameLogic</text><ellipse cx="18" cy="369.5547" fill="#84BE84" rx="3" ry="3" style="stroke:#038048;stroke-width:1.0;"/><text fill="#000000" font-family="sans-serif" font-size="14" lengthAdjust="spacing" text-decoration="underline" textLength="249" x="27" y="373.7832">setInstance(instance: GameLogic): void</text><ellipse cx="18" cy="387.1641" fill="#84BE84" rx="3" ry="3" style="stroke:#038048;stroke-width:1.0;"/><text fill="#000000" font-family="sans-serif" font-size="14" lengthAdjust="spacing" textLength="159" x="27" y="391.3926">getCurrentSubFloor(): int</text><ellipse cx="18" cy="404.7734" fill="#84BE84" rx="3" ry="3" style="stroke:#038048;stroke-width:1.0;"/><text fill="#000000" font-family="sans-serif" font-size="14" lengthAdjust="spacing" textLength="295" x="27" y="409.002">setCurrentSubFloor(currentSubFloor: int): void</text><ellipse cx="18" cy="422.3828" fill="#84BE84" rx="3" ry="3" style="stroke:#038048;stroke-width:1.0;"/><text fill="#000000" font-family="sans-serif" font-size="14" lengthAdjust="spacing" textLength="110" x="27" y="426.6113">isBoss(): boolean</text><ellipse cx="18" cy="439.9922" fill="#84BE84" rx="3" ry="3" style="stroke:#038048;stroke-width:1.0;"/><text fill="#000000" font-family="sans-serif" font-size="14" lengthAdjust="spacing" textLength="183" x="27" y="444.2207">setBoss(boss: boolean): void</text><ellipse cx="18" cy="457.6016" fill="#84BE84" rx="3" ry="3" style="stroke:#038048;stroke-width:1.0;"/><text fill="#000000" font-family="sans-serif" font-size="14" lengthAdjust="spacing" textLength="121" x="27" y="461.8301">isDoctor(): boolean</text><ellipse cx="18" cy="475.2109" fill="#84BE84" rx="3" ry="3" style="stroke:#038048;stroke-width:1.0;"/><text fill="#000000" font-family="sans-serif" font-size="14" lengthAdjust="spacing" textLength="204" x="27" y="479.4395">setDoctor(doctor: boolean): void</text></g></a><!--class FightLogic--><a href="java:logic.FightLogic" target="_top" title="java:logic.FightLogic" xlink:actuate="onRequest" xlink:href="java:logic.FightLogic" xlink:show="new" xlink:title="java:logic.FightLogic" xlink:type="simple"><g id="elem_FightLogic"><rect codeLine="28" fill="#F1F1F1" height="505.8438" id="FightLogic" rx="2.5" ry="2.5" style="stroke:#181818;stroke-width:0.5;" width="638" x="368.5" y="7"/><ellipse cx="650.25" cy="23" fill="#ADD1B2" rx="11" ry="11" style="stroke:#181818;stroke-width:1.0;"/><path d="M653.0156,18.875 Q653.1719,18.6563 653.3594,18.5469 Q653.5469,18.4375 653.7656,18.4375 Q654.1406,18.4375 654.375,18.7031 Q654.6094,18.9531 654.6094,19.5625 L654.6094,21.0156 Q654.6094,21.625 654.375,21.8906 Q654.1406,22.1563 653.7656,22.1563 Q653.4219,22.1563 653.2188,21.9531 Q653.0156,21.7656 652.9063,21.25 Q652.8594,20.8906 652.6719,20.7031 Q652.3438,20.3281 651.7344,20.1094 Q651.125,19.8906 650.5,19.8906 Q649.7344,19.8906 649.0938,20.2188 Q648.4688,20.5469 647.9688,21.2969 Q647.4844,22.0469 647.4844,23.0781 L647.4844,24.1719 Q647.4844,25.4063 648.375,26.2344 Q649.2656,27.0469 650.8594,27.0469 Q651.7969,27.0469 652.4531,26.7969 Q652.8438,26.6406 653.2656,26.2031 Q653.5313,25.9375 653.6719,25.8594 Q653.8281,25.7813 654.0313,25.7813 Q654.3594,25.7813 654.6094,26.0469 Q654.875,26.2969 654.875,26.6406 Q654.875,26.9844 654.5313,27.3906 Q654.0313,27.9688 653.2344,28.2969 Q652.1563,28.75 650.8594,28.75 Q649.3438,28.75 648.1406,28.125 Q647.1563,27.625 646.4688,26.5625 Q645.7813,25.4844 645.7813,24.2031 L645.7813,23.0469 Q645.7813,21.7188 646.3906,20.5781 Q647.0156,19.4219 648.1094,18.8125 Q649.2031,18.1875 650.4375,18.1875 Q651.1719,18.1875 651.8125,18.3594 Q652.4688,18.5156 653.0156,18.875 Z " fill="#000000"/><text fill="#000000" font-family="sans-serif" font-size="14" lengthAdjust="spacing" textLength="66" x="670.75" y="28.7285">FightLogic</text><line style="stroke:#181818;stroke-width:0.5;" x1="369.5" x2="1005.5" y1="39" y2="39"/><rect fill="none" height="6" style="stroke:#C82930;stroke-width:1.0;" width="6" x="376.5" y="50.3047"/><text fill="#000000" font-family="sans-serif" font-size="14" lengthAdjust="spacing" text-decoration="underline" textLength="127" x="388.5" y="57.5332">instance: FightLogic</text><rect fill="none" height="6" style="stroke:#C82930;stroke-width:1.0;" width="6" x="376.5" y="67.9141"/><text fill="#000000" font-family="sans-serif" font-size="14" lengthAdjust="spacing" textLength="112" x="388.5" y="75.1426">isInFight: boolean</text><rect fill="none" height="6" style="stroke:#C82930;stroke-width:1.0;" width="6" x="376.5" y="85.5234"/><text fill="#000000" font-family="sans-serif" font-size="14" lengthAdjust="spacing" textLength="108" x="388.5" y="92.752">isPTurn: boolean</text><rect fill="none" height="6" style="stroke:#C82930;stroke-width:1.0;" width="6" x="376.5" y="103.1328"/><text fill="#000000" font-family="sans-serif" font-size="14" lengthAdjust="spacing" textLength="66" x="388.5" y="110.3613">totalXp: int</text><line style="stroke:#181818;stroke-width:0.5;" x1="369.5" x2="1005.5" y1="117.4375" y2="117.4375"/><ellipse cx="379.5" cy="131.7422" fill="#84BE84" rx="3" ry="3" style="stroke:#038048;stroke-width:1.0;"/><text fill="#000000" font-family="sans-serif" font-size="14" lengthAdjust="spacing" textLength="76" x="388.5" y="135.9707">FightLogic()</text><ellipse cx="379.5" cy="149.3516" fill="#84BE84" rx="3" ry="3" style="stroke:#038048;stroke-width:1.0;"/><text fill="#000000" font-family="sans-serif" font-size="14" lengthAdjust="spacing" textLength="119" x="388.5" y="153.5801">entitiesTurn(): void</text><ellipse cx="379.5" cy="166.9609" fill="#84BE84" rx="3" ry="3" style="stroke:#038048;stroke-width:1.0;"/><text fill="#000000" font-family="sans-serif" font-size="14" lengthAdjust="spacing" textLength="159" x="388.5" y="171.1895">entityTurn(e: Entity): void</text><ellipse cx="379.5" cy="184.5703" fill="#84BE84" rx="3" ry="3" style="stroke:#038048;stroke-width:1.0;"/><text fill="#000000" font-family="sans-serif" font-size="14" lengthAdjust="spacing" textLength="113" x="388.5" y="188.7988">playerTurn(): void</text><ellipse cx="379.5" cy="202.1797" fill="#84BE84" rx="3" ry="3" style="stroke:#038048;stroke-width:1.0;"/><text fill="#000000" font-family="sans-serif" font-size="14" lengthAdjust="spacing" textLength="295" x="388.5" y="206.4082">activateEffect(effect: Effect, being: Being): void</text><ellipse cx="379.5" cy="219.7891" fill="#84BE84" rx="3" ry="3" style="stroke:#038048;stroke-width:1.0;"/><text fill="#000000" font-family="sans-serif" font-size="14" lengthAdjust="spacing" textLength="219" x="388.5" y="224.0176">useEffect(ef: Effect, e: Being): void</text><rect fill="#F24D5C" height="6" style="stroke:#C82930;stroke-width:1.0;" width="6" x="376.5" y="234.3984"/><text fill="#000000" font-family="sans-serif" font-size="14" lengthAdjust="spacing" textLength="155" x="388.5" y="241.627">clearDeadEntities(): void</text><ellipse cx="379.5" cy="255.0078" fill="#84BE84" rx="3" ry="3" style="stroke:#038048;stroke-width:1.0;"/><text fill="#000000" font-family="sans-serif" font-size="14" lengthAdjust="spacing" text-decoration="underline" textLength="355" x="388.5" y="259.2363">doDamage(damage: int, self: Being, enemy: Being): void</text><ellipse cx="379.5" cy="272.6172" fill="#84BE84" rx="3" ry="3" style="stroke:#038048;stroke-width:1.0;"/><text fill="#000000" font-family="sans-serif" font-size="14" lengthAdjust="spacing" text-decoration="underline" textLength="369" x="388.5" y="276.8457">findEffect(efs: ArrayList&lt;Effect&gt;, target: EffectType): Effect</text><ellipse cx="379.5" cy="290.2266" fill="#84BE84" rx="3" ry="3" style="stroke:#038048;stroke-width:1.0;"/><text fill="#000000" font-family="sans-serif" font-size="14" lengthAdjust="spacing" text-decoration="underline" textLength="612" x="388.5" y="294.4551">findEffectAndAdd(efs: ArrayList&lt;Effect&gt;, target: EffectType, amount: int, targetBeing: Being): void</text><ellipse cx="379.5" cy="307.8359" fill="#84BE84" rx="3" ry="3" style="stroke:#038048;stroke-width:1.0;"/><text fill="#000000" font-family="sans-serif" font-size="14" lengthAdjust="spacing" text-decoration="underline" textLength="548" x="388.5" y="312.0645">findEffectAndDecrease(efs: ArrayList&lt;Effect&gt;, target: EffectType, amount: int): boolean</text><ellipse cx="379.5" cy="325.4453" fill="#84BE84" rx="3" ry="3" style="stroke:#038048;stroke-width:1.0;"/><text fill="#000000" font-family="sans-serif" font-size="14" lengthAdjust="spacing" text-decoration="underline" textLength="157" x="388.5" y="329.6738">getInstance(): FightLogic</text><ellipse cx="379.5" cy="343.0547" fill="#84BE84" rx="3" ry="3" style="stroke:#038048;stroke-width:1.0;"/><text fill="#000000" font-family="sans-serif" font-size="14" lengthAdjust="spacing" textLength="122" x="388.5" y="347.2832">isInFight(): boolean</text><ellipse cx="379.5" cy="360.6641" fill="#84BE84" rx="3" ry="3" style="stroke:#038048;stroke-width:1.0;"/><text fill="#000000" font-family="sans-serif" font-size="14" lengthAdjust="spacing" textLength="218" x="388.5" y="364.8926">setInFight(isInFight: boolean): void</text><ellipse cx="379.5" cy="378.2734" fill="#84BE84" rx="3" ry="3" style="stroke:#038048;stroke-width:1.0;"/><text fill="#000000" font-family="sans-serif" font-size="14" lengthAdjust="spacing" textLength="118" x="388.5" y="382.502">isPTurn(): boolean</text><ellipse cx="379.5" cy="395.8828" fill="#84BE84" rx="3" ry="3" style="stroke:#038048;stroke-width:1.0;"/><text fill="#000000" font-family="sans-serif" font-size="14" lengthAdjust="spacing" textLength="210" x="388.5" y="400.1113">setPTurn(isPTurn: boolean): void</text><ellipse cx="379.5" cy="413.4922" fill="#84BE84" rx="3" ry="3" style="stroke:#038048;stroke-width:1.0;"/><text fill="#000000" font-family="sans-serif" font-size="14" lengthAdjust="spacing" textLength="185" x="388.5" y="417.7207">setTarget(target: Entity): void</text><ellipse cx="379.5" cy="431.1016" fill="#84BE84" rx="3" ry="3" style="stroke:#038048;stroke-width:1.0;"/><text fill="#000000" font-family="sans-serif" font-size="14" lengthAdjust="spacing" textLength="269" x="388.5" y="435.3301">setEntities(entities: ArrayList&lt;Entity&gt;): void</text><ellipse cx="379.5" cy="448.7109" fill="#84BE84" rx="3" ry="3" style="stroke:#038048;stroke-width:1.0;"/><text fill="#000000" font-family="sans-serif" font-size="14" lengthAdjust="spacing" textLength="445" x="388.5" y="452.9395">setEntitiesFromSummon(entitiesFromSummon: ArrayList&lt;Entity&gt;): void</text><ellipse cx="379.5" cy="466.3203" fill="#84BE84" rx="3" ry="3" style="stroke:#038048;stroke-width:1.0;"/><text fill="#000000" font-family="sans-serif" font-size="14" lengthAdjust="spacing" textLength="101" x="388.5" y="470.5488">getTotalXp(): int</text><ellipse cx="379.5" cy="483.9297" fill="#84BE84" rx="3" ry="3" style="stroke:#038048;stroke-width:1.0;"/><text fill="#000000" font-family="sans-serif" font-size="14" lengthAdjust="spacing" textLength="177" x="388.5" y="488.1582">setTotalXp(totalXp: int): void</text><ellipse cx="379.5" cy="501.5391" fill="#84BE84" rx="3" ry="3" style="stroke:#038048;stroke-width:1.0;"/><text fill="#000000" font-family="sans-serif" font-size="14" lengthAdjust="spacing" text-decoration="underline" textLength="243" x="388.5" y="505.7676">setInstance(instance: FightLogic): void</text></g></a><!--link GameLogic to Item--><g id="link_GameLogic_Item"><path codeLine="56" d="M136.45,486.85 C138.92,512.4 144.21,537.62 153.5,561 C157.98,572.29 161.8999,578.3148 170.3299,586.7548 " fill="none" id="GameLogic-to-Item" style="stroke:#181818;stroke-width:1.0;"/><polygon fill="#181818" points="174.57,591,171.0399,581.8055,171.0366,587.4624,165.3797,587.459,174.57,591" style="stroke:#181818;stroke-width:1.0;"/><text fill="#000000" font-family="sans-serif" font-size="13" lengthAdjust="spacing" textLength="51" x="154.5" y="557.4951">inventory</text><text fill="#000000" font-family="sans-serif" font-size="13" lengthAdjust="spacing" textLength="5" x="161.5161" y="580.3402">*</text></g><!--link GameLogic to Item--><g id="link_GameLogic_Item"><path codeLine="57" d="M204.98,486.53 C207.21,505.59 209.11,524.61 210.5,543 C211.71,558.93 210.8075,570.906 208.7375,584.746 " fill="none" id="GameLogic-to-Item-1" style="stroke:#181818;stroke-width:1.0;"/><polygon fill="#181818" points="207.85,590.68,213.1373,582.3707,208.5896,585.735,205.2253,581.1873,207.85,590.68" style="stroke:#181818;stroke-width:1.0;"/><text fill="#000000" font-family="sans-serif" font-size="13" lengthAdjust="spacing" textLength="77" x="212.5" y="557.4951">getInventory()</text><text fill="#000000" font-family="sans-serif" font-size="13" lengthAdjust="spacing" textLength="5" x="203.3009" y="580.34">*</text></g><!--link FightLogic to Entity--><g id="link_FightLogic_Entity"><path codeLine="58" d="M425.22,513.08 C426.57,529.29 432.89,545.38 445.5,561 C471.66,593.43 589.7984,606.5304 650.6784,611.3104 " fill="none" id="FightLogic-to-Entity" style="stroke:#181818;stroke-width:1.0;"/><polygon fill="#181818" points="656.66,611.78,648.0007,607.0878,651.6753,611.3886,647.3745,615.0633,656.66,611.78" style="stroke:#181818;stroke-width:1.0;"/><text fill="#000000" font-family="sans-serif" font-size="13" lengthAdjust="spacing" textLength="33" x="446.5" y="557.4951">target</text><text fill="#000000" font-family="sans-serif" font-size="13" lengthAdjust="spacing" textLength="7" x="641.9586" y="626.2972">1</text></g><!--link FightLogic to Entity--><g id="link_FightLogic_Entity"><path codeLine="59" d="M501.75,513.21 C503.42,529.68 509.28,545.76 520.5,561 C551.74,603.46 610.7745,612.6374 650.7345,614.1874 " fill="none" id="FightLogic-to-Entity-1" style="stroke:#181818;stroke-width:1.0;"/><polygon fill="#181818" points="656.73,614.42,647.8918,610.0742,651.7338,614.2262,647.5817,618.0682,656.73,614.42" style="stroke:#181818;stroke-width:1.0;"/><text fill="#000000" font-family="sans-serif" font-size="13" lengthAdjust="spacing" textLength="42" x="521.5" y="557.4951">entities</text><text fill="#000000" font-family="sans-serif" font-size="13" lengthAdjust="spacing" textLength="5" x="643.7959" y="610.0767">*</text></g><!--link FightLogic to Entity--><g id="link_FightLogic_Entity"><path codeLine="60" d="M588.65,513.04 C590.97,529.64 596,545.78 604.5,561 C615.62,580.91 632.1263,591.8476 651.0963,600.1776 " fill="none" id="FightLogic-to-Entity-2" style="stroke:#181818;stroke-width:1.0;"/><polygon fill="#181818" points="656.59,602.59,649.9577,595.309,652.0119,600.5797,646.7412,602.6339,656.59,602.59" style="stroke:#181818;stroke-width:1.0;"/><text fill="#000000" font-family="sans-serif" font-size="13" lengthAdjust="spacing" textLength="124" x="605.5" y="557.4951">entitiesFromSummon</text><text fill="#000000" font-family="sans-serif" font-size="13" lengthAdjust="spacing" textLength="5" x="644.0804" y="595.9118">*</text></g><!--link FightLogic to Entity--><g id="link_FightLogic_Entity"><path codeLine="61" d="M731.64,513.26 C732.73,523.29 733.69,533.23 734.5,543 C735.16,550.97 737.22,553.48 734.5,561 C730.52,572.02 727.1154,577.876 719.5254,586.456 " fill="none" id="FightLogic-to-Entity-3" style="stroke:#181818;stroke-width:1.0;"/><polygon fill="#181818" points="715.55,590.95,724.5092,586.8593,718.8629,587.205,718.5172,581.5587,715.55,590.95" style="stroke:#181818;stroke-width:1.0;"/><text fill="#000000" font-family="sans-serif" font-size="13" lengthAdjust="spacing" textLength="62" x="736.5" y="557.4951">getTarget()</text><text fill="#000000" font-family="sans-serif" font-size="13" lengthAdjust="spacing" textLength="7" x="714.0722" y="580.2773">1</text></g><!--link FightLogic to Entity--><g id="link_FightLogic_Entity"><path codeLine="62" d="M800.42,513.1 C803.1,523.11 805.48,533.09 807.5,543 C809.1,550.84 811.84,554.28 807.5,561 C789.25,589.3 757.6744,601.3363 730.0444,607.5363 " fill="none" id="FightLogic-to-Entity-4" style="stroke:#181818;stroke-width:1.0;"/><polygon fill="#181818" points="724.19,608.85,733.8474,610.7824,729.0687,607.7553,732.0958,602.9765,724.19,608.85" style="stroke:#181818;stroke-width:1.0;"/><text fill="#000000" font-family="sans-serif" font-size="13" lengthAdjust="spacing" textLength="70" x="810.5" y="557.4951">getEntities()</text><text fill="#000000" font-family="sans-serif" font-size="13" lengthAdjust="spacing" textLength="5" x="732.1066" y="603.2883">*</text></g><!--link FightLogic to Entity--><g id="link_FightLogic_Entity"><path codeLine="63" d="M908.82,513.1 C907.39,529.47 901.36,545.57 889.5,561 C869.46,587.08 781.3662,602.2481 730.0562,609.1681 " fill="none" id="FightLogic-to-Entity-5" style="stroke:#181818;stroke-width:1.0;"/><polygon fill="#181818" points="724.11,609.97,733.5639,612.7312,729.0651,609.3017,732.4946,604.803,724.11,609.97" style="stroke:#181818;stroke-width:1.0;"/><text fill="#000000" font-family="sans-serif" font-size="13" lengthAdjust="spacing" textLength="152" x="899.5" y="557.4951">getEntitiesFromSummon()</text><text fill="#000000" font-family="sans-serif" font-size="13" lengthAdjust="spacing" textLength="5" x="732.0091" y="624.1533">*</text></g><!--SRC=[dLLDRzim33stlyBeAMa-W5sDeK3Jj4E13WkM70OKFIWMusgpfK2IWsL5__iesVgmenRT3e6YnqUA8XzbibLQaa9dHKMKokurrDdZuqzo87b9QfWp1EO6VNhANbxFMzOjrqmV7G_CZe6Qjt1C_88X7aJ92iUjp6RkOSCzFvkzA4qqArupnl4VBo0FdcWk6YdnaBjA29aZHmTitMnxy5OebMTR8IeW7FTK5DfO0rB10QfclzxzphElG1bPLUG84Ys4Sz7OmzUQ5BzMXCFvsSGdCXhZZd6yAgdO7xXZvRCUZVFi81X5YwdMjmF8209EXooc7bZDz7SWnJDGO_2PJNmLcZqb6XQOmnv_flWgFWZqJLGGOx5tdwY1uQHi8OO_2eFTTpKtWQAg1uwAE8a6fJ9pRKabvssf5iQLMc0l-nN281RiTJbsMTfsdpXry40Cpj69rVOgeTQ0lotNm44xK_VS0h7kc5fj6ibZI0jDgXzxLw8GmqhDZPNnwedA39a5yTnsv89rRyKySC7nPWTKrErk1uKUWLtGrwxJR0kCbtcsC4jmQbJW1ouCURC2BoENGEXjb-ye8JCgbgGc9OoeNUoDfoYiQjV5myWSwkD95Zx2Zd7gyy7cNqj9ZWzCwSyjUZNDD96eG9VhvhY7iTka8rrpUatfFyIRPgJ69q9t-RU4HR9ywUEMK4WW2lxtpFHxCHZYM8iJhyMJeN3ugLhZYLevBVLyMtGewU27b8szoSXVQ21KP7Z1EANtAcBvLqc7EodgTLFNWdlN0BqR15FPj4FNUvaS5WzaefNfXp2KEpmeuRitcrrb5vSNxOVL13vWoa8UtwRORdOiV0YYLyaIFrsups_UgUM4SXbHN84-H0fLVFVOqdTt_6xOCkhnXvbHSyT_0G00]--></g></svg>