<?xml version="1.0" encoding="us-ascii" standalone="no"?><svg xmlns="http://www.w3.org/2000/svg" xmlns:xlink="http://www.w3.org/1999/xlink" contentStyleType="text/css" height="522px" preserveAspectRatio="none" style="width:1272px;height:522px;background:#FFFFFF;" version="1.1" viewBox="0 0 1272 522" width="1272px" zoomAndPan="magnify"><defs/><g><!--class ImagePlayer--><a href="java:image.ImagePlayer" target="_top" title="java:image.ImagePlayer" xlink:actuate="onRequest" xlink:href="java:image.ImagePlayer" xlink:show="new" xlink:title="java:image.ImagePlayer" xlink:type="simple"><g id="elem_ImagePlayer"><rect codeLine="1" fill="#F1F1F1" height="83.2188" id="ImagePlayer" rx="2.5" ry="2.5" style="stroke:#181818;stroke-width:0.5;" width="278" x="7" y="121.5"/><ellipse cx="102.75" cy="137.5" fill="#ADD1B2" rx="11" ry="11" style="stroke:#181818;stroke-width:1.0;"/><path d="M105.5156,133.375 Q105.6719,133.1563 105.8594,133.0469 Q106.0469,132.9375 106.2656,132.9375 Q106.6406,132.9375 106.875,133.2031 Q107.1094,133.4531 107.1094,134.0625 L107.1094,135.5156 Q107.1094,136.125 106.875,136.3906 Q106.6406,136.6563 106.2656,136.6563 Q105.9219,136.6563 105.7188,136.4531 Q105.5156,136.2656 105.4063,135.75 Q105.3594,135.3906 105.1719,135.2031 Q104.8438,134.8281 104.2344,134.6094 Q103.625,134.3906 103,134.3906 Q102.2344,134.3906 101.5938,134.7188 Q100.9688,135.0469 100.4688,135.7969 Q99.9844,136.5469 99.9844,137.5781 L99.9844,138.6719 Q99.9844,139.9063 100.875,140.7344 Q101.7656,141.5469 103.3594,141.5469 Q104.2969,141.5469 104.9531,141.2969 Q105.3438,141.1406 105.7656,140.7031 Q106.0313,140.4375 106.1719,140.3594 Q106.3281,140.2813 106.5313,140.2813 Q106.8594,140.2813 107.1094,140.5469 Q107.375,140.7969 107.375,141.1406 Q107.375,141.4844 107.0313,141.8906 Q106.5313,142.4688 105.7344,142.7969 Q104.6563,143.25 103.3594,143.25 Q101.8438,143.25 100.6406,142.625 Q99.6563,142.125 98.9688,141.0625 Q98.2813,139.9844 98.2813,138.7031 L98.2813,137.5469 Q98.2813,136.2188 98.8906,135.0781 Q99.5156,133.9219 100.6094,133.3125 Q101.7031,132.6875 102.9375,132.6875 Q103.6719,132.6875 104.3125,132.8594 Q104.9688,133.0156 105.5156,133.375 Z " fill="#000000"/><text fill="#000000" font-family="sans-serif" font-size="14" lengthAdjust="spacing" textLength="78" x="123.25" y="143.2285">ImagePlayer</text><line style="stroke:#181818;stroke-width:0.5;" x1="8" x2="284" y1="153.5" y2="153.5"/><rect fill="none" height="6" style="stroke:#C82930;stroke-width:1.0;" width="6" x="15" y="164.8047"/><text fill="#000000" font-family="sans-serif" font-size="14" lengthAdjust="spacing" text-decoration="underline" textLength="250" x="27" y="172.0332">imageMap: HashMap&lt;String,Resource&gt;</text><line style="stroke:#181818;stroke-width:0.5;" x1="8" x2="284" y1="179.1094" y2="179.1094"/><ellipse cx="18" cy="193.4141" fill="#84BE84" rx="3" ry="3" style="stroke:#038048;stroke-width:1.0;"/><text fill="#000000" font-family="sans-serif" font-size="14" lengthAdjust="spacing" text-decoration="underline" textLength="252" x="27" y="197.6426">getImageView(name: String): ImageView</text></g></a><!--class Resource--><a href="java:image.Resource" target="_top" title="java:image.Resource" xlink:actuate="onRequest" xlink:href="java:image.Resource" xlink:show="new" xlink:title="java:image.Resource" xlink:type="simple"><g id="elem_Resource"><rect codeLine="5" fill="#F1F1F1" height="118.4375" id="Resource" rx="2.5" ry="2.5" style="stroke:#181818;stroke-width:0.5;" width="170" x="217" y="397"/><ellipse cx="267.25" cy="413" fill="#ADD1B2" rx="11" ry="11" style="stroke:#181818;stroke-width:1.0;"/><path d="M270.0156,408.875 Q270.1719,408.6563 270.3594,408.5469 Q270.5469,408.4375 270.7656,408.4375 Q271.1406,408.4375 271.375,408.7031 Q271.6094,408.9531 271.6094,409.5625 L271.6094,411.0156 Q271.6094,411.625 271.375,411.8906 Q271.1406,412.1563 270.7656,412.1563 Q270.4219,412.1563 270.2188,411.9531 Q270.0156,411.7656 269.9063,411.25 Q269.8594,410.8906 269.6719,410.7031 Q269.3438,410.3281 268.7344,410.1094 Q268.125,409.8906 267.5,409.8906 Q266.7344,409.8906 266.0938,410.2188 Q265.4688,410.5469 264.9688,411.2969 Q264.4844,412.0469 264.4844,413.0781 L264.4844,414.1719 Q264.4844,415.4063 265.375,416.2344 Q266.2656,417.0469 267.8594,417.0469 Q268.7969,417.0469 269.4531,416.7969 Q269.8438,416.6406 270.2656,416.2031 Q270.5313,415.9375 270.6719,415.8594 Q270.8281,415.7813 271.0313,415.7813 Q271.3594,415.7813 271.6094,416.0469 Q271.875,416.2969 271.875,416.6406 Q271.875,416.9844 271.5313,417.3906 Q271.0313,417.9688 270.2344,418.2969 Q269.1563,418.75 267.8594,418.75 Q266.3438,418.75 265.1406,418.125 Q264.1563,417.625 263.4688,416.5625 Q262.7813,415.4844 262.7813,414.2031 L262.7813,413.0469 Q262.7813,411.7188 263.3906,410.5781 Q264.0156,409.4219 265.1094,408.8125 Q266.2031,408.1875 267.4375,408.1875 Q268.1719,408.1875 268.8125,408.3594 Q269.4688,408.5156 270.0156,408.875 Z " fill="#000000"/><text fill="#000000" font-family="sans-serif" font-size="14" lengthAdjust="spacing" textLength="61" x="287.75" y="418.7285">Resource</text><line style="stroke:#181818;stroke-width:0.5;" x1="218" x2="386" y1="429" y2="429"/><rect fill="none" height="6" style="stroke:#C82930;stroke-width:1.0;" width="6" x="225" y="440.3047"/><text fill="#000000" font-family="sans-serif" font-size="14" lengthAdjust="spacing" textLength="73" x="237" y="447.5332">path: String</text><rect fill="none" height="6" style="stroke:#C82930;stroke-width:1.0;" width="6" x="225" y="457.9141"/><text fill="#000000" font-family="sans-serif" font-size="14" lengthAdjust="spacing" textLength="84" x="237" y="465.1426">image: Image</text><line style="stroke:#181818;stroke-width:0.5;" x1="218" x2="386" y1="472.2188" y2="472.2188"/><ellipse cx="228" cy="486.5234" fill="#84BE84" rx="3" ry="3" style="stroke:#038048;stroke-width:1.0;"/><text fill="#000000" font-family="sans-serif" font-size="14" lengthAdjust="spacing" textLength="144" x="237" y="490.752">Resource(path: String)</text><ellipse cx="228" cy="504.1328" fill="#84BE84" rx="3" ry="3" style="stroke:#038048;stroke-width:1.0;"/><text fill="#000000" font-family="sans-serif" font-size="14" lengthAdjust="spacing" textLength="114" x="237" y="508.3613">getImage(): Image</text></g></a><!--class GifPlayer--><a href="java:image.GifPlayer" target="_top" title="java:image.GifPlayer" xlink:actuate="onRequest" xlink:href="java:image.GifPlayer" xlink:show="new" xlink:title="java:image.GifPlayer" xlink:type="simple"><g id="elem_GifPlayer"><rect codeLine="11" fill="#F1F1F1" height="312.1406" id="GifPlayer" rx="2.5" ry="2.5" style="stroke:#181818;stroke-width:0.5;" width="634" x="631" y="7"/><ellipse cx="914.75" cy="23" fill="#ADD1B2" rx="11" ry="11" style="stroke:#181818;stroke-width:1.0;"/><path d="M917.5156,18.875 Q917.6719,18.6563 917.8594,18.5469 Q918.0469,18.4375 918.2656,18.4375 Q918.6406,18.4375 918.875,18.7031 Q919.1094,18.9531 919.1094,19.5625 L919.1094,21.0156 Q919.1094,21.625 918.875,21.8906 Q918.6406,22.1563 918.2656,22.1563 Q917.9219,22.1563 917.7188,21.9531 Q917.5156,21.7656 917.4063,21.25 Q917.3594,20.8906 917.1719,20.7031 Q916.8438,20.3281 916.2344,20.1094 Q915.625,19.8906 915,19.8906 Q914.2344,19.8906 913.5938,20.2188 Q912.9688,20.5469 912.4688,21.2969 Q911.9844,22.0469 911.9844,23.0781 L911.9844,24.1719 Q911.9844,25.4063 912.875,26.2344 Q913.7656,27.0469 915.3594,27.0469 Q916.2969,27.0469 916.9531,26.7969 Q917.3438,26.6406 917.7656,26.2031 Q918.0313,25.9375 918.1719,25.8594 Q918.3281,25.7813 918.5313,25.7813 Q918.8594,25.7813 919.1094,26.0469 Q919.375,26.2969 919.375,26.6406 Q919.375,26.9844 919.0313,27.3906 Q918.5313,27.9688 917.7344,28.2969 Q916.6563,28.75 915.3594,28.75 Q913.8438,28.75 912.6406,28.125 Q911.6563,27.625 910.9688,26.5625 Q910.2813,25.4844 910.2813,24.2031 L910.2813,23.0469 Q910.2813,21.7188 910.8906,20.5781 Q911.5156,19.4219 912.6094,18.8125 Q913.7031,18.1875 914.9375,18.1875 Q915.6719,18.1875 916.3125,18.3594 Q916.9688,18.5156 917.5156,18.875 Z " fill="#000000"/><text fill="#000000" font-family="sans-serif" font-size="14" lengthAdjust="spacing" textLength="58" x="935.25" y="28.7285">GifPlayer</text><line style="stroke:#181818;stroke-width:0.5;" x1="632" x2="1264" y1="39" y2="39"/><rect fill="none" height="6" style="stroke:#C82930;stroke-width:1.0;" width="6" x="639" y="50.3047"/><text fill="#000000" font-family="sans-serif" font-size="14" lengthAdjust="spacing" text-decoration="underline" textLength="180" x="651" y="57.5332">idleKnight: ArrayList&lt;Image&gt;</text><rect fill="none" height="6" style="stroke:#C82930;stroke-width:1.0;" width="6" x="639" y="67.9141"/><text fill="#000000" font-family="sans-serif" font-size="14" lengthAdjust="spacing" text-decoration="underline" textLength="189" x="651" y="75.1426">knightIcons: ArrayList&lt;Image&gt;</text><rect fill="none" height="6" style="stroke:#C82930;stroke-width:1.0;" width="6" x="639" y="85.5234"/><text fill="#000000" font-family="sans-serif" font-size="14" lengthAdjust="spacing" text-decoration="underline" textLength="196" x="651" y="92.752">attackKnight: ArrayList&lt;Image&gt;</text><rect fill="none" height="6" style="stroke:#C82930;stroke-width:1.0;" width="6" x="639" y="103.1328"/><text fill="#000000" font-family="sans-serif" font-size="14" lengthAdjust="spacing" text-decoration="underline" textLength="179" x="651" y="110.3613">runKnight: ArrayList&lt;Image&gt;</text><rect fill="none" height="6" style="stroke:#C82930;stroke-width:1.0;" width="6" x="639" y="120.7422"/><text fill="#000000" font-family="sans-serif" font-size="14" lengthAdjust="spacing" text-decoration="underline" textLength="188" x="651" y="127.9707">selectIcons: ArrayList&lt;Image&gt;</text><rect fill="none" height="6" style="stroke:#C82930;stroke-width:1.0;" width="6" x="639" y="138.3516"/><text fill="#000000" font-family="sans-serif" font-size="14" lengthAdjust="spacing" text-decoration="underline" textLength="204" x="651" y="145.5801">highlightIcons: ArrayList&lt;Image&gt;</text><rect fill="none" height="6" style="stroke:#C82930;stroke-width:1.0;" width="6" x="639" y="155.9609"/><text fill="#000000" font-family="sans-serif" font-size="14" lengthAdjust="spacing" text-decoration="underline" textLength="229" x="651" y="163.1895">menuBackground: ArrayList&lt;Image&gt;</text><line style="stroke:#181818;stroke-width:0.5;" x1="632" x2="1264" y1="170.2656" y2="170.2656"/><ellipse cx="642" cy="184.5703" fill="#84BE84" rx="3" ry="3" style="stroke:#038048;stroke-width:1.0;"/><text fill="#000000" font-family="sans-serif" font-size="14" lengthAdjust="spacing" text-decoration="underline" textLength="608" x="651" y="188.7988">createAnimation(imageView: ImageView, arr: ArrayList&lt;Image&gt;, frameDuration: double): Timeline</text><ellipse cx="642" cy="202.1797" fill="#84BE84" rx="3" ry="3" style="stroke:#038048;stroke-width:1.0;"/><text fill="#000000" font-family="sans-serif" font-size="14" lengthAdjust="spacing" text-decoration="underline" textLength="210" x="651" y="206.4082">getIdleKnight(): ArrayList&lt;Image&gt;</text><ellipse cx="642" cy="219.7891" fill="#84BE84" rx="3" ry="3" style="stroke:#038048;stroke-width:1.0;"/><text fill="#000000" font-family="sans-serif" font-size="14" lengthAdjust="spacing" text-decoration="underline" textLength="221" x="651" y="224.0176">getKnightIcons(): ArrayList&lt;Image&gt;</text><ellipse cx="642" cy="237.3984" fill="#84BE84" rx="3" ry="3" style="stroke:#038048;stroke-width:1.0;"/><text fill="#000000" font-family="sans-serif" font-size="14" lengthAdjust="spacing" text-decoration="underline" textLength="259" x="651" y="241.627">getMenuBackground(): ArrayList&lt;Image&gt;</text><ellipse cx="642" cy="255.0078" fill="#84BE84" rx="3" ry="3" style="stroke:#038048;stroke-width:1.0;"/><text fill="#000000" font-family="sans-serif" font-size="14" lengthAdjust="spacing" text-decoration="underline" textLength="227" x="651" y="259.2363">getAttackKnight(): ArrayList&lt;Image&gt;</text><ellipse cx="642" cy="272.6172" fill="#84BE84" rx="3" ry="3" style="stroke:#038048;stroke-width:1.0;"/><text fill="#000000" font-family="sans-serif" font-size="14" lengthAdjust="spacing" text-decoration="underline" textLength="214" x="651" y="276.8457">getRunKnight(): ArrayList&lt;Image&gt;</text><ellipse cx="642" cy="290.2266" fill="#84BE84" rx="3" ry="3" style="stroke:#038048;stroke-width:1.0;"/><text fill="#000000" font-family="sans-serif" font-size="14" lengthAdjust="spacing" text-decoration="underline" textLength="220" x="651" y="294.4551">getSelectIcons(): ArrayList&lt;Image&gt;</text><ellipse cx="642" cy="307.8359" fill="#84BE84" rx="3" ry="3" style="stroke:#038048;stroke-width:1.0;"/><text fill="#000000" font-family="sans-serif" font-size="14" lengthAdjust="spacing" text-decoration="underline" textLength="235" x="651" y="312.0645">getHighlightIcons(): ArrayList&lt;Image&gt;</text></g></a><!--class VideoPlayer--><a href="java:image.VideoPlayer" target="_top" title="java:image.VideoPlayer" xlink:actuate="onRequest" xlink:href="java:image.VideoPlayer" xlink:show="new" xlink:title="java:image.VideoPlayer" xlink:type="simple"><g id="elem_VideoPlayer"><rect codeLine="28" fill="#F1F1F1" height="153.6563" id="VideoPlayer" rx="2.5" ry="2.5" style="stroke:#181818;stroke-width:0.5;" width="276" x="320" y="86"/><ellipse cx="415.75" cy="102" fill="#ADD1B2" rx="11" ry="11" style="stroke:#181818;stroke-width:1.0;"/><path d="M418.5156,97.875 Q418.6719,97.6563 418.8594,97.5469 Q419.0469,97.4375 419.2656,97.4375 Q419.6406,97.4375 419.875,97.7031 Q420.1094,97.9531 420.1094,98.5625 L420.1094,100.0156 Q420.1094,100.625 419.875,100.8906 Q419.6406,101.1563 419.2656,101.1563 Q418.9219,101.1563 418.7188,100.9531 Q418.5156,100.7656 418.4063,100.25 Q418.3594,99.8906 418.1719,99.7031 Q417.8438,99.3281 417.2344,99.1094 Q416.625,98.8906 416,98.8906 Q415.2344,98.8906 414.5938,99.2188 Q413.9688,99.5469 413.4688,100.2969 Q412.9844,101.0469 412.9844,102.0781 L412.9844,103.1719 Q412.9844,104.4063 413.875,105.2344 Q414.7656,106.0469 416.3594,106.0469 Q417.2969,106.0469 417.9531,105.7969 Q418.3438,105.6406 418.7656,105.2031 Q419.0313,104.9375 419.1719,104.8594 Q419.3281,104.7813 419.5313,104.7813 Q419.8594,104.7813 420.1094,105.0469 Q420.375,105.2969 420.375,105.6406 Q420.375,105.9844 420.0313,106.3906 Q419.5313,106.9688 418.7344,107.2969 Q417.6563,107.75 416.3594,107.75 Q414.8438,107.75 413.6406,107.125 Q412.6563,106.625 411.9688,105.5625 Q411.2813,104.4844 411.2813,103.2031 L411.2813,102.0469 Q411.2813,100.7188 411.8906,99.5781 Q412.5156,98.4219 413.6094,97.8125 Q414.7031,97.1875 415.9375,97.1875 Q416.6719,97.1875 417.3125,97.3594 Q417.9688,97.5156 418.5156,97.875 Z " fill="#000000"/><text fill="#000000" font-family="sans-serif" font-size="14" lengthAdjust="spacing" textLength="76" x="436.25" y="107.7285">VideoPlayer</text><line style="stroke:#181818;stroke-width:0.5;" x1="321" x2="595" y1="118" y2="118"/><rect fill="none" height="6" style="stroke:#C82930;stroke-width:1.0;" width="6" x="328" y="129.3047"/><text fill="#000000" font-family="sans-serif" font-size="14" lengthAdjust="spacing" text-decoration="underline" textLength="171" x="340" y="136.5332">currentPlayer: MediaPlayer</text><rect fill="none" height="6" style="stroke:#C82930;stroke-width:1.0;" width="6" x="328" y="146.9141"/><text fill="#000000" font-family="sans-serif" font-size="14" lengthAdjust="spacing" text-decoration="underline" textLength="250" x="340" y="154.1426">mediaMap: HashMap&lt;String,Resource&gt;</text><line style="stroke:#181818;stroke-width:0.5;" x1="321" x2="595" y1="161.2188" y2="161.2188"/><rect fill="#F24D5C" height="6" style="stroke:#C82930;stroke-width:1.0;" width="6" x="328" y="172.5234"/><text fill="#000000" font-family="sans-serif" font-size="14" lengthAdjust="spacing" text-decoration="underline" textLength="187" x="340" y="179.752">getMedia(path: String): Media</text><ellipse cx="331" cy="193.1328" fill="#84BE84" rx="3" ry="3" style="stroke:#038048;stroke-width:1.0;"/><text fill="#000000" font-family="sans-serif" font-size="14" lengthAdjust="spacing" text-decoration="underline" textLength="214" x="340" y="197.3613">getView(name: String): MediaView</text><ellipse cx="331" cy="210.7422" fill="#84BE84" rx="3" ry="3" style="stroke:#038048;stroke-width:1.0;"/><text fill="#000000" font-family="sans-serif" font-size="14" lengthAdjust="spacing" text-decoration="underline" textLength="70" x="340" y="214.9707">play(): void</text><ellipse cx="331" cy="228.3516" fill="#84BE84" rx="3" ry="3" style="stroke:#038048;stroke-width:1.0;"/><text fill="#000000" font-family="sans-serif" font-size="14" lengthAdjust="spacing" text-decoration="underline" textLength="204" x="340" y="232.5801">getCurrentPlayer(): MediaPlayer</text></g></a><!--link ImagePlayer to Resource--><g id="link_ImagePlayer_Resource"><path codeLine="37" d="M167.86,204.77 C194.69,254.82 237.5446,334.7722 268.0446,391.6522 " fill="none" id="ImagePlayer-to-Resource" style="stroke:#181818;stroke-width:1.0;"/><polygon fill="#181818" points="270.88,396.94,270.1521,387.1181,268.5172,392.5335,263.1017,390.8986,270.88,396.94" style="stroke:#181818;stroke-width:1.0;"/><text fill="#000000" font-family="sans-serif" font-size="13" lengthAdjust="spacing" textLength="50" x="253" y="363.4951">resource</text><text fill="#000000" font-family="sans-serif" font-size="13" lengthAdjust="spacing" textLength="7" x="259.6607" y="386.2569">1</text></g><!--link VideoPlayer to Resource--><g id="link_VideoPlayer_Resource"><path codeLine="38" d="M417.22,240.08 C390.95,289.08 360.1553,346.5222 336.0153,391.5422 " fill="none" id="VideoPlayer-to-Resource" style="stroke:#181818;stroke-width:1.0;"/><polygon fill="#181818" points="333.18,396.83,340.9582,390.7885,335.5428,392.4235,333.9078,387.0081,333.18,396.83" style="stroke:#181818;stroke-width:1.0;"/><text fill="#000000" font-family="sans-serif" font-size="13" lengthAdjust="spacing" textLength="50" x="358" y="363.4951">resource</text><text fill="#000000" font-family="sans-serif" font-size="13" lengthAdjust="spacing" textLength="7" x="329.5535" y="386.1335">1</text></g><!--SRC=[ZPHHQy8m4CVV-oc2JvNPmLw326w3AKuOEdmH7xBqR3DhAadg4F6xBuscfhQRUMjpl_npkV_bQ4QaHECjIU0Z8mSGQBdy9dk2MRdqw0HMAtGC48gEKX75w0aPOafs68s8JFL7Vwu4uqbl1Z8l18M1nXygF05br1OCVa9Eje3HcUzYL0M2Kq1DHbQZdevTjRdiY4gjJFblg8jSURZbGnVibX6RJMXFhqv-O-ksIbJBpJh46KmuIrA5qL08SdXdKlMDwA06RWmqfZcNTqYY5A4RBr5HS2zEGWRKw_1KgsM-cMw15yywrqJa1OzRuMiBK054mP3hYYgMyv1PsvqEw24YH5EdXzP2zynh8SnMZEAy-Cf0k_V9jf0n3ercgsmfFVutBqrFhjxuuDFQjNrs31rBVVYPzTK7db_DzS57DOTRTzZNi60nv6tlmGaqNWGjX02kpb6CfX0pSlwvwHszVc-0HFMowntrntoHlxrYsvGne9aoBhpJYPKbsESilbLvSIyITkjNEGM1EpUZQ80wJvrgSc4aBb-1MyI_iLy0]--></g></svg>