<?xml version="1.0" encoding="us-ascii" standalone="no"?><svg xmlns="http://www.w3.org/2000/svg" xmlns:xlink="http://www.w3.org/1999/xlink" contentStyleType="text/css" height="796px" preserveAspectRatio="none" style="width:845px;height:796px;background:#FFFFFF;" version="1.1" viewBox="0 0 845 796" width="845px" zoomAndPan="magnify"><defs/><g><!--class Sfx--><a href="java:sound.Sfx" target="_top" title="java:sound.Sfx" xlink:actuate="onRequest" xlink:href="java:sound.Sfx" xlink:show="new" xlink:title="java:sound.Sfx" xlink:type="simple"><g id="elem_Sfx"><rect codeLine="2" fill="#F1F1F1" height="523.4531" id="Sfx" rx="2.5" ry="2.5" style="stroke:#181818;stroke-width:0.5;" width="166" x="42.5" y="266.5"/><ellipse cx="111.75" cy="282.5" fill="#EB937F" rx="11" ry="11" style="stroke:#181818;stroke-width:1.0;"/><path d="M110.6094,283.2969 L110.6094,285.7969 L114.9375,285.7969 L114.9375,284.875 Q114.9375,284.2656 115.1719,284 Q115.4219,283.7344 115.7969,283.7344 Q116.1719,283.7344 116.4063,284 Q116.6406,284.2656 116.6406,284.875 L116.6406,287.5 L108.6406,287.5 Q108.0156,287.5 107.75,287.2656 Q107.5,287.0313 107.5,286.6406 Q107.5,286.2656 107.7656,286.0313 Q108.0313,285.7969 108.6406,285.7969 L108.9063,285.7969 L108.9063,279.1406 L108.6406,279.1406 Q108.0156,279.1406 107.75,278.9063 Q107.5,278.6719 107.5,278.2813 Q107.5,277.9063 107.75,277.6719 Q108.0156,277.4375 108.6406,277.4375 L116.2656,277.4375 L116.2656,280.0313 Q116.2656,280.6406 116.0313,280.9063 Q115.8125,281.1563 115.4219,281.1563 Q115.0469,281.1563 114.8125,280.9063 Q114.5781,280.6406 114.5781,280.0313 L114.5781,279.1406 L110.6094,279.1406 L110.6094,281.5938 L112.0938,281.5938 Q112.0938,280.9375 112.2188,280.75 Q112.4844,280.3438 112.9531,280.3438 Q113.3281,280.3438 113.5625,280.6094 Q113.7969,280.8594 113.7969,281.4688 L113.7969,283.4375 Q113.7969,283.9844 113.6719,284.1719 Q113.4063,284.5625 112.9531,284.5625 Q112.4844,284.5625 112.2188,284.1563 Q112.0938,283.9688 112.0938,283.2969 L110.6094,283.2969 Z " fill="#000000"/><text fill="#000000" font-family="sans-serif" font-size="14" lengthAdjust="spacing" textLength="19" x="132.25" y="288.2285">Sfx</text><line style="stroke:#181818;stroke-width:0.5;" x1="43.5" x2="207.5" y1="298.5" y2="298.5"/><text fill="#000000" font-family="sans-serif" font-size="14" lengthAdjust="spacing" textLength="53" x="48.5" y="317.0332">SWORD</text><text fill="#000000" font-family="sans-serif" font-size="14" lengthAdjust="spacing" textLength="37" x="48.5" y="334.6426">DENY</text><text fill="#000000" font-family="sans-serif" font-size="14" lengthAdjust="spacing" textLength="44" x="48.5" y="352.252">MAGIC</text><text fill="#000000" font-family="sans-serif" font-size="14" lengthAdjust="spacing" textLength="27" x="48.5" y="369.8613">EAT</text><text fill="#000000" font-family="sans-serif" font-size="14" lengthAdjust="spacing" textLength="52" x="48.5" y="387.4707">THROW</text><text fill="#000000" font-family="sans-serif" font-size="14" lengthAdjust="spacing" textLength="79" x="48.5" y="405.0801">GAMEOVER</text><text fill="#000000" font-family="sans-serif" font-size="14" lengthAdjust="spacing" textLength="86" x="48.5" y="422.6895">GAMESTART</text><text fill="#000000" font-family="sans-serif" font-size="14" lengthAdjust="spacing" textLength="54" x="48.5" y="440.2988">SELECT</text><text fill="#000000" font-family="sans-serif" font-size="14" lengthAdjust="spacing" textLength="61" x="48.5" y="457.9082">LEVELUP</text><text fill="#000000" font-family="sans-serif" font-size="14" lengthAdjust="spacing" textLength="31" x="48.5" y="475.5176">FIRE</text><text fill="#000000" font-family="sans-serif" font-size="14" lengthAdjust="spacing" textLength="52" x="48.5" y="493.127">POISON</text><text fill="#000000" font-family="sans-serif" font-size="14" lengthAdjust="spacing" textLength="59" x="48.5" y="510.7363">DAMAGE</text><text fill="#000000" font-family="sans-serif" font-size="14" lengthAdjust="spacing" textLength="48" x="48.5" y="528.3457">THORN</text><text fill="#000000" font-family="sans-serif" font-size="14" lengthAdjust="spacing" textLength="48" x="48.5" y="545.9551">SHIELD</text><text fill="#000000" font-family="sans-serif" font-size="14" lengthAdjust="spacing" textLength="51" x="48.5" y="563.5645">DODGE</text><text fill="#000000" font-family="sans-serif" font-size="14" lengthAdjust="spacing" textLength="64" x="48.5" y="581.1738">VAMPIRIC</text><text fill="#000000" font-family="sans-serif" font-size="14" lengthAdjust="spacing" textLength="40" x="48.5" y="598.7832">CLICK</text><text fill="#000000" font-family="sans-serif" font-size="14" lengthAdjust="spacing" textLength="29" x="48.5" y="616.3926">MAP</text><text fill="#000000" font-family="sans-serif" font-size="14" lengthAdjust="spacing" textLength="79" x="48.5" y="634.002">SUMMONER</text><text fill="#000000" font-family="sans-serif" font-size="14" lengthAdjust="spacing" textLength="48" x="48.5" y="651.6113">ANGER</text><text fill="#000000" font-family="sans-serif" font-size="14" lengthAdjust="spacing" textLength="35" x="48.5" y="669.2207">HEAL</text><text fill="#000000" font-family="sans-serif" font-size="14" lengthAdjust="spacing" textLength="38" x="48.5" y="686.8301">DEAD</text><text fill="#000000" font-family="sans-serif" font-size="14" lengthAdjust="spacing" textLength="75" x="48.5" y="704.4395">STONERUN</text><text fill="#000000" font-family="sans-serif" font-size="14" lengthAdjust="spacing" textLength="76" x="48.5" y="722.0488">GRASSRUN</text><text fill="#000000" font-family="sans-serif" font-size="14" lengthAdjust="spacing" textLength="154" x="48.5" y="739.6582">OUTSIDEOFBACKPACK</text><text fill="#000000" font-family="sans-serif" font-size="14" lengthAdjust="spacing" textLength="137" x="48.5" y="757.2676">INSIDEOFBACKPACK</text><text fill="#000000" font-family="sans-serif" font-size="14" lengthAdjust="spacing" textLength="40" x="48.5" y="774.877">DRAG</text><line style="stroke:#181818;stroke-width:0.5;" x1="43.5" x2="207.5" y1="781.9531" y2="781.9531"/></g></a><!--class SfxPlayer--><a href="java:sound.SfxPlayer" target="_top" title="java:sound.SfxPlayer" xlink:actuate="onRequest" xlink:href="java:sound.SfxPlayer" xlink:show="new" xlink:title="java:sound.SfxPlayer" xlink:type="simple"><g id="elem_SfxPlayer"><rect codeLine="31" fill="#F1F1F1" height="100.8281" id="SfxPlayer" rx="2.5" ry="2.5" style="stroke:#181818;stroke-width:0.5;" width="237" x="305" y="477.5"/><ellipse cx="389.75" cy="493.5" fill="#ADD1B2" rx="11" ry="11" style="stroke:#181818;stroke-width:1.0;"/><path d="M392.5156,489.375 Q392.6719,489.1563 392.8594,489.0469 Q393.0469,488.9375 393.2656,488.9375 Q393.6406,488.9375 393.875,489.2031 Q394.1094,489.4531 394.1094,490.0625 L394.1094,491.5156 Q394.1094,492.125 393.875,492.3906 Q393.6406,492.6563 393.2656,492.6563 Q392.9219,492.6563 392.7188,492.4531 Q392.5156,492.2656 392.4063,491.75 Q392.3594,491.3906 392.1719,491.2031 Q391.8438,490.8281 391.2344,490.6094 Q390.625,490.3906 390,490.3906 Q389.2344,490.3906 388.5938,490.7188 Q387.9688,491.0469 387.4688,491.7969 Q386.9844,492.5469 386.9844,493.5781 L386.9844,494.6719 Q386.9844,495.9063 387.875,496.7344 Q388.7656,497.5469 390.3594,497.5469 Q391.2969,497.5469 391.9531,497.2969 Q392.3438,497.1406 392.7656,496.7031 Q393.0313,496.4375 393.1719,496.3594 Q393.3281,496.2813 393.5313,496.2813 Q393.8594,496.2813 394.1094,496.5469 Q394.375,496.7969 394.375,497.1406 Q394.375,497.4844 394.0313,497.8906 Q393.5313,498.4688 392.7344,498.7969 Q391.6563,499.25 390.3594,499.25 Q388.8438,499.25 387.6406,498.625 Q386.6563,498.125 385.9688,497.0625 Q385.2813,495.9844 385.2813,494.7031 L385.2813,493.5469 Q385.2813,492.2188 385.8906,491.0781 Q386.5156,489.9219 387.6094,489.3125 Q388.7031,488.6875 389.9375,488.6875 Q390.6719,488.6875 391.3125,488.8594 Q391.9688,489.0156 392.5156,489.375 Z " fill="#000000"/><text fill="#000000" font-family="sans-serif" font-size="14" lengthAdjust="spacing" textLength="59" x="410.25" y="499.2285">SfxPlayer</text><line style="stroke:#181818;stroke-width:0.5;" x1="306" x2="541" y1="509.5" y2="509.5"/><rect fill="none" height="6" style="stroke:#C82930;stroke-width:1.0;" width="6" x="313" y="520.8047"/><text fill="#000000" font-family="sans-serif" font-size="14" lengthAdjust="spacing" text-decoration="underline" textLength="211" x="325" y="528.0332">sfxMap: HashMap&lt;Sfx,Resource&gt;</text><line style="stroke:#181818;stroke-width:0.5;" x1="306" x2="541" y1="535.1094" y2="535.1094"/><ellipse cx="316" cy="549.4141" fill="#84BE84" rx="3" ry="3" style="stroke:#038048;stroke-width:1.0;"/><text fill="#000000" font-family="sans-serif" font-size="14" lengthAdjust="spacing" text-decoration="underline" textLength="114" x="325" y="553.6426">play(sfx: Sfx): void</text><ellipse cx="316" cy="567.0234" fill="#84BE84" rx="3" ry="3" style="stroke:#038048;stroke-width:1.0;"/><text fill="#000000" font-family="sans-serif" font-size="14" lengthAdjust="spacing" text-decoration="underline" textLength="201" x="325" y="571.252">playByEffect(effect: Effect): void</text></g></a><!--class Resource--><a href="java:sound.Resource" target="_top" title="java:sound.Resource" xlink:actuate="onRequest" xlink:href="java:sound.Resource" xlink:show="new" xlink:title="java:sound.Resource" xlink:type="simple"><g id="elem_Resource"><rect codeLine="36" fill="#F1F1F1" height="118.4375" id="Resource" rx="2.5" ry="2.5" style="stroke:#181818;stroke-width:0.5;" width="184" x="654" y="469"/><ellipse cx="711.25" cy="485" fill="#ADD1B2" rx="11" ry="11" style="stroke:#181818;stroke-width:1.0;"/><path d="M714.0156,480.875 Q714.1719,480.6563 714.3594,480.5469 Q714.5469,480.4375 714.7656,480.4375 Q715.1406,480.4375 715.375,480.7031 Q715.6094,480.9531 715.6094,481.5625 L715.6094,483.0156 Q715.6094,483.625 715.375,483.8906 Q715.1406,484.1563 714.7656,484.1563 Q714.4219,484.1563 714.2188,483.9531 Q714.0156,483.7656 713.9063,483.25 Q713.8594,482.8906 713.6719,482.7031 Q713.3438,482.3281 712.7344,482.1094 Q712.125,481.8906 711.5,481.8906 Q710.7344,481.8906 710.0938,482.2188 Q709.4688,482.5469 708.9688,483.2969 Q708.4844,484.0469 708.4844,485.0781 L708.4844,486.1719 Q708.4844,487.4063 709.375,488.2344 Q710.2656,489.0469 711.8594,489.0469 Q712.7969,489.0469 713.4531,488.7969 Q713.8438,488.6406 714.2656,488.2031 Q714.5313,487.9375 714.6719,487.8594 Q714.8281,487.7813 715.0313,487.7813 Q715.3594,487.7813 715.6094,488.0469 Q715.875,488.2969 715.875,488.6406 Q715.875,488.9844 715.5313,489.3906 Q715.0313,489.9688 714.2344,490.2969 Q713.1563,490.75 711.8594,490.75 Q710.3438,490.75 709.1406,490.125 Q708.1563,489.625 707.4688,488.5625 Q706.7813,487.4844 706.7813,486.2031 L706.7813,485.0469 Q706.7813,483.7188 707.3906,482.5781 Q708.0156,481.4219 709.1094,480.8125 Q710.2031,480.1875 711.4375,480.1875 Q712.1719,480.1875 712.8125,480.3594 Q713.4688,480.5156 714.0156,480.875 Z " fill="#000000"/><text fill="#000000" font-family="sans-serif" font-size="14" lengthAdjust="spacing" textLength="61" x="731.75" y="490.7285">Resource</text><line style="stroke:#181818;stroke-width:0.5;" x1="655" x2="837" y1="501" y2="501"/><rect fill="none" height="6" style="stroke:#C82930;stroke-width:1.0;" width="6" x="662" y="512.3047"/><text fill="#000000" font-family="sans-serif" font-size="14" lengthAdjust="spacing" textLength="127" x="674" y="519.5332">audioClip: AudioClip</text><rect fill="none" height="6" style="stroke:#C82930;stroke-width:1.0;" width="6" x="662" y="529.9141"/><text fill="#000000" font-family="sans-serif" font-size="14" lengthAdjust="spacing" textLength="73" x="674" y="537.1426">path: String</text><line style="stroke:#181818;stroke-width:0.5;" x1="655" x2="837" y1="544.2188" y2="544.2188"/><ellipse cx="665" cy="558.5234" fill="#84BE84" rx="3" ry="3" style="stroke:#038048;stroke-width:1.0;"/><text fill="#000000" font-family="sans-serif" font-size="14" lengthAdjust="spacing" textLength="144" x="674" y="562.752">Resource(path: String)</text><ellipse cx="665" cy="576.1328" fill="#84BE84" rx="3" ry="3" style="stroke:#038048;stroke-width:1.0;"/><text fill="#000000" font-family="sans-serif" font-size="14" lengthAdjust="spacing" textLength="158" x="674" y="580.3613">getAudioClip(): AudioClip</text></g></a><!--class BackgroundSongPlayer--><a href="java:sound.BackgroundSongPlayer" target="_top" title="java:sound.BackgroundSongPlayer" xlink:actuate="onRequest" xlink:href="java:sound.BackgroundSongPlayer" xlink:show="new" xlink:title="java:sound.BackgroundSongPlayer" xlink:type="simple"><g id="elem_BackgroundSongPlayer"><rect codeLine="42" fill="#F1F1F1" height="224.0938" id="BackgroundSongPlayer" rx="2.5" ry="2.5" style="stroke:#181818;stroke-width:0.5;" width="237" x="7" y="7"/><ellipse cx="47.2" cy="23" fill="#ADD1B2" rx="11" ry="11" style="stroke:#181818;stroke-width:1.0;"/><path d="M49.9656,18.875 Q50.1219,18.6563 50.3094,18.5469 Q50.4969,18.4375 50.7156,18.4375 Q51.0906,18.4375 51.325,18.7031 Q51.5594,18.9531 51.5594,19.5625 L51.5594,21.0156 Q51.5594,21.625 51.325,21.8906 Q51.0906,22.1563 50.7156,22.1563 Q50.3719,22.1563 50.1688,21.9531 Q49.9656,21.7656 49.8563,21.25 Q49.8094,20.8906 49.6219,20.7031 Q49.2938,20.3281 48.6844,20.1094 Q48.075,19.8906 47.45,19.8906 Q46.6844,19.8906 46.0438,20.2188 Q45.4188,20.5469 44.9188,21.2969 Q44.4344,22.0469 44.4344,23.0781 L44.4344,24.1719 Q44.4344,25.4063 45.325,26.2344 Q46.2156,27.0469 47.8094,27.0469 Q48.7469,27.0469 49.4031,26.7969 Q49.7938,26.6406 50.2156,26.2031 Q50.4813,25.9375 50.6219,25.8594 Q50.7781,25.7813 50.9813,25.7813 Q51.3094,25.7813 51.5594,26.0469 Q51.825,26.2969 51.825,26.6406 Q51.825,26.9844 51.4813,27.3906 Q50.9813,27.9688 50.1844,28.2969 Q49.1063,28.75 47.8094,28.75 Q46.2938,28.75 45.0906,28.125 Q44.1063,27.625 43.4188,26.5625 Q42.7313,25.4844 42.7313,24.2031 L42.7313,23.0469 Q42.7313,21.7188 43.3406,20.5781 Q43.9656,19.4219 45.0594,18.8125 Q46.1531,18.1875 47.3875,18.1875 Q48.1219,18.1875 48.7625,18.3594 Q49.4188,18.5156 49.9656,18.875 Z " fill="#000000"/><text fill="#000000" font-family="sans-serif" font-size="14" lengthAdjust="spacing" textLength="149" x="66.8" y="28.7285">BackgroundSongPlayer</text><line style="stroke:#181818;stroke-width:0.5;" x1="8" x2="243" y1="39" y2="39"/><rect fill="none" height="6" style="stroke:#C82930;stroke-width:1.0;" width="6" x="15" y="50.3047"/><text fill="#000000" font-family="sans-serif" font-size="14" lengthAdjust="spacing" text-decoration="underline" textLength="144" x="27" y="57.5332">fight: ArrayList&lt;String&gt;</text><rect fill="none" height="6" style="stroke:#C82930;stroke-width:1.0;" width="6" x="15" y="67.9141"/><text fill="#000000" font-family="sans-serif" font-size="14" lengthAdjust="spacing" text-decoration="underline" textLength="145" x="27" y="75.1426">floor: ArrayList&lt;String&gt;</text><rect fill="none" height="6" style="stroke:#C82930;stroke-width:1.0;" width="6" x="15" y="85.5234"/><text fill="#000000" font-family="sans-serif" font-size="14" lengthAdjust="spacing" text-decoration="underline" textLength="171" x="27" y="92.752">currentPlayer: MediaPlayer</text><line style="stroke:#181818;stroke-width:0.5;" x1="8" x2="243" y1="99.8281" y2="99.8281"/><ellipse cx="18" cy="114.1328" fill="#84BE84" rx="3" ry="3" style="stroke:#038048;stroke-width:1.0;"/><text fill="#000000" font-family="sans-serif" font-size="14" lengthAdjust="spacing" text-decoration="underline" textLength="79" x="27" y="118.3613">menu(): void</text><ellipse cx="18" cy="131.7422" fill="#84BE84" rx="3" ry="3" style="stroke:#038048;stroke-width:1.0;"/><text fill="#000000" font-family="sans-serif" font-size="14" lengthAdjust="spacing" text-decoration="underline" textLength="123" x="27" y="135.9707">fight(level: int): void</text><ellipse cx="18" cy="149.3516" fill="#84BE84" rx="3" ry="3" style="stroke:#038048;stroke-width:1.0;"/><text fill="#000000" font-family="sans-serif" font-size="14" lengthAdjust="spacing" text-decoration="underline" textLength="124" x="27" y="153.5801">floor(level: int): void</text><rect fill="#F24D5C" height="6" style="stroke:#C82930;stroke-width:1.0;" width="6" x="15" y="163.9609"/><text fill="#000000" font-family="sans-serif" font-size="14" lengthAdjust="spacing" text-decoration="underline" textLength="211" x="27" y="171.1895">runNewPlayer(name: String): void</text><ellipse cx="18" cy="184.5703" fill="#84BE84" rx="3" ry="3" style="stroke:#038048;stroke-width:1.0;"/><text fill="#000000" font-family="sans-serif" font-size="14" lengthAdjust="spacing" text-decoration="underline" textLength="70" x="27" y="188.7988">play(): void</text><ellipse cx="18" cy="202.1797" fill="#84BE84" rx="3" ry="3" style="stroke:#038048;stroke-width:1.0;"/><text fill="#000000" font-family="sans-serif" font-size="14" lengthAdjust="spacing" text-decoration="underline" textLength="83" x="27" y="206.4082">pause(): void</text><ellipse cx="18" cy="219.7891" fill="#84BE84" rx="3" ry="3" style="stroke:#038048;stroke-width:1.0;"/><text fill="#000000" font-family="sans-serif" font-size="14" lengthAdjust="spacing" text-decoration="underline" textLength="71" x="27" y="224.0176">stop(): void</text></g></a><!--link Sfx to SfxPlayer--><g id="link_Sfx_SfxPlayer"><path codeLine="55" d="M208.56,528 C238.33,528 272.57,528 304.81,528 " fill="none" id="Sfx-SfxPlayer" style="stroke:#181818;stroke-width:1.0;"/></g><!--link SfxPlayer to Resource--><g id="link_SfxPlayer_Resource"><path codeLine="56" d="M542.02,528 C578.91,528 613.07,528 647.85,528 " fill="none" id="SfxPlayer-to-Resource" style="stroke:#181818;stroke-width:1.0;"/><polygon fill="#181818" points="653.85,528,644.85,524,648.85,528,644.85,532,653.85,528" style="stroke:#181818;stroke-width:1.0;"/><text fill="#000000" font-family="sans-serif" font-size="13" lengthAdjust="spacing" textLength="50" x="573" y="524.4951">resource</text><text fill="#000000" font-family="sans-serif" font-size="13" lengthAdjust="spacing" textLength="7" x="638.929" y="542.1541">1</text></g><!--SRC=[XLDDRwCm4BtpAwoUY7Qfr2kg8ZdW4bI-X4cggkh10aEyIm0PasrKzR-lRKBIAApsmenddjzx6WyrBGKGBU2isWbGC4vpmTh6eCsm1xZy06zllyY1s7qxDCMzBBo_Wqy30FmIfwwCBefUPGYXvpio8fZ9RxPEunSPFHYYU8lIKuepcAesHW5oL1AWBGesYSoU_1J9aCG-ZYD52oKZqbHngWfuxQD02yQkRcnXcFYf5dK2ttdM9XGLteHX76bH67awhX4Cj5Ue672csXl5wgKGup6DDndsNHG_hQ3pd41Dw4St9JU5dl5bv3NfUpMVf2P7oc-cD9PFix8-Uq44oxz0Ntw4fBF1clGxcJnAvC-Kobiyfqk9_756TfB0b71RYIniS6XPSGDO7L5PoWSpgGus68yJVB8vALoxdAgJIJ8Kh7Lg9kt1ALNrZeYTT24uQohbOBfdVcyiLAUYudpJN7odcPoiIFwxuaeUjqqrDxivnCqOIxMiafzpSWnOBnv74yjhKDss_7-WVE2SDcBKiK582qR6mzMmz_9tCETUGJinQtgWjGrO8sOnoiWivkA33qr4_upAPaFsz3pOVppzh9kE33sTxVIYxSpBNXZgpxQiom8RbrMsh2MuUxWxRuqD-2dx2m00]--></g></svg>