<?xml version="1.0" encoding="us-ascii" standalone="no"?><svg xmlns="http://www.w3.org/2000/svg" xmlns:xlink="http://www.w3.org/1999/xlink" contentStyleType="text/css" height="1089px" preserveAspectRatio="none" style="width:1434px;height:1089px;background:#FFFFFF;" version="1.1" viewBox="0 0 1434 1089" width="1434px" zoomAndPan="magnify"><defs/><g><!--class Clickable--><a href="java:interfaces.Clickable" target="_top" title="java:interfaces.Clickable" xlink:actuate="onRequest" xlink:href="java:interfaces.Clickable" xlink:show="new" xlink:title="java:interfaces.Clickable" xlink:type="simple"><g id="elem_Clickable"><rect codeLine="2" fill="#F1F1F1" height="83.2188" id="Clickable" rx="2.5" ry="2.5" style="stroke:#181818;stroke-width:0.5;" width="185" x="253" y="433"/><ellipse cx="312.25" cy="449" fill="#B4A7E5" rx="11" ry="11" style="stroke:#181818;stroke-width:1.0;"/><path d="M313.2031,445.6406 L313.2031,452.2969 L314.9219,452.2969 Q315.5313,452.2969 315.7969,452.5313 Q316.0625,452.7656 316.0625,453.1563 Q316.0625,453.5313 315.7969,453.7656 Q315.5313,454 314.9219,454 L309.7813,454 Q309.1719,454 308.9063,453.7656 Q308.6406,453.5313 308.6406,453.1406 Q308.6406,452.7656 308.9063,452.5313 Q309.1719,452.2969 309.7813,452.2969 L311.5,452.2969 L311.5,445.6406 L309.7813,445.6406 Q309.1719,445.6406 308.9063,445.4063 Q308.6406,445.1719 308.6406,444.7813 Q308.6406,444.4063 308.9063,444.1719 Q309.1719,443.9375 309.7813,443.9375 L314.9219,443.9375 Q315.5313,443.9375 315.7969,444.1719 Q316.0625,444.4063 316.0625,444.7813 Q316.0625,445.1719 315.7969,445.4063 Q315.5313,445.6406 314.9219,445.6406 L313.2031,445.6406 Z " fill="#000000"/><text fill="#000000" font-family="sans-serif" font-size="14" font-style="italic" lengthAdjust="spacing" textLength="58" x="332.75" y="454.7285">Clickable</text><line style="stroke:#181818;stroke-width:0.5;" x1="254" x2="437" y1="465" y2="465"/><line style="stroke:#181818;stroke-width:0.5;" x1="254" x2="437" y1="473" y2="473"/><text fill="#000000" font-family="sans-serif" font-size="14" lengthAdjust="spacing" textLength="145" x="259" y="491.5332">activatePerClick(): void</text><text fill="#000000" font-family="sans-serif" font-size="14" lengthAdjust="spacing" textLength="173" x="259" y="509.1426">isEnoughEnergy(): boolean</text></g></a><!--class TurnActivable--><a href="java:interfaces.TurnActivable" target="_top" title="java:interfaces.TurnActivable" xlink:actuate="onRequest" xlink:href="java:interfaces.TurnActivable" xlink:show="new" xlink:title="java:interfaces.TurnActivable" xlink:type="simple"><g id="elem_TurnActivable"><rect codeLine="6" fill="#F1F1F1" height="65.6094" id="TurnActivable" rx="2.5" ry="2.5" style="stroke:#181818;stroke-width:0.5;" width="157" x="1054" y="441.5"/><ellipse cx="1086.55" cy="457.5" fill="#B4A7E5" rx="11" ry="11" style="stroke:#181818;stroke-width:1.0;"/><path d="M1087.5031,454.1406 L1087.5031,460.7969 L1089.2219,460.7969 Q1089.8313,460.7969 1090.0969,461.0313 Q1090.3625,461.2656 1090.3625,461.6563 Q1090.3625,462.0313 1090.0969,462.2656 Q1089.8313,462.5 1089.2219,462.5 L1084.0813,462.5 Q1083.4719,462.5 1083.2063,462.2656 Q1082.9406,462.0313 1082.9406,461.6406 Q1082.9406,461.2656 1083.2063,461.0313 Q1083.4719,460.7969 1084.0813,460.7969 L1085.8,460.7969 L1085.8,454.1406 L1084.0813,454.1406 Q1083.4719,454.1406 1083.2063,453.9063 Q1082.9406,453.6719 1082.9406,453.2813 Q1082.9406,452.9063 1083.2063,452.6719 Q1083.4719,452.4375 1084.0813,452.4375 L1089.2219,452.4375 Q1089.8313,452.4375 1090.0969,452.6719 Q1090.3625,452.9063 1090.3625,453.2813 Q1090.3625,453.6719 1090.0969,453.9063 Q1089.8313,454.1406 1089.2219,454.1406 L1087.5031,454.1406 Z " fill="#000000"/><text fill="#000000" font-family="sans-serif" font-size="14" font-style="italic" lengthAdjust="spacing" textLength="86" x="1104.45" y="463.2285">TurnActivable</text><line style="stroke:#181818;stroke-width:0.5;" x1="1055" x2="1210" y1="473.5" y2="473.5"/><line style="stroke:#181818;stroke-width:0.5;" x1="1055" x2="1210" y1="481.5" y2="481.5"/><text fill="#000000" font-family="sans-serif" font-size="14" lengthAdjust="spacing" textLength="145" x="1060" y="500.0332">activatePerTurn(): void</text></g></a><!--class StatUpdatable--><a href="java:interfaces.StatUpdatable" target="_top" title="java:interfaces.StatUpdatable" xlink:actuate="onRequest" xlink:href="java:interfaces.StatUpdatable" xlink:show="new" xlink:title="java:interfaces.StatUpdatable" xlink:type="simple"><g id="elem_StatUpdatable"><rect codeLine="9" fill="#F1F1F1" height="65.6094" id="StatUpdatable" rx="2.5" ry="2.5" style="stroke:#181818;stroke-width:0.5;" width="124" x="894.5" y="441.5"/><ellipse cx="910.4" cy="457.5" fill="#B4A7E5" rx="11" ry="11" style="stroke:#181818;stroke-width:1.0;"/><path d="M911.3531,454.1406 L911.3531,460.7969 L913.0719,460.7969 Q913.6813,460.7969 913.9469,461.0313 Q914.2125,461.2656 914.2125,461.6563 Q914.2125,462.0313 913.9469,462.2656 Q913.6813,462.5 913.0719,462.5 L907.9313,462.5 Q907.3219,462.5 907.0563,462.2656 Q906.7906,462.0313 906.7906,461.6406 Q906.7906,461.2656 907.0563,461.0313 Q907.3219,460.7969 907.9313,460.7969 L909.65,460.7969 L909.65,454.1406 L907.9313,454.1406 Q907.3219,454.1406 907.0563,453.9063 Q906.7906,453.6719 906.7906,453.2813 Q906.7906,452.9063 907.0563,452.6719 Q907.3219,452.4375 907.9313,452.4375 L913.0719,452.4375 Q913.6813,452.4375 913.9469,452.6719 Q914.2125,452.9063 914.2125,453.2813 Q914.2125,453.6719 913.9469,453.9063 Q913.6813,454.1406 913.0719,454.1406 L911.3531,454.1406 Z " fill="#000000"/><text fill="#000000" font-family="sans-serif" font-size="14" font-style="italic" lengthAdjust="spacing" textLength="90" x="924.6" y="463.2285">StatUpdatable</text><line style="stroke:#181818;stroke-width:0.5;" x1="895.5" x2="1017.5" y1="473.5" y2="473.5"/><line style="stroke:#181818;stroke-width:0.5;" x1="895.5" x2="1017.5" y1="481.5" y2="481.5"/><text fill="#000000" font-family="sans-serif" font-size="14" lengthAdjust="spacing" textLength="112" x="900.5" y="500.0332">statUpdate(): void</text></g></a><!--class ReStatable--><a href="java:interfaces.ReStatable" target="_top" title="java:interfaces.ReStatable" xlink:actuate="onRequest" xlink:href="java:interfaces.ReStatable" xlink:show="new" xlink:title="java:interfaces.ReStatable" xlink:type="simple"><g id="elem_ReStatable"><rect codeLine="12" fill="#F1F1F1" height="65.6094" id="ReStatable" rx="2.5" ry="2.5" style="stroke:#181818;stroke-width:0.5;" width="181" x="1246" y="441.5"/><ellipse cx="1297.25" cy="457.5" fill="#B4A7E5" rx="11" ry="11" style="stroke:#181818;stroke-width:1.0;"/><path d="M1298.2031,454.1406 L1298.2031,460.7969 L1299.9219,460.7969 Q1300.5313,460.7969 1300.7969,461.0313 Q1301.0625,461.2656 1301.0625,461.6563 Q1301.0625,462.0313 1300.7969,462.2656 Q1300.5313,462.5 1299.9219,462.5 L1294.7813,462.5 Q1294.1719,462.5 1293.9063,462.2656 Q1293.6406,462.0313 1293.6406,461.6406 Q1293.6406,461.2656 1293.9063,461.0313 Q1294.1719,460.7969 1294.7813,460.7969 L1296.5,460.7969 L1296.5,454.1406 L1294.7813,454.1406 Q1294.1719,454.1406 1293.9063,453.9063 Q1293.6406,453.6719 1293.6406,453.2813 Q1293.6406,452.9063 1293.9063,452.6719 Q1294.1719,452.4375 1294.7813,452.4375 L1299.9219,452.4375 Q1300.5313,452.4375 1300.7969,452.6719 Q1301.0625,452.9063 1301.0625,453.2813 Q1301.0625,453.6719 1300.7969,453.9063 Q1300.5313,454.1406 1299.9219,454.1406 L1298.2031,454.1406 Z " fill="#000000"/><text fill="#000000" font-family="sans-serif" font-size="14" font-style="italic" lengthAdjust="spacing" textLength="70" x="1317.75" y="463.2285">ReStatable</text><line style="stroke:#181818;stroke-width:0.5;" x1="1247" x2="1426" y1="473.5" y2="473.5"/><line style="stroke:#181818;stroke-width:0.5;" x1="1247" x2="1426" y1="481.5" y2="481.5"/><text fill="#000000" font-family="sans-serif" font-size="14" lengthAdjust="spacing" textLength="169" x="1252" y="500.0332">reStatBeforeUpdate(): void</text></g></a><!--class Item--><a href="java:game.item.Item" target="_top" title="java:game.item.Item" xlink:actuate="onRequest" xlink:href="java:game.item.Item" xlink:show="new" xlink:title="java:game.item.Item" xlink:type="simple"><g id="elem_Item"><rect codeLine="16" fill="#F1F1F1" height="717.1563" id="Item" rx="2.5" ry="2.5" style="stroke:#181818;stroke-width:0.5;" width="371" x="488" y="116"/><ellipse cx="655.75" cy="132" fill="#A9DCDF" rx="11" ry="11" style="stroke:#181818;stroke-width:1.0;"/><path d="M657.9375,133.7656 L653.7969,133.7656 L653.375,134.7969 L653.7969,134.7969 Q654.4063,134.7969 654.6719,135.0313 Q654.9375,135.2656 654.9375,135.6563 Q654.9375,136.0313 654.6719,136.2656 Q654.4063,136.5 653.7969,136.5 L651.5,136.5 Q650.8906,136.5 650.6406,136.2656 Q650.375,136.0313 650.375,135.6406 Q650.375,135.2656 650.6563,135.0313 Q650.9219,134.7813 651.5469,134.7969 L654.2188,128.1406 L653.1094,128.1406 Q652.5,128.1406 652.2344,127.9063 Q651.9688,127.6719 651.9688,127.2813 Q651.9688,126.9063 652.2344,126.6719 Q652.5,126.4375 653.1094,126.4375 L656.7813,126.4375 L660.1719,134.7969 Q660.7656,134.7969 660.9531,134.9375 Q661.3438,135.2031 661.3438,135.6563 Q661.3438,136.0313 661.0781,136.2656 Q660.8281,136.5 660.2188,136.5 L657.9219,136.5 Q657.3125,136.5 657.0469,136.2656 Q656.7813,136.0313 656.7813,135.6406 Q656.7813,135.2656 657.0469,135.0313 Q657.3125,134.7969 657.9219,134.7969 L658.3438,134.7969 L657.9375,133.7656 Z M657.2188,132.0625 L655.8594,128.6875 L654.4844,132.0625 L657.2188,132.0625 Z " fill="#000000"/><text fill="#000000" font-family="sans-serif" font-size="14" font-style="italic" lengthAdjust="spacing" textLength="27" x="676.25" y="137.7285">Item</text><line style="stroke:#181818;stroke-width:0.5;" x1="489" x2="858" y1="148" y2="148"/><rect fill="none" height="6" style="stroke:#C82930;stroke-width:1.0;" width="6" x="496" y="159.3047"/><text fill="#000000" font-family="sans-serif" font-size="14" lengthAdjust="spacing" textLength="79" x="508" y="166.5332">tier: ItemTier</text><rect fill="none" height="6" style="stroke:#C82930;stroke-width:1.0;" width="6" x="496" y="176.9141"/><text fill="#000000" font-family="sans-serif" font-size="14" lengthAdjust="spacing" textLength="80" x="508" y="184.1426">name: String</text><rect fill="none" height="6" style="stroke:#C82930;stroke-width:1.0;" width="6" x="496" y="194.5234"/><text fill="#000000" font-family="sans-serif" font-size="14" lengthAdjust="spacing" textLength="79" x="508" y="201.752">detail: String</text><polygon fill="none" points="499,210.1328,503,214.1328,499,218.1328,495,214.1328" style="stroke:#B38D22;stroke-width:1.0;"/><text fill="#000000" font-family="sans-serif" font-size="14" lengthAdjust="spacing" textLength="55" x="508" y="219.3613">width: int</text><polygon fill="none" points="499,227.7422,503,231.7422,499,235.7422,495,231.7422" style="stroke:#B38D22;stroke-width:1.0;"/><text fill="#000000" font-family="sans-serif" font-size="14" lengthAdjust="spacing" textLength="62" x="508" y="236.9707">height: int</text><polygon fill="none" points="499,245.3516,503,249.3516,499,253.3516,495,249.3516" style="stroke:#B38D22;stroke-width:1.0;"/><text fill="#000000" font-family="sans-serif" font-size="14" lengthAdjust="spacing" textLength="125" x="508" y="254.5801">isDiagonal: boolean</text><polygon fill="none" points="499,262.9609,503,266.9609,499,270.9609,495,266.9609" style="stroke:#B38D22;stroke-width:1.0;"/><text fill="#000000" font-family="sans-serif" font-size="14" lengthAdjust="spacing" textLength="143" x="508" y="272.1895">fadeIn: FadeTransition</text><rect fill="none" height="6" style="stroke:#C82930;stroke-width:1.0;" width="6" x="496" y="282.5703"/><text fill="#000000" font-family="sans-serif" font-size="14" lengthAdjust="spacing" textLength="78" x="508" y="289.7988">diffX: double</text><rect fill="none" height="6" style="stroke:#C82930;stroke-width:1.0;" width="6" x="496" y="300.1797"/><text fill="#000000" font-family="sans-serif" font-size="14" lengthAdjust="spacing" textLength="79" x="508" y="307.4082">diffY: double</text><rect fill="none" height="6" style="stroke:#C82930;stroke-width:1.0;" width="6" x="496" y="317.7891"/><text fill="#000000" font-family="sans-serif" font-size="14" lengthAdjust="spacing" textLength="142" x="508" y="325.0176">imageView: ImageView</text><rect fill="none" height="6" style="stroke:#C82930;stroke-width:1.0;" width="6" x="496" y="335.3984"/><text fill="#000000" font-family="sans-serif" font-size="14" lengthAdjust="spacing" textLength="148" x="508" y="342.627">moveTimeline: Timeline</text><rect fill="none" height="6" style="stroke:#C82930;stroke-width:1.0;" width="6" x="496" y="353.0078"/><text fill="#000000" font-family="sans-serif" font-size="14" lengthAdjust="spacing" textLength="199" x="508" y="360.2363">backToOriginTimeline: Timeline</text><rect fill="none" height="6" style="stroke:#C82930;stroke-width:1.0;" width="6" x="496" y="370.6172"/><text fill="#000000" font-family="sans-serif" font-size="14" lengthAdjust="spacing" textLength="165" x="508" y="377.8457">currentTranslateY: double</text><rect fill="none" height="6" style="stroke:#C82930;stroke-width:1.0;" width="6" x="496" y="388.2266"/><text fill="#000000" font-family="sans-serif" font-size="14" lengthAdjust="spacing" textLength="89" x="508" y="395.4551">tooltip: Tooltip</text><line style="stroke:#181818;stroke-width:0.5;" x1="489" x2="858" y1="402.5313" y2="402.5313"/><ellipse cx="499" cy="416.8359" fill="#84BE84" rx="3" ry="3" style="stroke:#038048;stroke-width:1.0;"/><text fill="#000000" font-family="sans-serif" font-size="14" lengthAdjust="spacing" textLength="188" x="508" y="421.0645">Item(name, detail, height, tier)</text><ellipse cx="499" cy="434.4453" fill="#84BE84" rx="3" ry="3" style="stroke:#038048;stroke-width:1.0;"/><text fill="#000000" font-family="sans-serif" font-size="14" lengthAdjust="spacing" textLength="228" x="508" y="438.6738">Item(name, detail, width, height, tier)</text><ellipse cx="499" cy="452.0547" fill="#84BE84" rx="3" ry="3" style="stroke:#038048;stroke-width:1.0;"/><text fill="#000000" font-family="sans-serif" font-size="14" lengthAdjust="spacing" textLength="177" x="508" y="456.2832">initialize(image: Image): void</text><ellipse cx="499" cy="469.6641" fill="#84BE84" rx="3" ry="3" style="stroke:#038048;stroke-width:1.0;"/><text fill="#000000" font-family="sans-serif" font-size="14" lengthAdjust="spacing" textLength="131" x="508" y="473.8926">updateTooltip(): void</text><ellipse cx="499" cy="487.2734" fill="#84BE84" rx="3" ry="3" style="stroke:#038048;stroke-width:1.0;"/><text fill="#000000" font-family="sans-serif" font-size="14" lengthAdjust="spacing" textLength="83" x="508" y="491.502">delete(): void</text><rect fill="#F24D5C" height="6" style="stroke:#C82930;stroke-width:1.0;" width="6" x="496" y="501.8828"/><text fill="#000000" font-family="sans-serif" font-size="14" lengthAdjust="spacing" textLength="121" x="508" y="509.1113">calculateDiff(): void</text><ellipse cx="499" cy="522.4922" fill="#84BE84" rx="3" ry="3" style="stroke:#038048;stroke-width:1.0;"/><text fill="#000000" font-family="sans-serif" font-size="14" lengthAdjust="spacing" textLength="168" x="508" y="526.7207">rotate(right: boolean): void</text><ellipse cx="499" cy="540.1016" fill="#84BE84" rx="3" ry="3" style="stroke:#038048;stroke-width:1.0;"/><text fill="#000000" font-family="sans-serif" font-size="14" lengthAdjust="spacing" textLength="115" x="508" y="544.3301">getItemWidth(): int</text><ellipse cx="499" cy="557.7109" fill="#84BE84" rx="3" ry="3" style="stroke:#038048;stroke-width:1.0;"/><text fill="#000000" font-family="sans-serif" font-size="14" lengthAdjust="spacing" textLength="119" x="508" y="561.9395">getItemHeight(): int</text><ellipse cx="499" cy="575.3203" fill="#84BE84" rx="3" ry="3" style="stroke:#038048;stroke-width:1.0;"/><text fill="#000000" font-family="sans-serif" font-size="14" lengthAdjust="spacing" textLength="135" x="508" y="579.5488">isDiagonal(): boolean</text><ellipse cx="499" cy="592.9297" fill="#84BE84" rx="3" ry="3" style="stroke:#038048;stroke-width:1.0;"/><text fill="#000000" font-family="sans-serif" font-size="14" lengthAdjust="spacing" textLength="110" x="508" y="597.1582">getDiffX(): double</text><ellipse cx="499" cy="610.5391" fill="#84BE84" rx="3" ry="3" style="stroke:#038048;stroke-width:1.0;"/><text fill="#000000" font-family="sans-serif" font-size="14" lengthAdjust="spacing" textLength="111" x="508" y="614.7676">getDiffY(): double</text><ellipse cx="499" cy="628.1484" fill="#84BE84" rx="3" ry="3" style="stroke:#038048;stroke-width:1.0;"/><text fill="#000000" font-family="sans-serif" font-size="14" lengthAdjust="spacing" textLength="170" x="508" y="632.377">getRotation(): ItemRotation</text><ellipse cx="499" cy="645.7578" fill="#84BE84" rx="3" ry="3" style="stroke:#038048;stroke-width:1.0;"/><text fill="#000000" font-family="sans-serif" font-size="14" lengthAdjust="spacing" textLength="111" x="508" y="649.9863">getName(): String</text><ellipse cx="499" cy="663.3672" fill="#84BE84" rx="3" ry="3" style="stroke:#038048;stroke-width:1.0;"/><text fill="#000000" font-family="sans-serif" font-size="14" lengthAdjust="spacing" textLength="136" x="508" y="667.5957">getTierName(): String</text><ellipse cx="499" cy="680.9766" fill="#84BE84" rx="3" ry="3" style="stroke:#038048;stroke-width:1.0;"/><text fill="#000000" font-family="sans-serif" font-size="14" lengthAdjust="spacing" textLength="172" x="508" y="685.2051">getImageView(): ImageView</text><ellipse cx="499" cy="698.5859" fill="#84BE84" rx="3" ry="3" style="stroke:#038048;stroke-width:1.0;"/><text fill="#000000" font-family="sans-serif" font-size="14" lengthAdjust="spacing" textLength="178" x="508" y="702.8145">getFadeIn(): FadeTransition</text><ellipse cx="499" cy="716.1953" fill="#84BE84" rx="3" ry="3" style="stroke:#038048;stroke-width:1.0;"/><text fill="#000000" font-family="sans-serif" font-size="14" lengthAdjust="spacing" textLength="250" x="508" y="720.4238">setFadeIn(fadeIn: FadeTransition): void</text><ellipse cx="499" cy="733.8047" fill="#84BE84" rx="3" ry="3" style="stroke:#038048;stroke-width:1.0;"/><text fill="#000000" font-family="sans-serif" font-size="14" lengthAdjust="spacing" textLength="155" x="508" y="738.0332">moveUpAndDown(): void</text><ellipse cx="499" cy="751.4141" fill="#84BE84" rx="3" ry="3" style="stroke:#038048;stroke-width:1.0;"/><text fill="#000000" font-family="sans-serif" font-size="14" lengthAdjust="spacing" textLength="109" x="508" y="755.6426">moveBack(): void</text><ellipse cx="499" cy="769.0234" fill="#84BE84" rx="3" ry="3" style="stroke:#038048;stroke-width:1.0;"/><text fill="#000000" font-family="sans-serif" font-size="14" lengthAdjust="spacing" textLength="178" x="508" y="773.252">getMoveTimeline(): Timeline</text><ellipse cx="499" cy="786.6328" fill="#84BE84" rx="3" ry="3" style="stroke:#038048;stroke-width:1.0;"/><text fill="#000000" font-family="sans-serif" font-size="14" lengthAdjust="spacing" textLength="298" x="508" y="790.8613">setMoveTimeline(moveTimeline: Timeline): void</text><ellipse cx="499" cy="804.2422" fill="#84BE84" rx="3" ry="3" style="stroke:#038048;stroke-width:1.0;"/><text fill="#000000" font-family="sans-serif" font-size="14" lengthAdjust="spacing" textLength="198" x="508" y="808.4707">getCurrentTranslateY(): double</text><ellipse cx="499" cy="821.8516" fill="#84BE84" rx="3" ry="3" style="stroke:#038048;stroke-width:1.0;"/><text fill="#000000" font-family="sans-serif" font-size="14" lengthAdjust="spacing" textLength="345" x="508" y="826.0801">setCurrentTranslateY(currentTranslateY: double): void</text></g></a><!--class ItemWithCost--><a href="java:game.item.ItemWithCost" target="_top" title="java:game.item.ItemWithCost" xlink:actuate="onRequest" xlink:href="java:game.item.ItemWithCost" xlink:show="new" xlink:title="java:game.item.ItemWithCost" xlink:type="simple"><g id="elem_ItemWithCost"><rect codeLine="56" fill="#F1F1F1" height="48" id="ItemWithCost" rx="2.5" ry="2.5" style="stroke:#181818;stroke-width:0.5;" width="117" x="391" y="972.5"/><ellipse cx="406" cy="988.5" fill="#A9DCDF" rx="11" ry="11" style="stroke:#181818;stroke-width:1.0;"/><path d="M408.1875,990.2656 L404.0469,990.2656 L403.625,991.2969 L404.0469,991.2969 Q404.6563,991.2969 404.9219,991.5313 Q405.1875,991.7656 405.1875,992.1563 Q405.1875,992.5313 404.9219,992.7656 Q404.6563,993 404.0469,993 L401.75,993 Q401.1406,993 400.8906,992.7656 Q400.625,992.5313 400.625,992.1406 Q400.625,991.7656 400.9063,991.5313 Q401.1719,991.2813 401.7969,991.2969 L404.4688,984.6406 L403.3594,984.6406 Q402.75,984.6406 402.4844,984.4063 Q402.2188,984.1719 402.2188,983.7813 Q402.2188,983.4063 402.4844,983.1719 Q402.75,982.9375 403.3594,982.9375 L407.0313,982.9375 L410.4219,991.2969 Q411.0156,991.2969 411.2031,991.4375 Q411.5938,991.7031 411.5938,992.1563 Q411.5938,992.5313 411.3281,992.7656 Q411.0781,993 410.4688,993 L408.1719,993 Q407.5625,993 407.2969,992.7656 Q407.0313,992.5313 407.0313,992.1406 Q407.0313,991.7656 407.2969,991.5313 Q407.5625,991.2969 408.1719,991.2969 L408.5938,991.2969 L408.1875,990.2656 Z M407.4688,988.5625 L406.1094,985.1875 L404.7344,988.5625 L407.4688,988.5625 Z " fill="#000000"/><text fill="#000000" font-family="sans-serif" font-size="14" font-style="italic" lengthAdjust="spacing" textLength="85" x="420" y="994.2285">ItemWithCost</text><line style="stroke:#181818;stroke-width:0.5;" x1="392" x2="507" y1="1004.5" y2="1004.5"/><line style="stroke:#181818;stroke-width:0.5;" x1="392" x2="507" y1="1012.5" y2="1012.5"/></g></a><!--class Relic--><a href="java:game.item.relic.Relic" target="_top" title="java:game.item.relic.Relic" xlink:actuate="onRequest" xlink:href="java:game.item.relic.Relic" xlink:show="new" xlink:title="java:game.item.relic.Relic" xlink:type="simple"><g id="elem_Relic"><rect codeLine="57" fill="#F1F1F1" height="48" id="Relic" rx="2.5" ry="2.5" style="stroke:#181818;stroke-width:0.5;" width="63" x="543" y="972.5"/><ellipse cx="558" cy="988.5" fill="#A9DCDF" rx="11" ry="11" style="stroke:#181818;stroke-width:1.0;"/><path d="M560.1875,990.2656 L556.0469,990.2656 L555.625,991.2969 L556.0469,991.2969 Q556.6563,991.2969 556.9219,991.5313 Q557.1875,991.7656 557.1875,992.1563 Q557.1875,992.5313 556.9219,992.7656 Q556.6563,993 556.0469,993 L553.75,993 Q553.1406,993 552.8906,992.7656 Q552.625,992.5313 552.625,992.1406 Q552.625,991.7656 552.9063,991.5313 Q553.1719,991.2813 553.7969,991.2969 L556.4688,984.6406 L555.3594,984.6406 Q554.75,984.6406 554.4844,984.4063 Q554.2188,984.1719 554.2188,983.7813 Q554.2188,983.4063 554.4844,983.1719 Q554.75,982.9375 555.3594,982.9375 L559.0313,982.9375 L562.4219,991.2969 Q563.0156,991.2969 563.2031,991.4375 Q563.5938,991.7031 563.5938,992.1563 Q563.5938,992.5313 563.3281,992.7656 Q563.0781,993 562.4688,993 L560.1719,993 Q559.5625,993 559.2969,992.7656 Q559.0313,992.5313 559.0313,992.1406 Q559.0313,991.7656 559.2969,991.5313 Q559.5625,991.2969 560.1719,991.2969 L560.5938,991.2969 L560.1875,990.2656 Z M559.4688,988.5625 L558.1094,985.1875 L556.7344,988.5625 L559.4688,988.5625 Z " fill="#000000"/><text fill="#000000" font-family="sans-serif" font-size="14" font-style="italic" lengthAdjust="spacing" textLength="31" x="572" y="994.2285">Relic</text><line style="stroke:#181818;stroke-width:0.5;" x1="544" x2="605" y1="1004.5" y2="1004.5"/><line style="stroke:#181818;stroke-width:0.5;" x1="544" x2="605" y1="1012.5" y2="1012.5"/></g></a><!--class Container--><a href="java:game.item.consumable.Container" target="_top" title="java:game.item.consumable.Container" xlink:actuate="onRequest" xlink:href="java:game.item.consumable.Container" xlink:show="new" xlink:title="java:game.item.consumable.Container" xlink:type="simple"><g id="elem_Container"><rect codeLine="58" fill="#F1F1F1" height="171.2656" id="Container" rx="2.5" ry="2.5" style="stroke:#181818;stroke-width:0.5;" width="349" x="7" y="911"/><ellipse cx="146.25" cy="927" fill="#ADD1B2" rx="11" ry="11" style="stroke:#181818;stroke-width:1.0;"/><path d="M149.0156,922.875 Q149.1719,922.6563 149.3594,922.5469 Q149.5469,922.4375 149.7656,922.4375 Q150.1406,922.4375 150.375,922.7031 Q150.6094,922.9531 150.6094,923.5625 L150.6094,925.0156 Q150.6094,925.625 150.375,925.8906 Q150.1406,926.1563 149.7656,926.1563 Q149.4219,926.1563 149.2188,925.9531 Q149.0156,925.7656 148.9063,925.25 Q148.8594,924.8906 148.6719,924.7031 Q148.3438,924.3281 147.7344,924.1094 Q147.125,923.8906 146.5,923.8906 Q145.7344,923.8906 145.0938,924.2188 Q144.4688,924.5469 143.9688,925.2969 Q143.4844,926.0469 143.4844,927.0781 L143.4844,928.1719 Q143.4844,929.4063 144.375,930.2344 Q145.2656,931.0469 146.8594,931.0469 Q147.7969,931.0469 148.4531,930.7969 Q148.8438,930.6406 149.2656,930.2031 Q149.5313,929.9375 149.6719,929.8594 Q149.8281,929.7813 150.0313,929.7813 Q150.3594,929.7813 150.6094,930.0469 Q150.875,930.2969 150.875,930.6406 Q150.875,930.9844 150.5313,931.3906 Q150.0313,931.9688 149.2344,932.2969 Q148.1563,932.75 146.8594,932.75 Q145.3438,932.75 144.1406,932.125 Q143.1563,931.625 142.4688,930.5625 Q141.7813,929.4844 141.7813,928.2031 L141.7813,927.0469 Q141.7813,925.7188 142.3906,924.5781 Q143.0156,923.4219 144.1094,922.8125 Q145.2031,922.1875 146.4375,922.1875 Q147.1719,922.1875 147.8125,922.3594 Q148.4688,922.5156 149.0156,922.875 Z " fill="#000000"/><text fill="#000000" font-family="sans-serif" font-size="14" lengthAdjust="spacing" textLength="62" x="166.75" y="932.7285">Container</text><line style="stroke:#181818;stroke-width:0.5;" x1="8" x2="355" y1="943" y2="943"/><rect fill="none" height="6" style="stroke:#C82930;stroke-width:1.0;" width="6" x="15" y="954.3047"/><text fill="#000000" font-family="sans-serif" font-size="14" lengthAdjust="spacing" textLength="74" x="27" y="961.5332">damage: int</text><line style="stroke:#181818;stroke-width:0.5;" x1="8" x2="355" y1="968.6094" y2="968.6094"/><ellipse cx="18" cy="982.9141" fill="#84BE84" rx="3" ry="3" style="stroke:#038048;stroke-width:1.0;"/><text fill="#000000" font-family="sans-serif" font-size="14" lengthAdjust="spacing" textLength="323" x="27" y="987.1426">Container(name, detail, damage, width, height, tier)</text><ellipse cx="18" cy="1000.5234" fill="#84BE84" rx="3" ry="3" style="stroke:#038048;stroke-width:1.0;"/><text fill="#000000" font-family="sans-serif" font-size="14" lengthAdjust="spacing" textLength="173" x="27" y="1004.752">isEnoughEnergy(): boolean</text><ellipse cx="18" cy="1018.1328" fill="#84BE84" rx="3" ry="3" style="stroke:#038048;stroke-width:1.0;"/><text fill="#000000" font-family="sans-serif" font-size="14" lengthAdjust="spacing" textLength="145" x="27" y="1022.3613">activatePerClick(): void</text><ellipse cx="18" cy="1035.7422" fill="#84BE84" rx="3" ry="3" style="stroke:#038048;stroke-width:1.0;"/><text fill="#000000" font-family="sans-serif" font-size="14" lengthAdjust="spacing" textLength="104" x="27" y="1039.9707">toString(): String</text><ellipse cx="18" cy="1053.3516" fill="#84BE84" rx="3" ry="3" style="stroke:#038048;stroke-width:1.0;"/><text fill="#000000" font-family="sans-serif" font-size="14" lengthAdjust="spacing" textLength="106" x="27" y="1057.5801">getDamage(): int</text><ellipse cx="18" cy="1070.9609" fill="#84BE84" rx="3" ry="3" style="stroke:#038048;stroke-width:1.0;"/><text fill="#000000" font-family="sans-serif" font-size="14" lengthAdjust="spacing" textLength="190" x="27" y="1075.1895">setDamage(damage: int): void</text></g></a><!--class ManaOrb--><a href="java:game.item.ManaOrb" target="_top" title="java:game.item.ManaOrb" xlink:actuate="onRequest" xlink:href="java:game.item.ManaOrb" xlink:show="new" xlink:title="java:game.item.ManaOrb" xlink:type="simple"><g id="elem_ManaOrb"><rect codeLine="67" fill="#F1F1F1" height="153.6563" id="ManaOrb" rx="2.5" ry="2.5" style="stroke:#181818;stroke-width:0.5;" width="342" x="908.5" y="919.5"/><ellipse cx="1045.75" cy="935.5" fill="#ADD1B2" rx="11" ry="11" style="stroke:#181818;stroke-width:1.0;"/><path d="M1048.5156,931.375 Q1048.6719,931.1563 1048.8594,931.0469 Q1049.0469,930.9375 1049.2656,930.9375 Q1049.6406,930.9375 1049.875,931.2031 Q1050.1094,931.4531 1050.1094,932.0625 L1050.1094,933.5156 Q1050.1094,934.125 1049.875,934.3906 Q1049.6406,934.6563 1049.2656,934.6563 Q1048.9219,934.6563 1048.7188,934.4531 Q1048.5156,934.2656 1048.4063,933.75 Q1048.3594,933.3906 1048.1719,933.2031 Q1047.8438,932.8281 1047.2344,932.6094 Q1046.625,932.3906 1046,932.3906 Q1045.2344,932.3906 1044.5938,932.7188 Q1043.9688,933.0469 1043.4688,933.7969 Q1042.9844,934.5469 1042.9844,935.5781 L1042.9844,936.6719 Q1042.9844,937.9063 1043.875,938.7344 Q1044.7656,939.5469 1046.3594,939.5469 Q1047.2969,939.5469 1047.9531,939.2969 Q1048.3438,939.1406 1048.7656,938.7031 Q1049.0313,938.4375 1049.1719,938.3594 Q1049.3281,938.2813 1049.5313,938.2813 Q1049.8594,938.2813 1050.1094,938.5469 Q1050.375,938.7969 1050.375,939.1406 Q1050.375,939.4844 1050.0313,939.8906 Q1049.5313,940.4688 1048.7344,940.7969 Q1047.6563,941.25 1046.3594,941.25 Q1044.8438,941.25 1043.6406,940.625 Q1042.6563,940.125 1041.9688,939.0625 Q1041.2813,937.9844 1041.2813,936.7031 L1041.2813,935.5469 Q1041.2813,934.2188 1041.8906,933.0781 Q1042.5156,931.9219 1043.6094,931.3125 Q1044.7031,930.6875 1045.9375,930.6875 Q1046.6719,930.6875 1047.3125,930.8594 Q1047.9688,931.0156 1048.5156,931.375 Z " fill="#000000"/><text fill="#000000" font-family="sans-serif" font-size="14" lengthAdjust="spacing" textLength="59" x="1066.25" y="941.2285">ManaOrb</text><line style="stroke:#181818;stroke-width:0.5;" x1="909.5" x2="1249.5" y1="951.5" y2="951.5"/><rect fill="none" height="6" style="stroke:#C82930;stroke-width:1.0;" width="6" x="916.5" y="962.8047"/><text fill="#000000" font-family="sans-serif" font-size="14" lengthAdjust="spacing" textLength="70" x="928.5" y="970.0332">amount: int</text><line style="stroke:#181818;stroke-width:0.5;" x1="909.5" x2="1249.5" y1="977.1094" y2="977.1094"/><ellipse cx="919.5" cy="991.4141" fill="#84BE84" rx="3" ry="3" style="stroke:#038048;stroke-width:1.0;"/><text fill="#000000" font-family="sans-serif" font-size="14" lengthAdjust="spacing" textLength="316" x="928.5" y="995.6426">ManaOrb(name, detail, amount, width, height, tier)</text><ellipse cx="919.5" cy="1009.0234" fill="#84BE84" rx="3" ry="3" style="stroke:#038048;stroke-width:1.0;"/><text fill="#000000" font-family="sans-serif" font-size="14" lengthAdjust="spacing" textLength="145" x="928.5" y="1013.252">activatePerTurn(): void</text><ellipse cx="919.5" cy="1026.6328" fill="#84BE84" rx="3" ry="3" style="stroke:#038048;stroke-width:1.0;"/><text fill="#000000" font-family="sans-serif" font-size="14" lengthAdjust="spacing" textLength="104" x="928.5" y="1030.8613">toString(): String</text><ellipse cx="919.5" cy="1044.2422" fill="#84BE84" rx="3" ry="3" style="stroke:#038048;stroke-width:1.0;"/><text fill="#000000" font-family="sans-serif" font-size="14" lengthAdjust="spacing" textLength="101" x="928.5" y="1048.4707">getAmount(): int</text><ellipse cx="919.5" cy="1061.8516" fill="#84BE84" rx="3" ry="3" style="stroke:#038048;stroke-width:1.0;"/><text fill="#000000" font-family="sans-serif" font-size="14" lengthAdjust="spacing" textLength="181" x="928.5" y="1066.0801">setAmount(amount: int): void</text></g></a><!--class Coins--><a href="java:game.item.Coins" target="_top" title="java:game.item.Coins" xlink:actuate="onRequest" xlink:href="java:game.item.Coins" xlink:show="new" xlink:title="java:game.item.Coins" xlink:type="simple"><g id="elem_Coins"><rect codeLine="75" fill="#F1F1F1" height="171.2656" id="Coins" rx="2.5" ry="2.5" style="stroke:#181818;stroke-width:0.5;" width="232" x="641.5" y="911"/><ellipse cx="735.25" cy="927" fill="#ADD1B2" rx="11" ry="11" style="stroke:#181818;stroke-width:1.0;"/><path d="M738.0156,922.875 Q738.1719,922.6563 738.3594,922.5469 Q738.5469,922.4375 738.7656,922.4375 Q739.1406,922.4375 739.375,922.7031 Q739.6094,922.9531 739.6094,923.5625 L739.6094,925.0156 Q739.6094,925.625 739.375,925.8906 Q739.1406,926.1563 738.7656,926.1563 Q738.4219,926.1563 738.2188,925.9531 Q738.0156,925.7656 737.9063,925.25 Q737.8594,924.8906 737.6719,924.7031 Q737.3438,924.3281 736.7344,924.1094 Q736.125,923.8906 735.5,923.8906 Q734.7344,923.8906 734.0938,924.2188 Q733.4688,924.5469 732.9688,925.2969 Q732.4844,926.0469 732.4844,927.0781 L732.4844,928.1719 Q732.4844,929.4063 733.375,930.2344 Q734.2656,931.0469 735.8594,931.0469 Q736.7969,931.0469 737.4531,930.7969 Q737.8438,930.6406 738.2656,930.2031 Q738.5313,929.9375 738.6719,929.8594 Q738.8281,929.7813 739.0313,929.7813 Q739.3594,929.7813 739.6094,930.0469 Q739.875,930.2969 739.875,930.6406 Q739.875,930.9844 739.5313,931.3906 Q739.0313,931.9688 738.2344,932.2969 Q737.1563,932.75 735.8594,932.75 Q734.3438,932.75 733.1406,932.125 Q732.1563,931.625 731.4688,930.5625 Q730.7813,929.4844 730.7813,928.2031 L730.7813,927.0469 Q730.7813,925.7188 731.3906,924.5781 Q732.0156,923.4219 733.1094,922.8125 Q734.2031,922.1875 735.4375,922.1875 Q736.1719,922.1875 736.8125,922.3594 Q737.4688,922.5156 738.0156,922.875 Z " fill="#000000"/><text fill="#000000" font-family="sans-serif" font-size="14" lengthAdjust="spacing" textLength="36" x="755.75" y="932.7285">Coins</text><line style="stroke:#181818;stroke-width:0.5;" x1="642.5" x2="872.5" y1="943" y2="943"/><rect fill="none" height="6" style="stroke:#C82930;stroke-width:1.0;" width="6" x="649.5" y="954.3047"/><text fill="#000000" font-family="sans-serif" font-size="14" lengthAdjust="spacing" textLength="70" x="661.5" y="961.5332">amount: int</text><line style="stroke:#181818;stroke-width:0.5;" x1="642.5" x2="872.5" y1="968.6094" y2="968.6094"/><ellipse cx="652.5" cy="982.9141" fill="#84BE84" rx="3" ry="3" style="stroke:#038048;stroke-width:1.0;"/><text fill="#000000" font-family="sans-serif" font-size="14" lengthAdjust="spacing" textLength="206" x="661.5" y="987.1426">Coins(name, detail, amount, tier)</text><ellipse cx="652.5" cy="1000.5234" fill="#84BE84" rx="3" ry="3" style="stroke:#038048;stroke-width:1.0;"/><text fill="#000000" font-family="sans-serif" font-size="14" lengthAdjust="spacing" textLength="112" x="661.5" y="1004.752">statUpdate(): void</text><ellipse cx="652.5" cy="1018.1328" fill="#84BE84" rx="3" ry="3" style="stroke:#038048;stroke-width:1.0;"/><text fill="#000000" font-family="sans-serif" font-size="14" lengthAdjust="spacing" textLength="201" x="661.5" y="1022.3613">isStackable(item: Item): boolean</text><ellipse cx="652.5" cy="1035.7422" fill="#84BE84" rx="3" ry="3" style="stroke:#038048;stroke-width:1.0;"/><text fill="#000000" font-family="sans-serif" font-size="14" lengthAdjust="spacing" textLength="104" x="661.5" y="1039.9707">toString(): String</text><ellipse cx="652.5" cy="1053.3516" fill="#84BE84" rx="3" ry="3" style="stroke:#038048;stroke-width:1.0;"/><text fill="#000000" font-family="sans-serif" font-size="14" lengthAdjust="spacing" textLength="101" x="661.5" y="1057.5801">getAmount(): int</text><ellipse cx="652.5" cy="1070.9609" fill="#84BE84" rx="3" ry="3" style="stroke:#038048;stroke-width:1.0;"/><text fill="#000000" font-family="sans-serif" font-size="14" lengthAdjust="spacing" textLength="181" x="661.5" y="1075.1895">setAmount(amount: int): void</text></g></a><!--class Wearable--><a href="java:game.item.wearable.Wearable" target="_top" title="java:game.item.wearable.Wearable" xlink:actuate="onRequest" xlink:href="java:game.item.wearable.Wearable" xlink:show="new" xlink:title="java:game.item.wearable.Wearable" xlink:type="simple"><g id="elem_Wearable"><rect codeLine="84" fill="#F1F1F1" height="48" id="Wearable" rx="2.5" ry="2.5" style="stroke:#181818;stroke-width:0.5;" width="94" x="1285.5" y="972.5"/><ellipse cx="1300.5" cy="988.5" fill="#A9DCDF" rx="11" ry="11" style="stroke:#181818;stroke-width:1.0;"/><path d="M1302.6875,990.2656 L1298.5469,990.2656 L1298.125,991.2969 L1298.5469,991.2969 Q1299.1563,991.2969 1299.4219,991.5313 Q1299.6875,991.7656 1299.6875,992.1563 Q1299.6875,992.5313 1299.4219,992.7656 Q1299.1563,993 1298.5469,993 L1296.25,993 Q1295.6406,993 1295.3906,992.7656 Q1295.125,992.5313 1295.125,992.1406 Q1295.125,991.7656 1295.4063,991.5313 Q1295.6719,991.2813 1296.2969,991.2969 L1298.9688,984.6406 L1297.8594,984.6406 Q1297.25,984.6406 1296.9844,984.4063 Q1296.7188,984.1719 1296.7188,983.7813 Q1296.7188,983.4063 1296.9844,983.1719 Q1297.25,982.9375 1297.8594,982.9375 L1301.5313,982.9375 L1304.9219,991.2969 Q1305.5156,991.2969 1305.7031,991.4375 Q1306.0938,991.7031 1306.0938,992.1563 Q1306.0938,992.5313 1305.8281,992.7656 Q1305.5781,993 1304.9688,993 L1302.6719,993 Q1302.0625,993 1301.7969,992.7656 Q1301.5313,992.5313 1301.5313,992.1406 Q1301.5313,991.7656 1301.7969,991.5313 Q1302.0625,991.2969 1302.6719,991.2969 L1303.0938,991.2969 L1302.6875,990.2656 Z M1301.9688,988.5625 L1300.6094,985.1875 L1299.2344,988.5625 L1301.9688,988.5625 Z " fill="#000000"/><text fill="#000000" font-family="sans-serif" font-size="14" font-style="italic" lengthAdjust="spacing" textLength="62" x="1314.5" y="994.2285">Wearable</text><line style="stroke:#181818;stroke-width:0.5;" x1="1286.5" x2="1378.5" y1="1004.5" y2="1004.5"/><line style="stroke:#181818;stroke-width:0.5;" x1="1286.5" x2="1378.5" y1="1012.5" y2="1012.5"/></g></a><!--class Pane--><g id="elem_Pane"><rect fill="#F1F1F1" height="48" id="Pane" rx="2.5" ry="2.5" style="stroke:#181818;stroke-width:0.5;" width="65" x="641" y="7"/><ellipse cx="656" cy="23" fill="#ADD1B2" rx="11" ry="11" style="stroke:#181818;stroke-width:1.0;"/><path d="M658.7656,18.875 Q658.9219,18.6563 659.1094,18.5469 Q659.2969,18.4375 659.5156,18.4375 Q659.8906,18.4375 660.125,18.7031 Q660.3594,18.9531 660.3594,19.5625 L660.3594,21.0156 Q660.3594,21.625 660.125,21.8906 Q659.8906,22.1563 659.5156,22.1563 Q659.1719,22.1563 658.9688,21.9531 Q658.7656,21.7656 658.6563,21.25 Q658.6094,20.8906 658.4219,20.7031 Q658.0938,20.3281 657.4844,20.1094 Q656.875,19.8906 656.25,19.8906 Q655.4844,19.8906 654.8438,20.2188 Q654.2188,20.5469 653.7188,21.2969 Q653.2344,22.0469 653.2344,23.0781 L653.2344,24.1719 Q653.2344,25.4063 654.125,26.2344 Q655.0156,27.0469 656.6094,27.0469 Q657.5469,27.0469 658.2031,26.7969 Q658.5938,26.6406 659.0156,26.2031 Q659.2813,25.9375 659.4219,25.8594 Q659.5781,25.7813 659.7813,25.7813 Q660.1094,25.7813 660.3594,26.0469 Q660.625,26.2969 660.625,26.6406 Q660.625,26.9844 660.2813,27.3906 Q659.7813,27.9688 658.9844,28.2969 Q657.9063,28.75 656.6094,28.75 Q655.0938,28.75 653.8906,28.125 Q652.9063,27.625 652.2188,26.5625 Q651.5313,25.4844 651.5313,24.2031 L651.5313,23.0469 Q651.5313,21.7188 652.1406,20.5781 Q652.7656,19.4219 653.8594,18.8125 Q654.9531,18.1875 656.1875,18.1875 Q656.9219,18.1875 657.5625,18.3594 Q658.2188,18.5156 658.7656,18.875 Z " fill="#000000"/><text fill="#000000" font-family="sans-serif" font-size="14" lengthAdjust="spacing" textLength="33" x="670" y="28.7285">Pane</text><line style="stroke:#181818;stroke-width:0.5;" x1="642" x2="705" y1="39" y2="39"/><line style="stroke:#181818;stroke-width:0.5;" x1="642" x2="705" y1="47" y2="47"/></g><!--reverse link Pane to Item--><g id="link_Pane_Item"><path codeLine="85" d="M673.5,73.12 C673.5,87.93 673.5,91.04 673.5,116 " fill="none" id="Pane-backto-Item" style="stroke:#181818;stroke-width:1.0;"/><polygon fill="none" points="673.5,55.12,667.5,73.12,679.5,73.12,673.5,55.12" style="stroke:#181818;stroke-width:1.0;"/></g><!--reverse link Item to Coins--><g id="link_Item_Coins"><path codeLine="86" d="M734.1384,850.88 C738.6984,879.13 740.1,887.81 743.82,910.83 " fill="none" id="Item-backto-Coins" style="stroke:#181818;stroke-width:1.0;"/><polygon fill="none" points="731.27,833.11,728.215,851.8361,740.0617,849.9239,731.27,833.11" style="stroke:#181818;stroke-width:1.0;"/></g><!--reverse link StatUpdatable to Coins--><g id="link_StatUpdatable_Coins"><path codeLine="87" d="M951.9243,525.8902 C945.4543,590.4202 927.63,720.36 876.5,833 C864.29,859.91 847.17,886.75 829.72,910.65 " fill="none" id="StatUpdatable-backto-Coins" style="stroke:#181818;stroke-width:1.0;stroke-dasharray:7.0,7.0;"/><polygon fill="none" points="953.72,507.98,945.9542,525.2916,957.8943,526.4888,953.72,507.98" style="stroke:#181818;stroke-width:1.0;"/></g><!--reverse link Item to ManaOrb--><g id="link_Item_ManaOrb"><path codeLine="88" d="M870.1179,824.5239 C876.1879,832.2639 871.24,825.66 877.5,833 C904.29,864.43 937.82,894.2 969.83,919.47 " fill="none" id="Item-backto-ManaOrb" style="stroke:#181818;stroke-width:1.0;"/><polygon fill="none" points="859.01,810.36,865.3966,828.2265,874.8391,820.8213,859.01,810.36" style="stroke:#181818;stroke-width:1.0;"/></g><!--reverse link TurnActivable to ManaOrb--><g id="link_TurnActivable_ManaOrb"><path codeLine="89" d="M1127.3951,525.5473 C1119.1251,606.6973 1099.04,803.74 1087.26,919.36 " fill="none" id="TurnActivable-backto-ManaOrb" style="stroke:#181818;stroke-width:1.0;stroke-dasharray:7.0,7.0;"/><polygon fill="none" points="1129.22,507.64,1121.426,524.9389,1133.3642,526.1556,1129.22,507.64" style="stroke:#181818;stroke-width:1.0;"/></g><!--reverse link Item to ItemWithCost--><g id="link_Item_ItemWithCost"><path codeLine="90" d="M512.3305,849.6422 C486.7805,908.9722 471.76,943.83 459.56,972.16 " fill="none" id="Item-backto-ItemWithCost" style="stroke:#181818;stroke-width:1.0;"/><polygon fill="none" points="519.45,833.11,506.8198,847.269,517.8413,852.0153,519.45,833.11" style="stroke:#181818;stroke-width:1.0;"/></g><!--reverse link Clickable to ItemWithCost--><g id="link_Clickable_ItemWithCost"><path codeLine="91" d="M357.1904,533.9504 C377.9504,637.7404 428.73,891.65 444.9,972.48 " fill="none" id="Clickable-backto-ItemWithCost" style="stroke:#181818;stroke-width:1.0;stroke-dasharray:7.0,7.0;"/><polygon fill="none" points="353.66,516.3,351.307,535.1272,363.0739,532.7736,353.66,516.3" style="stroke:#181818;stroke-width:1.0;"/></g><!--reverse link Item to Wearable--><g id="link_Item_Wearable"><path codeLine="92" d="M872.7097,829.9162 C878.6397,835.1462 871.24,828.24 877.5,833 C912.17,859.35 1024.8,872.44 1067.5,881 C1156.06,898.75 1190.82,864.92 1268.5,911 C1292.72,925.36 1310.85,952.74 1321.52,972.45 " fill="none" id="Item-backto-Wearable" style="stroke:#181818;stroke-width:1.0;"/><polygon fill="none" points="859.21,818.01,868.741,834.4161,876.6785,825.4163,859.21,818.01" style="stroke:#181818;stroke-width:1.0;"/></g><!--reverse link TurnActivable to Wearable--><g id="link_TurnActivable_Wearable"><path codeLine="93" d="M1140.7982,525.4248 C1151.9082,589.4348 1178.01,718.66 1228.5,833 C1251.97,886.16 1291.4,941.9 1314.37,972.31 " fill="none" id="TurnActivable-backto-Wearable" style="stroke:#181818;stroke-width:1.0;stroke-dasharray:7.0,7.0;"/><polygon fill="none" points="1137.72,507.69,1134.8866,526.4509,1146.7098,524.3988,1137.72,507.69" style="stroke:#181818;stroke-width:1.0;"/></g><!--reverse link StatUpdatable to Wearable--><g id="link_StatUpdatable_Wearable"><path codeLine="94" d="M953.0647,525.5462 C949.5247,594.3162 952.1,739.32 1036.5,833 C1109.31,913.82 1180.18,847.49 1268.5,911 C1290.91,927.12 1309.03,953.36 1320.2,972.32 " fill="none" id="StatUpdatable-backto-Wearable" style="stroke:#181818;stroke-width:1.0;stroke-dasharray:7.0,7.0;"/><polygon fill="none" points="953.99,507.57,947.0726,525.2378,959.0567,525.8546,953.99,507.57" style="stroke:#181818;stroke-width:1.0;"/></g><!--reverse link ReStatable to Wearable--><g id="link_ReStatable_Wearable"><path codeLine="95" d="M1336.1117,525.6395 C1335.3717,621.9595 1333.32,888.77 1332.68,972.25 " fill="none" id="ReStatable-backto-Wearable" style="stroke:#181818;stroke-width:1.0;stroke-dasharray:7.0,7.0;"/><polygon fill="none" points="1336.25,507.64,1330.1119,525.5934,1342.1115,525.6856,1336.25,507.64" style="stroke:#181818;stroke-width:1.0;"/></g><!--reverse link Item to Relic--><g id="link_Item_Relic"><path codeLine="96" d="M673.0228,850.2529 C667.9328,866.7829 667.01,865.66 659.5,881 C650.34,899.71 636.93,895.08 623.5,911 C607.64,929.79 594.03,954.41 585.21,972.22 " fill="none" id="Item-backto-Relic" style="stroke:#181818;stroke-width:1.0;"/><polygon fill="none" points="678.32,833.05,667.2885,848.4872,678.7571,852.0186,678.32,833.05" style="stroke:#181818;stroke-width:1.0;"/></g><!--link Relic to Item--><g id="link_Relic_Item"><path codeLine="97" d="M569.51,972.44 C564.49,945.93 558.19,901.18 563.5,863 C564.87,853.13 565.4259,849.0737 567.1459,839.0437 " fill="none" id="Relic-to-Item" style="stroke:#181818;stroke-width:1.0;"/><polygon fill="#181818" points="568.16,833.13,562.6964,841.3244,567.3149,838.0581,570.5813,842.6766,568.16,833.13" style="stroke:#181818;stroke-width:1.0;"/><text fill="#000000" font-family="sans-serif" font-size="13" lengthAdjust="spacing" textLength="86" x="564.5" y="877.4951">findItemInSlot()</text><text fill="#000000" font-family="sans-serif" font-size="13" lengthAdjust="spacing" textLength="5" x="560.6325" y="855.2203">*</text></g><!--reverse link Item to Container--><g id="link_Item_Container"><path codeLine="98" d="M476.1156,811.8679 C465.6856,824.0179 466.62,822.02 455.5,833 C425.79,862.34 389.78,888.51 353.76,910.83 " fill="none" id="Item-backto-Container" style="stroke:#181818;stroke-width:1.0;"/><polygon fill="none" points="487.84,798.21,471.5629,807.9597,480.6682,815.776,487.84,798.21" style="stroke:#181818;stroke-width:1.0;"/></g><!--reverse link Clickable to Container--><g id="link_Clickable_Container"><path codeLine="99" d="M327.2163,533.4666 C300.4863,618.2266 243.89,797.69 208.16,910.98 " fill="none" id="Clickable-backto-Container" style="stroke:#181818;stroke-width:1.0;stroke-dasharray:7.0,7.0;"/><polygon fill="none" points="332.63,516.3,321.4941,531.662,332.9385,535.2712,332.63,516.3" style="stroke:#181818;stroke-width:1.0;"/></g><!--SRC=[hLRDRjim33x7Jo6qbtHf_016CI1DMgo7haMRhYsA7XHRSRJQKY3B2RPrxpvIiYp_tdQonOyY-P4K9IttH4koaLhBd2HSiLXpAG8kD5DR6ZEop7ZyGJSP8szlF-c1HZLKX3Ns_ax-11CAUmzKitkc338zYyX1yYIOyE9Ao3BTNGccqbyetqYPCIg2lmrNwrA9XR4nxAw5zrmYMdjicdtKL3_j4wf7pBPmQxPm8ZPeyO7XdX5p7hIsb5bVigrKh6Spe9j2As11uemM1RdHB7SsKvgpa8CWHAarDjUSgSYehU4F10Aq8k2ek4XXcJ1DUUO5fqUUw5r4841Ox1XFTzgjUB7YD9M2PhuUazCjJTYDYCWrVDUAYeARZW3JVBjzYKWYI-1MhLyRQvxJbFtWx0ZnkLyGv_B0rZnd6HSGgFi3O4FZZxMyKppbOb0XBfLYGfiWCiXRqvc6U3NVWxxz2IOpJCeKqt5ER1REYULxJZ1hPyCg9ZzzJIw0DituRpOrl2fETKVFIbFAohllz5d2CjOeCR2WMLnY-2l8LqDHIOsze6n5glnxE6KQett6y72NAPcJVZFHUh6lPFDi6NNq-e9IbpedVEqA7p0WA3NAqObRM_GxP0qHrrWemnOSajVbDwPyBo1sRTeBWMw3pOeQ7Uv1dnpigQVzGYGhUHJJjloIDYSFkhnjT20YliNGPGiTRjQMjMMtArjvB8OKHXlP3uA1EV3CzMuf2pqy3noASw6t_G72Zllx58f30zfjLdif1Pm56Ctz7R4KHPdZC0jhhMeI9TIU2zk1DTevNbPh_9YDNWoJsVXrCjFIjbktyLR6cpyNHIrgHEkJRkdVKa7lrAPFlW8glZINfN2pSrPX7RPMPvJjs6qrJcXX3BO8LQ96E5r2Iyb5qQTZn8Da3392nSK-S2LY-U1kiq-0AVgmWwDLnV_4hDFWpuogvlthMHuh97GgjjFlgM3audC-Dn46vfurIyCzQByHBZx3i0AyObNneFrACQeEyihD4nhu9vJHRc5-Yujto46D3SHPOurNIHlmFipH3-nqcC-_afCl9_R94P4j5md-teZ7J49TMYcgpdQNIGty0m00]--></g></svg>