<?xml version="1.0" encoding="us-ascii" standalone="no"?><svg xmlns="http://www.w3.org/2000/svg" xmlns:xlink="http://www.w3.org/1999/xlink" contentStyleType="text/css" height="683px" preserveAspectRatio="none" style="width:1579px;height:683px;background:#FFFFFF;" version="1.1" viewBox="0 0 1579 683" width="1579px" zoomAndPan="magnify"><defs/><g><!--class TurnActivable--><a href="java:interfaces.TurnActivable" target="_top" title="java:interfaces.TurnActivable" xlink:actuate="onRequest" xlink:href="java:interfaces.TurnActivable" xlink:show="new" xlink:title="java:interfaces.TurnActivable" xlink:type="simple"><g id="elem_TurnActivable"><rect codeLine="2" fill="#F1F1F1" height="65.6094" id="TurnActivable" rx="2.5" ry="2.5" style="stroke:#181818;stroke-width:0.5;" width="157" x="415" y="7"/><ellipse cx="447.55" cy="23" fill="#B4A7E5" rx="11" ry="11" style="stroke:#181818;stroke-width:1.0;"/><path d="M448.5031,19.6406 L448.5031,26.2969 L450.2219,26.2969 Q450.8313,26.2969 451.0969,26.5313 Q451.3625,26.7656 451.3625,27.1563 Q451.3625,27.5313 451.0969,27.7656 Q450.8313,28 450.2219,28 L445.0813,28 Q444.4719,28 444.2063,27.7656 Q443.9406,27.5313 443.9406,27.1406 Q443.9406,26.7656 444.2063,26.5313 Q444.4719,26.2969 445.0813,26.2969 L446.8,26.2969 L446.8,19.6406 L445.0813,19.6406 Q444.4719,19.6406 444.2063,19.4063 Q443.9406,19.1719 443.9406,18.7813 Q443.9406,18.4063 444.2063,18.1719 Q444.4719,17.9375 445.0813,17.9375 L450.2219,17.9375 Q450.8313,17.9375 451.0969,18.1719 Q451.3625,18.4063 451.3625,18.7813 Q451.3625,19.1719 451.0969,19.4063 Q450.8313,19.6406 450.2219,19.6406 L448.5031,19.6406 Z " fill="#000000"/><text fill="#000000" font-family="sans-serif" font-size="14" font-style="italic" lengthAdjust="spacing" textLength="86" x="465.45" y="28.7285">TurnActivable</text><line style="stroke:#181818;stroke-width:0.5;" x1="416" x2="571" y1="39" y2="39"/><line style="stroke:#181818;stroke-width:0.5;" x1="416" x2="571" y1="47" y2="47"/><text fill="#000000" font-family="sans-serif" font-size="14" lengthAdjust="spacing" textLength="145" x="421" y="65.5332">activatePerTurn(): void</text></g></a><!--class ReStatable--><a href="java:interfaces.ReStatable" target="_top" title="java:interfaces.ReStatable" xlink:actuate="onRequest" xlink:href="java:interfaces.ReStatable" xlink:show="new" xlink:title="java:interfaces.ReStatable" xlink:type="simple"><g id="elem_ReStatable"><rect codeLine="5" fill="#F1F1F1" height="65.6094" id="ReStatable" rx="2.5" ry="2.5" style="stroke:#181818;stroke-width:0.5;" width="181" x="607" y="7"/><ellipse cx="658.25" cy="23" fill="#B4A7E5" rx="11" ry="11" style="stroke:#181818;stroke-width:1.0;"/><path d="M659.2031,19.6406 L659.2031,26.2969 L660.9219,26.2969 Q661.5313,26.2969 661.7969,26.5313 Q662.0625,26.7656 662.0625,27.1563 Q662.0625,27.5313 661.7969,27.7656 Q661.5313,28 660.9219,28 L655.7813,28 Q655.1719,28 654.9063,27.7656 Q654.6406,27.5313 654.6406,27.1406 Q654.6406,26.7656 654.9063,26.5313 Q655.1719,26.2969 655.7813,26.2969 L657.5,26.2969 L657.5,19.6406 L655.7813,19.6406 Q655.1719,19.6406 654.9063,19.4063 Q654.6406,19.1719 654.6406,18.7813 Q654.6406,18.4063 654.9063,18.1719 Q655.1719,17.9375 655.7813,17.9375 L660.9219,17.9375 Q661.5313,17.9375 661.7969,18.1719 Q662.0625,18.4063 662.0625,18.7813 Q662.0625,19.1719 661.7969,19.4063 Q661.5313,19.6406 660.9219,19.6406 L659.2031,19.6406 Z " fill="#000000"/><text fill="#000000" font-family="sans-serif" font-size="14" font-style="italic" lengthAdjust="spacing" textLength="70" x="678.75" y="28.7285">ReStatable</text><line style="stroke:#181818;stroke-width:0.5;" x1="608" x2="787" y1="39" y2="39"/><line style="stroke:#181818;stroke-width:0.5;" x1="608" x2="787" y1="47" y2="47"/><text fill="#000000" font-family="sans-serif" font-size="14" lengthAdjust="spacing" textLength="169" x="613" y="65.5332">reStatBeforeUpdate(): void</text></g></a><!--class StatUpdatable--><a href="java:interfaces.StatUpdatable" target="_top" title="java:interfaces.StatUpdatable" xlink:actuate="onRequest" xlink:href="java:interfaces.StatUpdatable" xlink:show="new" xlink:title="java:interfaces.StatUpdatable" xlink:type="simple"><g id="elem_StatUpdatable"><rect codeLine="8" fill="#F1F1F1" height="65.6094" id="StatUpdatable" rx="2.5" ry="2.5" style="stroke:#181818;stroke-width:0.5;" width="124" x="823.5" y="7"/><ellipse cx="839.4" cy="23" fill="#B4A7E5" rx="11" ry="11" style="stroke:#181818;stroke-width:1.0;"/><path d="M840.3531,19.6406 L840.3531,26.2969 L842.0719,26.2969 Q842.6813,26.2969 842.9469,26.5313 Q843.2125,26.7656 843.2125,27.1563 Q843.2125,27.5313 842.9469,27.7656 Q842.6813,28 842.0719,28 L836.9313,28 Q836.3219,28 836.0563,27.7656 Q835.7906,27.5313 835.7906,27.1406 Q835.7906,26.7656 836.0563,26.5313 Q836.3219,26.2969 836.9313,26.2969 L838.65,26.2969 L838.65,19.6406 L836.9313,19.6406 Q836.3219,19.6406 836.0563,19.4063 Q835.7906,19.1719 835.7906,18.7813 Q835.7906,18.4063 836.0563,18.1719 Q836.3219,17.9375 836.9313,17.9375 L842.0719,17.9375 Q842.6813,17.9375 842.9469,18.1719 Q843.2125,18.4063 843.2125,18.7813 Q843.2125,19.1719 842.9469,19.4063 Q842.6813,19.6406 842.0719,19.6406 L840.3531,19.6406 Z " fill="#000000"/><text fill="#000000" font-family="sans-serif" font-size="14" font-style="italic" lengthAdjust="spacing" textLength="90" x="853.6" y="28.7285">StatUpdatable</text><line style="stroke:#181818;stroke-width:0.5;" x1="824.5" x2="946.5" y1="39" y2="39"/><line style="stroke:#181818;stroke-width:0.5;" x1="824.5" x2="946.5" y1="47" y2="47"/><text fill="#000000" font-family="sans-serif" font-size="14" lengthAdjust="spacing" textLength="112" x="829.5" y="65.5332">statUpdate(): void</text></g></a><!--class Item--><a href="java:game.item.Item" target="_top" title="java:game.item.Item" xlink:actuate="onRequest" xlink:href="java:game.item.Item" xlink:show="new" xlink:title="java:game.item.Item" xlink:type="simple"><g id="elem_Item"><rect codeLine="11" fill="#F1F1F1" height="48" id="Item" rx="2.5" ry="2.5" style="stroke:#181818;stroke-width:0.5;" width="59" x="983" y="16"/><ellipse cx="998" cy="32" fill="#A9DCDF" rx="11" ry="11" style="stroke:#181818;stroke-width:1.0;"/><path d="M1000.1875,33.7656 L996.0469,33.7656 L995.625,34.7969 L996.0469,34.7969 Q996.6563,34.7969 996.9219,35.0313 Q997.1875,35.2656 997.1875,35.6563 Q997.1875,36.0313 996.9219,36.2656 Q996.6563,36.5 996.0469,36.5 L993.75,36.5 Q993.1406,36.5 992.8906,36.2656 Q992.625,36.0313 992.625,35.6406 Q992.625,35.2656 992.9063,35.0313 Q993.1719,34.7813 993.7969,34.7969 L996.4688,28.1406 L995.3594,28.1406 Q994.75,28.1406 994.4844,27.9063 Q994.2188,27.6719 994.2188,27.2813 Q994.2188,26.9063 994.4844,26.6719 Q994.75,26.4375 995.3594,26.4375 L999.0313,26.4375 L1002.4219,34.7969 Q1003.0156,34.7969 1003.2031,34.9375 Q1003.5938,35.2031 1003.5938,35.6563 Q1003.5938,36.0313 1003.3281,36.2656 Q1003.0781,36.5 1002.4688,36.5 L1000.1719,36.5 Q999.5625,36.5 999.2969,36.2656 Q999.0313,36.0313 999.0313,35.6406 Q999.0313,35.2656 999.2969,35.0313 Q999.5625,34.7969 1000.1719,34.7969 L1000.5938,34.7969 L1000.1875,33.7656 Z M999.4688,32.0625 L998.1094,28.6875 L996.7344,32.0625 L999.4688,32.0625 Z " fill="#000000"/><text fill="#000000" font-family="sans-serif" font-size="14" font-style="italic" lengthAdjust="spacing" textLength="27" x="1012" y="37.7285">Item</text><line style="stroke:#181818;stroke-width:0.5;" x1="984" x2="1041" y1="48" y2="48"/><line style="stroke:#181818;stroke-width:0.5;" x1="984" x2="1041" y1="56" y2="56"/></g></a><!--class Wearable--><a href="java:game.item.wearable.Wearable" target="_top" title="java:game.item.wearable.Wearable" xlink:actuate="onRequest" xlink:href="java:game.item.wearable.Wearable" xlink:show="new" xlink:title="java:game.item.wearable.Wearable" xlink:type="simple"><g id="elem_Wearable"><rect codeLine="12" fill="#F1F1F1" height="347.3594" id="Wearable" rx="2.5" ry="2.5" style="stroke:#181818;stroke-width:0.5;" width="519" x="532" y="133"/><ellipse cx="756.25" cy="149" fill="#A9DCDF" rx="11" ry="11" style="stroke:#181818;stroke-width:1.0;"/><path d="M758.4375,150.7656 L754.2969,150.7656 L753.875,151.7969 L754.2969,151.7969 Q754.9063,151.7969 755.1719,152.0313 Q755.4375,152.2656 755.4375,152.6563 Q755.4375,153.0313 755.1719,153.2656 Q754.9063,153.5 754.2969,153.5 L752,153.5 Q751.3906,153.5 751.1406,153.2656 Q750.875,153.0313 750.875,152.6406 Q750.875,152.2656 751.1563,152.0313 Q751.4219,151.7813 752.0469,151.7969 L754.7188,145.1406 L753.6094,145.1406 Q753,145.1406 752.7344,144.9063 Q752.4688,144.6719 752.4688,144.2813 Q752.4688,143.9063 752.7344,143.6719 Q753,143.4375 753.6094,143.4375 L757.2813,143.4375 L760.6719,151.7969 Q761.2656,151.7969 761.4531,151.9375 Q761.8438,152.2031 761.8438,152.6563 Q761.8438,153.0313 761.5781,153.2656 Q761.3281,153.5 760.7188,153.5 L758.4219,153.5 Q757.8125,153.5 757.5469,153.2656 Q757.2813,153.0313 757.2813,152.6406 Q757.2813,152.2656 757.5469,152.0313 Q757.8125,151.7969 758.4219,151.7969 L758.8438,151.7969 L758.4375,150.7656 Z M757.7188,149.0625 L756.3594,145.6875 L754.9844,149.0625 L757.7188,149.0625 Z " fill="#000000"/><text fill="#000000" font-family="sans-serif" font-size="14" font-style="italic" lengthAdjust="spacing" textLength="62" x="776.75" y="154.7285">Wearable</text><line style="stroke:#181818;stroke-width:0.5;" x1="533" x2="1050" y1="165" y2="165"/><rect fill="none" height="6" style="stroke:#C82930;stroke-width:1.0;" width="6" x="540" y="176.3047"/><text fill="#000000" font-family="sans-serif" font-size="14" lengthAdjust="spacing" textLength="158" x="552" y="183.5332">effects: ArrayList&lt;Effect&gt;</text><rect fill="none" height="6" style="stroke:#C82930;stroke-width:1.0;" width="6" x="540" y="193.9141"/><text fill="#000000" font-family="sans-serif" font-size="14" lengthAdjust="spacing" textLength="94" x="552" y="201.1426">initialShield: int</text><rect fill="none" height="6" style="stroke:#C82930;stroke-width:1.0;" width="6" x="540" y="211.5234"/><text fill="#000000" font-family="sans-serif" font-size="14" lengthAdjust="spacing" textLength="60" x="552" y="218.752">shield: int</text><rect fill="none" height="6" style="stroke:#C82930;stroke-width:1.0;" width="6" x="540" y="229.1328"/><text fill="#000000" font-family="sans-serif" font-size="14" lengthAdjust="spacing" textLength="116" x="552" y="236.3613">increaseShield: int</text><line style="stroke:#181818;stroke-width:0.5;" x1="533" x2="1050" y1="243.4375" y2="243.4375"/><ellipse cx="543" cy="257.7422" fill="#84BE84" rx="3" ry="3" style="stroke:#038048;stroke-width:1.0;"/><text fill="#000000" font-family="sans-serif" font-size="14" lengthAdjust="spacing" textLength="493" x="552" y="261.9707">Wearable(name, detail, initialShield, increaseShield, effects, width, height, tier)</text><ellipse cx="543" cy="275.3516" fill="#84BE84" rx="3" ry="3" style="stroke:#038048;stroke-width:1.0;"/><text fill="#000000" font-family="sans-serif" font-size="14" lengthAdjust="spacing" textLength="169" x="552" y="279.5801">reStatBeforeUpdate(): void</text><ellipse cx="543" cy="292.9609" fill="#84BE84" rx="3" ry="3" style="stroke:#038048;stroke-width:1.0;"/><text fill="#000000" font-family="sans-serif" font-size="14" lengthAdjust="spacing" textLength="112" x="552" y="297.1895">statUpdate(): void</text><ellipse cx="543" cy="310.5703" fill="#84BE84" rx="3" ry="3" style="stroke:#038048;stroke-width:1.0;"/><text fill="#000000" font-family="sans-serif" font-size="14" lengthAdjust="spacing" textLength="145" x="552" y="314.7988">activatePerTurn(): void</text><polygon fill="#FFFF44" points="543,323.1797,547,327.1797,543,331.1797,539,327.1797" style="stroke:#B38D22;stroke-width:1.0;"/><text fill="#000000" font-family="sans-serif" font-size="14" lengthAdjust="spacing" textLength="123" x="552" y="332.4082">getProvide(): String</text><ellipse cx="543" cy="345.7891" fill="#84BE84" rx="3" ry="3" style="stroke:#038048;stroke-width:1.0;"/><text fill="#000000" font-family="sans-serif" font-size="14" lengthAdjust="spacing" textLength="104" x="552" y="350.0176">toString(): String</text><ellipse cx="543" cy="363.3984" fill="#84BE84" rx="3" ry="3" style="stroke:#038048;stroke-width:1.0;"/><text fill="#000000" font-family="sans-serif" font-size="14" lengthAdjust="spacing" textLength="189" x="552" y="367.627">getEffects(): ArrayList&lt;Effect&gt;</text><ellipse cx="543" cy="381.0078" fill="#84BE84" rx="3" ry="3" style="stroke:#038048;stroke-width:1.0;"/><text fill="#000000" font-family="sans-serif" font-size="14" lengthAdjust="spacing" textLength="92" x="552" y="385.2363">getShield(): int</text><ellipse cx="543" cy="398.6172" fill="#84BE84" rx="3" ry="3" style="stroke:#038048;stroke-width:1.0;"/><text fill="#000000" font-family="sans-serif" font-size="14" lengthAdjust="spacing" textLength="167" x="552" y="402.8457">addShield(shield: int): void</text><ellipse cx="543" cy="416.2266" fill="#84BE84" rx="3" ry="3" style="stroke:#038048;stroke-width:1.0;"/><text fill="#000000" font-family="sans-serif" font-size="14" lengthAdjust="spacing" textLength="162" x="552" y="420.4551">setShield(shield: int): void</text><ellipse cx="543" cy="433.8359" fill="#84BE84" rx="3" ry="3" style="stroke:#038048;stroke-width:1.0;"/><text fill="#000000" font-family="sans-serif" font-size="14" lengthAdjust="spacing" textLength="124" x="552" y="438.0645">getInitialShield(): int</text><ellipse cx="543" cy="451.4453" fill="#84BE84" rx="3" ry="3" style="stroke:#038048;stroke-width:1.0;"/><text fill="#000000" font-family="sans-serif" font-size="14" lengthAdjust="spacing" textLength="272" x="552" y="455.6738">setIncreaseShield(increaseShield: int): void</text><ellipse cx="543" cy="469.0547" fill="#84BE84" rx="3" ry="3" style="stroke:#038048;stroke-width:1.0;"/><text fill="#000000" font-family="sans-serif" font-size="14" lengthAdjust="spacing" textLength="146" x="552" y="473.2832">getIncreaseShield(): int</text></g></a><!--class Helmet--><a href="java:game.item.wearable.Helmet" target="_top" title="java:game.item.wearable.Helmet" xlink:actuate="onRequest" xlink:href="java:game.item.wearable.Helmet" xlink:show="new" xlink:title="java:game.item.wearable.Helmet" xlink:type="simple"><g id="elem_Helmet"><rect codeLine="31" fill="#F1F1F1" height="118.4375" id="Helmet" rx="2.5" ry="2.5" style="stroke:#181818;stroke-width:0.5;" width="501" x="7" y="549"/><ellipse cx="231.75" cy="565" fill="#ADD1B2" rx="11" ry="11" style="stroke:#181818;stroke-width:1.0;"/><path d="M234.5156,560.875 Q234.6719,560.6563 234.8594,560.5469 Q235.0469,560.4375 235.2656,560.4375 Q235.6406,560.4375 235.875,560.7031 Q236.1094,560.9531 236.1094,561.5625 L236.1094,563.0156 Q236.1094,563.625 235.875,563.8906 Q235.6406,564.1563 235.2656,564.1563 Q234.9219,564.1563 234.7188,563.9531 Q234.5156,563.7656 234.4063,563.25 Q234.3594,562.8906 234.1719,562.7031 Q233.8438,562.3281 233.2344,562.1094 Q232.625,561.8906 232,561.8906 Q231.2344,561.8906 230.5938,562.2188 Q229.9688,562.5469 229.4688,563.2969 Q228.9844,564.0469 228.9844,565.0781 L228.9844,566.1719 Q228.9844,567.4063 229.875,568.2344 Q230.7656,569.0469 232.3594,569.0469 Q233.2969,569.0469 233.9531,568.7969 Q234.3438,568.6406 234.7656,568.2031 Q235.0313,567.9375 235.1719,567.8594 Q235.3281,567.7813 235.5313,567.7813 Q235.8594,567.7813 236.1094,568.0469 Q236.375,568.2969 236.375,568.6406 Q236.375,568.9844 236.0313,569.3906 Q235.5313,569.9688 234.7344,570.2969 Q233.6563,570.75 232.3594,570.75 Q230.8438,570.75 229.6406,570.125 Q228.6563,569.625 227.9688,568.5625 Q227.2813,567.4844 227.2813,566.2031 L227.2813,565.0469 Q227.2813,563.7188 227.8906,562.5781 Q228.5156,561.4219 229.6094,560.8125 Q230.7031,560.1875 231.9375,560.1875 Q232.6719,560.1875 233.3125,560.3594 Q233.9688,560.5156 234.5156,560.875 Z " fill="#000000"/><text fill="#000000" font-family="sans-serif" font-size="14" lengthAdjust="spacing" textLength="43" x="252.25" y="570.7285">Helmet</text><line style="stroke:#181818;stroke-width:0.5;" x1="8" x2="507" y1="581" y2="581"/><line style="stroke:#181818;stroke-width:0.5;" x1="8" x2="507" y1="589" y2="589"/><ellipse cx="18" cy="603.3047" fill="#84BE84" rx="3" ry="3" style="stroke:#038048;stroke-width:1.0;"/><text fill="#000000" font-family="sans-serif" font-size="14" lengthAdjust="spacing" textLength="475" x="27" y="607.5332">Helmet(name, detail, initialShield, increaseShield, effects, width, height, tier)</text><rect fill="#F24D5C" height="6" style="stroke:#C82930;stroke-width:1.0;" width="6" x="15" y="617.9141"/><text fill="#000000" font-family="sans-serif" font-size="14" lengthAdjust="spacing" textLength="94" x="27" y="625.1426">underSlot(): int</text><ellipse cx="18" cy="638.5234" fill="#84BE84" rx="3" ry="3" style="stroke:#038048;stroke-width:1.0;"/><text fill="#000000" font-family="sans-serif" font-size="14" lengthAdjust="spacing" textLength="112" x="27" y="642.752">statUpdate(): void</text><ellipse cx="18" cy="656.1328" fill="#84BE84" rx="3" ry="3" style="stroke:#038048;stroke-width:1.0;"/><text fill="#000000" font-family="sans-serif" font-size="14" lengthAdjust="spacing" textLength="104" x="27" y="660.3613">toString(): String</text></g></a><!--class Armor--><a href="java:game.item.wearable.Armor" target="_top" title="java:game.item.wearable.Armor" xlink:actuate="onRequest" xlink:href="java:game.item.wearable.Armor" xlink:show="new" xlink:title="java:game.item.wearable.Armor" xlink:type="simple"><g id="elem_Armor"><rect codeLine="37" fill="#F1F1F1" height="136.0469" id="Armor" rx="2.5" ry="2.5" style="stroke:#181818;stroke-width:0.5;" width="496" x="543.5" y="540"/><ellipse cx="768.25" cy="556" fill="#ADD1B2" rx="11" ry="11" style="stroke:#181818;stroke-width:1.0;"/><path d="M771.0156,551.875 Q771.1719,551.6563 771.3594,551.5469 Q771.5469,551.4375 771.7656,551.4375 Q772.1406,551.4375 772.375,551.7031 Q772.6094,551.9531 772.6094,552.5625 L772.6094,554.0156 Q772.6094,554.625 772.375,554.8906 Q772.1406,555.1563 771.7656,555.1563 Q771.4219,555.1563 771.2188,554.9531 Q771.0156,554.7656 770.9063,554.25 Q770.8594,553.8906 770.6719,553.7031 Q770.3438,553.3281 769.7344,553.1094 Q769.125,552.8906 768.5,552.8906 Q767.7344,552.8906 767.0938,553.2188 Q766.4688,553.5469 765.9688,554.2969 Q765.4844,555.0469 765.4844,556.0781 L765.4844,557.1719 Q765.4844,558.4063 766.375,559.2344 Q767.2656,560.0469 768.8594,560.0469 Q769.7969,560.0469 770.4531,559.7969 Q770.8438,559.6406 771.2656,559.2031 Q771.5313,558.9375 771.6719,558.8594 Q771.8281,558.7813 772.0313,558.7813 Q772.3594,558.7813 772.6094,559.0469 Q772.875,559.2969 772.875,559.6406 Q772.875,559.9844 772.5313,560.3906 Q772.0313,560.9688 771.2344,561.2969 Q770.1563,561.75 768.8594,561.75 Q767.3438,561.75 766.1406,561.125 Q765.1563,560.625 764.4688,559.5625 Q763.7813,558.4844 763.7813,557.2031 L763.7813,556.0469 Q763.7813,554.7188 764.3906,553.5781 Q765.0156,552.4219 766.1094,551.8125 Q767.2031,551.1875 768.4375,551.1875 Q769.1719,551.1875 769.8125,551.3594 Q770.4688,551.5156 771.0156,551.875 Z " fill="#000000"/><text fill="#000000" font-family="sans-serif" font-size="14" lengthAdjust="spacing" textLength="38" x="788.75" y="561.7285">Armor</text><line style="stroke:#181818;stroke-width:0.5;" x1="544.5" x2="1038.5" y1="572" y2="572"/><line style="stroke:#181818;stroke-width:0.5;" x1="544.5" x2="1038.5" y1="580" y2="580"/><ellipse cx="554.5" cy="594.3047" fill="#84BE84" rx="3" ry="3" style="stroke:#038048;stroke-width:1.0;"/><text fill="#000000" font-family="sans-serif" font-size="14" lengthAdjust="spacing" textLength="470" x="563.5" y="598.5332">Armor(name, detail, initialShield, increaseShield, effects, width, height, tier)</text><rect fill="#F24D5C" height="6" style="stroke:#C82930;stroke-width:1.0;" width="6" x="551.5" y="608.9141"/><text fill="#000000" font-family="sans-serif" font-size="14" lengthAdjust="spacing" textLength="377" x="563.5" y="616.1426">isMeetCondition(item: Item, items: ArrayList&lt;Item&gt;): boolean</text><rect fill="#F24D5C" height="6" style="stroke:#C82930;stroke-width:1.0;" width="6" x="551.5" y="626.5234"/><text fill="#000000" font-family="sans-serif" font-size="14" lengthAdjust="spacing" textLength="151" x="563.5" y="633.752">numberOfAdjacent(): int</text><ellipse cx="554.5" cy="647.1328" fill="#84BE84" rx="3" ry="3" style="stroke:#038048;stroke-width:1.0;"/><text fill="#000000" font-family="sans-serif" font-size="14" lengthAdjust="spacing" textLength="112" x="563.5" y="651.3613">statUpdate(): void</text><ellipse cx="554.5" cy="664.7422" fill="#84BE84" rx="3" ry="3" style="stroke:#038048;stroke-width:1.0;"/><text fill="#000000" font-family="sans-serif" font-size="14" lengthAdjust="spacing" textLength="104" x="563.5" y="668.9707">toString(): String</text></g></a><!--class Shoes--><a href="java:game.item.wearable.Shoes" target="_top" title="java:game.item.wearable.Shoes" xlink:actuate="onRequest" xlink:href="java:game.item.wearable.Shoes" xlink:show="new" xlink:title="java:game.item.wearable.Shoes" xlink:type="simple"><g id="elem_Shoes"><rect codeLine="44" fill="#F1F1F1" height="136.0469" id="Shoes" rx="2.5" ry="2.5" style="stroke:#181818;stroke-width:0.5;" width="498" x="1074.5" y="540"/><ellipse cx="1299.25" cy="556" fill="#ADD1B2" rx="11" ry="11" style="stroke:#181818;stroke-width:1.0;"/><path d="M1302.0156,551.875 Q1302.1719,551.6563 1302.3594,551.5469 Q1302.5469,551.4375 1302.7656,551.4375 Q1303.1406,551.4375 1303.375,551.7031 Q1303.6094,551.9531 1303.6094,552.5625 L1303.6094,554.0156 Q1303.6094,554.625 1303.375,554.8906 Q1303.1406,555.1563 1302.7656,555.1563 Q1302.4219,555.1563 1302.2188,554.9531 Q1302.0156,554.7656 1301.9063,554.25 Q1301.8594,553.8906 1301.6719,553.7031 Q1301.3438,553.3281 1300.7344,553.1094 Q1300.125,552.8906 1299.5,552.8906 Q1298.7344,552.8906 1298.0938,553.2188 Q1297.4688,553.5469 1296.9688,554.2969 Q1296.4844,555.0469 1296.4844,556.0781 L1296.4844,557.1719 Q1296.4844,558.4063 1297.375,559.2344 Q1298.2656,560.0469 1299.8594,560.0469 Q1300.7969,560.0469 1301.4531,559.7969 Q1301.8438,559.6406 1302.2656,559.2031 Q1302.5313,558.9375 1302.6719,558.8594 Q1302.8281,558.7813 1303.0313,558.7813 Q1303.3594,558.7813 1303.6094,559.0469 Q1303.875,559.2969 1303.875,559.6406 Q1303.875,559.9844 1303.5313,560.3906 Q1303.0313,560.9688 1302.2344,561.2969 Q1301.1563,561.75 1299.8594,561.75 Q1298.3438,561.75 1297.1406,561.125 Q1296.1563,560.625 1295.4688,559.5625 Q1294.7813,558.4844 1294.7813,557.2031 L1294.7813,556.0469 Q1294.7813,554.7188 1295.3906,553.5781 Q1296.0156,552.4219 1297.1094,551.8125 Q1298.2031,551.1875 1299.4375,551.1875 Q1300.1719,551.1875 1300.8125,551.3594 Q1301.4688,551.5156 1302.0156,551.875 Z " fill="#000000"/><text fill="#000000" font-family="sans-serif" font-size="14" lengthAdjust="spacing" textLength="40" x="1319.75" y="561.7285">Shoes</text><line style="stroke:#181818;stroke-width:0.5;" x1="1075.5" x2="1571.5" y1="572" y2="572"/><line style="stroke:#181818;stroke-width:0.5;" x1="1075.5" x2="1571.5" y1="580" y2="580"/><ellipse cx="1085.5" cy="594.3047" fill="#84BE84" rx="3" ry="3" style="stroke:#038048;stroke-width:1.0;"/><text fill="#000000" font-family="sans-serif" font-size="14" lengthAdjust="spacing" textLength="472" x="1094.5" y="598.5332">Shoes(name, detail, initialShield, increaseShield, effects, width, height, tier)</text><rect fill="#F24D5C" height="6" style="stroke:#C82930;stroke-width:1.0;" width="6" x="1082.5" y="608.9141"/><text fill="#000000" font-family="sans-serif" font-size="14" lengthAdjust="spacing" textLength="111" x="1094.5" y="616.1426">emptySpace(): int</text><rect fill="#F24D5C" height="6" style="stroke:#C82930;stroke-width:1.0;" width="6" x="1082.5" y="626.5234"/><text fill="#000000" font-family="sans-serif" font-size="14" lengthAdjust="spacing" textLength="123" x="1094.5" y="633.752">isLowest(): boolean</text><ellipse cx="1085.5" cy="647.1328" fill="#84BE84" rx="3" ry="3" style="stroke:#038048;stroke-width:1.0;"/><text fill="#000000" font-family="sans-serif" font-size="14" lengthAdjust="spacing" textLength="112" x="1094.5" y="651.3613">statUpdate(): void</text><ellipse cx="1085.5" cy="664.7422" fill="#84BE84" rx="3" ry="3" style="stroke:#038048;stroke-width:1.0;"/><text fill="#000000" font-family="sans-serif" font-size="14" lengthAdjust="spacing" textLength="104" x="1094.5" y="668.9707">toString(): String</text></g></a><!--reverse link Item to Wearable--><g id="link_Item_Wearable"><path codeLine="51" d="M981.729,77.8232 C967.609,94.7232 958.52,105.6 935.78,132.82 " fill="none" id="Item-backto-Wearable" style="stroke:#181818;stroke-width:1.0;"/><polygon fill="none" points="993.27,64.01,977.1246,73.9762,986.3334,81.6702,993.27,64.01" style="stroke:#181818;stroke-width:1.0;"/></g><!--reverse link TurnActivable to Wearable--><g id="link_TurnActivable_Wearable"><path codeLine="52" d="M543.202,85.1189 C561.352,101.2289 571.41,110.15 596.91,132.78 " fill="none" id="TurnActivable-backto-Wearable" style="stroke:#181818;stroke-width:1.0;stroke-dasharray:7.0,7.0;"/><polygon fill="none" points="529.74,73.17,539.219,89.6062,547.1849,80.6316,529.74,73.17" style="stroke:#181818;stroke-width:1.0;"/></g><!--reverse link StatUpdatable to Wearable--><g id="link_StatUpdatable_Wearable"><path codeLine="53" d="M868.038,90.1292 C862.308,106.2392 860.92,110.15 852.88,132.78 " fill="none" id="StatUpdatable-backto-Wearable" style="stroke:#181818;stroke-width:1.0;stroke-dasharray:7.0,7.0;"/><polygon fill="none" points="874.07,73.17,862.3849,88.1185,873.691,92.1399,874.07,73.17" style="stroke:#181818;stroke-width:1.0;"/></g><!--reverse link ReStatable to Wearable--><g id="link_ReStatable_Wearable"><path codeLine="54" d="M714.962,90.1292 C720.692,106.2392 722.08,110.15 730.12,132.78 " fill="none" id="ReStatable-backto-Wearable" style="stroke:#181818;stroke-width:1.0;stroke-dasharray:7.0,7.0;"/><polygon fill="none" points="708.93,73.17,709.309,92.1399,720.6151,88.1185,708.93,73.17" style="stroke:#181818;stroke-width:1.0;"/></g><!--reverse link Wearable to Helmet--><g id="link_Wearable_Helmet"><path codeLine="55" d="M516.2316,461.8868 C455.5716,495.9168 410.09,521.42 360.94,548.98 " fill="none" id="Wearable-backto-Helmet" style="stroke:#181818;stroke-width:1.0;"/><polygon fill="none" points="531.93,453.08,513.296,456.6539,519.1671,467.1196,531.93,453.08" style="stroke:#181818;stroke-width:1.0;"/></g><!--reverse link Wearable to Armor--><g id="link_Wearable_Armor"><path codeLine="56" d="M791.5,498.42 C791.5,519.43 791.5,521.82 791.5,539.87 " fill="none" id="Wearable-backto-Armor" style="stroke:#181818;stroke-width:1.0;"/><polygon fill="none" points="791.5,480.42,785.5,498.42,797.5,498.42,791.5,480.42" style="stroke:#181818;stroke-width:1.0;"/></g><!--reverse link Wearable to Shoes--><g id="link_Wearable_Shoes"><path codeLine="57" d="M1066.9554,462.57 C1120.4954,492.71 1158.69,514.22 1204.22,539.85 " fill="none" id="Wearable-backto-Shoes" style="stroke:#181818;stroke-width:1.0;"/><polygon fill="none" points="1051.27,453.74,1064.0121,467.7984,1069.8987,457.3415,1051.27,453.74" style="stroke:#181818;stroke-width:1.0;"/></g><!--SRC=[hLNHQjim57sUl-92NrBg-0DCA6Hbq4B7ohonXz87ERgELMmfI3S9PUs_JvBjMCgSm5XUGkuvLySwH_8rgGsGWb8HgHQuqBWYeMGY9A6ks0hXnrRBfGLth6mGdfzVsOxb1zfa4V_o0h-JJyoNX4-e7Jkxpc6d14y-0jdlM12Z4veZsGbgNt_6IcdykU5MUbBJDNdwX6p4TyfcW495LXhIrWIi6cOCF12sWzgQjPW92sGETHf_jVz2fiCDZ4lsFPCDBNuF07EiAfkxoM6fDNjx58OMNpnqwrWX1GdM5BN0XkTW3JdKnAMGAutCODnrCpnf9kqkKk18J3GfH9Ak31UdqEydXRtWLATGerZNb089rDTEzio1M7OYL8kUkXK0Lska9wrsWli51MaXrsu9gUv_ZDhkBXtZyAd8N4ldnNNqKJ3EUoo8BjprOSqqRpKVmjW2QUEeCCBPn74SIqNzlTP7qjsXUsnQf3Ctg6lexyzDLrtsZETRoL4NZQBGwEJ9JXpJO6IfMwNF-F3yOCCN5tOXp5T4kbEI2pVOPkxnkN-bhPZzZLuw1zzQ4wLI3JBfrijjMwB-LYtvgvqXyh_2A6g5vamOdX_2yCM5my1sGs_5nXePRTY47jKUZNSs6lyNTtv0BjxdyyFiI-Alnk8zoqOk7jCn5tmMOk8mLVrpkWj_1FhhSuJv5Fy0]--></g></svg>