<?xml version="1.0" encoding="us-ascii" standalone="no"?><svg xmlns="http://www.w3.org/2000/svg" xmlns:xlink="http://www.w3.org/1999/xlink" contentStyleType="text/css" height="670px" preserveAspectRatio="none" style="width:1678px;height:670px;background:#FFFFFF;" version="1.1" viewBox="0 0 1678 670" width="1678px" zoomAndPan="magnify"><defs/><g><!--class Application--><g id="elem_Application"><rect codeLine="1" fill="#F1F1F1" height="48" id="Application" rx="2.5" ry="2.5" style="stroke:#181818;stroke-width:0.5;" width="101" x="86" y="7"/><ellipse cx="101" cy="23" fill="#ADD1B2" rx="11" ry="11" style="stroke:#181818;stroke-width:1.0;"/><path d="M103.7656,18.875 Q103.9219,18.6563 104.1094,18.5469 Q104.2969,18.4375 104.5156,18.4375 Q104.8906,18.4375 105.125,18.7031 Q105.3594,18.9531 105.3594,19.5625 L105.3594,21.0156 Q105.3594,21.625 105.125,21.8906 Q104.8906,22.1563 104.5156,22.1563 Q104.1719,22.1563 103.9688,21.9531 Q103.7656,21.7656 103.6563,21.25 Q103.6094,20.8906 103.4219,20.7031 Q103.0938,20.3281 102.4844,20.1094 Q101.875,19.8906 101.25,19.8906 Q100.4844,19.8906 99.8438,20.2188 Q99.2188,20.5469 98.7188,21.2969 Q98.2344,22.0469 98.2344,23.0781 L98.2344,24.1719 Q98.2344,25.4063 99.125,26.2344 Q100.0156,27.0469 101.6094,27.0469 Q102.5469,27.0469 103.2031,26.7969 Q103.5938,26.6406 104.0156,26.2031 Q104.2813,25.9375 104.4219,25.8594 Q104.5781,25.7813 104.7813,25.7813 Q105.1094,25.7813 105.3594,26.0469 Q105.625,26.2969 105.625,26.6406 Q105.625,26.9844 105.2813,27.3906 Q104.7813,27.9688 103.9844,28.2969 Q102.9063,28.75 101.6094,28.75 Q100.0938,28.75 98.8906,28.125 Q97.9063,27.625 97.2188,26.5625 Q96.5313,25.4844 96.5313,24.2031 L96.5313,23.0469 Q96.5313,21.7188 97.1406,20.5781 Q97.7656,19.4219 98.8594,18.8125 Q99.9531,18.1875 101.1875,18.1875 Q101.9219,18.1875 102.5625,18.3594 Q103.2188,18.5156 103.7656,18.875 Z " fill="#000000"/><text fill="#000000" font-family="sans-serif" font-size="14" lengthAdjust="spacing" textLength="69" x="115" y="28.7285">Application</text><line style="stroke:#181818;stroke-width:0.5;" x1="87" x2="186" y1="39" y2="39"/><line style="stroke:#181818;stroke-width:0.5;" x1="87" x2="186" y1="47" y2="47"/></g><!--class BorderPane--><g id="elem_BorderPane"><rect codeLine="2" fill="#F1F1F1" height="48" id="BorderPane" rx="2.5" ry="2.5" style="stroke:#181818;stroke-width:0.5;" width="108" x="1201.5" y="7"/><ellipse cx="1216.5" cy="23" fill="#ADD1B2" rx="11" ry="11" style="stroke:#181818;stroke-width:1.0;"/><path d="M1219.2656,18.875 Q1219.4219,18.6563 1219.6094,18.5469 Q1219.7969,18.4375 1220.0156,18.4375 Q1220.3906,18.4375 1220.625,18.7031 Q1220.8594,18.9531 1220.8594,19.5625 L1220.8594,21.0156 Q1220.8594,21.625 1220.625,21.8906 Q1220.3906,22.1563 1220.0156,22.1563 Q1219.6719,22.1563 1219.4688,21.9531 Q1219.2656,21.7656 1219.1563,21.25 Q1219.1094,20.8906 1218.9219,20.7031 Q1218.5938,20.3281 1217.9844,20.1094 Q1217.375,19.8906 1216.75,19.8906 Q1215.9844,19.8906 1215.3438,20.2188 Q1214.7188,20.5469 1214.2188,21.2969 Q1213.7344,22.0469 1213.7344,23.0781 L1213.7344,24.1719 Q1213.7344,25.4063 1214.625,26.2344 Q1215.5156,27.0469 1217.1094,27.0469 Q1218.0469,27.0469 1218.7031,26.7969 Q1219.0938,26.6406 1219.5156,26.2031 Q1219.7813,25.9375 1219.9219,25.8594 Q1220.0781,25.7813 1220.2813,25.7813 Q1220.6094,25.7813 1220.8594,26.0469 Q1221.125,26.2969 1221.125,26.6406 Q1221.125,26.9844 1220.7813,27.3906 Q1220.2813,27.9688 1219.4844,28.2969 Q1218.4063,28.75 1217.1094,28.75 Q1215.5938,28.75 1214.3906,28.125 Q1213.4063,27.625 1212.7188,26.5625 Q1212.0313,25.4844 1212.0313,24.2031 L1212.0313,23.0469 Q1212.0313,21.7188 1212.6406,20.5781 Q1213.2656,19.4219 1214.3594,18.8125 Q1215.4531,18.1875 1216.6875,18.1875 Q1217.4219,18.1875 1218.0625,18.3594 Q1218.7188,18.5156 1219.2656,18.875 Z " fill="#000000"/><text fill="#000000" font-family="sans-serif" font-size="14" lengthAdjust="spacing" textLength="76" x="1230.5" y="28.7285">BorderPane</text><line style="stroke:#181818;stroke-width:0.5;" x1="1202.5" x2="1308.5" y1="39" y2="39"/><line style="stroke:#181818;stroke-width:0.5;" x1="1202.5" x2="1308.5" y1="47" y2="47"/></g><!--class Main--><a href="java:application.Main" target="_top" title="java:application.Main" xlink:actuate="onRequest" xlink:href="java:application.Main" xlink:show="new" xlink:title="java:application.Main" xlink:type="simple"><g id="elem_Main"><rect codeLine="4" fill="#F1F1F1" height="153.6563" id="Main" rx="2.5" ry="2.5" style="stroke:#181818;stroke-width:0.5;" width="227" x="23" y="124.5"/><ellipse cx="117.25" cy="140.5" fill="#ADD1B2" rx="11" ry="11" style="stroke:#181818;stroke-width:1.0;"/><path d="M120.0156,136.375 Q120.1719,136.1563 120.3594,136.0469 Q120.5469,135.9375 120.7656,135.9375 Q121.1406,135.9375 121.375,136.2031 Q121.6094,136.4531 121.6094,137.0625 L121.6094,138.5156 Q121.6094,139.125 121.375,139.3906 Q121.1406,139.6563 120.7656,139.6563 Q120.4219,139.6563 120.2188,139.4531 Q120.0156,139.2656 119.9063,138.75 Q119.8594,138.3906 119.6719,138.2031 Q119.3438,137.8281 118.7344,137.6094 Q118.125,137.3906 117.5,137.3906 Q116.7344,137.3906 116.0938,137.7188 Q115.4688,138.0469 114.9688,138.7969 Q114.4844,139.5469 114.4844,140.5781 L114.4844,141.6719 Q114.4844,142.9063 115.375,143.7344 Q116.2656,144.5469 117.8594,144.5469 Q118.7969,144.5469 119.4531,144.2969 Q119.8438,144.1406 120.2656,143.7031 Q120.5313,143.4375 120.6719,143.3594 Q120.8281,143.2813 121.0313,143.2813 Q121.3594,143.2813 121.6094,143.5469 Q121.875,143.7969 121.875,144.1406 Q121.875,144.4844 121.5313,144.8906 Q121.0313,145.4688 120.2344,145.7969 Q119.1563,146.25 117.8594,146.25 Q116.3438,146.25 115.1406,145.625 Q114.1563,145.125 113.4688,144.0625 Q112.7813,142.9844 112.7813,141.7031 L112.7813,140.5469 Q112.7813,139.2188 113.3906,138.0781 Q114.0156,136.9219 115.1094,136.3125 Q116.2031,135.6875 117.4375,135.6875 Q118.1719,135.6875 118.8125,135.8594 Q119.4688,136.0156 120.0156,136.375 Z " fill="#000000"/><text fill="#000000" font-family="sans-serif" font-size="14" lengthAdjust="spacing" textLength="30" x="137.75" y="146.2285">Main</text><line style="stroke:#181818;stroke-width:0.5;" x1="24" x2="249" y1="156.5" y2="156.5"/><ellipse cx="34" cy="170.8047" fill="none" rx="3" ry="3" style="stroke:#038048;stroke-width:1.0;"/><text fill="#000000" font-family="sans-serif" font-size="14" lengthAdjust="spacing" text-decoration="underline" textLength="101" x="43" y="175.0332">root: StackPane</text><ellipse cx="34" cy="188.4141" fill="none" rx="3" ry="3" style="stroke:#038048;stroke-width:1.0;"/><text fill="#000000" font-family="sans-serif" font-size="14" lengthAdjust="spacing" text-decoration="underline" textLength="164" x="43" y="192.6426">mediaPlayer: MediaPlayer</text><ellipse cx="34" cy="206.0234" fill="none" rx="3" ry="3" style="stroke:#038048;stroke-width:1.0;"/><text fill="#000000" font-family="sans-serif" font-size="14" lengthAdjust="spacing" text-decoration="underline" textLength="80" x="43" y="210.252">stage: Stage</text><line style="stroke:#181818;stroke-width:0.5;" x1="24" x2="249" y1="217.3281" y2="217.3281"/><ellipse cx="34" cy="231.6328" fill="#84BE84" rx="3" ry="3" style="stroke:#038048;stroke-width:1.0;"/><text fill="#000000" font-family="sans-serif" font-size="14" lengthAdjust="spacing" textLength="201" x="43" y="235.8613">start(primaryStage: Stage): void</text><ellipse cx="34" cy="249.2422" fill="#84BE84" rx="3" ry="3" style="stroke:#038048;stroke-width:1.0;"/><text fill="#000000" font-family="sans-serif" font-size="14" lengthAdjust="spacing" textLength="71" x="43" y="253.4707">stop(): void</text><ellipse cx="34" cy="266.8516" fill="#84BE84" rx="3" ry="3" style="stroke:#038048;stroke-width:1.0;"/><text fill="#000000" font-family="sans-serif" font-size="14" lengthAdjust="spacing" text-decoration="underline" textLength="155" x="43" y="271.0801">main(args: String[]): void</text></g></a><!--class Fader--><a href="java:application.Fader" target="_top" title="java:application.Fader" xlink:actuate="onRequest" xlink:href="java:application.Fader" xlink:show="new" xlink:title="java:application.Fader" xlink:type="simple"><g id="elem_Fader"><rect codeLine="12" fill="#F1F1F1" height="171.2656" id="Fader" rx="2.5" ry="2.5" style="stroke:#181818;stroke-width:0.5;" width="207" x="285" y="116"/><ellipse cx="365.25" cy="132" fill="#ADD1B2" rx="11" ry="11" style="stroke:#181818;stroke-width:1.0;"/><path d="M368.0156,127.875 Q368.1719,127.6563 368.3594,127.5469 Q368.5469,127.4375 368.7656,127.4375 Q369.1406,127.4375 369.375,127.7031 Q369.6094,127.9531 369.6094,128.5625 L369.6094,130.0156 Q369.6094,130.625 369.375,130.8906 Q369.1406,131.1563 368.7656,131.1563 Q368.4219,131.1563 368.2188,130.9531 Q368.0156,130.7656 367.9063,130.25 Q367.8594,129.8906 367.6719,129.7031 Q367.3438,129.3281 366.7344,129.1094 Q366.125,128.8906 365.5,128.8906 Q364.7344,128.8906 364.0938,129.2188 Q363.4688,129.5469 362.9688,130.2969 Q362.4844,131.0469 362.4844,132.0781 L362.4844,133.1719 Q362.4844,134.4063 363.375,135.2344 Q364.2656,136.0469 365.8594,136.0469 Q366.7969,136.0469 367.4531,135.7969 Q367.8438,135.6406 368.2656,135.2031 Q368.5313,134.9375 368.6719,134.8594 Q368.8281,134.7813 369.0313,134.7813 Q369.3594,134.7813 369.6094,135.0469 Q369.875,135.2969 369.875,135.6406 Q369.875,135.9844 369.5313,136.3906 Q369.0313,136.9688 368.2344,137.2969 Q367.1563,137.75 365.8594,137.75 Q364.3438,137.75 363.1406,137.125 Q362.1563,136.625 361.4688,135.5625 Q360.7813,134.4844 360.7813,133.2031 L360.7813,132.0469 Q360.7813,130.7188 361.3906,129.5781 Q362.0156,128.4219 363.1094,127.8125 Q364.2031,127.1875 365.4375,127.1875 Q366.1719,127.1875 366.8125,127.3594 Q367.4688,127.5156 368.0156,127.875 Z " fill="#000000"/><text fill="#000000" font-family="sans-serif" font-size="14" lengthAdjust="spacing" textLength="38" x="385.75" y="137.7285">Fader</text><line style="stroke:#181818;stroke-width:0.5;" x1="286" x2="491" y1="148" y2="148"/><rect fill="none" height="6" style="stroke:#C82930;stroke-width:1.0;" width="6" x="293" y="159.3047"/><text fill="#000000" font-family="sans-serif" font-size="14" lengthAdjust="spacing" text-decoration="underline" textLength="150" x="305" y="166.5332">blackScreen: Rectangle</text><rect fill="none" height="6" style="stroke:#C82930;stroke-width:1.0;" width="6" x="293" y="176.9141"/><text fill="#000000" font-family="sans-serif" font-size="14" lengthAdjust="spacing" text-decoration="underline" textLength="125" x="305" y="184.1426">blackout: Rectangle</text><rect fill="none" height="6" style="stroke:#C82930;stroke-width:1.0;" width="6" x="293" y="194.5234"/><text fill="#000000" font-family="sans-serif" font-size="14" lengthAdjust="spacing" text-decoration="underline" textLength="86" x="305" y="201.752">scene: Scene</text><line style="stroke:#181818;stroke-width:0.5;" x1="286" x2="491" y1="208.8281" y2="208.8281"/><ellipse cx="296" cy="223.1328" fill="#84BE84" rx="3" ry="3" style="stroke:#038048;stroke-width:1.0;"/><text fill="#000000" font-family="sans-serif" font-size="14" lengthAdjust="spacing" text-decoration="underline" textLength="173" x="305" y="227.3613">initialize(stage: Stage): void</text><ellipse cx="296" cy="240.7422" fill="#84BE84" rx="3" ry="3" style="stroke:#038048;stroke-width:1.0;"/><text fill="#000000" font-family="sans-serif" font-size="14" lengthAdjust="spacing" text-decoration="underline" textLength="131" x="305" y="244.9707">fadeOutAndIn(): void</text><ellipse cx="296" cy="258.3516" fill="#84BE84" rx="3" ry="3" style="stroke:#038048;stroke-width:1.0;"/><text fill="#000000" font-family="sans-serif" font-size="14" lengthAdjust="spacing" text-decoration="underline" textLength="156" x="305" y="262.5801">getBlackout(): Rectangle</text><ellipse cx="296" cy="275.9609" fill="#84BE84" rx="3" ry="3" style="stroke:#038048;stroke-width:1.0;"/><text fill="#000000" font-family="sans-serif" font-size="14" lengthAdjust="spacing" text-decoration="underline" textLength="181" x="305" y="280.1895">getBlackScreen(): Rectangle</text></g></a><!--class MenuScene--><a href="java:scene.MenuScene" target="_top" title="java:scene.MenuScene" xlink:actuate="onRequest" xlink:href="java:scene.MenuScene" xlink:show="new" xlink:title="java:scene.MenuScene" xlink:type="simple"><g id="elem_MenuScene"><rect codeLine="24" fill="#F1F1F1" height="171.2656" id="MenuScene" rx="2.5" ry="2.5" style="stroke:#181818;stroke-width:0.5;" width="339" x="7" y="357"/><ellipse cx="134.75" cy="373" fill="#ADD1B2" rx="11" ry="11" style="stroke:#181818;stroke-width:1.0;"/><path d="M137.5156,368.875 Q137.6719,368.6563 137.8594,368.5469 Q138.0469,368.4375 138.2656,368.4375 Q138.6406,368.4375 138.875,368.7031 Q139.1094,368.9531 139.1094,369.5625 L139.1094,371.0156 Q139.1094,371.625 138.875,371.8906 Q138.6406,372.1563 138.2656,372.1563 Q137.9219,372.1563 137.7188,371.9531 Q137.5156,371.7656 137.4063,371.25 Q137.3594,370.8906 137.1719,370.7031 Q136.8438,370.3281 136.2344,370.1094 Q135.625,369.8906 135,369.8906 Q134.2344,369.8906 133.5938,370.2188 Q132.9688,370.5469 132.4688,371.2969 Q131.9844,372.0469 131.9844,373.0781 L131.9844,374.1719 Q131.9844,375.4063 132.875,376.2344 Q133.7656,377.0469 135.3594,377.0469 Q136.2969,377.0469 136.9531,376.7969 Q137.3438,376.6406 137.7656,376.2031 Q138.0313,375.9375 138.1719,375.8594 Q138.3281,375.7813 138.5313,375.7813 Q138.8594,375.7813 139.1094,376.0469 Q139.375,376.2969 139.375,376.6406 Q139.375,376.9844 139.0313,377.3906 Q138.5313,377.9688 137.7344,378.2969 Q136.6563,378.75 135.3594,378.75 Q133.8438,378.75 132.6406,378.125 Q131.6563,377.625 130.9688,376.5625 Q130.2813,375.4844 130.2813,374.2031 L130.2813,373.0469 Q130.2813,371.7188 130.8906,370.5781 Q131.5156,369.4219 132.6094,368.8125 Q133.7031,368.1875 134.9375,368.1875 Q135.6719,368.1875 136.3125,368.3594 Q136.9688,368.5156 137.5156,368.875 Z " fill="#000000"/><text fill="#000000" font-family="sans-serif" font-size="14" lengthAdjust="spacing" textLength="75" x="155.25" y="378.7285">MenuScene</text><line style="stroke:#181818;stroke-width:0.5;" x1="8" x2="345" y1="389" y2="389"/><rect fill="none" height="6" style="stroke:#C82930;stroke-width:1.0;" width="6" x="15" y="400.3047"/><text fill="#000000" font-family="sans-serif" font-size="14" lengthAdjust="spacing" text-decoration="underline" textLength="166" x="27" y="407.5332">hasGameStarted: boolean</text><rect fill="none" height="6" style="stroke:#C82930;stroke-width:1.0;" width="6" x="15" y="417.9141"/><text fill="#000000" font-family="sans-serif" font-size="14" lengthAdjust="spacing" text-decoration="underline" textLength="155" x="27" y="425.1426">isInMenuScene: boolean</text><line style="stroke:#181818;stroke-width:0.5;" x1="8" x2="345" y1="432.2188" y2="432.2188"/><ellipse cx="18" cy="446.5234" fill="#84BE84" rx="3" ry="3" style="stroke:#038048;stroke-width:1.0;"/><text fill="#000000" font-family="sans-serif" font-size="14" lengthAdjust="spacing" text-decoration="underline" textLength="67" x="27" y="450.752">use(): void</text><ellipse cx="18" cy="464.1328" fill="#84BE84" rx="3" ry="3" style="stroke:#038048;stroke-width:1.0;"/><text fill="#000000" font-family="sans-serif" font-size="14" lengthAdjust="spacing" text-decoration="underline" textLength="176" x="27" y="468.3613">hasGameStarted(): boolean</text><ellipse cx="18" cy="481.7422" fill="#84BE84" rx="3" ry="3" style="stroke:#038048;stroke-width:1.0;"/><text fill="#000000" font-family="sans-serif" font-size="14" lengthAdjust="spacing" text-decoration="underline" textLength="313" x="27" y="485.9707">setGameStarted(hasGameStarted: boolean): void</text><ellipse cx="18" cy="499.3516" fill="#84BE84" rx="3" ry="3" style="stroke:#038048;stroke-width:1.0;"/><text fill="#000000" font-family="sans-serif" font-size="14" lengthAdjust="spacing" text-decoration="underline" textLength="165" x="27" y="503.5801">isInMenuScene(): boolean</text><ellipse cx="18" cy="516.9609" fill="#84BE84" rx="3" ry="3" style="stroke:#038048;stroke-width:1.0;"/><text fill="#000000" font-family="sans-serif" font-size="14" lengthAdjust="spacing" text-decoration="underline" textLength="304" x="27" y="521.1895">setInMenuScene(isInMenuScene: boolean): void</text></g></a><!--class GameScene--><a href="java:scene.GameScene" target="_top" title="java:scene.GameScene" xlink:actuate="onRequest" xlink:href="java:scene.GameScene" xlink:show="new" xlink:title="java:scene.GameScene" xlink:type="simple"><g id="elem_GameScene"><rect codeLine="33" fill="#F1F1F1" height="65.6094" id="GameScene" rx="2.5" ry="2.5" style="stroke:#181818;stroke-width:0.5;" width="110" x="381.5" y="409.5"/><ellipse cx="396.5" cy="425.5" fill="#ADD1B2" rx="11" ry="11" style="stroke:#181818;stroke-width:1.0;"/><path d="M399.2656,421.375 Q399.4219,421.1563 399.6094,421.0469 Q399.7969,420.9375 400.0156,420.9375 Q400.3906,420.9375 400.625,421.2031 Q400.8594,421.4531 400.8594,422.0625 L400.8594,423.5156 Q400.8594,424.125 400.625,424.3906 Q400.3906,424.6563 400.0156,424.6563 Q399.6719,424.6563 399.4688,424.4531 Q399.2656,424.2656 399.1563,423.75 Q399.1094,423.3906 398.9219,423.2031 Q398.5938,422.8281 397.9844,422.6094 Q397.375,422.3906 396.75,422.3906 Q395.9844,422.3906 395.3438,422.7188 Q394.7188,423.0469 394.2188,423.7969 Q393.7344,424.5469 393.7344,425.5781 L393.7344,426.6719 Q393.7344,427.9063 394.625,428.7344 Q395.5156,429.5469 397.1094,429.5469 Q398.0469,429.5469 398.7031,429.2969 Q399.0938,429.1406 399.5156,428.7031 Q399.7813,428.4375 399.9219,428.3594 Q400.0781,428.2813 400.2813,428.2813 Q400.6094,428.2813 400.8594,428.5469 Q401.125,428.7969 401.125,429.1406 Q401.125,429.4844 400.7813,429.8906 Q400.2813,430.4688 399.4844,430.7969 Q398.4063,431.25 397.1094,431.25 Q395.5938,431.25 394.3906,430.625 Q393.4063,430.125 392.7188,429.0625 Q392.0313,427.9844 392.0313,426.7031 L392.0313,425.5469 Q392.0313,424.2188 392.6406,423.0781 Q393.2656,421.9219 394.3594,421.3125 Q395.4531,420.6875 396.6875,420.6875 Q397.4219,420.6875 398.0625,420.8594 Q398.7188,421.0156 399.2656,421.375 Z " fill="#000000"/><text fill="#000000" font-family="sans-serif" font-size="14" lengthAdjust="spacing" textLength="78" x="410.5" y="431.2285">GameScene</text><line style="stroke:#181818;stroke-width:0.5;" x1="382.5" x2="490.5" y1="441.5" y2="441.5"/><line style="stroke:#181818;stroke-width:0.5;" x1="382.5" x2="490.5" y1="449.5" y2="449.5"/><ellipse cx="392.5" cy="463.8047" fill="#84BE84" rx="3" ry="3" style="stroke:#038048;stroke-width:1.0;"/><text fill="#000000" font-family="sans-serif" font-size="14" lengthAdjust="spacing" text-decoration="underline" textLength="67" x="401.5" y="468.0332">use(): void</text></g></a><!--class CharacterScene--><a href="java:scene.CharacterScene" target="_top" title="java:scene.CharacterScene" xlink:actuate="onRequest" xlink:href="java:scene.CharacterScene" xlink:show="new" xlink:title="java:scene.CharacterScene" xlink:type="simple"><g id="elem_CharacterScene"><rect codeLine="36" fill="#F1F1F1" height="65.6094" id="CharacterScene" rx="2.5" ry="2.5" style="stroke:#181818;stroke-width:0.5;" width="135" x="527" y="409.5"/><ellipse cx="542" cy="425.5" fill="#ADD1B2" rx="11" ry="11" style="stroke:#181818;stroke-width:1.0;"/><path d="M544.7656,421.375 Q544.9219,421.1563 545.1094,421.0469 Q545.2969,420.9375 545.5156,420.9375 Q545.8906,420.9375 546.125,421.2031 Q546.3594,421.4531 546.3594,422.0625 L546.3594,423.5156 Q546.3594,424.125 546.125,424.3906 Q545.8906,424.6563 545.5156,424.6563 Q545.1719,424.6563 544.9688,424.4531 Q544.7656,424.2656 544.6563,423.75 Q544.6094,423.3906 544.4219,423.2031 Q544.0938,422.8281 543.4844,422.6094 Q542.875,422.3906 542.25,422.3906 Q541.4844,422.3906 540.8438,422.7188 Q540.2188,423.0469 539.7188,423.7969 Q539.2344,424.5469 539.2344,425.5781 L539.2344,426.6719 Q539.2344,427.9063 540.125,428.7344 Q541.0156,429.5469 542.6094,429.5469 Q543.5469,429.5469 544.2031,429.2969 Q544.5938,429.1406 545.0156,428.7031 Q545.2813,428.4375 545.4219,428.3594 Q545.5781,428.2813 545.7813,428.2813 Q546.1094,428.2813 546.3594,428.5469 Q546.625,428.7969 546.625,429.1406 Q546.625,429.4844 546.2813,429.8906 Q545.7813,430.4688 544.9844,430.7969 Q543.9063,431.25 542.6094,431.25 Q541.0938,431.25 539.8906,430.625 Q538.9063,430.125 538.2188,429.0625 Q537.5313,427.9844 537.5313,426.7031 L537.5313,425.5469 Q537.5313,424.2188 538.1406,423.0781 Q538.7656,421.9219 539.8594,421.3125 Q540.9531,420.6875 542.1875,420.6875 Q542.9219,420.6875 543.5625,420.8594 Q544.2188,421.0156 544.7656,421.375 Z " fill="#000000"/><text fill="#000000" font-family="sans-serif" font-size="14" lengthAdjust="spacing" textLength="103" x="556" y="431.2285">CharacterScene</text><line style="stroke:#181818;stroke-width:0.5;" x1="528" x2="661" y1="441.5" y2="441.5"/><line style="stroke:#181818;stroke-width:0.5;" x1="528" x2="661" y1="449.5" y2="449.5"/><ellipse cx="538" cy="463.8047" fill="#84BE84" rx="3" ry="3" style="stroke:#038048;stroke-width:1.0;"/><text fill="#000000" font-family="sans-serif" font-size="14" lengthAdjust="spacing" text-decoration="underline" textLength="73" x="547" y="468.0332">use(): HBox</text></g></a><!--class Popup--><a href="java:scene.popup.Popup" target="_top" title="java:scene.popup.Popup" xlink:actuate="onRequest" xlink:href="java:scene.popup.Popup" xlink:show="new" xlink:title="java:scene.popup.Popup" xlink:type="simple"><g id="elem_Popup"><rect codeLine="40" fill="#F1F1F1" height="153.6563" id="Popup" rx="2.5" ry="2.5" style="stroke:#181818;stroke-width:0.5;" width="181" x="1165" y="124.5"/><ellipse cx="1230.75" cy="140.5" fill="#ADD1B2" rx="11" ry="11" style="stroke:#181818;stroke-width:1.0;"/><path d="M1233.5156,136.375 Q1233.6719,136.1563 1233.8594,136.0469 Q1234.0469,135.9375 1234.2656,135.9375 Q1234.6406,135.9375 1234.875,136.2031 Q1235.1094,136.4531 1235.1094,137.0625 L1235.1094,138.5156 Q1235.1094,139.125 1234.875,139.3906 Q1234.6406,139.6563 1234.2656,139.6563 Q1233.9219,139.6563 1233.7188,139.4531 Q1233.5156,139.2656 1233.4063,138.75 Q1233.3594,138.3906 1233.1719,138.2031 Q1232.8438,137.8281 1232.2344,137.6094 Q1231.625,137.3906 1231,137.3906 Q1230.2344,137.3906 1229.5938,137.7188 Q1228.9688,138.0469 1228.4688,138.7969 Q1227.9844,139.5469 1227.9844,140.5781 L1227.9844,141.6719 Q1227.9844,142.9063 1228.875,143.7344 Q1229.7656,144.5469 1231.3594,144.5469 Q1232.2969,144.5469 1232.9531,144.2969 Q1233.3438,144.1406 1233.7656,143.7031 Q1234.0313,143.4375 1234.1719,143.3594 Q1234.3281,143.2813 1234.5313,143.2813 Q1234.8594,143.2813 1235.1094,143.5469 Q1235.375,143.7969 1235.375,144.1406 Q1235.375,144.4844 1235.0313,144.8906 Q1234.5313,145.4688 1233.7344,145.7969 Q1232.6563,146.25 1231.3594,146.25 Q1229.8438,146.25 1228.6406,145.625 Q1227.6563,145.125 1226.9688,144.0625 Q1226.2813,142.9844 1226.2813,141.7031 L1226.2813,140.5469 Q1226.2813,139.2188 1226.8906,138.0781 Q1227.5156,136.9219 1228.6094,136.3125 Q1229.7031,135.6875 1230.9375,135.6875 Q1231.6719,135.6875 1232.3125,135.8594 Q1232.9688,136.0156 1233.5156,136.375 Z " fill="#000000"/><text fill="#000000" font-family="sans-serif" font-size="14" lengthAdjust="spacing" textLength="41" x="1251.25" y="146.2285">Popup</text><line style="stroke:#181818;stroke-width:0.5;" x1="1166" x2="1345" y1="156.5" y2="156.5"/><rect fill="none" height="6" style="stroke:#C82930;stroke-width:1.0;" width="6" x="1173" y="167.8047"/><text fill="#000000" font-family="sans-serif" font-size="14" lengthAdjust="spacing" text-decoration="underline" textLength="120" x="1185" y="175.0332">frameImage: Image</text><polygon fill="none" points="1176,183.4141,1180,187.4141,1176,191.4141,1172,187.4141" style="stroke:#B38D22;stroke-width:1.0;"/><text fill="#000000" font-family="sans-serif" font-size="14" lengthAdjust="spacing" textLength="106" x="1185" y="192.6426">bottomBox: HBox</text><line style="stroke:#181818;stroke-width:0.5;" x1="1166" x2="1345" y1="199.7188" y2="199.7188"/><ellipse cx="1176" cy="214.0234" fill="#84BE84" rx="3" ry="3" style="stroke:#038048;stroke-width:1.0;"/><text fill="#000000" font-family="sans-serif" font-size="14" lengthAdjust="spacing" textLength="118" x="1185" y="218.252">Popup(title: String)</text><ellipse cx="1176" cy="231.6328" fill="#84BE84" rx="3" ry="3" style="stroke:#038048;stroke-width:1.0;"/><text fill="#000000" font-family="sans-serif" font-size="14" lengthAdjust="spacing" textLength="76" x="1185" y="235.8613">show(): void</text><ellipse cx="1176" cy="249.2422" fill="#84BE84" rx="3" ry="3" style="stroke:#038048;stroke-width:1.0;"/><text fill="#000000" font-family="sans-serif" font-size="14" lengthAdjust="spacing" textLength="71" x="1185" y="253.4707">hide(): void</text><rect fill="#F24D5C" height="6" style="stroke:#C82930;stroke-width:1.0;" width="6" x="1173" y="263.8516"/><text fill="#000000" font-family="sans-serif" font-size="14" lengthAdjust="spacing" text-decoration="underline" textLength="155" x="1185" y="271.0801">getFrameImage(): Image</text></g></a><!--class CharacterPopup--><a href="java:scene.popup.CharacterPopup" target="_top" title="java:scene.popup.CharacterPopup" xlink:actuate="onRequest" xlink:href="java:scene.popup.CharacterPopup" xlink:show="new" xlink:title="java:scene.popup.CharacterPopup" xlink:type="simple"><g id="elem_CharacterPopup"><rect codeLine="48" fill="#F1F1F1" height="100.8281" id="CharacterPopup" rx="2.5" ry="2.5" style="stroke:#181818;stroke-width:0.5;" width="221" x="697" y="392"/><ellipse cx="751.25" cy="408" fill="#ADD1B2" rx="11" ry="11" style="stroke:#181818;stroke-width:1.0;"/><path d="M754.0156,403.875 Q754.1719,403.6563 754.3594,403.5469 Q754.5469,403.4375 754.7656,403.4375 Q755.1406,403.4375 755.375,403.7031 Q755.6094,403.9531 755.6094,404.5625 L755.6094,406.0156 Q755.6094,406.625 755.375,406.8906 Q755.1406,407.1563 754.7656,407.1563 Q754.4219,407.1563 754.2188,406.9531 Q754.0156,406.7656 753.9063,406.25 Q753.8594,405.8906 753.6719,405.7031 Q753.3438,405.3281 752.7344,405.1094 Q752.125,404.8906 751.5,404.8906 Q750.7344,404.8906 750.0938,405.2188 Q749.4688,405.5469 748.9688,406.2969 Q748.4844,407.0469 748.4844,408.0781 L748.4844,409.1719 Q748.4844,410.4063 749.375,411.2344 Q750.2656,412.0469 751.8594,412.0469 Q752.7969,412.0469 753.4531,411.7969 Q753.8438,411.6406 754.2656,411.2031 Q754.5313,410.9375 754.6719,410.8594 Q754.8281,410.7813 755.0313,410.7813 Q755.3594,410.7813 755.6094,411.0469 Q755.875,411.2969 755.875,411.6406 Q755.875,411.9844 755.5313,412.3906 Q755.0313,412.9688 754.2344,413.2969 Q753.1563,413.75 751.8594,413.75 Q750.3438,413.75 749.1406,413.125 Q748.1563,412.625 747.4688,411.5625 Q746.7813,410.4844 746.7813,409.2031 L746.7813,408.0469 Q746.7813,406.7188 747.3906,405.5781 Q748.0156,404.4219 749.1094,403.8125 Q750.2031,403.1875 751.4375,403.1875 Q752.1719,403.1875 752.8125,403.3594 Q753.4688,403.5156 754.0156,403.875 Z " fill="#000000"/><text fill="#000000" font-family="sans-serif" font-size="14" lengthAdjust="spacing" textLength="104" x="771.75" y="413.7285">CharacterPopup</text><line style="stroke:#181818;stroke-width:0.5;" x1="698" x2="917" y1="424" y2="424"/><rect fill="none" height="6" style="stroke:#C82930;stroke-width:1.0;" width="6" x="705" y="435.3047"/><text fill="#000000" font-family="sans-serif" font-size="14" lengthAdjust="spacing" text-decoration="underline" textLength="165" x="717" y="442.5332">instance: CharacterPopup</text><line style="stroke:#181818;stroke-width:0.5;" x1="698" x2="917" y1="449.6094" y2="449.6094"/><ellipse cx="708" cy="463.9141" fill="#84BE84" rx="3" ry="3" style="stroke:#038048;stroke-width:1.0;"/><text fill="#000000" font-family="sans-serif" font-size="14" lengthAdjust="spacing" textLength="114" x="717" y="468.1426">CharacterPopup()</text><ellipse cx="708" cy="481.5234" fill="#84BE84" rx="3" ry="3" style="stroke:#038048;stroke-width:1.0;"/><text fill="#000000" font-family="sans-serif" font-size="14" lengthAdjust="spacing" text-decoration="underline" textLength="195" x="717" y="485.752">getInstance(): CharacterPopup</text></g></a><!--class SettingPopup--><a href="java:scene.popup.SettingPopup" target="_top" title="java:scene.popup.SettingPopup" xlink:actuate="onRequest" xlink:href="java:scene.popup.SettingPopup" xlink:show="new" xlink:title="java:scene.popup.SettingPopup" xlink:type="simple"><g id="elem_SettingPopup"><rect codeLine="53" fill="#F1F1F1" height="188.875" id="SettingPopup" rx="2.5" ry="2.5" style="stroke:#181818;stroke-width:0.5;" width="218" x="953.5" y="348"/><ellipse cx="1015.75" cy="364" fill="#ADD1B2" rx="11" ry="11" style="stroke:#181818;stroke-width:1.0;"/><path d="M1018.5156,359.875 Q1018.6719,359.6563 1018.8594,359.5469 Q1019.0469,359.4375 1019.2656,359.4375 Q1019.6406,359.4375 1019.875,359.7031 Q1020.1094,359.9531 1020.1094,360.5625 L1020.1094,362.0156 Q1020.1094,362.625 1019.875,362.8906 Q1019.6406,363.1563 1019.2656,363.1563 Q1018.9219,363.1563 1018.7188,362.9531 Q1018.5156,362.7656 1018.4063,362.25 Q1018.3594,361.8906 1018.1719,361.7031 Q1017.8438,361.3281 1017.2344,361.1094 Q1016.625,360.8906 1016,360.8906 Q1015.2344,360.8906 1014.5938,361.2188 Q1013.9688,361.5469 1013.4688,362.2969 Q1012.9844,363.0469 1012.9844,364.0781 L1012.9844,365.1719 Q1012.9844,366.4063 1013.875,367.2344 Q1014.7656,368.0469 1016.3594,368.0469 Q1017.2969,368.0469 1017.9531,367.7969 Q1018.3438,367.6406 1018.7656,367.2031 Q1019.0313,366.9375 1019.1719,366.8594 Q1019.3281,366.7813 1019.5313,366.7813 Q1019.8594,366.7813 1020.1094,367.0469 Q1020.375,367.2969 1020.375,367.6406 Q1020.375,367.9844 1020.0313,368.3906 Q1019.5313,368.9688 1018.7344,369.2969 Q1017.6563,369.75 1016.3594,369.75 Q1014.8438,369.75 1013.6406,369.125 Q1012.6563,368.625 1011.9688,367.5625 Q1011.2813,366.4844 1011.2813,365.2031 L1011.2813,364.0469 Q1011.2813,362.7188 1011.8906,361.5781 Q1012.5156,360.4219 1013.6094,359.8125 Q1014.7031,359.1875 1015.9375,359.1875 Q1016.6719,359.1875 1017.3125,359.3594 Q1017.9688,359.5156 1018.5156,359.875 Z " fill="#000000"/><text fill="#000000" font-family="sans-serif" font-size="14" lengthAdjust="spacing" textLength="85" x="1036.25" y="369.7285">SettingPopup</text><line style="stroke:#181818;stroke-width:0.5;" x1="954.5" x2="1170.5" y1="380" y2="380"/><rect fill="none" height="6" style="stroke:#C82930;stroke-width:1.0;" width="6" x="961.5" y="391.3047"/><text fill="#000000" font-family="sans-serif" font-size="14" lengthAdjust="spacing" text-decoration="underline" textLength="146" x="973.5" y="398.5332">instance: SettingPopup</text><rect fill="none" height="6" style="stroke:#C82930;stroke-width:1.0;" width="6" x="961.5" y="408.9141"/><text fill="#000000" font-family="sans-serif" font-size="14" lengthAdjust="spacing" textLength="163" x="973.5" y="416.1426">musicSlider: VolumeSlider</text><rect fill="none" height="6" style="stroke:#C82930;stroke-width:1.0;" width="6" x="961.5" y="426.5234"/><text fill="#000000" font-family="sans-serif" font-size="14" lengthAdjust="spacing" textLength="144" x="973.5" y="433.752">sfxSlider: VolumeSlider</text><line style="stroke:#181818;stroke-width:0.5;" x1="954.5" x2="1170.5" y1="440.8281" y2="440.8281"/><ellipse cx="964.5" cy="455.1328" fill="#84BE84" rx="3" ry="3" style="stroke:#038048;stroke-width:1.0;"/><text fill="#000000" font-family="sans-serif" font-size="14" lengthAdjust="spacing" textLength="95" x="973.5" y="459.3613">SettingPopup()</text><rect fill="#F24D5C" height="6" style="stroke:#C82930;stroke-width:1.0;" width="6" x="961.5" y="469.7422"/><text fill="#000000" font-family="sans-serif" font-size="14" lengthAdjust="spacing" textLength="192" x="973.5" y="476.9707">createText(name: String): Text</text><ellipse cx="964.5" cy="490.3516" fill="#84BE84" rx="3" ry="3" style="stroke:#038048;stroke-width:1.0;"/><text fill="#000000" font-family="sans-serif" font-size="14" lengthAdjust="spacing" textLength="146" x="973.5" y="494.5801">getMusicSlider(): Slider</text><ellipse cx="964.5" cy="507.9609" fill="#84BE84" rx="3" ry="3" style="stroke:#038048;stroke-width:1.0;"/><text fill="#000000" font-family="sans-serif" font-size="14" lengthAdjust="spacing" textLength="129" x="973.5" y="512.1895">getSfxSlider(): Slider</text><ellipse cx="964.5" cy="525.5703" fill="#84BE84" rx="3" ry="3" style="stroke:#038048;stroke-width:1.0;"/><text fill="#000000" font-family="sans-serif" font-size="14" lengthAdjust="spacing" text-decoration="underline" textLength="176" x="973.5" y="529.7988">getInstance(): SettingPopup</text></g></a><!--class GameOverPopup--><a href="java:scene.popup.GameOverPopup" target="_top" title="java:scene.popup.GameOverPopup" xlink:actuate="onRequest" xlink:href="java:scene.popup.GameOverPopup" xlink:show="new" xlink:title="java:scene.popup.GameOverPopup" xlink:type="simple"><g id="elem_GameOverPopup"><rect codeLine="63" fill="#F1F1F1" height="100.8281" id="GameOverPopup" rx="2.5" ry="2.5" style="stroke:#181818;stroke-width:0.5;" width="227" x="1207" y="392"/><ellipse cx="1261.25" cy="408" fill="#ADD1B2" rx="11" ry="11" style="stroke:#181818;stroke-width:1.0;"/><path d="M1264.0156,403.875 Q1264.1719,403.6563 1264.3594,403.5469 Q1264.5469,403.4375 1264.7656,403.4375 Q1265.1406,403.4375 1265.375,403.7031 Q1265.6094,403.9531 1265.6094,404.5625 L1265.6094,406.0156 Q1265.6094,406.625 1265.375,406.8906 Q1265.1406,407.1563 1264.7656,407.1563 Q1264.4219,407.1563 1264.2188,406.9531 Q1264.0156,406.7656 1263.9063,406.25 Q1263.8594,405.8906 1263.6719,405.7031 Q1263.3438,405.3281 1262.7344,405.1094 Q1262.125,404.8906 1261.5,404.8906 Q1260.7344,404.8906 1260.0938,405.2188 Q1259.4688,405.5469 1258.9688,406.2969 Q1258.4844,407.0469 1258.4844,408.0781 L1258.4844,409.1719 Q1258.4844,410.4063 1259.375,411.2344 Q1260.2656,412.0469 1261.8594,412.0469 Q1262.7969,412.0469 1263.4531,411.7969 Q1263.8438,411.6406 1264.2656,411.2031 Q1264.5313,410.9375 1264.6719,410.8594 Q1264.8281,410.7813 1265.0313,410.7813 Q1265.3594,410.7813 1265.6094,411.0469 Q1265.875,411.2969 1265.875,411.6406 Q1265.875,411.9844 1265.5313,412.3906 Q1265.0313,412.9688 1264.2344,413.2969 Q1263.1563,413.75 1261.8594,413.75 Q1260.3438,413.75 1259.1406,413.125 Q1258.1563,412.625 1257.4688,411.5625 Q1256.7813,410.4844 1256.7813,409.2031 L1256.7813,408.0469 Q1256.7813,406.7188 1257.3906,405.5781 Q1258.0156,404.4219 1259.1094,403.8125 Q1260.2031,403.1875 1261.4375,403.1875 Q1262.1719,403.1875 1262.8125,403.3594 Q1263.4688,403.5156 1264.0156,403.875 Z " fill="#000000"/><text fill="#000000" font-family="sans-serif" font-size="14" lengthAdjust="spacing" textLength="110" x="1281.75" y="413.7285">GameOverPopup</text><line style="stroke:#181818;stroke-width:0.5;" x1="1208" x2="1433" y1="424" y2="424"/><rect fill="none" height="6" style="stroke:#C82930;stroke-width:1.0;" width="6" x="1215" y="435.3047"/><text fill="#000000" font-family="sans-serif" font-size="14" lengthAdjust="spacing" text-decoration="underline" textLength="171" x="1227" y="442.5332">instance: GameOverPopup</text><line style="stroke:#181818;stroke-width:0.5;" x1="1208" x2="1433" y1="449.6094" y2="449.6094"/><ellipse cx="1218" cy="463.9141" fill="#84BE84" rx="3" ry="3" style="stroke:#038048;stroke-width:1.0;"/><text fill="#000000" font-family="sans-serif" font-size="14" lengthAdjust="spacing" textLength="120" x="1227" y="468.1426">GameOverPopup()</text><ellipse cx="1218" cy="481.5234" fill="#84BE84" rx="3" ry="3" style="stroke:#038048;stroke-width:1.0;"/><text fill="#000000" font-family="sans-serif" font-size="14" lengthAdjust="spacing" text-decoration="underline" textLength="201" x="1227" y="485.752">getInstance(): GameOverPopup</text></g></a><!--class EndingPopup--><a href="java:scene.popup.EndingPopup" target="_top" title="java:scene.popup.EndingPopup" xlink:actuate="onRequest" xlink:href="java:scene.popup.EndingPopup" xlink:show="new" xlink:title="java:scene.popup.EndingPopup" xlink:type="simple"><g id="elem_EndingPopup"><rect codeLine="68" fill="#F1F1F1" height="100.8281" id="EndingPopup" rx="2.5" ry="2.5" style="stroke:#181818;stroke-width:0.5;" width="202" x="1469.5" y="392"/><ellipse cx="1523.75" cy="408" fill="#ADD1B2" rx="11" ry="11" style="stroke:#181818;stroke-width:1.0;"/><path d="M1526.5156,403.875 Q1526.6719,403.6563 1526.8594,403.5469 Q1527.0469,403.4375 1527.2656,403.4375 Q1527.6406,403.4375 1527.875,403.7031 Q1528.1094,403.9531 1528.1094,404.5625 L1528.1094,406.0156 Q1528.1094,406.625 1527.875,406.8906 Q1527.6406,407.1563 1527.2656,407.1563 Q1526.9219,407.1563 1526.7188,406.9531 Q1526.5156,406.7656 1526.4063,406.25 Q1526.3594,405.8906 1526.1719,405.7031 Q1525.8438,405.3281 1525.2344,405.1094 Q1524.625,404.8906 1524,404.8906 Q1523.2344,404.8906 1522.5938,405.2188 Q1521.9688,405.5469 1521.4688,406.2969 Q1520.9844,407.0469 1520.9844,408.0781 L1520.9844,409.1719 Q1520.9844,410.4063 1521.875,411.2344 Q1522.7656,412.0469 1524.3594,412.0469 Q1525.2969,412.0469 1525.9531,411.7969 Q1526.3438,411.6406 1526.7656,411.2031 Q1527.0313,410.9375 1527.1719,410.8594 Q1527.3281,410.7813 1527.5313,410.7813 Q1527.8594,410.7813 1528.1094,411.0469 Q1528.375,411.2969 1528.375,411.6406 Q1528.375,411.9844 1528.0313,412.3906 Q1527.5313,412.9688 1526.7344,413.2969 Q1525.6563,413.75 1524.3594,413.75 Q1522.8438,413.75 1521.6406,413.125 Q1520.6563,412.625 1519.9688,411.5625 Q1519.2813,410.4844 1519.2813,409.2031 L1519.2813,408.0469 Q1519.2813,406.7188 1519.8906,405.5781 Q1520.5156,404.4219 1521.6094,403.8125 Q1522.7031,403.1875 1523.9375,403.1875 Q1524.6719,403.1875 1525.3125,403.3594 Q1525.9688,403.5156 1526.5156,403.875 Z " fill="#000000"/><text fill="#000000" font-family="sans-serif" font-size="14" lengthAdjust="spacing" textLength="85" x="1544.25" y="413.7285">EndingPopup</text><line style="stroke:#181818;stroke-width:0.5;" x1="1470.5" x2="1670.5" y1="424" y2="424"/><rect fill="none" height="6" style="stroke:#C82930;stroke-width:1.0;" width="6" x="1477.5" y="435.3047"/><text fill="#000000" font-family="sans-serif" font-size="14" lengthAdjust="spacing" text-decoration="underline" textLength="146" x="1489.5" y="442.5332">instance: EndingPopup</text><line style="stroke:#181818;stroke-width:0.5;" x1="1470.5" x2="1670.5" y1="449.6094" y2="449.6094"/><ellipse cx="1480.5" cy="463.9141" fill="#84BE84" rx="3" ry="3" style="stroke:#038048;stroke-width:1.0;"/><text fill="#000000" font-family="sans-serif" font-size="14" lengthAdjust="spacing" textLength="95" x="1489.5" y="468.1426">EndingPopup()</text><ellipse cx="1480.5" cy="481.5234" fill="#84BE84" rx="3" ry="3" style="stroke:#038048;stroke-width:1.0;"/><text fill="#000000" font-family="sans-serif" font-size="14" lengthAdjust="spacing" text-decoration="underline" textLength="176" x="1489.5" y="485.752">getInstance(): EndingPopup</text></g></a><!--class VolumeSlider--><g id="elem_VolumeSlider"><rect fill="#F1F1F1" height="48" id="VolumeSlider" rx="2.5" ry="2.5" style="stroke:#181818;stroke-width:0.5;" width="115" x="1005" y="615"/><ellipse cx="1020" cy="631" fill="#ADD1B2" rx="11" ry="11" style="stroke:#181818;stroke-width:1.0;"/><path d="M1022.7656,626.875 Q1022.9219,626.6563 1023.1094,626.5469 Q1023.2969,626.4375 1023.5156,626.4375 Q1023.8906,626.4375 1024.125,626.7031 Q1024.3594,626.9531 1024.3594,627.5625 L1024.3594,629.0156 Q1024.3594,629.625 1024.125,629.8906 Q1023.8906,630.1563 1023.5156,630.1563 Q1023.1719,630.1563 1022.9688,629.9531 Q1022.7656,629.7656 1022.6563,629.25 Q1022.6094,628.8906 1022.4219,628.7031 Q1022.0938,628.3281 1021.4844,628.1094 Q1020.875,627.8906 1020.25,627.8906 Q1019.4844,627.8906 1018.8438,628.2188 Q1018.2188,628.5469 1017.7188,629.2969 Q1017.2344,630.0469 1017.2344,631.0781 L1017.2344,632.1719 Q1017.2344,633.4063 1018.125,634.2344 Q1019.0156,635.0469 1020.6094,635.0469 Q1021.5469,635.0469 1022.2031,634.7969 Q1022.5938,634.6406 1023.0156,634.2031 Q1023.2813,633.9375 1023.4219,633.8594 Q1023.5781,633.7813 1023.7813,633.7813 Q1024.1094,633.7813 1024.3594,634.0469 Q1024.625,634.2969 1024.625,634.6406 Q1024.625,634.9844 1024.2813,635.3906 Q1023.7813,635.9688 1022.9844,636.2969 Q1021.9063,636.75 1020.6094,636.75 Q1019.0938,636.75 1017.8906,636.125 Q1016.9063,635.625 1016.2188,634.5625 Q1015.5313,633.4844 1015.5313,632.2031 L1015.5313,631.0469 Q1015.5313,629.7188 1016.1406,628.5781 Q1016.7656,627.4219 1017.8594,626.8125 Q1018.9531,626.1875 1020.1875,626.1875 Q1020.9219,626.1875 1021.5625,626.3594 Q1022.2188,626.5156 1022.7656,626.875 Z " fill="#000000"/><text fill="#000000" font-family="sans-serif" font-size="14" lengthAdjust="spacing" textLength="83" x="1034" y="636.7285">VolumeSlider</text><line style="stroke:#181818;stroke-width:0.5;" x1="1006" x2="1119" y1="647" y2="647"/><line style="stroke:#181818;stroke-width:0.5;" x1="1006" x2="1119" y1="655" y2="655"/></g><!--reverse link Application to Main--><g id="link_Application_Main"><path codeLine="22" d="M136.5,73.08 C136.5,91.1 136.5,99.24 136.5,124.39 " fill="none" id="Application-backto-Main" style="stroke:#181818;stroke-width:1.0;"/><polygon fill="none" points="136.5,55.08,130.5,73.08,142.5,73.08,136.5,55.08" style="stroke:#181818;stroke-width:1.0;"/></g><!--reverse link BorderPane to Popup--><g id="link_BorderPane_Popup"><path codeLine="73" d="M1255.5,73.08 C1255.5,91.1 1255.5,99.24 1255.5,124.39 " fill="none" id="BorderPane-backto-Popup" style="stroke:#181818;stroke-width:1.0;"/><polygon fill="none" points="1255.5,55.08,1249.5,73.08,1261.5,73.08,1255.5,55.08" style="stroke:#181818;stroke-width:1.0;"/></g><!--reverse link Popup to CharacterPopup--><g id="link_Popup_CharacterPopup"><path codeLine="74" d="M1148.1294,245.0765 C1082.9494,272.0665 1010.53,304.87 936.5,348 C914.27,360.95 891.17,376.83 870.76,391.8 " fill="none" id="Popup-backto-CharacterPopup" style="stroke:#181818;stroke-width:1.0;"/><polygon fill="none" points="1164.76,238.19,1145.8339,239.5329,1150.4249,250.62,1164.76,238.19" style="stroke:#181818;stroke-width:1.0;"/></g><!--reverse link Popup to SettingPopup--><g id="link_Popup_SettingPopup"><path codeLine="75" d="M1182.5904,292.7833 C1164.8304,314.7733 1156.56,325.02 1138.05,347.94 " fill="none" id="Popup-backto-SettingPopup" style="stroke:#181818;stroke-width:1.0;"/><polygon fill="none" points="1193.9,278.78,1177.9226,289.0134,1187.2581,296.5532,1193.9,278.78" style="stroke:#181818;stroke-width:1.0;"/></g><!--reverse link Popup to GameOverPopup--><g id="link_Popup_GameOverPopup"><path codeLine="76" d="M1280.9702,296.1501 C1291.0302,333.1701 1298.12,359.22 1307.01,391.89 " fill="none" id="Popup-backto-GameOverPopup" style="stroke:#181818;stroke-width:1.0;"/><polygon fill="none" points="1276.25,278.78,1275.1802,297.7235,1286.7603,294.5767,1276.25,278.78" style="stroke:#181818;stroke-width:1.0;"/></g><!--reverse link Popup to EndingPopup--><g id="link_Popup_EndingPopup"><path codeLine="77" d="M1360.6207,279.6952 C1393.9007,304.3152 1417.32,321.89 1451.5,348 C1469.98,362.11 1489.9,377.64 1508.06,391.92 " fill="none" id="Popup-backto-EndingPopup" style="stroke:#181818;stroke-width:1.0;"/><polygon fill="none" points="1346.15,268.99,1357.0523,284.5187,1364.189,274.8716,1346.15,268.99" style="stroke:#181818;stroke-width:1.0;"/></g><!--link SettingPopup to VolumeSlider--><g id="link_SettingPopup_VolumeSlider"><path codeLine="78" d="M1001.9,537.03 C997.84,553.09 997.7,569.57 1004.5,585 C1009.56,596.48 1013.9687,602.6042 1023.3087,610.7942 " fill="none" id="SettingPopup-to-VolumeSlider" style="stroke:#181818;stroke-width:1.0;"/><polygon fill="#181818" points="1027.82,614.75,1023.6903,605.8088,1024.0606,611.4535,1018.4159,611.8238,1027.82,614.75" style="stroke:#181818;stroke-width:1.0;"/><text fill="#000000" font-family="sans-serif" font-size="13" lengthAdjust="spacing" textLength="68" x="1005.5" y="581.4951">musicSlider</text><text fill="#000000" font-family="sans-serif" font-size="13" lengthAdjust="spacing" textLength="7" x="1011.0364" y="604.0261">1</text></g><!--link SettingPopup to VolumeSlider--><g id="link_SettingPopup_VolumeSlider"><path codeLine="79" d="M1079.95,537.24 C1080.96,553.2 1080.78,569.59 1078.5,585 C1077.03,594.98 1075.9262,599.9843 1072.9462,609.1443 " fill="none" id="SettingPopup-to-VolumeSlider-1" style="stroke:#181818;stroke-width:1.0;"/><polygon fill="#181818" points="1071.09,614.85,1077.6781,607.529,1072.6368,610.0953,1070.0705,605.054,1071.09,614.85" style="stroke:#181818;stroke-width:1.0;"/><text fill="#000000" font-family="sans-serif" font-size="13" lengthAdjust="spacing" textLength="50" x="1080.5" y="581.4951">sfxSlider</text><text fill="#000000" font-family="sans-serif" font-size="13" lengthAdjust="spacing" textLength="7" x="1065.3943" y="604.1517">1</text></g><!--SRC=[ZLN1Zjem43sJhx2sbwnGa7gDgafBrMqve4LDrGlYO18Jt2PsP3kKBSs_Tso8OsTZr5FmpFERzsOc8Q-mbEYfQIgQOqKvGvSkoarmoKL1n0OpecEAbqGTYRX425tpQqmPscv_uXDEyK2mqF7T3caWGlEBL13EEoGuLodA5Cv_QSvHjYO5nPiAlnAHelLm6C7WMHB3KjuO829Kt0XQO_6QEUd759quBNeKRs8lCbG6kJ4MfTJt16NbTZS0E-ls6KCpfkoQXFMRMDvz1KwpN132KlIDv0gpiY9J8DwgC4BcX6bB-Z5IJXbL55Vq3ubboBW57q3cIwkUMB5YWKx0W9StFHhXAteBkteR8xkeYznr-l0tISogs0r2pWeHrXfdVMEDsuKDJxJrYEKNN9DCZvqKATfpNX7CHYWgLyoo-A31I2j9e1D-4GsQPf14kRY0jkaQdiIx9LpSjB6fXJLAtlRMXYTUKRyX0zMd8nOuLqHCyFcvCEdN9J_VrkDAkk5Ds_XSZGujJC8GpOQ17WJeNjLcoyqZchtRSwLu3RmtzjdSN8qLLHNft-P72CiZ_ssDpUP7MWm-dHgmdi-sZ0PS2_M2hTEWSXynja0P_68vAFDneCWFn5gpgsfrkwarZUxsuZAY5BWDIdFpOM4k2X1rAscULT0k-2Z_u5KBgsDEa9E7ytHcxf9eAmby9x0YtybPnGpQQoUJ8Xs36s1nFPJIBYqPfBA-afS8zSUpq7T7B_tBwSxaF42uFnuCH7ZdksFpR_QwFhFYtj2ST5YJ0uBwpkck7lTM5pb_zUPxVOrVTPd0QEkSZDTl9-uRTX9kPMzha-GZUdZ_uAqJIf6pXF-5juiP_GC0]--></g></svg>