<?xml version="1.0" encoding="us-ascii" standalone="no"?><svg xmlns="http://www.w3.org/2000/svg" xmlns:xlink="http://www.w3.org/1999/xlink" contentStyleType="text/css" height="577px" preserveAspectRatio="none" style="width:1321px;height:577px;background:#FFFFFF;" version="1.1" viewBox="0 0 1321 577" width="1321px" zoomAndPan="magnify"><defs/><g><!--class Clickable--><a href="java:interfaces.Clickable" target="_top" title="java:interfaces.Clickable" xlink:actuate="onRequest" xlink:href="java:interfaces.Clickable" xlink:show="new" xlink:title="java:interfaces.Clickable" xlink:type="simple"><g id="elem_Clickable"><rect codeLine="2" fill="#F1F1F1" height="83.2188" id="Clickable" rx="2.5" ry="2.5" style="stroke:#181818;stroke-width:0.5;" width="185" x="501" y="7"/><ellipse cx="560.25" cy="23" fill="#B4A7E5" rx="11" ry="11" style="stroke:#181818;stroke-width:1.0;"/><path d="M561.2031,19.6406 L561.2031,26.2969 L562.9219,26.2969 Q563.5313,26.2969 563.7969,26.5313 Q564.0625,26.7656 564.0625,27.1563 Q564.0625,27.5313 563.7969,27.7656 Q563.5313,28 562.9219,28 L557.7813,28 Q557.1719,28 556.9063,27.7656 Q556.6406,27.5313 556.6406,27.1406 Q556.6406,26.7656 556.9063,26.5313 Q557.1719,26.2969 557.7813,26.2969 L559.5,26.2969 L559.5,19.6406 L557.7813,19.6406 Q557.1719,19.6406 556.9063,19.4063 Q556.6406,19.1719 556.6406,18.7813 Q556.6406,18.4063 556.9063,18.1719 Q557.1719,17.9375 557.7813,17.9375 L562.9219,17.9375 Q563.5313,17.9375 563.7969,18.1719 Q564.0625,18.4063 564.0625,18.7813 Q564.0625,19.1719 563.7969,19.4063 Q563.5313,19.6406 562.9219,19.6406 L561.2031,19.6406 Z " fill="#000000"/><text fill="#000000" font-family="sans-serif" font-size="14" font-style="italic" lengthAdjust="spacing" textLength="58" x="580.75" y="28.7285">Clickable</text><line style="stroke:#181818;stroke-width:0.5;" x1="502" x2="685" y1="39" y2="39"/><line style="stroke:#181818;stroke-width:0.5;" x1="502" x2="685" y1="47" y2="47"/><text fill="#000000" font-family="sans-serif" font-size="14" lengthAdjust="spacing" textLength="145" x="507" y="65.5332">activatePerClick(): void</text><text fill="#000000" font-family="sans-serif" font-size="14" lengthAdjust="spacing" textLength="173" x="507" y="83.1426">isEnoughEnergy(): boolean</text></g></a><!--class ReStatable--><a href="java:interfaces.ReStatable" target="_top" title="java:interfaces.ReStatable" xlink:actuate="onRequest" xlink:href="java:interfaces.ReStatable" xlink:show="new" xlink:title="java:interfaces.ReStatable" xlink:type="simple"><g id="elem_ReStatable"><rect codeLine="6" fill="#F1F1F1" height="65.6094" id="ReStatable" rx="2.5" ry="2.5" style="stroke:#181818;stroke-width:0.5;" width="181" x="7" y="211.5"/><ellipse cx="58.25" cy="227.5" fill="#B4A7E5" rx="11" ry="11" style="stroke:#181818;stroke-width:1.0;"/><path d="M59.2031,224.1406 L59.2031,230.7969 L60.9219,230.7969 Q61.5313,230.7969 61.7969,231.0313 Q62.0625,231.2656 62.0625,231.6563 Q62.0625,232.0313 61.7969,232.2656 Q61.5313,232.5 60.9219,232.5 L55.7813,232.5 Q55.1719,232.5 54.9063,232.2656 Q54.6406,232.0313 54.6406,231.6406 Q54.6406,231.2656 54.9063,231.0313 Q55.1719,230.7969 55.7813,230.7969 L57.5,230.7969 L57.5,224.1406 L55.7813,224.1406 Q55.1719,224.1406 54.9063,223.9063 Q54.6406,223.6719 54.6406,223.2813 Q54.6406,222.9063 54.9063,222.6719 Q55.1719,222.4375 55.7813,222.4375 L60.9219,222.4375 Q61.5313,222.4375 61.7969,222.6719 Q62.0625,222.9063 62.0625,223.2813 Q62.0625,223.6719 61.7969,223.9063 Q61.5313,224.1406 60.9219,224.1406 L59.2031,224.1406 Z " fill="#000000"/><text fill="#000000" font-family="sans-serif" font-size="14" font-style="italic" lengthAdjust="spacing" textLength="70" x="78.75" y="233.2285">ReStatable</text><line style="stroke:#181818;stroke-width:0.5;" x1="8" x2="187" y1="243.5" y2="243.5"/><line style="stroke:#181818;stroke-width:0.5;" x1="8" x2="187" y1="251.5" y2="251.5"/><text fill="#000000" font-family="sans-serif" font-size="14" lengthAdjust="spacing" textLength="169" x="13" y="270.0332">reStatBeforeUpdate(): void</text></g></a><!--class Item--><a href="java:game.item.Item" target="_top" title="java:game.item.Item" xlink:actuate="onRequest" xlink:href="java:game.item.Item" xlink:show="new" xlink:title="java:game.item.Item" xlink:type="simple"><g id="elem_Item"><rect codeLine="9" fill="#F1F1F1" height="48" id="Item" rx="2.5" ry="2.5" style="stroke:#181818;stroke-width:0.5;" width="59" x="721" y="24.5"/><ellipse cx="736" cy="40.5" fill="#A9DCDF" rx="11" ry="11" style="stroke:#181818;stroke-width:1.0;"/><path d="M738.1875,42.2656 L734.0469,42.2656 L733.625,43.2969 L734.0469,43.2969 Q734.6563,43.2969 734.9219,43.5313 Q735.1875,43.7656 735.1875,44.1563 Q735.1875,44.5313 734.9219,44.7656 Q734.6563,45 734.0469,45 L731.75,45 Q731.1406,45 730.8906,44.7656 Q730.625,44.5313 730.625,44.1406 Q730.625,43.7656 730.9063,43.5313 Q731.1719,43.2813 731.7969,43.2969 L734.4688,36.6406 L733.3594,36.6406 Q732.75,36.6406 732.4844,36.4063 Q732.2188,36.1719 732.2188,35.7813 Q732.2188,35.4063 732.4844,35.1719 Q732.75,34.9375 733.3594,34.9375 L737.0313,34.9375 L740.4219,43.2969 Q741.0156,43.2969 741.2031,43.4375 Q741.5938,43.7031 741.5938,44.1563 Q741.5938,44.5313 741.3281,44.7656 Q741.0781,45 740.4688,45 L738.1719,45 Q737.5625,45 737.2969,44.7656 Q737.0313,44.5313 737.0313,44.1406 Q737.0313,43.7656 737.2969,43.5313 Q737.5625,43.2969 738.1719,43.2969 L738.5938,43.2969 L738.1875,42.2656 Z M737.4688,40.5625 L736.1094,37.1875 L734.7344,40.5625 L737.4688,40.5625 Z " fill="#000000"/><text fill="#000000" font-family="sans-serif" font-size="14" font-style="italic" lengthAdjust="spacing" textLength="27" x="750" y="46.2285">Item</text><line style="stroke:#181818;stroke-width:0.5;" x1="722" x2="779" y1="56.5" y2="56.5"/><line style="stroke:#181818;stroke-width:0.5;" x1="722" x2="779" y1="64.5" y2="64.5"/></g></a><!--class ItemWithCost--><a href="java:game.item.ItemWithCost" target="_top" title="java:game.item.ItemWithCost" xlink:actuate="onRequest" xlink:href="java:game.item.ItemWithCost" xlink:show="new" xlink:title="java:game.item.ItemWithCost" xlink:type="simple"><g id="elem_ItemWithCost"><rect codeLine="10" fill="#F1F1F1" height="188.875" id="ItemWithCost" rx="2.5" ry="2.5" style="stroke:#181818;stroke-width:0.5;" width="395" x="475" y="150"/><ellipse cx="625.75" cy="166" fill="#A9DCDF" rx="11" ry="11" style="stroke:#181818;stroke-width:1.0;"/><path d="M627.9375,167.7656 L623.7969,167.7656 L623.375,168.7969 L623.7969,168.7969 Q624.4063,168.7969 624.6719,169.0313 Q624.9375,169.2656 624.9375,169.6563 Q624.9375,170.0313 624.6719,170.2656 Q624.4063,170.5 623.7969,170.5 L621.5,170.5 Q620.8906,170.5 620.6406,170.2656 Q620.375,170.0313 620.375,169.6406 Q620.375,169.2656 620.6563,169.0313 Q620.9219,168.7813 621.5469,168.7969 L624.2188,162.1406 L623.1094,162.1406 Q622.5,162.1406 622.2344,161.9063 Q621.9688,161.6719 621.9688,161.2813 Q621.9688,160.9063 622.2344,160.6719 Q622.5,160.4375 623.1094,160.4375 L626.7813,160.4375 L630.1719,168.7969 Q630.7656,168.7969 630.9531,168.9375 Q631.3438,169.2031 631.3438,169.6563 Q631.3438,170.0313 631.0781,170.2656 Q630.8281,170.5 630.2188,170.5 L627.9219,170.5 Q627.3125,170.5 627.0469,170.2656 Q626.7813,170.0313 626.7813,169.6406 Q626.7813,169.2656 627.0469,169.0313 Q627.3125,168.7969 627.9219,168.7969 L628.3438,168.7969 L627.9375,167.7656 Z M627.2188,166.0625 L625.8594,162.6875 L624.4844,166.0625 L627.2188,166.0625 Z " fill="#000000"/><text fill="#000000" font-family="sans-serif" font-size="14" font-style="italic" lengthAdjust="spacing" textLength="85" x="646.25" y="171.7285">ItemWithCost</text><line style="stroke:#181818;stroke-width:0.5;" x1="476" x2="869" y1="182" y2="182"/><polygon fill="none" points="486,191.3047,490,195.3047,486,199.3047,482,195.3047" style="stroke:#B38D22;stroke-width:1.0;"/><text fill="#000000" font-family="sans-serif" font-size="14" lengthAdjust="spacing" textLength="99" x="495" y="200.5332">costActivate: int</text><line style="stroke:#181818;stroke-width:0.5;" x1="476" x2="869" y1="207.6094" y2="207.6094"/><ellipse cx="486" cy="221.9141" fill="#84BE84" rx="3" ry="3" style="stroke:#038048;stroke-width:1.0;"/><text fill="#000000" font-family="sans-serif" font-size="14" lengthAdjust="spacing" textLength="329" x="495" y="226.1426">ItemWithCost(name, detail, costActivate, height, tier)</text><ellipse cx="486" cy="239.5234" fill="#84BE84" rx="3" ry="3" style="stroke:#038048;stroke-width:1.0;"/><text fill="#000000" font-family="sans-serif" font-size="14" lengthAdjust="spacing" textLength="369" x="495" y="243.752">ItemWithCost(name, detail, costActivate, width, height, tier)</text><ellipse cx="486" cy="257.1328" fill="#84BE84" rx="3" ry="3" style="stroke:#038048;stroke-width:1.0;"/><text fill="#000000" font-family="sans-serif" font-size="14" lengthAdjust="spacing" textLength="173" x="495" y="261.3613">isEnoughEnergy(): boolean</text><ellipse cx="486" cy="274.7422" fill="#84BE84" rx="3" ry="3" style="stroke:#038048;stroke-width:1.0;"/><text fill="#000000" font-family="sans-serif" font-size="14" lengthAdjust="spacing" textLength="145" x="495" y="278.9707">activatePerClick(): void</text><ellipse cx="486" cy="292.3516" fill="#84BE84" rx="3" ry="3" style="stroke:#038048;stroke-width:1.0;"/><text fill="#000000" font-family="sans-serif" font-size="14" font-style="italic" lengthAdjust="spacing" textLength="118" x="495" y="296.5801">activateItem(): void</text><ellipse cx="486" cy="309.9609" fill="#84BE84" rx="3" ry="3" style="stroke:#038048;stroke-width:1.0;"/><text fill="#000000" font-family="sans-serif" font-size="14" lengthAdjust="spacing" textLength="132" x="495" y="314.1895">getCostActivate(): int</text><ellipse cx="486" cy="327.5703" fill="#84BE84" rx="3" ry="3" style="stroke:#038048;stroke-width:1.0;"/><text fill="#000000" font-family="sans-serif" font-size="14" lengthAdjust="spacing" textLength="241" x="495" y="331.7988">setCostActivate(costActivate: int): void</text></g></a><!--class Weapon--><a href="java:game.item.weapon.Weapon" target="_top" title="java:game.item.weapon.Weapon" xlink:actuate="onRequest" xlink:href="java:game.item.weapon.Weapon" xlink:show="new" xlink:title="java:game.item.weapon.Weapon" xlink:type="simple"><g id="elem_Weapon"><rect codeLine="20" fill="#F1F1F1" height="48" id="Weapon" rx="2.5" ry="2.5" style="stroke:#181818;stroke-width:0.5;" width="85" x="55" y="460.5"/><ellipse cx="70" cy="476.5" fill="#ADD1B2" rx="11" ry="11" style="stroke:#181818;stroke-width:1.0;"/><path d="M72.7656,472.375 Q72.9219,472.1563 73.1094,472.0469 Q73.2969,471.9375 73.5156,471.9375 Q73.8906,471.9375 74.125,472.2031 Q74.3594,472.4531 74.3594,473.0625 L74.3594,474.5156 Q74.3594,475.125 74.125,475.3906 Q73.8906,475.6563 73.5156,475.6563 Q73.1719,475.6563 72.9688,475.4531 Q72.7656,475.2656 72.6563,474.75 Q72.6094,474.3906 72.4219,474.2031 Q72.0938,473.8281 71.4844,473.6094 Q70.875,473.3906 70.25,473.3906 Q69.4844,473.3906 68.8438,473.7188 Q68.2188,474.0469 67.7188,474.7969 Q67.2344,475.5469 67.2344,476.5781 L67.2344,477.6719 Q67.2344,478.9063 68.125,479.7344 Q69.0156,480.5469 70.6094,480.5469 Q71.5469,480.5469 72.2031,480.2969 Q72.5938,480.1406 73.0156,479.7031 Q73.2813,479.4375 73.4219,479.3594 Q73.5781,479.2813 73.7813,479.2813 Q74.1094,479.2813 74.3594,479.5469 Q74.625,479.7969 74.625,480.1406 Q74.625,480.4844 74.2813,480.8906 Q73.7813,481.4688 72.9844,481.7969 Q71.9063,482.25 70.6094,482.25 Q69.0938,482.25 67.8906,481.625 Q66.9063,481.125 66.2188,480.0625 Q65.5313,478.9844 65.5313,477.7031 L65.5313,476.5469 Q65.5313,475.2188 66.1406,474.0781 Q66.7656,472.9219 67.8594,472.3125 Q68.9531,471.6875 70.1875,471.6875 Q70.9219,471.6875 71.5625,471.8594 Q72.2188,472.0156 72.7656,472.375 Z " fill="#000000"/><text fill="#000000" font-family="sans-serif" font-size="14" lengthAdjust="spacing" textLength="53" x="84" y="482.2285">Weapon</text><line style="stroke:#181818;stroke-width:0.5;" x1="56" x2="139" y1="492.5" y2="492.5"/><line style="stroke:#181818;stroke-width:0.5;" x1="56" x2="139" y1="500.5" y2="500.5"/></g></a><!--class ShieldItem--><a href="java:game.item.ShieldItem" target="_top" title="java:game.item.ShieldItem" xlink:actuate="onRequest" xlink:href="java:game.item.ShieldItem" xlink:show="new" xlink:title="java:game.item.ShieldItem" xlink:type="simple"><g id="elem_ShieldItem"><rect codeLine="21" fill="#F1F1F1" height="136.0469" id="ShieldItem" rx="2.5" ry="2.5" style="stroke:#181818;stroke-width:0.5;" width="472" x="175.5" y="416.5"/><ellipse cx="374.75" cy="432.5" fill="#ADD1B2" rx="11" ry="11" style="stroke:#181818;stroke-width:1.0;"/><path d="M377.5156,428.375 Q377.6719,428.1563 377.8594,428.0469 Q378.0469,427.9375 378.2656,427.9375 Q378.6406,427.9375 378.875,428.2031 Q379.1094,428.4531 379.1094,429.0625 L379.1094,430.5156 Q379.1094,431.125 378.875,431.3906 Q378.6406,431.6563 378.2656,431.6563 Q377.9219,431.6563 377.7188,431.4531 Q377.5156,431.2656 377.4063,430.75 Q377.3594,430.3906 377.1719,430.2031 Q376.8438,429.8281 376.2344,429.6094 Q375.625,429.3906 375,429.3906 Q374.2344,429.3906 373.5938,429.7188 Q372.9688,430.0469 372.4688,430.7969 Q371.9844,431.5469 371.9844,432.5781 L371.9844,433.6719 Q371.9844,434.9063 372.875,435.7344 Q373.7656,436.5469 375.3594,436.5469 Q376.2969,436.5469 376.9531,436.2969 Q377.3438,436.1406 377.7656,435.7031 Q378.0313,435.4375 378.1719,435.3594 Q378.3281,435.2813 378.5313,435.2813 Q378.8594,435.2813 379.1094,435.5469 Q379.375,435.7969 379.375,436.1406 Q379.375,436.4844 379.0313,436.8906 Q378.5313,437.4688 377.7344,437.7969 Q376.6563,438.25 375.3594,438.25 Q373.8438,438.25 372.6406,437.625 Q371.6563,437.125 370.9688,436.0625 Q370.2813,434.9844 370.2813,433.7031 L370.2813,432.5469 Q370.2813,431.2188 370.8906,430.0781 Q371.5156,428.9219 372.6094,428.3125 Q373.7031,427.6875 374.9375,427.6875 Q375.6719,427.6875 376.3125,427.8594 Q376.9688,428.0156 377.5156,428.375 Z " fill="#000000"/><text fill="#000000" font-family="sans-serif" font-size="14" lengthAdjust="spacing" textLength="65" x="395.25" y="438.2285">ShieldItem</text><line style="stroke:#181818;stroke-width:0.5;" x1="176.5" x2="646.5" y1="448.5" y2="448.5"/><rect fill="none" height="6" style="stroke:#C82930;stroke-width:1.0;" width="6" x="183.5" y="459.8047"/><text fill="#000000" font-family="sans-serif" font-size="14" lengthAdjust="spacing" textLength="158" x="195.5" y="467.0332">effects: ArrayList&lt;Effect&gt;</text><rect fill="none" height="6" style="stroke:#C82930;stroke-width:1.0;" width="6" x="183.5" y="477.4141"/><text fill="#000000" font-family="sans-serif" font-size="14" lengthAdjust="spacing" textLength="60" x="195.5" y="484.6426">shield: int</text><line style="stroke:#181818;stroke-width:0.5;" x1="176.5" x2="646.5" y1="491.7188" y2="491.7188"/><ellipse cx="186.5" cy="506.0234" fill="#84BE84" rx="3" ry="3" style="stroke:#038048;stroke-width:1.0;"/><text fill="#000000" font-family="sans-serif" font-size="14" lengthAdjust="spacing" textLength="446" x="195.5" y="510.252">ShieldItem(name, detail, shield, effects, costActivate, width, height, tier)</text><ellipse cx="186.5" cy="523.6328" fill="#84BE84" rx="3" ry="3" style="stroke:#038048;stroke-width:1.0;"/><text fill="#000000" font-family="sans-serif" font-size="14" lengthAdjust="spacing" textLength="119" x="195.5" y="527.8613">activateItem(): void</text><ellipse cx="186.5" cy="541.2422" fill="#84BE84" rx="3" ry="3" style="stroke:#038048;stroke-width:1.0;"/><text fill="#000000" font-family="sans-serif" font-size="14" lengthAdjust="spacing" textLength="104" x="195.5" y="545.4707">toString(): String</text></g></a><!--class DamageItem--><a href="java:game.item.DamageItem" target="_top" title="java:game.item.DamageItem" xlink:actuate="onRequest" xlink:href="java:game.item.DamageItem" xlink:show="new" xlink:title="java:game.item.DamageItem" xlink:type="simple"><g id="elem_DamageItem"><rect codeLine="28" fill="#F1F1F1" height="171.2656" id="DamageItem" rx="2.5" ry="2.5" style="stroke:#181818;stroke-width:0.5;" width="485" x="683" y="399"/><ellipse cx="881.75" cy="415" fill="#ADD1B2" rx="11" ry="11" style="stroke:#181818;stroke-width:1.0;"/><path d="M884.5156,410.875 Q884.6719,410.6563 884.8594,410.5469 Q885.0469,410.4375 885.2656,410.4375 Q885.6406,410.4375 885.875,410.7031 Q886.1094,410.9531 886.1094,411.5625 L886.1094,413.0156 Q886.1094,413.625 885.875,413.8906 Q885.6406,414.1563 885.2656,414.1563 Q884.9219,414.1563 884.7188,413.9531 Q884.5156,413.7656 884.4063,413.25 Q884.3594,412.8906 884.1719,412.7031 Q883.8438,412.3281 883.2344,412.1094 Q882.625,411.8906 882,411.8906 Q881.2344,411.8906 880.5938,412.2188 Q879.9688,412.5469 879.4688,413.2969 Q878.9844,414.0469 878.9844,415.0781 L878.9844,416.1719 Q878.9844,417.4063 879.875,418.2344 Q880.7656,419.0469 882.3594,419.0469 Q883.2969,419.0469 883.9531,418.7969 Q884.3438,418.6406 884.7656,418.2031 Q885.0313,417.9375 885.1719,417.8594 Q885.3281,417.7813 885.5313,417.7813 Q885.8594,417.7813 886.1094,418.0469 Q886.375,418.2969 886.375,418.6406 Q886.375,418.9844 886.0313,419.3906 Q885.5313,419.9688 884.7344,420.2969 Q883.6563,420.75 882.3594,420.75 Q880.8438,420.75 879.6406,420.125 Q878.6563,419.625 877.9688,418.5625 Q877.2813,417.4844 877.2813,416.2031 L877.2813,415.0469 Q877.2813,413.7188 877.8906,412.5781 Q878.5156,411.4219 879.6094,410.8125 Q880.7031,410.1875 881.9375,410.1875 Q882.6719,410.1875 883.3125,410.3594 Q883.9688,410.5156 884.5156,410.875 Z " fill="#000000"/><text fill="#000000" font-family="sans-serif" font-size="14" lengthAdjust="spacing" textLength="79" x="902.25" y="420.7285">DamageItem</text><line style="stroke:#181818;stroke-width:0.5;" x1="684" x2="1167" y1="431" y2="431"/><rect fill="none" height="6" style="stroke:#C82930;stroke-width:1.0;" width="6" x="691" y="442.3047"/><text fill="#000000" font-family="sans-serif" font-size="14" lengthAdjust="spacing" textLength="85" x="703" y="449.5332">AoE: boolean</text><rect fill="none" height="6" style="stroke:#C82930;stroke-width:1.0;" width="6" x="691" y="459.9141"/><text fill="#000000" font-family="sans-serif" font-size="14" lengthAdjust="spacing" textLength="158" x="703" y="467.1426">effects: ArrayList&lt;Effect&gt;</text><line style="stroke:#181818;stroke-width:0.5;" x1="684" x2="1167" y1="474.2188" y2="474.2188"/><ellipse cx="694" cy="488.5234" fill="#84BE84" rx="3" ry="3" style="stroke:#038048;stroke-width:1.0;"/><text fill="#000000" font-family="sans-serif" font-size="14" lengthAdjust="spacing" textLength="459" x="703" y="492.752">DamageItem(name, detail, effects, costActivate, isAoE, width, height, tier)</text><ellipse cx="694" cy="506.1328" fill="#84BE84" rx="3" ry="3" style="stroke:#038048;stroke-width:1.0;"/><text fill="#000000" font-family="sans-serif" font-size="14" lengthAdjust="spacing" textLength="119" x="703" y="510.3613">activateItem(): void</text><rect fill="#F24D5C" height="6" style="stroke:#C82930;stroke-width:1.0;" width="6" x="691" y="520.7422"/><text fill="#000000" font-family="sans-serif" font-size="14" lengthAdjust="spacing" textLength="301" x="703" y="527.9707">activateEffect(effect: Effect, enemy: Entity): void</text><ellipse cx="694" cy="541.3516" fill="#84BE84" rx="3" ry="3" style="stroke:#038048;stroke-width:1.0;"/><text fill="#000000" font-family="sans-serif" font-size="14" lengthAdjust="spacing" textLength="104" x="703" y="545.5801">toString(): String</text><ellipse cx="694" cy="558.9609" fill="#84BE84" rx="3" ry="3" style="stroke:#038048;stroke-width:1.0;"/><text fill="#000000" font-family="sans-serif" font-size="14" lengthAdjust="spacing" textLength="105" x="703" y="563.1895">isAoE(): boolean</text></g></a><!--class Consumable--><a href="java:game.item.consumable.Consumable" target="_top" title="java:game.item.consumable.Consumable" xlink:actuate="onRequest" xlink:href="java:game.item.consumable.Consumable" xlink:show="new" xlink:title="java:game.item.consumable.Consumable" xlink:type="simple"><g id="elem_Consumable"><rect codeLine="37" fill="#F1F1F1" height="48" id="Consumable" rx="2.5" ry="2.5" style="stroke:#181818;stroke-width:0.5;" width="111" x="1203" y="460.5"/><ellipse cx="1218" cy="476.5" fill="#ADD1B2" rx="11" ry="11" style="stroke:#181818;stroke-width:1.0;"/><path d="M1220.7656,472.375 Q1220.9219,472.1563 1221.1094,472.0469 Q1221.2969,471.9375 1221.5156,471.9375 Q1221.8906,471.9375 1222.125,472.2031 Q1222.3594,472.4531 1222.3594,473.0625 L1222.3594,474.5156 Q1222.3594,475.125 1222.125,475.3906 Q1221.8906,475.6563 1221.5156,475.6563 Q1221.1719,475.6563 1220.9688,475.4531 Q1220.7656,475.2656 1220.6563,474.75 Q1220.6094,474.3906 1220.4219,474.2031 Q1220.0938,473.8281 1219.4844,473.6094 Q1218.875,473.3906 1218.25,473.3906 Q1217.4844,473.3906 1216.8438,473.7188 Q1216.2188,474.0469 1215.7188,474.7969 Q1215.2344,475.5469 1215.2344,476.5781 L1215.2344,477.6719 Q1215.2344,478.9063 1216.125,479.7344 Q1217.0156,480.5469 1218.6094,480.5469 Q1219.5469,480.5469 1220.2031,480.2969 Q1220.5938,480.1406 1221.0156,479.7031 Q1221.2813,479.4375 1221.4219,479.3594 Q1221.5781,479.2813 1221.7813,479.2813 Q1222.1094,479.2813 1222.3594,479.5469 Q1222.625,479.7969 1222.625,480.1406 Q1222.625,480.4844 1222.2813,480.8906 Q1221.7813,481.4688 1220.9844,481.7969 Q1219.9063,482.25 1218.6094,482.25 Q1217.0938,482.25 1215.8906,481.625 Q1214.9063,481.125 1214.2188,480.0625 Q1213.5313,478.9844 1213.5313,477.7031 L1213.5313,476.5469 Q1213.5313,475.2188 1214.1406,474.0781 Q1214.7656,472.9219 1215.8594,472.3125 Q1216.9531,471.6875 1218.1875,471.6875 Q1218.9219,471.6875 1219.5625,471.8594 Q1220.2188,472.0156 1220.7656,472.375 Z " fill="#000000"/><text fill="#000000" font-family="sans-serif" font-size="14" lengthAdjust="spacing" textLength="79" x="1232" y="482.2285">Consumable</text><line style="stroke:#181818;stroke-width:0.5;" x1="1204" x2="1313" y1="492.5" y2="492.5"/><line style="stroke:#181818;stroke-width:0.5;" x1="1204" x2="1313" y1="500.5" y2="500.5"/></g></a><!--reverse link Item to ItemWithCost--><g id="link_Item_ItemWithCost"><path codeLine="38" d="M734.5338,89.2201 C726.7438,108.5901 721.77,120.95 710.24,149.65 " fill="none" id="Item-backto-ItemWithCost" style="stroke:#181818;stroke-width:1.0;"/><polygon fill="none" points="741.25,72.52,728.9671,86.9813,740.1005,91.4588,741.25,72.52" style="stroke:#181818;stroke-width:1.0;"/></g><!--reverse link Clickable to ItemWithCost--><g id="link_Clickable_ItemWithCost"><path codeLine="39" d="M616.8471,106.8414 C623.9471,124.2814 625.78,128.78 634.32,149.74 " fill="none" id="Clickable-backto-ItemWithCost" style="stroke:#181818;stroke-width:1.0;stroke-dasharray:7.0,7.0;"/><polygon fill="none" points="610.06,90.17,611.29,109.1038,622.4042,104.579,610.06,90.17" style="stroke:#181818;stroke-width:1.0;"/></g><!--reverse link ItemWithCost to ShieldItem--><g id="link_ItemWithCost_ShieldItem"><path codeLine="40" d="M556.4216,351.3506 C528.1816,377.1106 511.41,392.39 485.17,416.33 " fill="none" id="ItemWithCost-backto-ShieldItem" style="stroke:#181818;stroke-width:1.0;"/><polygon fill="none" points="569.72,339.22,552.378,346.9178,560.4651,355.7834,569.72,339.22" style="stroke:#181818;stroke-width:1.0;"/></g><!--reverse link ItemWithCost to DamageItem--><g id="link_ItemWithCost_DamageItem"><path codeLine="41" d="M785.2413,351.5526 C806.1213,371.1926 814.91,379.47 835.42,398.76 " fill="none" id="ItemWithCost-backto-DamageItem" style="stroke:#181818;stroke-width:1.0;"/><polygon fill="none" points="772.13,339.22,781.1304,355.9231,789.3522,347.1822,772.13,339.22" style="stroke:#181818;stroke-width:1.0;"/></g><!--reverse link ItemWithCost to Weapon--><g id="link_ItemWithCost_Weapon"><path codeLine="42" d="M457.2276,276.4855 C355.2176,298.0055 250.61,332.32 157.5,399 C135.41,414.82 118.51,441.38 108.35,460.5 " fill="none" id="ItemWithCost-backto-Weapon" style="stroke:#181818;stroke-width:1.0;"/><polygon fill="none" points="474.84,272.77,455.9891,270.6147,458.4661,282.3563,474.84,272.77" style="stroke:#181818;stroke-width:1.0;"/></g><!--reverse link ReStatable to Weapon--><g id="link_ReStatable_Weapon"><path codeLine="43" d="M97.5,295.6 C97.5,344.32 97.5,417.78 97.5,460.46 " fill="none" id="ReStatable-backto-Weapon" style="stroke:#181818;stroke-width:1.0;stroke-dasharray:7.0,7.0;"/><polygon fill="none" points="97.5,277.6,91.5,295.6,103.5,295.6,97.5,277.6" style="stroke:#181818;stroke-width:1.0;"/></g><!--reverse link ItemWithCost to Consumable--><g id="link_ItemWithCost_Consumable"><path codeLine="44" d="M887.5572,281.2279 C987.8672,303.8979 1090.68,337.62 1185.5,399 C1209.91,414.8 1230.78,441.1 1243.87,460.16 " fill="none" id="ItemWithCost-backto-Consumable" style="stroke:#181818;stroke-width:1.0;"/><polygon fill="none" points="870,277.26,886.2346,287.0803,888.8798,275.3755,870,277.26" style="stroke:#181818;stroke-width:1.0;"/></g><!--SRC=[bLHDRzim33tNluB0BYdg-0SOmO0iow703iE2eOUY1yLcRAws54XiYg3DVvyisPQJs4Lxi_WUlnvfije3AzWgPbL3JXep9YKZaenw9pA4LKNPizXM28-F_yH1f3raaXvxUeAtw4POtuDW_8tQ8RFR50wAykY6p5ggbw9SIzJ5iR5lbQfGoEWqIFK7Donu8bS0VJBjtZzmfpJ-tUSsRP_k58cjOMtBWQmIni0zOzs5B4ID2Lb3qbYRMAFq1-9ofGoFktMeAmNWMsQ_bsttATYghV5kI9n9wnz3ZYoeYc78Zw54AagEWGdrxPSyNoddSYJ0jDuMd1oJnTuwAKxGqPfYXfG2UJKeee7QXiq5SgLA690N-W75NibhYL-TFV6m7v5ts9I4LJu-pe2rKvdZRcVNsQImr5eSVv7XnTgPlZUeSVo- -E1-eRZdnT16- -m8fkHZjM5DicXi_gkNuwUeHO7ZtGMiwswfriEnVjpjNV2_Q6-YBJ8s_fUxctTsdtdcWwVWdpQPnFfedvA9Zn-BuhROrd1-BBnGAoNDIpqy546ehCUIGFCxv9HTlC_dPtzu52xSuZr9ph6pK-1SmvwCW47b4T2lSpIuSYvVQxxcX_B_0m00]--></g></svg>