<?xml version="1.0" encoding="us-ascii" standalone="no"?><svg xmlns="http://www.w3.org/2000/svg" xmlns:xlink="http://www.w3.org/1999/xlink" contentStyleType="text/css" height="778px" preserveAspectRatio="none" style="width:1085px;height:778px;background:#FFFFFF;" version="1.1" viewBox="0 0 1085 778" width="1085px" zoomAndPan="magnify"><defs/><g><!--class ReRenderable--><a href="java:interfaces.ReRenderable" target="_top" title="java:interfaces.ReRenderable" xlink:actuate="onRequest" xlink:href="java:interfaces.ReRenderable" xlink:show="new" xlink:title="java:interfaces.ReRenderable" xlink:type="simple"><g id="elem_ReRenderable"><rect codeLine="2" fill="#F1F1F1" height="65.6094" id="ReRenderable" rx="2.5" ry="2.5" style="stroke:#181818;stroke-width:0.5;" width="124" x="7" y="95.25"/><ellipse cx="22" cy="111.25" fill="#B4A7E5" rx="11" ry="11" style="stroke:#181818;stroke-width:1.0;"/><path d="M22.9531,107.8906 L22.9531,114.5469 L24.6719,114.5469 Q25.2813,114.5469 25.5469,114.7813 Q25.8125,115.0156 25.8125,115.4063 Q25.8125,115.7813 25.5469,116.0156 Q25.2813,116.25 24.6719,116.25 L19.5313,116.25 Q18.9219,116.25 18.6563,116.0156 Q18.3906,115.7813 18.3906,115.3906 Q18.3906,115.0156 18.6563,114.7813 Q18.9219,114.5469 19.5313,114.5469 L21.25,114.5469 L21.25,107.8906 L19.5313,107.8906 Q18.9219,107.8906 18.6563,107.6563 Q18.3906,107.4219 18.3906,107.0313 Q18.3906,106.6563 18.6563,106.4219 Q18.9219,106.1875 19.5313,106.1875 L24.6719,106.1875 Q25.2813,106.1875 25.5469,106.4219 Q25.8125,106.6563 25.8125,107.0313 Q25.8125,107.4219 25.5469,107.6563 Q25.2813,107.8906 24.6719,107.8906 L22.9531,107.8906 Z " fill="#000000"/><text fill="#000000" font-family="sans-serif" font-size="14" font-style="italic" lengthAdjust="spacing" textLength="92" x="36" y="116.9785">ReRenderable</text><line style="stroke:#181818;stroke-width:0.5;" x1="8" x2="130" y1="127.25" y2="127.25"/><line style="stroke:#181818;stroke-width:0.5;" x1="8" x2="130" y1="135.25" y2="135.25"/><text fill="#000000" font-family="sans-serif" font-size="14" lengthAdjust="spacing" textLength="86" x="13" y="153.7832">render(): void</text></g></a><!--class VBox--><g id="elem_VBox"><rect codeLine="5" fill="#F1F1F1" height="48" id="VBox" rx="2.5" ry="2.5" style="stroke:#181818;stroke-width:0.5;" width="64" x="37" y="367.25"/><ellipse cx="52" cy="383.25" fill="#ADD1B2" rx="11" ry="11" style="stroke:#181818;stroke-width:1.0;"/><path d="M54.7656,379.125 Q54.9219,378.9063 55.1094,378.7969 Q55.2969,378.6875 55.5156,378.6875 Q55.8906,378.6875 56.125,378.9531 Q56.3594,379.2031 56.3594,379.8125 L56.3594,381.2656 Q56.3594,381.875 56.125,382.1406 Q55.8906,382.4063 55.5156,382.4063 Q55.1719,382.4063 54.9688,382.2031 Q54.7656,382.0156 54.6563,381.5 Q54.6094,381.1406 54.4219,380.9531 Q54.0938,380.5781 53.4844,380.3594 Q52.875,380.1406 52.25,380.1406 Q51.4844,380.1406 50.8438,380.4688 Q50.2188,380.7969 49.7188,381.5469 Q49.2344,382.2969 49.2344,383.3281 L49.2344,384.4219 Q49.2344,385.6563 50.125,386.4844 Q51.0156,387.2969 52.6094,387.2969 Q53.5469,387.2969 54.2031,387.0469 Q54.5938,386.8906 55.0156,386.4531 Q55.2813,386.1875 55.4219,386.1094 Q55.5781,386.0313 55.7813,386.0313 Q56.1094,386.0313 56.3594,386.2969 Q56.625,386.5469 56.625,386.8906 Q56.625,387.2344 56.2813,387.6406 Q55.7813,388.2188 54.9844,388.5469 Q53.9063,389 52.6094,389 Q51.0938,389 49.8906,388.375 Q48.9063,387.875 48.2188,386.8125 Q47.5313,385.7344 47.5313,384.4531 L47.5313,383.2969 Q47.5313,381.9688 48.1406,380.8281 Q48.7656,379.6719 49.8594,379.0625 Q50.9531,378.4375 52.1875,378.4375 Q52.9219,378.4375 53.5625,378.6094 Q54.2188,378.7656 54.7656,379.125 Z " fill="#000000"/><text fill="#000000" font-family="sans-serif" font-size="14" lengthAdjust="spacing" textLength="32" x="66" y="388.9785">VBox</text><line style="stroke:#181818;stroke-width:0.5;" x1="38" x2="100" y1="399.25" y2="399.25"/><line style="stroke:#181818;stroke-width:0.5;" x1="38" x2="100" y1="407.25" y2="407.25"/></g><!--class StackPane--><g id="elem_StackPane"><rect codeLine="6" fill="#F1F1F1" height="48" id="StackPane" rx="2.5" ry="2.5" style="stroke:#181818;stroke-width:0.5;" width="100" x="319" y="723.25"/><ellipse cx="334" cy="739.25" fill="#ADD1B2" rx="11" ry="11" style="stroke:#181818;stroke-width:1.0;"/><path d="M336.7656,735.125 Q336.9219,734.9063 337.1094,734.7969 Q337.2969,734.6875 337.5156,734.6875 Q337.8906,734.6875 338.125,734.9531 Q338.3594,735.2031 338.3594,735.8125 L338.3594,737.2656 Q338.3594,737.875 338.125,738.1406 Q337.8906,738.4063 337.5156,738.4063 Q337.1719,738.4063 336.9688,738.2031 Q336.7656,738.0156 336.6563,737.5 Q336.6094,737.1406 336.4219,736.9531 Q336.0938,736.5781 335.4844,736.3594 Q334.875,736.1406 334.25,736.1406 Q333.4844,736.1406 332.8438,736.4688 Q332.2188,736.7969 331.7188,737.5469 Q331.2344,738.2969 331.2344,739.3281 L331.2344,740.4219 Q331.2344,741.6563 332.125,742.4844 Q333.0156,743.2969 334.6094,743.2969 Q335.5469,743.2969 336.2031,743.0469 Q336.5938,742.8906 337.0156,742.4531 Q337.2813,742.1875 337.4219,742.1094 Q337.5781,742.0313 337.7813,742.0313 Q338.1094,742.0313 338.3594,742.2969 Q338.625,742.5469 338.625,742.8906 Q338.625,743.2344 338.2813,743.6406 Q337.7813,744.2188 336.9844,744.5469 Q335.9063,745 334.6094,745 Q333.0938,745 331.8906,744.375 Q330.9063,743.875 330.2188,742.8125 Q329.5313,741.7344 329.5313,740.4531 L329.5313,739.2969 Q329.5313,737.9688 330.1406,736.8281 Q330.7656,735.6719 331.8594,735.0625 Q332.9531,734.4375 334.1875,734.4375 Q334.9219,734.4375 335.5625,734.6094 Q336.2188,734.7656 336.7656,735.125 Z " fill="#000000"/><text fill="#000000" font-family="sans-serif" font-size="14" lengthAdjust="spacing" textLength="68" x="348" y="744.9785">StackPane</text><line style="stroke:#181818;stroke-width:0.5;" x1="320" x2="418" y1="755.25" y2="755.25"/><line style="stroke:#181818;stroke-width:0.5;" x1="320" x2="418" y1="763.25" y2="763.25"/></g><!--class Item--><g id="elem_Item"><rect codeLine="7" fill="#F1F1F1" height="48" id="Item" rx="2.5" ry="2.5" style="stroke:#181818;stroke-width:0.5;" width="59" x="1019" y="367.25"/><ellipse cx="1034" cy="383.25" fill="#A9DCDF" rx="11" ry="11" style="stroke:#181818;stroke-width:1.0;"/><path d="M1036.1875,385.0156 L1032.0469,385.0156 L1031.625,386.0469 L1032.0469,386.0469 Q1032.6563,386.0469 1032.9219,386.2813 Q1033.1875,386.5156 1033.1875,386.9063 Q1033.1875,387.2813 1032.9219,387.5156 Q1032.6563,387.75 1032.0469,387.75 L1029.75,387.75 Q1029.1406,387.75 1028.8906,387.5156 Q1028.625,387.2813 1028.625,386.8906 Q1028.625,386.5156 1028.9063,386.2813 Q1029.1719,386.0313 1029.7969,386.0469 L1032.4688,379.3906 L1031.3594,379.3906 Q1030.75,379.3906 1030.4844,379.1563 Q1030.2188,378.9219 1030.2188,378.5313 Q1030.2188,378.1563 1030.4844,377.9219 Q1030.75,377.6875 1031.3594,377.6875 L1035.0313,377.6875 L1038.4219,386.0469 Q1039.0156,386.0469 1039.2031,386.1875 Q1039.5938,386.4531 1039.5938,386.9063 Q1039.5938,387.2813 1039.3281,387.5156 Q1039.0781,387.75 1038.4688,387.75 L1036.1719,387.75 Q1035.5625,387.75 1035.2969,387.5156 Q1035.0313,387.2813 1035.0313,386.8906 Q1035.0313,386.5156 1035.2969,386.2813 Q1035.5625,386.0469 1036.1719,386.0469 L1036.5938,386.0469 L1036.1875,385.0156 Z M1035.4688,383.3125 L1034.1094,379.9375 L1032.7344,383.3125 L1035.4688,383.3125 Z " fill="#000000"/><text fill="#000000" font-family="sans-serif" font-size="14" font-style="italic" lengthAdjust="spacing" textLength="27" x="1048" y="388.9785">Item</text><line style="stroke:#181818;stroke-width:0.5;" x1="1020" x2="1077" y1="399.25" y2="399.25"/><line style="stroke:#181818;stroke-width:0.5;" x1="1020" x2="1077" y1="407.25" y2="407.25"/></g><!--class Backpack--><a href="java:game.backpack.Backpack" target="_top" title="java:game.backpack.Backpack" xlink:actuate="onRequest" xlink:href="java:game.backpack.Backpack" xlink:show="new" xlink:title="java:game.backpack.Backpack" xlink:type="simple"><g id="elem_Backpack"><rect codeLine="8" fill="#F1F1F1" height="593.8906" id="Backpack" rx="2.5" ry="2.5" style="stroke:#181818;stroke-width:0.5;" width="354" x="192" y="94.25"/><ellipse cx="334.25" cy="110.25" fill="#ADD1B2" rx="11" ry="11" style="stroke:#181818;stroke-width:1.0;"/><path d="M337.0156,106.125 Q337.1719,105.9063 337.3594,105.7969 Q337.5469,105.6875 337.7656,105.6875 Q338.1406,105.6875 338.375,105.9531 Q338.6094,106.2031 338.6094,106.8125 L338.6094,108.2656 Q338.6094,108.875 338.375,109.1406 Q338.1406,109.4063 337.7656,109.4063 Q337.4219,109.4063 337.2188,109.2031 Q337.0156,109.0156 336.9063,108.5 Q336.8594,108.1406 336.6719,107.9531 Q336.3438,107.5781 335.7344,107.3594 Q335.125,107.1406 334.5,107.1406 Q333.7344,107.1406 333.0938,107.4688 Q332.4688,107.7969 331.9688,108.5469 Q331.4844,109.2969 331.4844,110.3281 L331.4844,111.4219 Q331.4844,112.6563 332.375,113.4844 Q333.2656,114.2969 334.8594,114.2969 Q335.7969,114.2969 336.4531,114.0469 Q336.8438,113.8906 337.2656,113.4531 Q337.5313,113.1875 337.6719,113.1094 Q337.8281,113.0313 338.0313,113.0313 Q338.3594,113.0313 338.6094,113.2969 Q338.875,113.5469 338.875,113.8906 Q338.875,114.2344 338.5313,114.6406 Q338.0313,115.2188 337.2344,115.5469 Q336.1563,116 334.8594,116 Q333.3438,116 332.1406,115.375 Q331.1563,114.875 330.4688,113.8125 Q329.7813,112.7344 329.7813,111.4531 L329.7813,110.2969 Q329.7813,108.9688 330.3906,107.8281 Q331.0156,106.6719 332.1094,106.0625 Q333.2031,105.4375 334.4375,105.4375 Q335.1719,105.4375 335.8125,105.6094 Q336.4688,105.7656 337.0156,106.125 Z " fill="#000000"/><text fill="#000000" font-family="sans-serif" font-size="14" lengthAdjust="spacing" textLength="61" x="354.75" y="115.9785">Backpack</text><line style="stroke:#181818;stroke-width:0.5;" x1="193" x2="545" y1="126.25" y2="126.25"/><rect fill="none" height="6" style="stroke:#C82930;stroke-width:1.0;" width="6" x="200" y="137.5547"/><text fill="#000000" font-family="sans-serif" font-size="14" lengthAdjust="spacing" text-decoration="underline" textLength="122" x="212" y="144.7832">instance: Backpack</text><ellipse cx="203" cy="158.1641" fill="none" rx="3" ry="3" style="stroke:#038048;stroke-width:1.0;"/><text fill="#000000" font-family="sans-serif" font-size="14" lengthAdjust="spacing" text-decoration="underline" textLength="67" x="212" y="162.3926">WIDTH: int</text><ellipse cx="203" cy="175.7734" fill="none" rx="3" ry="3" style="stroke:#038048;stroke-width:1.0;"/><text fill="#000000" font-family="sans-serif" font-size="14" lengthAdjust="spacing" text-decoration="underline" textLength="73" x="212" y="180.002">HEIGHT: int</text><rect fill="none" height="6" style="stroke:#C82930;stroke-width:1.0;" width="6" x="200" y="190.3828"/><text fill="#000000" font-family="sans-serif" font-size="14" lengthAdjust="spacing" textLength="77" x="212" y="197.6113">slots: Slot[][]</text><rect fill="none" height="6" style="stroke:#C82930;stroke-width:1.0;" width="6" x="200" y="207.9922"/><text fill="#000000" font-family="sans-serif" font-size="14" lengthAdjust="spacing" textLength="125" x="212" y="215.2207">gridPane: GridPane</text><rect fill="none" height="6" style="stroke:#C82930;stroke-width:1.0;" width="6" x="200" y="225.6016"/><text fill="#000000" font-family="sans-serif" font-size="14" lengthAdjust="spacing" textLength="182" x="212" y="232.8301">endTurnButton: GameButton</text><rect fill="none" height="6" style="stroke:#C82930;stroke-width:1.0;" width="6" x="200" y="243.2109"/><text fill="#000000" font-family="sans-serif" font-size="14" lengthAdjust="spacing" textLength="135" x="212" y="250.4395">backpack: ImageView</text><rect fill="none" height="6" style="stroke:#C82930;stroke-width:1.0;" width="6" x="200" y="260.8203"/><text fill="#000000" font-family="sans-serif" font-size="14" lengthAdjust="spacing" textLength="104" x="212" y="268.0488">levelup: boolean</text><rect fill="none" height="6" style="stroke:#C82930;stroke-width:1.0;" width="6" x="200" y="278.4297"/><text fill="#000000" font-family="sans-serif" font-size="14" lengthAdjust="spacing" textLength="104" x="212" y="285.6582">unlockedLeft: int</text><line style="stroke:#181818;stroke-width:0.5;" x1="193" x2="545" y1="292.7344" y2="292.7344"/><ellipse cx="203" cy="307.0391" fill="#84BE84" rx="3" ry="3" style="stroke:#038048;stroke-width:1.0;"/><text fill="#000000" font-family="sans-serif" font-size="14" lengthAdjust="spacing" textLength="71" x="212" y="311.2676">Backpack()</text><ellipse cx="203" cy="324.6484" fill="#84BE84" rx="3" ry="3" style="stroke:#038048;stroke-width:1.0;"/><text fill="#000000" font-family="sans-serif" font-size="14" lengthAdjust="spacing" textLength="146" x="212" y="328.877">backpackResize(): void</text><ellipse cx="203" cy="342.2578" fill="#84BE84" rx="3" ry="3" style="stroke:#038048;stroke-width:1.0;"/><text fill="#000000" font-family="sans-serif" font-size="14" lengthAdjust="spacing" textLength="86" x="212" y="346.4863">render(): void</text><ellipse cx="203" cy="359.8672" fill="#84BE84" rx="3" ry="3" style="stroke:#038048;stroke-width:1.0;"/><text fill="#000000" font-family="sans-serif" font-size="14" lengthAdjust="spacing" textLength="328" x="212" y="364.0957">isPlaceable(gridX: int, gridY: int, item: Item): boolean</text><ellipse cx="203" cy="377.4766" fill="#84BE84" rx="3" ry="3" style="stroke:#038048;stroke-width:1.0;"/><text fill="#000000" font-family="sans-serif" font-size="14" lengthAdjust="spacing" textLength="90" x="212" y="381.7051">levelUp(): void</text><rect fill="#F24D5C" height="6" style="stroke:#C82930;stroke-width:1.0;" width="6" x="200" y="392.0859"/><text fill="#000000" font-family="sans-serif" font-size="14" lengthAdjust="spacing" textLength="201" x="212" y="399.3145">isAdjacent(x: int, y: int): boolean</text><ellipse cx="203" cy="412.6953" fill="#84BE84" rx="3" ry="3" style="stroke:#038048;stroke-width:1.0;"/><text fill="#000000" font-family="sans-serif" font-size="14" lengthAdjust="spacing" textLength="131" x="212" y="416.9238">finishUpgrade(): void</text><ellipse cx="203" cy="430.3047" fill="#84BE84" rx="3" ry="3" style="stroke:#038048;stroke-width:1.0;"/><text fill="#000000" font-family="sans-serif" font-size="14" lengthAdjust="spacing" textLength="316" x="212" y="434.5332">placeItem(gridX: int, gridY: int, item: Item): boolean</text><ellipse cx="203" cy="447.9141" fill="#84BE84" rx="3" ry="3" style="stroke:#038048;stroke-width:1.0;"/><text fill="#000000" font-family="sans-serif" font-size="14" lengthAdjust="spacing" textLength="289" x="212" y="452.1426">replaceItem(oldItem: Item, newItem: Item): void</text><rect fill="#F24D5C" height="6" style="stroke:#C82930;stroke-width:1.0;" width="6" x="200" y="462.5234"/><text fill="#000000" font-family="sans-serif" font-size="14" lengthAdjust="spacing" textLength="226" x="212" y="469.752">placeItem(slot: Slot, item: Item): void</text><ellipse cx="203" cy="483.1328" fill="#84BE84" rx="3" ry="3" style="stroke:#038048;stroke-width:1.0;"/><text fill="#000000" font-family="sans-serif" font-size="14" lengthAdjust="spacing" textLength="158" x="212" y="487.3613">getGridPane(): GridPane</text><ellipse cx="203" cy="500.7422" fill="#84BE84" rx="3" ry="3" style="stroke:#038048;stroke-width:1.0;"/><text fill="#000000" font-family="sans-serif" font-size="14" lengthAdjust="spacing" textLength="177" x="212" y="504.9707">removeItem(item: Item): void</text><ellipse cx="203" cy="518.3516" fill="#84BE84" rx="3" ry="3" style="stroke:#038048;stroke-width:1.0;"/><text fill="#000000" font-family="sans-serif" font-size="14" lengthAdjust="spacing" textLength="288" x="212" y="522.5801">hightlight(gridX: int, gridY: int, item: Item): void</text><ellipse cx="203" cy="535.9609" fill="#84BE84" rx="3" ry="3" style="stroke:#038048;stroke-width:1.0;"/><text fill="#000000" font-family="sans-serif" font-size="14" lengthAdjust="spacing" textLength="296" x="212" y="540.1895">getItemPosition(item: Item): ArrayList&lt;Position&gt;</text><ellipse cx="203" cy="553.5703" fill="#84BE84" rx="3" ry="3" style="stroke:#038048;stroke-width:1.0;"/><text fill="#000000" font-family="sans-serif" font-size="14" lengthAdjust="spacing" textLength="109" x="212" y="557.7988">getSlots(): Slot[][]</text><ellipse cx="203" cy="571.1797" fill="#84BE84" rx="3" ry="3" style="stroke:#038048;stroke-width:1.0;"/><text fill="#000000" font-family="sans-serif" font-size="14" lengthAdjust="spacing" text-decoration="underline" textLength="152" x="212" y="575.4082">getInstance(): Backpack</text><ellipse cx="203" cy="588.7891" fill="#84BE84" rx="3" ry="3" style="stroke:#038048;stroke-width:1.0;"/><text fill="#000000" font-family="sans-serif" font-size="14" lengthAdjust="spacing" textLength="129" x="212" y="593.0176">isLevelup(): boolean</text><ellipse cx="203" cy="606.3984" fill="#84BE84" rx="3" ry="3" style="stroke:#038048;stroke-width:1.0;"/><text fill="#000000" font-family="sans-serif" font-size="14" lengthAdjust="spacing" textLength="217" x="212" y="610.627">setLevelup(levelup: boolean): void</text><ellipse cx="203" cy="624.0078" fill="#84BE84" rx="3" ry="3" style="stroke:#038048;stroke-width:1.0;"/><text fill="#000000" font-family="sans-serif" font-size="14" lengthAdjust="spacing" text-decoration="underline" textLength="238" x="212" y="628.2363">setInstance(instance: Backpack): void</text><ellipse cx="203" cy="641.6172" fill="#84BE84" rx="3" ry="3" style="stroke:#038048;stroke-width:1.0;"/><text fill="#000000" font-family="sans-serif" font-size="14" lengthAdjust="spacing" textLength="135" x="212" y="645.8457">getUnlockedLeft(): int</text><ellipse cx="203" cy="659.2266" fill="#84BE84" rx="3" ry="3" style="stroke:#038048;stroke-width:1.0;"/><text fill="#000000" font-family="sans-serif" font-size="14" lengthAdjust="spacing" textLength="249" x="212" y="663.4551">setUnlockedLeft(unlockedLeft: int): void</text><ellipse cx="203" cy="676.8359" fill="#84BE84" rx="3" ry="3" style="stroke:#038048;stroke-width:1.0;"/><text fill="#000000" font-family="sans-serif" font-size="14" lengthAdjust="spacing" textLength="213" x="212" y="681.0645">getEndTurnButton(): GameButton</text></g></a><!--class Slot--><a href="java:game.backpack.Slot" target="_top" title="java:game.backpack.Slot" xlink:actuate="onRequest" xlink:href="java:game.backpack.Slot" xlink:show="new" xlink:title="java:game.backpack.Slot" xlink:type="simple"><g id="elem_Slot"><rect codeLine="41" fill="#F1F1F1" height="505.8438" id="Slot" rx="2.5" ry="2.5" style="stroke:#181818;stroke-width:0.5;" width="296" x="636" y="138.25"/><ellipse cx="767.75" cy="154.25" fill="#ADD1B2" rx="11" ry="11" style="stroke:#181818;stroke-width:1.0;"/><path d="M770.5156,150.125 Q770.6719,149.9063 770.8594,149.7969 Q771.0469,149.6875 771.2656,149.6875 Q771.6406,149.6875 771.875,149.9531 Q772.1094,150.2031 772.1094,150.8125 L772.1094,152.2656 Q772.1094,152.875 771.875,153.1406 Q771.6406,153.4063 771.2656,153.4063 Q770.9219,153.4063 770.7188,153.2031 Q770.5156,153.0156 770.4063,152.5 Q770.3594,152.1406 770.1719,151.9531 Q769.8438,151.5781 769.2344,151.3594 Q768.625,151.1406 768,151.1406 Q767.2344,151.1406 766.5938,151.4688 Q765.9688,151.7969 765.4688,152.5469 Q764.9844,153.2969 764.9844,154.3281 L764.9844,155.4219 Q764.9844,156.6563 765.875,157.4844 Q766.7656,158.2969 768.3594,158.2969 Q769.2969,158.2969 769.9531,158.0469 Q770.3438,157.8906 770.7656,157.4531 Q771.0313,157.1875 771.1719,157.1094 Q771.3281,157.0313 771.5313,157.0313 Q771.8594,157.0313 772.1094,157.2969 Q772.375,157.5469 772.375,157.8906 Q772.375,158.2344 772.0313,158.6406 Q771.5313,159.2188 770.7344,159.5469 Q769.6563,160 768.3594,160 Q766.8438,160 765.6406,159.375 Q764.6563,158.875 763.9688,157.8125 Q763.2813,156.7344 763.2813,155.4531 L763.2813,154.2969 Q763.2813,152.9688 763.8906,151.8281 Q764.5156,150.6719 765.6094,150.0625 Q766.7031,149.4375 767.9375,149.4375 Q768.6719,149.4375 769.3125,149.6094 Q769.9688,149.7656 770.5156,150.125 Z " fill="#000000"/><text fill="#000000" font-family="sans-serif" font-size="14" lengthAdjust="spacing" textLength="24" x="788.25" y="159.9785">Slot</text><line style="stroke:#181818;stroke-width:0.5;" x1="637" x2="931" y1="170.25" y2="170.25"/><rect fill="none" height="6" style="stroke:#C82930;stroke-width:1.0;" width="6" x="644" y="181.5547"/><text fill="#000000" font-family="sans-serif" font-size="14" lengthAdjust="spacing" text-decoration="underline" textLength="52" x="656" y="188.7832">SIZE: int</text><rect fill="none" height="6" style="stroke:#C82930;stroke-width:1.0;" width="6" x="644" y="199.1641"/><text fill="#000000" font-family="sans-serif" font-size="14" lengthAdjust="spacing" text-decoration="underline" textLength="108" x="656" y="206.3926">emptySlot: Image</text><rect fill="none" height="6" style="stroke:#C82930;stroke-width:1.0;" width="6" x="644" y="216.7734"/><text fill="#000000" font-family="sans-serif" font-size="14" lengthAdjust="spacing" text-decoration="underline" textLength="101" x="656" y="224.002">usedSlot: Image</text><rect fill="none" height="6" style="stroke:#C82930;stroke-width:1.0;" width="6" x="644" y="234.3828"/><text fill="#000000" font-family="sans-serif" font-size="14" lengthAdjust="spacing" textLength="173" x="656" y="241.6113">slotBackground: ImageView</text><rect fill="none" height="6" style="stroke:#C82930;stroke-width:1.0;" width="6" x="644" y="251.9922"/><text fill="#000000" font-family="sans-serif" font-size="14" lengthAdjust="spacing" textLength="174" x="656" y="259.2207">selectAnimation: ImageView</text><rect fill="none" height="6" style="stroke:#C82930;stroke-width:1.0;" width="6" x="644" y="269.6016"/><text fill="#000000" font-family="sans-serif" font-size="14" lengthAdjust="spacing" textLength="190" x="656" y="276.8301">upgradeAnimation: ImageView</text><rect fill="none" height="6" style="stroke:#C82930;stroke-width:1.0;" width="6" x="644" y="287.2109"/><text fill="#000000" font-family="sans-serif" font-size="14" lengthAdjust="spacing" textLength="98" x="656" y="294.4395">select: Timeline</text><rect fill="none" height="6" style="stroke:#C82930;stroke-width:1.0;" width="6" x="644" y="304.8203"/><text fill="#000000" font-family="sans-serif" font-size="14" lengthAdjust="spacing" textLength="114" x="656" y="312.0488">upgrade: Timeline</text><rect fill="none" height="6" style="stroke:#C82930;stroke-width:1.0;" width="6" x="644" y="322.4297"/><text fill="#000000" font-family="sans-serif" font-size="14" lengthAdjust="spacing" textLength="127" x="656" y="329.6582">isUnlocked: boolean</text><rect fill="none" height="6" style="stroke:#C82930;stroke-width:1.0;" width="6" x="644" y="340.0391"/><text fill="#000000" font-family="sans-serif" font-size="14" lengthAdjust="spacing" textLength="138" x="656" y="347.2676">isUnlockable: boolean</text><rect fill="none" height="6" style="stroke:#C82930;stroke-width:1.0;" width="6" x="644" y="357.6484"/><text fill="#000000" font-family="sans-serif" font-size="14" lengthAdjust="spacing" textLength="60" x="656" y="364.877">item: Item</text><line style="stroke:#181818;stroke-width:0.5;" x1="637" x2="931" y1="371.9531" y2="371.9531"/><ellipse cx="647" cy="386.2578" fill="#84BE84" rx="3" ry="3" style="stroke:#038048;stroke-width:1.0;"/><text fill="#000000" font-family="sans-serif" font-size="14" lengthAdjust="spacing" textLength="34" x="656" y="390.4863">Slot()</text><ellipse cx="647" cy="403.8672" fill="#84BE84" rx="3" ry="3" style="stroke:#038048;stroke-width:1.0;"/><text fill="#000000" font-family="sans-serif" font-size="14" lengthAdjust="spacing" textLength="86" x="656" y="408.0957">render(): void</text><ellipse cx="647" cy="421.4766" fill="#84BE84" rx="3" ry="3" style="stroke:#038048;stroke-width:1.0;"/><text fill="#000000" font-family="sans-serif" font-size="14" lengthAdjust="spacing" textLength="151" x="656" y="425.7051">highlightUpgrade(): void</text><ellipse cx="647" cy="439.0859" fill="#84BE84" rx="3" ry="3" style="stroke:#038048;stroke-width:1.0;"/><text fill="#000000" font-family="sans-serif" font-size="14" lengthAdjust="spacing" textLength="207" x="656" y="443.3145">removeUpgradeAnimation(): void</text><ellipse cx="647" cy="456.6953" fill="#84BE84" rx="3" ry="3" style="stroke:#038048;stroke-width:1.0;"/><text fill="#000000" font-family="sans-serif" font-size="14" lengthAdjust="spacing" textLength="128" x="656" y="460.9238">highlightRelic(): void</text><ellipse cx="647" cy="474.3047" fill="#84BE84" rx="3" ry="3" style="stroke:#038048;stroke-width:1.0;"/><text fill="#000000" font-family="sans-serif" font-size="14" lengthAdjust="spacing" textLength="97" x="656" y="478.5332">highlight(): void</text><ellipse cx="647" cy="491.9141" fill="#84BE84" rx="3" ry="3" style="stroke:#038048;stroke-width:1.0;"/><text fill="#000000" font-family="sans-serif" font-size="14" lengthAdjust="spacing" text-decoration="underline" textLength="139" x="656" y="496.1426">getEmptySlot(): Image</text><ellipse cx="647" cy="509.5234" fill="#84BE84" rx="3" ry="3" style="stroke:#038048;stroke-width:1.0;"/><text fill="#000000" font-family="sans-serif" font-size="14" lengthAdjust="spacing" text-decoration="underline" textLength="132" x="656" y="513.752">getUsedSlot(): Image</text><ellipse cx="647" cy="527.1328" fill="#84BE84" rx="3" ry="3" style="stroke:#038048;stroke-width:1.0;"/><text fill="#000000" font-family="sans-serif" font-size="14" lengthAdjust="spacing" textLength="137" x="656" y="531.3613">isUnlocked(): boolean</text><ellipse cx="647" cy="544.7422" fill="#84BE84" rx="3" ry="3" style="stroke:#038048;stroke-width:1.0;"/><text fill="#000000" font-family="sans-serif" font-size="14" lengthAdjust="spacing" textLength="248" x="656" y="548.9707">setUnlocked(isUnlocked: boolean): void</text><ellipse cx="647" cy="562.3516" fill="#84BE84" rx="3" ry="3" style="stroke:#038048;stroke-width:1.0;"/><text fill="#000000" font-family="sans-serif" font-size="14" lengthAdjust="spacing" textLength="90" x="656" y="566.5801">getItem(): Item</text><ellipse cx="647" cy="579.9609" fill="#84BE84" rx="3" ry="3" style="stroke:#038048;stroke-width:1.0;"/><text fill="#000000" font-family="sans-serif" font-size="14" lengthAdjust="spacing" textLength="149" x="656" y="584.1895">setItem(item: Item): void</text><ellipse cx="647" cy="597.5703" fill="#84BE84" rx="3" ry="3" style="stroke:#038048;stroke-width:1.0;"/><text fill="#000000" font-family="sans-serif" font-size="14" lengthAdjust="spacing" text-decoration="underline" textLength="79" x="656" y="601.7988">getSize(): int</text><ellipse cx="647" cy="615.1797" fill="#84BE84" rx="3" ry="3" style="stroke:#038048;stroke-width:1.0;"/><text fill="#000000" font-family="sans-serif" font-size="14" lengthAdjust="spacing" textLength="148" x="656" y="619.4082">isUnlockable(): boolean</text><ellipse cx="647" cy="632.7891" fill="#84BE84" rx="3" ry="3" style="stroke:#038048;stroke-width:1.0;"/><text fill="#000000" font-family="sans-serif" font-size="14" lengthAdjust="spacing" textLength="270" x="656" y="637.0176">setUnlockable(isUnlockable: boolean): void</text></g></a><!--reverse link VBox to Backpack--><g id="link_VBox_Backpack"><path codeLine="69" d="M119.05,391.25 C141.86,391.25 156.87,391.25 191.96,391.25 " fill="none" id="VBox-backto-Backpack" style="stroke:#181818;stroke-width:1.0;"/><polygon fill="none" points="101.05,391.25,119.05,397.25,119.05,385.25,101.05,391.25" style="stroke:#181818;stroke-width:1.0;"/></g><!--reverse link ReRenderable to Backpack--><g id="link_ReRenderable_Backpack"><path codeLine="70" d="M120.9343,173.2024 C143.2843,192.9324 159.99,207.67 191.9,235.83 " fill="none" id="ReRenderable-backto-Backpack" style="stroke:#181818;stroke-width:1.0;stroke-dasharray:7.0,7.0;"/><polygon fill="none" points="107.44,161.29,116.9635,177.7005,124.9051,168.7043,107.44,161.29" style="stroke:#181818;stroke-width:1.0;"/></g><!--reverse link StackPane to Slot--><g id="link_StackPane_Slot"><path codeLine="71" d="M436.9618,742.4996 C474.3718,738.3796 507.88,730.18 546,705.25 C578.87,683.75 608.92,656.07 635.78,626.07 " fill="none" id="StackPane-backto-Slot" style="stroke:#181818;stroke-width:1.0;"/><polygon fill="none" points="419.07,744.47,437.6186,748.4635,436.305,736.5356,419.07,744.47" style="stroke:#181818;stroke-width:1.0;"/></g><!--reverse link ReRenderable to Slot--><g id="link_ReRenderable_Slot"><path codeLine="72" d="M147.6234,89.3112 C166.6134,81.0112 171.47,80.44 192,76.25 C346.15,44.77 405.22,6 546,76.25 C579.37,92.9 609.28,116.75 635.68,143.96 " fill="none" id="ReRenderable-backto-Slot" style="stroke:#181818;stroke-width:1.0;stroke-dasharray:7.0,7.0;"/><polygon fill="none" points="131.13,96.52,150.0264,94.809,145.2205,83.8134,131.13,96.52" style="stroke:#181818;stroke-width:1.0;"/></g><!--link Backpack to Slot--><g id="link_Backpack_Slot"><path codeLine="73" d="M546.05,391.25 C575.99,391.25 600.82,391.25 629.92,391.25 " fill="none" id="Backpack-to-Slot" style="stroke:#181818;stroke-width:1.0;"/><polygon fill="#181818" points="635.92,391.25,626.92,387.25,630.92,391.25,626.92,395.25,635.92,391.25" style="stroke:#181818;stroke-width:1.0;"/><text fill="#000000" font-family="sans-serif" font-size="13" lengthAdjust="spacing" textLength="28" x="577" y="387.7451">slots</text><text fill="#000000" font-family="sans-serif" font-size="13" lengthAdjust="spacing" textLength="5" x="623.1557" y="405.1707">*</text></g><!--link Slot to Item--><g id="link_Slot_Item"><path codeLine="74" d="M932.36,391.25 C965.32,391.25 990.9,391.25 1012.62,391.25 " fill="none" id="Slot-to-Item" style="stroke:#181818;stroke-width:1.0;"/><polygon fill="#181818" points="1018.62,391.25,1009.62,387.25,1013.62,391.25,1009.62,395.25,1018.62,391.25" style="stroke:#181818;stroke-width:1.0;"/><text fill="#000000" font-family="sans-serif" font-size="13" lengthAdjust="spacing" textLength="25" x="963" y="387.7451">item</text><text fill="#000000" font-family="sans-serif" font-size="13" lengthAdjust="spacing" textLength="7" x="1003.9009" y="406.6358">1</text></g><!--SRC=[bLLDJ-Cm43qtlyBYLBQaqbuZX0HQ194ue7wm7rKFRZ84W-DKiLDWWV-EnuvZfmtIxW7gp9iPFy-yiJdSAw8gKhFYGP6SrP0fLec82GNrFSs0p6068eUQRZYGrUgHxcZIeN8QmkirUOj6jVaU7oTaLx4y-eWoJgKaTnVL2tbpNtD5iwTRAW1DT2DLJJD5B9OgABtdXNRSwZ-tTq5Bc6vQuzIXTkluJIggMFP1cD0haK7InKUZIOV-J7yihXFjf4BhzMLwTRrepR7abP89cUkVrNgrrfQYPZbIJiXLkz96VTX5KukBHgbAQ4IpiskDEPO9IKjQm1s3Pstbi0FUR1EogIeE51qRmQli2V8RtGr7o_4U7-iFbsa6als5hhQZoLwnHnCcRxbk3BPZZ8H_cNmd1DU_spNJ1KvCcOy35XD3RBdroM8cp_D7dKseyKiR-sf-Ut7tJ33viDmMDSr3RbiaWhlyBv4QV6Z5yxJpEY42djCmg2Ng_R5jjcjxwLjI1IZNFQJgEwbtBQkTJJ8K-80Jml7Vlnt7xuU6sqeo7An-wlEwfgytJAfJXv_P4EGlaP-NdzSffcpbZIw1m9cyiU8Qz-efGJdxllWyqIwz3D8VZb7lPCj0jxYbLQxS0mxKtSjn6GwGQOaVeUwsq5KOddz4zcT_dlwvT5FS6Q7SgjUv4OSPnX1h9EHz25M49oxggX5vVtubS7r9dWjMKknO7spi57o1sj24B5W9d9dxemtesPXqzGil2MV5qUxPEqNfWk8np8rnS36WVery3mVLAd-vHtqeTgOfPaF0U418s5nNTSJRulOSbctfGzmV_q367J1GeeEPCpbjMMHh6PhGaCwylLsjaCEAVq75G8ETyU-VUVbEt-FOZshlKJrzdquzv5z64uB56N0tvkvfZECpSlJjoCv9GipJ5PaFWtm_iczgOcwew1C0]--></g></svg>