<svg xmlns="http://www.w3.org/2000/svg" xmlns:xlink="http://www.w3.org/1999/xlink" contentStyleType="text/css" data-diagram-type="CLASS" height="649px" preserveAspectRatio="none" style="width:1811px;height:649px;background:#FFFFFF;" version="1.1" viewBox="0 0 1811 649" width="1811px" zoomAndPan="magnify"><defs/><g><!--class Application--><g class="entity" data-entity="Application" data-source-line="1" data-uid="ent0002" id="entity_Application"><rect fill="#F1F1F1" height="48" rx="2.5" ry="2.5" style="stroke:#181818;stroke-width:0.5;" width="110.2236" x="569.77" y="7"/><ellipse cx="584.77" cy="23" fill="#ADD1B2" rx="11" ry="11" style="stroke:#181818;stroke-width:1;"/><path d="M587.7388,28.6406 Q587.1606,28.9375 586.52,29.0781 Q585.8794,29.2344 585.1763,29.2344 Q582.6763,29.2344 581.3481,27.5938 Q580.0356,25.9375 580.0356,22.8125 Q580.0356,19.6875 581.3481,18.0313 Q582.6763,16.375 585.1763,16.375 Q585.8794,16.375 586.52,16.5313 Q587.1763,16.6875 587.7388,16.9844 L587.7388,19.7031 Q587.1138,19.125 586.52,18.8594 Q585.9263,18.5781 585.3013,18.5781 Q583.9575,18.5781 583.27,19.6563 Q582.5825,20.7188 582.5825,22.8125 Q582.5825,24.9063 583.27,25.9844 Q583.9575,27.0469 585.3013,27.0469 Q585.9263,27.0469 586.52,26.7813 Q587.1138,26.5 587.7388,25.9219 L587.7388,28.6406 Z " fill="#000000"/><text fill="#000000" font-family="sans-serif" font-size="14" lengthAdjust="spacing" textLength="78.2236" x="598.77" y="27.8467">Application</text><line style="stroke:#181818;stroke-width:0.5;" x1="570.77" x2="678.9936" y1="39" y2="39"/><line style="stroke:#181818;stroke-width:0.5;" x1="570.77" x2="678.9936" y1="47" y2="47"/></g><!--class BorderPane--><g class="entity" data-entity="BorderPane" data-source-line="2" data-uid="ent0003" id="entity_BorderPane"><rect fill="#F1F1F1" height="48" rx="2.5" ry="2.5" style="stroke:#181818;stroke-width:0.5;" width="113.6895" x="1297.04" y="7"/><ellipse cx="1312.04" cy="23" fill="#ADD1B2" rx="11" ry="11" style="stroke:#181818;stroke-width:1;"/><path d="M1315.0088,28.6406 Q1314.4306,28.9375 1313.79,29.0781 Q1313.1494,29.2344 1312.4463,29.2344 Q1309.9463,29.2344 1308.6181,27.5938 Q1307.3056,25.9375 1307.3056,22.8125 Q1307.3056,19.6875 1308.6181,18.0313 Q1309.9463,16.375 1312.4463,16.375 Q1313.1494,16.375 1313.79,16.5313 Q1314.4463,16.6875 1315.0088,16.9844 L1315.0088,19.7031 Q1314.3838,19.125 1313.79,18.8594 Q1313.1963,18.5781 1312.5713,18.5781 Q1311.2275,18.5781 1310.54,19.6563 Q1309.8525,20.7188 1309.8525,22.8125 Q1309.8525,24.9063 1310.54,25.9844 Q1311.2275,27.0469 1312.5713,27.0469 Q1313.1963,27.0469 1313.79,26.7813 Q1314.3838,26.5 1315.0088,25.9219 L1315.0088,28.6406 Z " fill="#000000"/><text fill="#000000" font-family="sans-serif" font-size="14" lengthAdjust="spacing" textLength="81.6895" x="1326.04" y="27.8467">BorderPane</text><line style="stroke:#181818;stroke-width:0.5;" x1="1298.04" x2="1409.7295" y1="39" y2="39"/><line style="stroke:#181818;stroke-width:0.5;" x1="1298.04" x2="1409.7295" y1="47" y2="47"/></g><!--class Main--><a href="java:application.Main" target="_top" title="java:application.Main" xlink:actuate="onRequest" xlink:href="java:application.Main" xlink:show="new" xlink:title="java:application.Main" xlink:type="simple"><g class="entity" data-entity="Main" data-source-line="4" data-uid="ent0004" id="entity_Main"><rect fill="#F1F1F1" height="145.7813" rx="2.5" ry="2.5" style="stroke:#181818;stroke-width:0.5;" width="253.1924" x="498.28" y="124.15"/><ellipse cx="603.9157" cy="140.15" fill="#ADD1B2" rx="11" ry="11" style="stroke:#181818;stroke-width:1;"/><path d="M606.8845,145.7906 Q606.3064,146.0875 605.6657,146.2281 Q605.0251,146.3844 604.322,146.3844 Q601.822,146.3844 600.4939,144.7438 Q599.1814,143.0875 599.1814,139.9625 Q599.1814,136.8375 600.4939,135.1813 Q601.822,133.525 604.322,133.525 Q605.0251,133.525 605.6657,133.6813 Q606.322,133.8375 606.8845,134.1344 L606.8845,136.8531 Q606.2595,136.275 605.6657,136.0094 Q605.072,135.7281 604.447,135.7281 Q603.1032,135.7281 602.4157,136.8063 Q601.7282,137.8688 601.7282,139.9625 Q601.7282,142.0563 602.4157,143.1344 Q603.1032,144.1969 604.447,144.1969 Q605.072,144.1969 605.6657,143.9313 Q606.2595,143.65 606.8845,143.0719 L606.8845,145.7906 Z " fill="#000000"/><text fill="#000000" font-family="sans-serif" font-size="14" lengthAdjust="spacing" textLength="33.4209" x="624.4157" y="144.9967">Main</text><line style="stroke:#181818;stroke-width:0.5;" x1="499.28" x2="750.4724" y1="156.15" y2="156.15"/><ellipse cx="509.28" cy="169.7984" fill="none" rx="3" ry="3" style="stroke:#038048;stroke-width:1;"/><text fill="#000000" font-family="sans-serif" font-size="14" lengthAdjust="spacing" text-decoration="underline" textLength="110.8105" x="518.28" y="173.1451">root: StackPane</text><ellipse cx="509.28" cy="186.0953" fill="none" rx="3" ry="3" style="stroke:#038048;stroke-width:1;"/><text fill="#000000" font-family="sans-serif" font-size="14" lengthAdjust="spacing" text-decoration="underline" textLength="181.9521" x="518.28" y="189.442">mediaPlayer: MediaPlayer</text><ellipse cx="509.28" cy="202.3922" fill="none" rx="3" ry="3" style="stroke:#038048;stroke-width:1;"/><text fill="#000000" font-family="sans-serif" font-size="14" lengthAdjust="spacing" text-decoration="underline" textLength="88.4844" x="518.28" y="205.7389">stage: Stage</text><line style="stroke:#181818;stroke-width:0.5;" x1="499.28" x2="750.4724" y1="213.0406" y2="213.0406"/><ellipse cx="509.28" cy="226.6891" fill="#84BE84" rx="3" ry="3" style="stroke:#038048;stroke-width:1;"/><text fill="#000000" font-family="sans-serif" font-size="14" lengthAdjust="spacing" textLength="227.1924" x="518.28" y="230.0357">start(primaryStage: Stage): void</text><ellipse cx="509.28" cy="242.9859" fill="#84BE84" rx="3" ry="3" style="stroke:#038048;stroke-width:1;"/><text fill="#000000" font-family="sans-serif" font-size="14" lengthAdjust="spacing" textLength="79.9531" x="518.28" y="246.3326">stop(): void</text><ellipse cx="509.28" cy="259.2828" fill="#84BE84" rx="3" ry="3" style="stroke:#038048;stroke-width:1;"/><text fill="#000000" font-family="sans-serif" font-size="14" lengthAdjust="spacing" text-decoration="underline" textLength="177.085" x="518.28" y="262.6295">main(args: String[]): void</text></g></a><!--class Fader--><a href="java:application.Fader" target="_top" title="java:application.Fader" xlink:actuate="onRequest" xlink:href="java:application.Fader" xlink:show="new" xlink:title="java:application.Fader" xlink:type="simple"><g class="entity" data-entity="Fader" data-source-line="12" data-uid="ent0005" id="entity_Fader"><rect fill="#F1F1F1" height="162.0781" rx="2.5" ry="2.5" style="stroke:#181818;stroke-width:0.5;" width="225.7666" x="238" y="116"/><ellipse cx="326.6895" cy="132" fill="#ADD1B2" rx="11" ry="11" style="stroke:#181818;stroke-width:1;"/><path d="M329.6582,137.6406 Q329.0801,137.9375 328.4395,138.0781 Q327.7988,138.2344 327.0957,138.2344 Q324.5957,138.2344 323.2676,136.5938 Q321.9551,134.9375 321.9551,131.8125 Q321.9551,128.6875 323.2676,127.0313 Q324.5957,125.375 327.0957,125.375 Q327.7988,125.375 328.4395,125.5313 Q329.0957,125.6875 329.6582,125.9844 L329.6582,128.7031 Q329.0332,128.125 328.4395,127.8594 Q327.8457,127.5781 327.2207,127.5781 Q325.877,127.5781 325.1895,128.6563 Q324.502,129.7188 324.502,131.8125 Q324.502,133.9063 325.1895,134.9844 Q325.877,136.0469 327.2207,136.0469 Q327.8457,136.0469 328.4395,135.7813 Q329.0332,135.5 329.6582,134.9219 L329.6582,137.6406 Z " fill="#000000"/><text fill="#000000" font-family="sans-serif" font-size="14" lengthAdjust="spacing" textLength="39.8877" x="347.1895" y="136.8467">Fader</text><line style="stroke:#181818;stroke-width:0.5;" x1="239" x2="462.7666" y1="148" y2="148"/><rect fill="none" height="6" style="stroke:#C82930;stroke-width:1;" width="6" x="246" y="158.6484"/><text fill="#000000" font-family="sans-serif" font-size="14" lengthAdjust="spacing" text-decoration="underline" textLength="165.1357" x="258" y="164.9951">blackScreen: Rectangle</text><rect fill="none" height="6" style="stroke:#C82930;stroke-width:1;" width="6" x="246" y="174.9453"/><text fill="#000000" font-family="sans-serif" font-size="14" lengthAdjust="spacing" text-decoration="underline" textLength="139.624" x="258" y="181.292">blackout: Rectangle</text><rect fill="none" height="6" style="stroke:#C82930;stroke-width:1;" width="6" x="246" y="191.2422"/><text fill="#000000" font-family="sans-serif" font-size="14" lengthAdjust="spacing" text-decoration="underline" textLength="92.9414" x="258" y="197.5889">scene: Scene</text><line style="stroke:#181818;stroke-width:0.5;" x1="239" x2="462.7666" y1="204.8906" y2="204.8906"/><ellipse cx="249" cy="218.5391" fill="#84BE84" rx="3" ry="3" style="stroke:#038048;stroke-width:1;"/><text fill="#000000" font-family="sans-serif" font-size="14" lengthAdjust="spacing" text-decoration="underline" textLength="196.5537" x="258" y="221.8857">initialize(stage: Stage): void</text><ellipse cx="249" cy="234.8359" fill="#84BE84" rx="3" ry="3" style="stroke:#038048;stroke-width:1;"/><text fill="#000000" font-family="sans-serif" font-size="14" lengthAdjust="spacing" text-decoration="underline" textLength="146.4463" x="258" y="238.1826">fadeOutAndIn(): void</text><ellipse cx="249" cy="251.1328" fill="#84BE84" rx="3" ry="3" style="stroke:#038048;stroke-width:1;"/><text fill="#000000" font-family="sans-serif" font-size="14" lengthAdjust="spacing" text-decoration="underline" textLength="174.2549" x="258" y="254.4795">getBlackout(): Rectangle</text><ellipse cx="249" cy="267.4297" fill="#84BE84" rx="3" ry="3" style="stroke:#038048;stroke-width:1;"/><text fill="#000000" font-family="sans-serif" font-size="14" lengthAdjust="spacing" text-decoration="underline" textLength="199.7666" x="258" y="270.7764">getBlackScreen(): Rectangle</text></g></a><!--class MenuScene--><a href="java:scene.MenuScene" target="_top" title="java:scene.MenuScene" xlink:actuate="onRequest" xlink:href="java:scene.MenuScene" xlink:show="new" xlink:title="java:scene.MenuScene" xlink:type="simple"><g class="entity" data-entity="MenuScene" data-source-line="24" data-uid="ent0007" id="entity_MenuScene"><rect fill="#F1F1F1" height="162.0781" rx="2.5" ry="2.5" style="stroke:#181818;stroke-width:0.5;" width="373.7578" x="7" y="347.22"/><ellipse cx="149.0679" cy="363.22" fill="#ADD1B2" rx="11" ry="11" style="stroke:#181818;stroke-width:1;"/><path d="M152.0366,368.8606 Q151.4585,369.1575 150.8179,369.2981 Q150.1772,369.4544 149.4741,369.4544 Q146.9741,369.4544 145.646,367.8138 Q144.3335,366.1575 144.3335,363.0325 Q144.3335,359.9075 145.646,358.2513 Q146.9741,356.595 149.4741,356.595 Q150.1772,356.595 150.8179,356.7513 Q151.4741,356.9075 152.0366,357.2044 L152.0366,359.9231 Q151.4116,359.345 150.8179,359.0794 Q150.2241,358.7981 149.5991,358.7981 Q148.2554,358.7981 147.5679,359.8763 Q146.8804,360.9388 146.8804,363.0325 Q146.8804,365.1263 147.5679,366.2044 Q148.2554,367.2669 149.5991,367.2669 Q150.2241,367.2669 150.8179,367.0013 Q151.4116,366.72 152.0366,366.1419 L152.0366,368.8606 Z " fill="#000000"/><text fill="#000000" font-family="sans-serif" font-size="14" lengthAdjust="spacing" textLength="81.1221" x="169.5679" y="368.0667">MenuScene</text><line style="stroke:#181818;stroke-width:0.5;" x1="8" x2="379.7578" y1="379.22" y2="379.22"/><rect fill="none" height="6" style="stroke:#C82930;stroke-width:1;" width="6" x="15" y="389.8684"/><text fill="#000000" font-family="sans-serif" font-size="14" lengthAdjust="spacing" text-decoration="underline" textLength="183.2646" x="27" y="396.2151">hasGameStarted: boolean</text><rect fill="none" height="6" style="stroke:#C82930;stroke-width:1;" width="6" x="15" y="406.1653"/><text fill="#000000" font-family="sans-serif" font-size="14" lengthAdjust="spacing" text-decoration="underline" textLength="170.4473" x="27" y="412.512">isInMenuScene: boolean</text><line style="stroke:#181818;stroke-width:0.5;" x1="8" x2="379.7578" y1="419.8138" y2="419.8138"/><ellipse cx="18" cy="433.4622" fill="#84BE84" rx="3" ry="3" style="stroke:#038048;stroke-width:1;"/><text fill="#000000" font-family="sans-serif" font-size="14" lengthAdjust="spacing" text-decoration="underline" textLength="74.498" x="27" y="436.8089">use(): void</text><ellipse cx="18" cy="449.7591" fill="#84BE84" rx="3" ry="3" style="stroke:#038048;stroke-width:1;"/><text fill="#000000" font-family="sans-serif" font-size="14" lengthAdjust="spacing" text-decoration="underline" textLength="194.1885" x="27" y="453.1057">hasGameStarted(): boolean</text><ellipse cx="18" cy="466.0559" fill="#84BE84" rx="3" ry="3" style="stroke:#038048;stroke-width:1;"/><text fill="#000000" font-family="sans-serif" font-size="14" lengthAdjust="spacing" text-decoration="underline" textLength="347.7578" x="27" y="469.4026">setGameStarted(hasGameStarted: boolean): void</text><ellipse cx="18" cy="482.3528" fill="#84BE84" rx="3" ry="3" style="stroke:#038048;stroke-width:1;"/><text fill="#000000" font-family="sans-serif" font-size="14" lengthAdjust="spacing" text-decoration="underline" textLength="181.3711" x="27" y="485.6995">isInMenuScene(): boolean</text><ellipse cx="18" cy="498.6497" fill="#84BE84" rx="3" ry="3" style="stroke:#038048;stroke-width:1;"/><text fill="#000000" font-family="sans-serif" font-size="14" lengthAdjust="spacing" text-decoration="underline" textLength="335.6855" x="27" y="501.9964">setInMenuScene(isInMenuScene: boolean): void</text></g></a><!--class GameScene--><a href="java:scene.GameScene" target="_top" title="java:scene.GameScene" xlink:actuate="onRequest" xlink:href="java:scene.GameScene" xlink:show="new" xlink:title="java:scene.GameScene" xlink:type="simple"><g class="entity" data-entity="GameScene" data-source-line="33" data-uid="ent0008" id="entity_GameScene"><rect fill="#F1F1F1" height="64.2969" rx="2.5" ry="2.5" style="stroke:#181818;stroke-width:0.5;" width="116.3623" x="415.7" y="396.11"/><ellipse cx="430.7" cy="412.11" fill="#ADD1B2" rx="11" ry="11" style="stroke:#181818;stroke-width:1;"/><path d="M433.6688,417.7506 Q433.0906,418.0475 432.45,418.1881 Q431.8094,418.3444 431.1063,418.3444 Q428.6063,418.3444 427.2781,416.7038 Q425.9656,415.0475 425.9656,411.9225 Q425.9656,408.7975 427.2781,407.1413 Q428.6063,405.485 431.1063,405.485 Q431.8094,405.485 432.45,405.6413 Q433.1063,405.7975 433.6688,406.0944 L433.6688,408.8131 Q433.0438,408.235 432.45,407.9694 Q431.8563,407.6881 431.2313,407.6881 Q429.8875,407.6881 429.2,408.7663 Q428.5125,409.8288 428.5125,411.9225 Q428.5125,414.0163 429.2,415.0944 Q429.8875,416.1569 431.2313,416.1569 Q431.8563,416.1569 432.45,415.8913 Q433.0438,415.61 433.6688,415.0319 L433.6688,417.7506 Z " fill="#000000"/><text fill="#000000" font-family="sans-serif" font-size="14" lengthAdjust="spacing" textLength="84.3623" x="444.7" y="416.9567">GameScene</text><line style="stroke:#181818;stroke-width:0.5;" x1="416.7" x2="531.0623" y1="428.11" y2="428.11"/><line style="stroke:#181818;stroke-width:0.5;" x1="416.7" x2="531.0623" y1="436.11" y2="436.11"/><ellipse cx="426.7" cy="449.7584" fill="#84BE84" rx="3" ry="3" style="stroke:#038048;stroke-width:1;"/><text fill="#000000" font-family="sans-serif" font-size="14" lengthAdjust="spacing" text-decoration="underline" textLength="74.498" x="435.7" y="453.1051">use(): void</text></g></a><!--class CharacterScene--><a href="java:scene.CharacterScene" target="_top" title="java:scene.CharacterScene" xlink:actuate="onRequest" xlink:href="java:scene.CharacterScene" xlink:show="new" xlink:title="java:scene.CharacterScene" xlink:type="simple"><g class="entity" data-entity="CharacterScene" data-source-line="36" data-uid="ent0009" id="entity_CharacterScene"><rect fill="#F1F1F1" height="64.2969" rx="2.5" ry="2.5" style="stroke:#181818;stroke-width:0.5;" width="143.8018" x="566.98" y="396.11"/><ellipse cx="581.98" cy="412.11" fill="#ADD1B2" rx="11" ry="11" style="stroke:#181818;stroke-width:1;"/><path d="M584.9488,417.7506 Q584.3706,418.0475 583.73,418.1881 Q583.0894,418.3444 582.3863,418.3444 Q579.8863,418.3444 578.5581,416.7038 Q577.2456,415.0475 577.2456,411.9225 Q577.2456,408.7975 578.5581,407.1413 Q579.8863,405.485 582.3863,405.485 Q583.0894,405.485 583.73,405.6413 Q584.3863,405.7975 584.9488,406.0944 L584.9488,408.8131 Q584.3238,408.235 583.73,407.9694 Q583.1363,407.6881 582.5113,407.6881 Q581.1675,407.6881 580.48,408.7663 Q579.7925,409.8288 579.7925,411.9225 Q579.7925,414.0163 580.48,415.0944 Q581.1675,416.1569 582.5113,416.1569 Q583.1363,416.1569 583.73,415.8913 Q584.3238,415.61 584.9488,415.0319 L584.9488,417.7506 Z " fill="#000000"/><text fill="#000000" font-family="sans-serif" font-size="14" lengthAdjust="spacing" textLength="111.8018" x="595.98" y="416.9567">CharacterScene</text><line style="stroke:#181818;stroke-width:0.5;" x1="567.98" x2="709.7818" y1="428.11" y2="428.11"/><line style="stroke:#181818;stroke-width:0.5;" x1="567.98" x2="709.7818" y1="436.11" y2="436.11"/><ellipse cx="577.98" cy="449.7584" fill="#84BE84" rx="3" ry="3" style="stroke:#038048;stroke-width:1;"/><text fill="#000000" font-family="sans-serif" font-size="14" lengthAdjust="spacing" text-decoration="underline" textLength="81.8535" x="586.98" y="453.1051">use(): HBox</text></g></a><!--class Popup--><a href="java:scene.popup.Popup" target="_top" title="java:scene.popup.Popup" xlink:actuate="onRequest" xlink:href="java:scene.popup.Popup" xlink:show="new" xlink:title="java:scene.popup.Popup" xlink:type="simple"><g class="entity" data-entity="Popup" data-source-line="40" data-uid="ent0010" id="entity_Popup"><rect fill="#F1F1F1" height="145.7813" rx="2.5" ry="2.5" style="stroke:#181818;stroke-width:0.5;" width="201.4102" x="1253.17" y="124.15"/><ellipse cx="1327.7979" cy="140.15" fill="#ADD1B2" rx="11" ry="11" style="stroke:#181818;stroke-width:1;"/><path d="M1330.7667,145.7906 Q1330.1886,146.0875 1329.5479,146.2281 Q1328.9073,146.3844 1328.2042,146.3844 Q1325.7042,146.3844 1324.3761,144.7438 Q1323.0636,143.0875 1323.0636,139.9625 Q1323.0636,136.8375 1324.3761,135.1813 Q1325.7042,133.525 1328.2042,133.525 Q1328.9073,133.525 1329.5479,133.6813 Q1330.2042,133.8375 1330.7667,134.1344 L1330.7667,136.8531 Q1330.1417,136.275 1329.5479,136.0094 Q1328.9542,135.7281 1328.3292,135.7281 Q1326.9854,135.7281 1326.2979,136.8063 Q1325.6104,137.8688 1325.6104,139.9625 Q1325.6104,142.0563 1326.2979,143.1344 Q1326.9854,144.1969 1328.3292,144.1969 Q1328.9542,144.1969 1329.5479,143.9313 Q1330.1417,143.65 1330.7667,143.0719 L1330.7667,145.7906 Z " fill="#000000"/><text fill="#000000" font-family="sans-serif" font-size="14" lengthAdjust="spacing" textLength="43.6543" x="1348.2979" y="144.9967">Popup</text><line style="stroke:#181818;stroke-width:0.5;" x1="1254.17" x2="1453.5802" y1="156.15" y2="156.15"/><rect fill="none" height="6" style="stroke:#C82930;stroke-width:1;" width="6" x="1261.17" y="166.7984"/><text fill="#000000" font-family="sans-serif" font-size="14" lengthAdjust="spacing" text-decoration="underline" textLength="138.373" x="1273.17" y="173.1451">frameImage: Image</text><polygon fill="none" points="1264.17,181.0953,1268.17,185.0953,1264.17,189.0953,1260.17,185.0953" style="stroke:#B38D22;stroke-width:1;"/><text fill="#000000" font-family="sans-serif" font-size="14" lengthAdjust="spacing" textLength="123.2383" x="1273.17" y="189.442">bottomBox: HBox</text><line style="stroke:#181818;stroke-width:0.5;" x1="1254.17" x2="1453.5802" y1="196.7438" y2="196.7438"/><ellipse cx="1264.17" cy="210.3922" fill="#84BE84" rx="3" ry="3" style="stroke:#038048;stroke-width:1;"/><text fill="#000000" font-family="sans-serif" font-size="14" lengthAdjust="spacing" textLength="132.8975" x="1273.17" y="213.7389">Popup(title: String)</text><ellipse cx="1264.17" cy="226.6891" fill="#84BE84" rx="3" ry="3" style="stroke:#038048;stroke-width:1;"/><text fill="#000000" font-family="sans-serif" font-size="14" lengthAdjust="spacing" textLength="85.9004" x="1273.17" y="230.0357">show(): void</text><ellipse cx="1264.17" cy="242.9859" fill="#84BE84" rx="3" ry="3" style="stroke:#038048;stroke-width:1;"/><text fill="#000000" font-family="sans-serif" font-size="14" lengthAdjust="spacing" textLength="79.9805" x="1273.17" y="246.3326">hide(): void</text><rect fill="#F24D5C" height="6" style="stroke:#C82930;stroke-width:1;" width="6" x="1261.17" y="256.2828"/><text fill="#000000" font-family="sans-serif" font-size="14" lengthAdjust="spacing" text-decoration="underline" textLength="175.4102" x="1273.17" y="262.6295">getFrameImage(): Image</text></g></a><!--class CharacterPopup--><a href="java:scene.popup.CharacterPopup" target="_top" title="java:scene.popup.CharacterPopup" xlink:actuate="onRequest" xlink:href="java:scene.popup.CharacterPopup" xlink:show="new" xlink:title="java:scene.popup.CharacterPopup" xlink:type="simple"><g class="entity" data-entity="CharacterPopup" data-source-line="48" data-uid="ent0011" id="entity_CharacterPopup"><rect fill="#F1F1F1" height="96.8906" rx="2.5" ry="2.5" style="stroke:#181818;stroke-width:0.5;" width="241.4004" x="746.18" y="379.82"/><ellipse cx="806.244" cy="395.82" fill="#ADD1B2" rx="11" ry="11" style="stroke:#181818;stroke-width:1;"/><path d="M809.2127,401.4606 Q808.6346,401.7575 807.994,401.8981 Q807.3533,402.0544 806.6502,402.0544 Q804.1502,402.0544 802.8221,400.4138 Q801.5096,398.7575 801.5096,395.6325 Q801.5096,392.5075 802.8221,390.8513 Q804.1502,389.195 806.6502,389.195 Q807.3533,389.195 807.994,389.3513 Q808.6502,389.5075 809.2127,389.8044 L809.2127,392.5231 Q808.5877,391.945 807.994,391.6794 Q807.4002,391.3981 806.7752,391.3981 Q805.4315,391.3981 804.744,392.4763 Q804.0565,393.5388 804.0565,395.6325 Q804.0565,397.7263 804.744,398.8044 Q805.4315,399.8669 806.7752,399.8669 Q807.4002,399.8669 807.994,399.6013 Q808.5877,399.32 809.2127,398.7419 L809.2127,401.4606 Z " fill="#000000"/><text fill="#000000" font-family="sans-serif" font-size="14" lengthAdjust="spacing" textLength="112.7725" x="826.744" y="400.6667">CharacterPopup</text><line style="stroke:#181818;stroke-width:0.5;" x1="747.18" x2="986.5804" y1="411.82" y2="411.82"/><rect fill="none" height="6" style="stroke:#C82930;stroke-width:1;" width="6" x="754.18" y="422.4684"/><text fill="#000000" font-family="sans-serif" font-size="14" lengthAdjust="spacing" text-decoration="underline" textLength="181.248" x="766.18" y="428.8151">instance: CharacterPopup</text><line style="stroke:#181818;stroke-width:0.5;" x1="747.18" x2="986.5804" y1="436.1169" y2="436.1169"/><ellipse cx="757.18" cy="449.7653" fill="#84BE84" rx="3" ry="3" style="stroke:#038048;stroke-width:1;"/><text fill="#000000" font-family="sans-serif" font-size="14" lengthAdjust="spacing" textLength="123.6963" x="766.18" y="453.112">CharacterPopup()</text><ellipse cx="757.18" cy="466.0622" fill="#84BE84" rx="3" ry="3" style="stroke:#038048;stroke-width:1;"/><text fill="#000000" font-family="sans-serif" font-size="14" lengthAdjust="spacing" text-decoration="underline" textLength="215.4004" x="766.18" y="469.4089">getInstance(): CharacterPopup</text></g></a><!--class SettingPopup--><a href="java:scene.popup.SettingPopup" target="_top" title="java:scene.popup.SettingPopup" xlink:actuate="onRequest" xlink:href="java:scene.popup.SettingPopup" xlink:show="new" xlink:title="java:scene.popup.SettingPopup" xlink:type="simple"><g class="entity" data-entity="SettingPopup" data-source-line="53" data-uid="ent0012" id="entity_SettingPopup"><rect fill="#F1F1F1" height="178.375" rx="2.5" ry="2.5" style="stroke:#181818;stroke-width:0.5;" width="243.3691" x="1022.2" y="339.07"/><ellipse cx="1092.7435" cy="355.07" fill="#ADD1B2" rx="11" ry="11" style="stroke:#181818;stroke-width:1;"/><path d="M1095.7122,360.7106 Q1095.1341,361.0075 1094.4935,361.1481 Q1093.8528,361.3044 1093.1497,361.3044 Q1090.6497,361.3044 1089.3216,359.6638 Q1088.0091,358.0075 1088.0091,354.8825 Q1088.0091,351.7575 1089.3216,350.1013 Q1090.6497,348.445 1093.1497,348.445 Q1093.8528,348.445 1094.4935,348.6013 Q1095.1497,348.7575 1095.7122,349.0544 L1095.7122,351.7731 Q1095.0872,351.195 1094.4935,350.9294 Q1093.8997,350.6481 1093.2747,350.6481 Q1091.931,350.6481 1091.2435,351.7263 Q1090.556,352.7888 1090.556,354.8825 Q1090.556,356.9763 1091.2435,358.0544 Q1091.931,359.1169 1093.2747,359.1169 Q1093.8997,359.1169 1094.4935,358.8513 Q1095.0872,358.57 1095.7122,357.9919 L1095.7122,360.7106 Z " fill="#000000"/><text fill="#000000" font-family="sans-serif" font-size="14" lengthAdjust="spacing" textLength="93.7822" x="1113.2435" y="359.9167">SettingPopup</text><line style="stroke:#181818;stroke-width:0.5;" x1="1023.2" x2="1264.5691" y1="371.07" y2="371.07"/><rect fill="none" height="6" style="stroke:#C82930;stroke-width:1;" width="6" x="1030.2" y="381.7184"/><text fill="#000000" font-family="sans-serif" font-size="14" lengthAdjust="spacing" text-decoration="underline" textLength="162.2578" x="1042.2" y="388.0651">instance: SettingPopup</text><rect fill="none" height="6" style="stroke:#C82930;stroke-width:1;" width="6" x="1030.2" y="398.0153"/><text fill="#000000" font-family="sans-serif" font-size="14" lengthAdjust="spacing" textLength="183.5586" x="1042.2" y="404.362">musicSlider: VolumeSlider</text><rect fill="none" height="6" style="stroke:#C82930;stroke-width:1;" width="6" x="1030.2" y="414.3122"/><text fill="#000000" font-family="sans-serif" font-size="14" lengthAdjust="spacing" textLength="162.6748" x="1042.2" y="420.6589">sfxSlider: VolumeSlider</text><line style="stroke:#181818;stroke-width:0.5;" x1="1023.2" x2="1264.5691" y1="427.9606" y2="427.9606"/><ellipse cx="1033.2" cy="441.6091" fill="#84BE84" rx="3" ry="3" style="stroke:#038048;stroke-width:1;"/><text fill="#000000" font-family="sans-serif" font-size="14" lengthAdjust="spacing" textLength="104.7061" x="1042.2" y="444.9557">SettingPopup()</text><rect fill="#F24D5C" height="6" style="stroke:#C82930;stroke-width:1;" width="6" x="1030.2" y="454.9059"/><text fill="#000000" font-family="sans-serif" font-size="14" lengthAdjust="spacing" textLength="217.3691" x="1042.2" y="461.2526">createText(name: String): Text</text><ellipse cx="1033.2" cy="474.2028" fill="#84BE84" rx="3" ry="3" style="stroke:#038048;stroke-width:1;"/><text fill="#000000" font-family="sans-serif" font-size="14" lengthAdjust="spacing" textLength="162.7568" x="1042.2" y="477.5495">getMusicSlider(): Slider</text><ellipse cx="1033.2" cy="490.4997" fill="#84BE84" rx="3" ry="3" style="stroke:#038048;stroke-width:1;"/><text fill="#000000" font-family="sans-serif" font-size="14" lengthAdjust="spacing" textLength="145.0244" x="1042.2" y="493.8464">getSfxSlider(): Slider</text><ellipse cx="1033.2" cy="506.7966" fill="#84BE84" rx="3" ry="3" style="stroke:#038048;stroke-width:1;"/><text fill="#000000" font-family="sans-serif" font-size="14" lengthAdjust="spacing" text-decoration="underline" textLength="196.4102" x="1042.2" y="510.1432">getInstance(): SettingPopup</text></g></a><!--class GameOverPopup--><a href="java:scene.popup.GameOverPopup" target="_top" title="java:scene.popup.GameOverPopup" xlink:actuate="onRequest" xlink:href="java:scene.popup.GameOverPopup" xlink:show="new" xlink:title="java:scene.popup.GameOverPopup" xlink:type="simple"><g class="entity" data-entity="GameOverPopup" data-source-line="63" data-uid="ent0013" id="entity_GameOverPopup"><rect fill="#F1F1F1" height="96.8906" rx="2.5" ry="2.5" style="stroke:#181818;stroke-width:0.5;" width="247.6348" x="1301.06" y="379.82"/><ellipse cx="1361.124" cy="395.82" fill="#ADD1B2" rx="11" ry="11" style="stroke:#181818;stroke-width:1;"/><path d="M1364.0927,401.4606 Q1363.5146,401.7575 1362.874,401.8981 Q1362.2333,402.0544 1361.5302,402.0544 Q1359.0302,402.0544 1357.7021,400.4138 Q1356.3896,398.7575 1356.3896,395.6325 Q1356.3896,392.5075 1357.7021,390.8513 Q1359.0302,389.195 1361.5302,389.195 Q1362.2333,389.195 1362.874,389.3513 Q1363.5302,389.5075 1364.0927,389.8044 L1364.0927,392.5231 Q1363.4677,391.945 1362.874,391.6794 Q1362.2802,391.3981 1361.6552,391.3981 Q1360.3115,391.3981 1359.624,392.4763 Q1358.9365,393.5388 1358.9365,395.6325 Q1358.9365,397.7263 1359.624,398.8044 Q1360.3115,399.8669 1361.6552,399.8669 Q1362.2802,399.8669 1362.874,399.6013 Q1363.4677,399.32 1364.0927,398.7419 L1364.0927,401.4606 Z " fill="#000000"/><text fill="#000000" font-family="sans-serif" font-size="14" lengthAdjust="spacing" textLength="119.0068" x="1381.624" y="400.6667">GameOverPopup</text><line style="stroke:#181818;stroke-width:0.5;" x1="1302.06" x2="1547.6948" y1="411.82" y2="411.82"/><rect fill="none" height="6" style="stroke:#C82930;stroke-width:1;" width="6" x="1309.06" y="422.4684"/><text fill="#000000" font-family="sans-serif" font-size="14" lengthAdjust="spacing" text-decoration="underline" textLength="187.4824" x="1321.06" y="428.8151">instance: GameOverPopup</text><line style="stroke:#181818;stroke-width:0.5;" x1="1302.06" x2="1547.6948" y1="436.1169" y2="436.1169"/><ellipse cx="1312.06" cy="449.7653" fill="#84BE84" rx="3" ry="3" style="stroke:#038048;stroke-width:1;"/><text fill="#000000" font-family="sans-serif" font-size="14" lengthAdjust="spacing" textLength="129.9307" x="1321.06" y="453.112">GameOverPopup()</text><ellipse cx="1312.06" cy="466.0622" fill="#84BE84" rx="3" ry="3" style="stroke:#038048;stroke-width:1;"/><text fill="#000000" font-family="sans-serif" font-size="14" lengthAdjust="spacing" text-decoration="underline" textLength="221.6348" x="1321.06" y="469.4089">getInstance(): GameOverPopup</text></g></a><!--class EndingPopup--><a href="java:scene.popup.EndingPopup" target="_top" title="java:scene.popup.EndingPopup" xlink:actuate="onRequest" xlink:href="java:scene.popup.EndingPopup" xlink:show="new" xlink:title="java:scene.popup.EndingPopup" xlink:type="simple"><g class="entity" data-entity="EndingPopup" data-source-line="68" data-uid="ent0014" id="entity_EndingPopup"><rect fill="#F1F1F1" height="96.8906" rx="2.5" ry="2.5" style="stroke:#181818;stroke-width:0.5;" width="220.5371" x="1583.61" y="379.82"/><ellipse cx="1643.674" cy="395.82" fill="#ADD1B2" rx="11" ry="11" style="stroke:#181818;stroke-width:1;"/><path d="M1646.6427,401.4606 Q1646.0646,401.7575 1645.424,401.8981 Q1644.7833,402.0544 1644.0802,402.0544 Q1641.5802,402.0544 1640.2521,400.4138 Q1638.9396,398.7575 1638.9396,395.6325 Q1638.9396,392.5075 1640.2521,390.8513 Q1641.5802,389.195 1644.0802,389.195 Q1644.7833,389.195 1645.424,389.3513 Q1646.0802,389.5075 1646.6427,389.8044 L1646.6427,392.5231 Q1646.0177,391.945 1645.424,391.6794 Q1644.8302,391.3981 1644.2052,391.3981 Q1642.8615,391.3981 1642.174,392.4763 Q1641.4865,393.5388 1641.4865,395.6325 Q1641.4865,397.7263 1642.174,398.8044 Q1642.8615,399.8669 1644.2052,399.8669 Q1644.8302,399.8669 1645.424,399.6013 Q1646.0177,399.32 1646.6427,398.7419 L1646.6427,401.4606 Z " fill="#000000"/><text fill="#000000" font-family="sans-serif" font-size="14" lengthAdjust="spacing" textLength="91.9092" x="1664.174" y="400.6667">EndingPopup</text><line style="stroke:#181818;stroke-width:0.5;" x1="1584.61" x2="1803.1471" y1="411.82" y2="411.82"/><rect fill="none" height="6" style="stroke:#C82930;stroke-width:1;" width="6" x="1591.61" y="422.4684"/><text fill="#000000" font-family="sans-serif" font-size="14" lengthAdjust="spacing" text-decoration="underline" textLength="160.3848" x="1603.61" y="428.8151">instance: EndingPopup</text><line style="stroke:#181818;stroke-width:0.5;" x1="1584.61" x2="1803.1471" y1="436.1169" y2="436.1169"/><ellipse cx="1594.61" cy="449.7653" fill="#84BE84" rx="3" ry="3" style="stroke:#038048;stroke-width:1;"/><text fill="#000000" font-family="sans-serif" font-size="14" lengthAdjust="spacing" textLength="102.833" x="1603.61" y="453.112">EndingPopup()</text><ellipse cx="1594.61" cy="466.0622" fill="#84BE84" rx="3" ry="3" style="stroke:#038048;stroke-width:1;"/><text fill="#000000" font-family="sans-serif" font-size="14" lengthAdjust="spacing" text-decoration="underline" textLength="194.5371" x="1603.61" y="469.4089">getInstance(): EndingPopup</text></g></a><!--class VolumeSlider--><g class="entity" data-entity="VolumeSlider" data-source-line="78" data-uid="ent0020" id="entity_VolumeSlider"><rect fill="#F1F1F1" height="48" rx="2.5" ry="2.5" style="stroke:#181818;stroke-width:0.5;" width="125.0781" x="1080.34" y="594.45"/><ellipse cx="1095.34" cy="610.45" fill="#ADD1B2" rx="11" ry="11" style="stroke:#181818;stroke-width:1;"/><path d="M1098.3088,616.0906 Q1097.7306,616.3875 1097.09,616.5281 Q1096.4494,616.6844 1095.7463,616.6844 Q1093.2463,616.6844 1091.9181,615.0438 Q1090.6056,613.3875 1090.6056,610.2625 Q1090.6056,607.1375 1091.9181,605.4813 Q1093.2463,603.825 1095.7463,603.825 Q1096.4494,603.825 1097.09,603.9813 Q1097.7463,604.1375 1098.3088,604.4344 L1098.3088,607.1531 Q1097.6838,606.575 1097.09,606.3094 Q1096.4963,606.0281 1095.8713,606.0281 Q1094.5275,606.0281 1093.84,607.1063 Q1093.1525,608.1688 1093.1525,610.2625 Q1093.1525,612.3563 1093.84,613.4344 Q1094.5275,614.4969 1095.8713,614.4969 Q1096.4963,614.4969 1097.09,614.2313 Q1097.6838,613.95 1098.3088,613.3719 L1098.3088,616.0906 Z " fill="#000000"/><text fill="#000000" font-family="sans-serif" font-size="14" lengthAdjust="spacing" textLength="93.0781" x="1109.34" y="615.2967">VolumeSlider</text><line style="stroke:#181818;stroke-width:0.5;" x1="1081.34" x2="1204.4181" y1="626.45" y2="626.45"/><line style="stroke:#181818;stroke-width:0.5;" x1="1081.34" x2="1204.4181" y1="634.45" y2="634.45"/></g><!--reverse link Application to Main--><g class="link" data-entity-1="Application" data-entity-2="Main" data-source-line="22" data-uid="lnk6" id="link_Application_Main"><path codeLine="22" d="M624.88,73.15 C624.88,91.17 624.88,99.19 624.88,123.99 " fill="none" id="Application-backto-Main" style="stroke:#181818;stroke-width:1;"/><polygon fill="none" points="624.88,55.15,618.88,73.15,630.88,73.15,624.88,55.15" style="stroke:#181818;stroke-width:1;"/></g><!--reverse link BorderPane to Popup--><g class="link" data-entity-1="BorderPane" data-entity-2="Popup" data-source-line="73" data-uid="lnk15" id="link_BorderPane_Popup"><path codeLine="73" d="M1353.88,73.15 C1353.88,91.17 1353.88,99.19 1353.88,123.99 " fill="none" id="BorderPane-backto-Popup" style="stroke:#181818;stroke-width:1;"/><polygon fill="none" points="1353.88,55.15,1347.88,73.15,1359.88,73.15,1353.88,55.15" style="stroke:#181818;stroke-width:1;"/></g><!--reverse link Popup to CharacterPopup--><g class="link" data-entity-1="Popup" data-entity-2="CharacterPopup" data-source-line="74" data-uid="lnk16" id="link_Popup_CharacterPopup"><path codeLine="74" d="M1235.8938,239.4565 C1165.0038,265.4965 1085.75,297.35 1004.88,339.07 C981.89,350.94 957.8,365.51 936.31,379.37 " fill="none" id="Popup-backto-CharacterPopup" style="stroke:#181818;stroke-width:1;"/><polygon fill="none" points="1252.79,233.25,1233.825,233.8244,1237.9627,245.0885,1252.79,233.25" style="stroke:#181818;stroke-width:1;"/></g><!--reverse link Popup to SettingPopup--><g class="link" data-entity-1="Popup" data-entity-2="SettingPopup" data-source-line="75" data-uid="lnk17" id="link_Popup_SettingPopup"><path codeLine="75" d="M1275.5619,283.5233 C1255.6119,305.3033 1245.63,316.2 1224.82,338.91 " fill="none" id="Popup-backto-SettingPopup" style="stroke:#181818;stroke-width:1;"/><polygon fill="none" points="1287.72,270.25,1271.1375,279.4706,1279.9864,287.576,1287.72,270.25" style="stroke:#181818;stroke-width:1;"/></g><!--reverse link Popup to GameOverPopup--><g class="link" data-entity-1="Popup" data-entity-2="GameOverPopup" data-source-line="76" data-uid="lnk18" id="link_Popup_GameOverPopup"><path codeLine="76" d="M1381.5723,287.4451 C1392.6223,323.1451 1400.34,348.03 1410.13,379.64 " fill="none" id="Popup-backto-GameOverPopup" style="stroke:#181818;stroke-width:1;"/><polygon fill="none" points="1376.25,270.25,1375.8406,289.2192,1387.304,285.671,1376.25,270.25" style="stroke:#181818;stroke-width:1;"/></g><!--reverse link Popup to EndingPopup--><g class="link" data-entity-1="Popup" data-entity-2="EndingPopup" data-source-line="77" data-uid="lnk19" id="link_Popup_EndingPopup"><path codeLine="77" d="M1469.9239,274.739 C1505.1239,298.119 1529.82,314.66 1565.88,339.07 C1585.1,352.09 1605.85,366.31 1624.93,379.46 " fill="none" id="Popup-backto-EndingPopup" style="stroke:#181818;stroke-width:1;"/><polygon fill="none" points="1454.93,264.78,1466.6042,279.737,1473.2436,269.7411,1454.93,264.78" style="stroke:#181818;stroke-width:1;"/></g><!--link SettingPopup to VolumeSlider--><g class="link" data-entity-1="SettingPopup" data-entity-2="VolumeSlider" data-source-line="78" data-uid="lnk21" id="link_SettingPopup_VolumeSlider"><path codeLine="78" d="M1091.76,517.81 C1087.75,527.56 1084.32,537.55 1081.88,547.45 C1080.07,554.79 1078.75,557.58 1081.88,564.45 C1087.12,575.94 1091.6239,582.0312 1101.2139,590.1212 " fill="none" id="SettingPopup-to-VolumeSlider" style="stroke:#181818;stroke-width:1;"/><polygon fill="#181818" points="1105.8,593.99,1101.5,585.1294,1101.9782,590.766,1096.3416,591.2442,1105.8,593.99" style="stroke:#181818;stroke-width:1;"/><text fill="#000000" font-family="sans-serif" font-size="13" lengthAdjust="spacing" textLength="75.5054" x="1082.88" y="560.5169">musicSlider</text><text fill="#000000" font-family="sans-serif" font-size="13" lengthAdjust="spacing" textLength="8.271" x="1087.82" y="583.2828">1</text></g><!--link SettingPopup to VolumeSlider--><g class="link" data-entity-1="SettingPopup" data-entity-2="VolumeSlider" data-source-line="79" data-uid="lnk22" id="link_SettingPopup_VolumeSlider"><path codeLine="79" d="M1164.47,517.78 C1165.78,533.37 1165.62,549.41 1162.88,564.45 C1161.06,574.42 1159.7207,579.3781 1156.0707,588.3981 " fill="none" id="SettingPopup-to-VolumeSlider-1" style="stroke:#181818;stroke-width:1;"/><polygon fill="#181818" points="1153.82,593.96,1160.9039,587.1176,1155.6955,589.3251,1153.4881,584.1167,1153.82,593.96" style="stroke:#181818;stroke-width:1;"/><text fill="#000000" font-family="sans-serif" font-size="13" lengthAdjust="spacing" textLength="56.1133" x="1164.88" y="560.5169">sfxSlider</text><text fill="#000000" font-family="sans-serif" font-size="13" lengthAdjust="spacing" textLength="8.271" x="1147.5449" y="583.2455">1</text></g><!--SRC=[ZLN1Zjem43sJhx2sbwnGa7gDgafBrMqve4LDrGlYO18Jt2PsP3kKBSs_Tso8OsTZr5FmpFERzsOc8Q-mbEYfQIgQOqKvGvSkoarmoKL1n0OpecEAbqGTYRX425tpQqmPscv_uXDEyK2mqF7T3caWGlEBL13EEoGuLodA5Cv_QSvHjYO5nPiAlnAHelLm6C7WMHB3KjuO829Kt0XQO_6QEUd759quBNeKRs8lCbG6kJ4MfTJt16NbTZS0E-ls6KCpfkoQXFMRMDvz1KwpN132KlIDv0gpiY9J8DwgC4BcX6bB-Z5IJXbL55Vq3ubboBW57q3cIwkUMB5YWKx0W9StFHhXAteBkteR8xkeYznr-l0tISogs0r2pWeHrXfdVMEDsuKDJxJrYEKNN9DCZvqKATfpNX7CHYWgLyoo-A31I2j9e1D-4GsQPf14kRY0jkaQdiIx9LpSjB6fXJLAtlRMXYTUKRyX0zMd8nOuLqHCyFcvCEdN9J_VrkDAkk5Ds_XSZGujJC8GpOQ17WJeNjLcoyqZchtRSwLu3RmtzjdSN8qLLHNft-P72CiZ_ssDpUP7MWm-dHgmdi-sZ0PS2_M2hTEWSXynja0P_68vAFDneCWFn5gpgsfrkwarZUxsuZAY5BWDIdFpOM4k2X1rAscULT0k-2Z_u5KBgsDEa9E7ytHcxf9eAmby9x0YtybPnGpQQoUJ8Xs36s1nFPJIBYqPfBA-afS8zSUpq7T7B_tBwSxaF42uFnuCH7ZdksFpR_QwFhFYtj2ST5YJ0uBwpkck7lTM5pb_zUPxVOrVTPd0QEkSZDTl9-uRTX9kPMzha-GZUdZ_uAqJIf6pXF-5julv3m00]--></g></svg>