<?xml version="1.0" encoding="us-ascii" standalone="no"?><svg xmlns="http://www.w3.org/2000/svg" xmlns:xlink="http://www.w3.org/1999/xlink" contentStyleType="text/css" height="933px" preserveAspectRatio="none" style="width:626px;height:933px;background:#FFFFFF;" version="1.1" viewBox="0 0 626 933" width="626px" zoomAndPan="magnify"><defs/><g><!--class Clickable--><a href="java:interfaces.Clickable" target="_top" title="java:interfaces.Clickable" xlink:actuate="onRequest" xlink:href="java:interfaces.Clickable" xlink:show="new" xlink:title="java:interfaces.Clickable" xlink:type="simple"><g id="elem_Clickable"><rect codeLine="2" fill="#F1F1F1" height="83.2188" id="Clickable" rx="2.5" ry="2.5" style="stroke:#181818;stroke-width:0.5;" width="185" x="221.5" y="7"/><ellipse cx="280.75" cy="23" fill="#B4A7E5" rx="11" ry="11" style="stroke:#181818;stroke-width:1.0;"/><path d="M281.7031,19.6406 L281.7031,26.2969 L283.4219,26.2969 Q284.0313,26.2969 284.2969,26.5313 Q284.5625,26.7656 284.5625,27.1563 Q284.5625,27.5313 284.2969,27.7656 Q284.0313,28 283.4219,28 L278.2813,28 Q277.6719,28 277.4063,27.7656 Q277.1406,27.5313 277.1406,27.1406 Q277.1406,26.7656 277.4063,26.5313 Q277.6719,26.2969 278.2813,26.2969 L280,26.2969 L280,19.6406 L278.2813,19.6406 Q277.6719,19.6406 277.4063,19.4063 Q277.1406,19.1719 277.1406,18.7813 Q277.1406,18.4063 277.4063,18.1719 Q277.6719,17.9375 278.2813,17.9375 L283.4219,17.9375 Q284.0313,17.9375 284.2969,18.1719 Q284.5625,18.4063 284.5625,18.7813 Q284.5625,19.1719 284.2969,19.4063 Q284.0313,19.6406 283.4219,19.6406 L281.7031,19.6406 Z " fill="#000000"/><text fill="#000000" font-family="sans-serif" font-size="14" font-style="italic" lengthAdjust="spacing" textLength="58" x="301.25" y="28.7285">Clickable</text><line style="stroke:#181818;stroke-width:0.5;" x1="222.5" x2="405.5" y1="39" y2="39"/><line style="stroke:#181818;stroke-width:0.5;" x1="222.5" x2="405.5" y1="47" y2="47"/><text fill="#000000" font-family="sans-serif" font-size="14" lengthAdjust="spacing" textLength="145" x="227.5" y="65.5332">activatePerClick(): void</text><text fill="#000000" font-family="sans-serif" font-size="14" lengthAdjust="spacing" textLength="173" x="227.5" y="83.1426">isEnoughEnergy(): boolean</text></g></a><!--class ItemWithCost--><a href="java:game.item.ItemWithCost" target="_top" title="java:game.item.ItemWithCost" xlink:actuate="onRequest" xlink:href="java:game.item.ItemWithCost" xlink:show="new" xlink:title="java:game.item.ItemWithCost" xlink:type="simple"><g id="elem_ItemWithCost"><rect codeLine="6" fill="#F1F1F1" height="48" id="ItemWithCost" rx="2.5" ry="2.5" style="stroke:#181818;stroke-width:0.5;" width="117" x="255.5" y="150"/><ellipse cx="270.5" cy="166" fill="#A9DCDF" rx="11" ry="11" style="stroke:#181818;stroke-width:1.0;"/><path d="M272.6875,167.7656 L268.5469,167.7656 L268.125,168.7969 L268.5469,168.7969 Q269.1563,168.7969 269.4219,169.0313 Q269.6875,169.2656 269.6875,169.6563 Q269.6875,170.0313 269.4219,170.2656 Q269.1563,170.5 268.5469,170.5 L266.25,170.5 Q265.6406,170.5 265.3906,170.2656 Q265.125,170.0313 265.125,169.6406 Q265.125,169.2656 265.4063,169.0313 Q265.6719,168.7813 266.2969,168.7969 L268.9688,162.1406 L267.8594,162.1406 Q267.25,162.1406 266.9844,161.9063 Q266.7188,161.6719 266.7188,161.2813 Q266.7188,160.9063 266.9844,160.6719 Q267.25,160.4375 267.8594,160.4375 L271.5313,160.4375 L274.9219,168.7969 Q275.5156,168.7969 275.7031,168.9375 Q276.0938,169.2031 276.0938,169.6563 Q276.0938,170.0313 275.8281,170.2656 Q275.5781,170.5 274.9688,170.5 L272.6719,170.5 Q272.0625,170.5 271.7969,170.2656 Q271.5313,170.0313 271.5313,169.6406 Q271.5313,169.2656 271.7969,169.0313 Q272.0625,168.7969 272.6719,168.7969 L273.0938,168.7969 L272.6875,167.7656 Z M271.9688,166.0625 L270.6094,162.6875 L269.2344,166.0625 L271.9688,166.0625 Z " fill="#000000"/><text fill="#000000" font-family="sans-serif" font-size="14" font-style="italic" lengthAdjust="spacing" textLength="85" x="284.5" y="171.7285">ItemWithCost</text><line style="stroke:#181818;stroke-width:0.5;" x1="256.5" x2="371.5" y1="182" y2="182"/><line style="stroke:#181818;stroke-width:0.5;" x1="256.5" x2="371.5" y1="190" y2="190"/></g></a><!--class Consumable--><a href="java:game.item.consumable.Consumable" target="_top" title="java:game.item.consumable.Consumable" xlink:actuate="onRequest" xlink:href="java:game.item.consumable.Consumable" xlink:show="new" xlink:title="java:game.item.consumable.Consumable" xlink:type="simple"><g id="elem_Consumable"><rect codeLine="8" fill="#F1F1F1" height="259.3125" id="Consumable" rx="2.5" ry="2.5" style="stroke:#181818;stroke-width:0.5;" width="499" x="64.5" y="258"/><ellipse cx="270.25" cy="274" fill="#ADD1B2" rx="11" ry="11" style="stroke:#181818;stroke-width:1.0;"/><path d="M273.0156,269.875 Q273.1719,269.6563 273.3594,269.5469 Q273.5469,269.4375 273.7656,269.4375 Q274.1406,269.4375 274.375,269.7031 Q274.6094,269.9531 274.6094,270.5625 L274.6094,272.0156 Q274.6094,272.625 274.375,272.8906 Q274.1406,273.1563 273.7656,273.1563 Q273.4219,273.1563 273.2188,272.9531 Q273.0156,272.7656 272.9063,272.25 Q272.8594,271.8906 272.6719,271.7031 Q272.3438,271.3281 271.7344,271.1094 Q271.125,270.8906 270.5,270.8906 Q269.7344,270.8906 269.0938,271.2188 Q268.4688,271.5469 267.9688,272.2969 Q267.4844,273.0469 267.4844,274.0781 L267.4844,275.1719 Q267.4844,276.4063 268.375,277.2344 Q269.2656,278.0469 270.8594,278.0469 Q271.7969,278.0469 272.4531,277.7969 Q272.8438,277.6406 273.2656,277.2031 Q273.5313,276.9375 273.6719,276.8594 Q273.8281,276.7813 274.0313,276.7813 Q274.3594,276.7813 274.6094,277.0469 Q274.875,277.2969 274.875,277.6406 Q274.875,277.9844 274.5313,278.3906 Q274.0313,278.9688 273.2344,279.2969 Q272.1563,279.75 270.8594,279.75 Q269.3438,279.75 268.1406,279.125 Q267.1563,278.625 266.4688,277.5625 Q265.7813,276.4844 265.7813,275.2031 L265.7813,274.0469 Q265.7813,272.7188 266.3906,271.5781 Q267.0156,270.4219 268.1094,269.8125 Q269.2031,269.1875 270.4375,269.1875 Q271.1719,269.1875 271.8125,269.3594 Q272.4688,269.5156 273.0156,269.875 Z " fill="#000000"/><text fill="#000000" font-family="sans-serif" font-size="14" lengthAdjust="spacing" textLength="79" x="290.75" y="279.7285">Consumable</text><line style="stroke:#181818;stroke-width:0.5;" x1="65.5" x2="562.5" y1="290" y2="290"/><rect fill="none" height="6" style="stroke:#C82930;stroke-width:1.0;" width="6" x="72.5" y="301.3047"/><text fill="#000000" font-family="sans-serif" font-size="14" lengthAdjust="spacing" textLength="79" x="84.5" y="308.5332">effect: Effect</text><rect fill="none" height="6" style="stroke:#C82930;stroke-width:1.0;" width="6" x="72.5" y="318.9141"/><text fill="#000000" font-family="sans-serif" font-size="14" lengthAdjust="spacing" textLength="99" x="84.5" y="326.1426">costActivate: int</text><rect fill="none" height="6" style="stroke:#C82930;stroke-width:1.0;" width="6" x="72.5" y="336.5234"/><text fill="#000000" font-family="sans-serif" font-size="14" lengthAdjust="spacing" textLength="80" x="84.5" y="343.752">durability: int</text><line style="stroke:#181818;stroke-width:0.5;" x1="65.5" x2="562.5" y1="350.8281" y2="350.8281"/><ellipse cx="75.5" cy="365.1328" fill="#84BE84" rx="3" ry="3" style="stroke:#038048;stroke-width:1.0;"/><text fill="#000000" font-family="sans-serif" font-size="14" lengthAdjust="spacing" textLength="473" x="84.5" y="369.3613">Consumable(name, detail, durability, effect, costActivate, width, height, tier)</text><ellipse cx="75.5" cy="382.7422" fill="#84BE84" rx="3" ry="3" style="stroke:#038048;stroke-width:1.0;"/><text fill="#000000" font-family="sans-serif" font-size="14" lengthAdjust="spacing" textLength="119" x="84.5" y="386.9707">activateItem(): void</text><polygon fill="#FFFF44" points="75.5,395.3516,79.5,399.3516,75.5,403.3516,71.5,399.3516" style="stroke:#B38D22;stroke-width:1.0;"/><text fill="#000000" font-family="sans-serif" font-size="14" lengthAdjust="spacing" textLength="121" x="84.5" y="404.5801">getHeader(): String</text><polygon fill="#FFFF44" points="75.5,412.9609,79.5,416.9609,75.5,420.9609,71.5,416.9609" style="stroke:#B38D22;stroke-width:1.0;"/><text fill="#000000" font-family="sans-serif" font-size="14" lengthAdjust="spacing" textLength="145" x="84.5" y="422.1895">getProvideMid(): String</text><ellipse cx="75.5" cy="435.5703" fill="#84BE84" rx="3" ry="3" style="stroke:#038048;stroke-width:1.0;"/><text fill="#000000" font-family="sans-serif" font-size="14" lengthAdjust="spacing" textLength="104" x="84.5" y="439.7988">toString(): String</text><ellipse cx="75.5" cy="453.1797" fill="#84BE84" rx="3" ry="3" style="stroke:#038048;stroke-width:1.0;"/><text fill="#000000" font-family="sans-serif" font-size="14" lengthAdjust="spacing" textLength="174" x="84.5" y="457.4082">getEffectType(): EffectType</text><ellipse cx="75.5" cy="470.7891" fill="#84BE84" rx="3" ry="3" style="stroke:#038048;stroke-width:1.0;"/><text fill="#000000" font-family="sans-serif" font-size="14" lengthAdjust="spacing" textLength="137" x="84.5" y="475.0176">getEffectAmount(): int</text><ellipse cx="75.5" cy="488.3984" fill="#84BE84" rx="3" ry="3" style="stroke:#038048;stroke-width:1.0;"/><text fill="#000000" font-family="sans-serif" font-size="14" lengthAdjust="spacing" textLength="112" x="84.5" y="492.627">getDurability(): int</text><ellipse cx="75.5" cy="506.0078" fill="#84BE84" rx="3" ry="3" style="stroke:#038048;stroke-width:1.0;"/><text fill="#000000" font-family="sans-serif" font-size="14" lengthAdjust="spacing" textLength="202" x="84.5" y="510.2363">setDurability(durability: int): void</text></g></a><!--class FoodWithContainer--><a href="java:game.item.consumable.FoodWithContainer" target="_top" title="java:game.item.consumable.FoodWithContainer" xlink:actuate="onRequest" xlink:href="java:game.item.consumable.FoodWithContainer" xlink:show="new" xlink:title="java:game.item.consumable.FoodWithContainer" xlink:type="simple"><g id="elem_FoodWithContainer"><rect codeLine="22" fill="#F1F1F1" height="136.0469" id="FoodWithContainer" rx="2.5" ry="2.5" style="stroke:#181818;stroke-width:0.5;" width="610" x="9" y="577"/><ellipse cx="248.25" cy="593" fill="#ADD1B2" rx="11" ry="11" style="stroke:#181818;stroke-width:1.0;"/><path d="M251.0156,588.875 Q251.1719,588.6563 251.3594,588.5469 Q251.5469,588.4375 251.7656,588.4375 Q252.1406,588.4375 252.375,588.7031 Q252.6094,588.9531 252.6094,589.5625 L252.6094,591.0156 Q252.6094,591.625 252.375,591.8906 Q252.1406,592.1563 251.7656,592.1563 Q251.4219,592.1563 251.2188,591.9531 Q251.0156,591.7656 250.9063,591.25 Q250.8594,590.8906 250.6719,590.7031 Q250.3438,590.3281 249.7344,590.1094 Q249.125,589.8906 248.5,589.8906 Q247.7344,589.8906 247.0938,590.2188 Q246.4688,590.5469 245.9688,591.2969 Q245.4844,592.0469 245.4844,593.0781 L245.4844,594.1719 Q245.4844,595.4063 246.375,596.2344 Q247.2656,597.0469 248.8594,597.0469 Q249.7969,597.0469 250.4531,596.7969 Q250.8438,596.6406 251.2656,596.2031 Q251.5313,595.9375 251.6719,595.8594 Q251.8281,595.7813 252.0313,595.7813 Q252.3594,595.7813 252.6094,596.0469 Q252.875,596.2969 252.875,596.6406 Q252.875,596.9844 252.5313,597.3906 Q252.0313,597.9688 251.2344,598.2969 Q250.1563,598.75 248.8594,598.75 Q247.3438,598.75 246.1406,598.125 Q245.1563,597.625 244.4688,596.5625 Q243.7813,595.4844 243.7813,594.2031 L243.7813,593.0469 Q243.7813,591.7188 244.3906,590.5781 Q245.0156,589.4219 246.1094,588.8125 Q247.2031,588.1875 248.4375,588.1875 Q249.1719,588.1875 249.8125,588.3594 Q250.4688,588.5156 251.0156,588.875 Z " fill="#000000"/><text fill="#000000" font-family="sans-serif" font-size="14" lengthAdjust="spacing" textLength="123" x="268.75" y="598.7285">FoodWithContainer</text><line style="stroke:#181818;stroke-width:0.5;" x1="10" x2="618" y1="609" y2="609"/><rect fill="none" height="6" style="stroke:#C82930;stroke-width:1.0;" width="6" x="17" y="620.3047"/><text fill="#000000" font-family="sans-serif" font-size="14" lengthAdjust="spacing" textLength="104" x="29" y="627.5332">container: String</text><line style="stroke:#181818;stroke-width:0.5;" x1="10" x2="618" y1="634.6094" y2="634.6094"/><ellipse cx="20" cy="648.9141" fill="#84BE84" rx="3" ry="3" style="stroke:#038048;stroke-width:1.0;"/><text fill="#000000" font-family="sans-serif" font-size="14" lengthAdjust="spacing" textLength="584" x="29" y="653.1426">FoodWithContainer(name, detail, container, costActivate, durability, effect, width, height, tier)</text><polygon fill="#FFFF44" points="20,661.5234,24,665.5234,20,669.5234,16,665.5234" style="stroke:#B38D22;stroke-width:1.0;"/><text fill="#000000" font-family="sans-serif" font-size="14" lengthAdjust="spacing" textLength="121" x="29" y="670.752">getHeader(): String</text><ellipse cx="20" cy="684.1328" fill="#84BE84" rx="3" ry="3" style="stroke:#038048;stroke-width:1.0;"/><text fill="#000000" font-family="sans-serif" font-size="14" lengthAdjust="spacing" textLength="104" x="29" y="688.3613">toString(): String</text><ellipse cx="20" cy="701.7422" fill="#84BE84" rx="3" ry="3" style="stroke:#038048;stroke-width:1.0;"/><text fill="#000000" font-family="sans-serif" font-size="14" lengthAdjust="spacing" textLength="137" x="29" y="705.9707">getContainer(): String</text></g></a><!--class Potion--><a href="java:game.item.consumable.Potion" target="_top" title="java:game.item.consumable.Potion" xlink:actuate="onRequest" xlink:href="java:game.item.consumable.Potion" xlink:show="new" xlink:title="java:game.item.consumable.Potion" xlink:type="simple"><g id="elem_Potion"><rect codeLine="29" fill="#F1F1F1" height="153.6563" id="Potion" rx="2.5" ry="2.5" style="stroke:#181818;stroke-width:0.5;" width="527" x="50.5" y="773"/><ellipse cx="289.75" cy="789" fill="#ADD1B2" rx="11" ry="11" style="stroke:#181818;stroke-width:1.0;"/><path d="M292.5156,784.875 Q292.6719,784.6563 292.8594,784.5469 Q293.0469,784.4375 293.2656,784.4375 Q293.6406,784.4375 293.875,784.7031 Q294.1094,784.9531 294.1094,785.5625 L294.1094,787.0156 Q294.1094,787.625 293.875,787.8906 Q293.6406,788.1563 293.2656,788.1563 Q292.9219,788.1563 292.7188,787.9531 Q292.5156,787.7656 292.4063,787.25 Q292.3594,786.8906 292.1719,786.7031 Q291.8438,786.3281 291.2344,786.1094 Q290.625,785.8906 290,785.8906 Q289.2344,785.8906 288.5938,786.2188 Q287.9688,786.5469 287.4688,787.2969 Q286.9844,788.0469 286.9844,789.0781 L286.9844,790.1719 Q286.9844,791.4063 287.875,792.2344 Q288.7656,793.0469 290.3594,793.0469 Q291.2969,793.0469 291.9531,792.7969 Q292.3438,792.6406 292.7656,792.2031 Q293.0313,791.9375 293.1719,791.8594 Q293.3281,791.7813 293.5313,791.7813 Q293.8594,791.7813 294.1094,792.0469 Q294.375,792.2969 294.375,792.6406 Q294.375,792.9844 294.0313,793.3906 Q293.5313,793.9688 292.7344,794.2969 Q291.6563,794.75 290.3594,794.75 Q288.8438,794.75 287.6406,794.125 Q286.6563,793.625 285.9688,792.5625 Q285.2813,791.4844 285.2813,790.2031 L285.2813,789.0469 Q285.2813,787.7188 285.8906,786.5781 Q286.5156,785.4219 287.6094,784.8125 Q288.7031,784.1875 289.9375,784.1875 Q290.6719,784.1875 291.3125,784.3594 Q291.9688,784.5156 292.5156,784.875 Z " fill="#000000"/><text fill="#000000" font-family="sans-serif" font-size="14" lengthAdjust="spacing" textLength="40" x="310.25" y="794.7285">Potion</text><line style="stroke:#181818;stroke-width:0.5;" x1="51.5" x2="576.5" y1="805" y2="805"/><rect fill="none" height="6" style="stroke:#C82930;stroke-width:1.0;" width="6" x="58.5" y="816.3047"/><text fill="#000000" font-family="sans-serif" font-size="14" lengthAdjust="spacing" text-decoration="underline" textLength="47" x="70.5" y="823.5332">limit: int</text><line style="stroke:#181818;stroke-width:0.5;" x1="51.5" x2="576.5" y1="830.6094" y2="830.6094"/><ellipse cx="61.5" cy="844.9141" fill="#84BE84" rx="3" ry="3" style="stroke:#038048;stroke-width:1.0;"/><text fill="#000000" font-family="sans-serif" font-size="14" lengthAdjust="spacing" textLength="501" x="70.5" y="849.1426">Potion(name, detail, container, costActivate, durability, effect, width, height, tier)</text><ellipse cx="61.5" cy="862.5234" fill="#84BE84" rx="3" ry="3" style="stroke:#038048;stroke-width:1.0;"/><text fill="#000000" font-family="sans-serif" font-size="14" lengthAdjust="spacing" textLength="201" x="70.5" y="866.752">isStackable(item: Item): boolean</text><polygon fill="#FFFF44" points="61.5,875.1328,65.5,879.1328,61.5,883.1328,57.5,879.1328" style="stroke:#B38D22;stroke-width:1.0;"/><text fill="#000000" font-family="sans-serif" font-size="14" lengthAdjust="spacing" textLength="121" x="70.5" y="884.3613">getHeader(): String</text><ellipse cx="61.5" cy="897.7422" fill="#84BE84" rx="3" ry="3" style="stroke:#038048;stroke-width:1.0;"/><text fill="#000000" font-family="sans-serif" font-size="14" lengthAdjust="spacing" textLength="104" x="70.5" y="901.9707">toString(): String</text><ellipse cx="61.5" cy="915.3516" fill="#84BE84" rx="3" ry="3" style="stroke:#038048;stroke-width:1.0;"/><text fill="#000000" font-family="sans-serif" font-size="14" lengthAdjust="spacing" textLength="82" x="70.5" y="919.5801">getLimit(): int</text></g></a><!--reverse link Clickable to ItemWithCost--><g id="link_Clickable_ItemWithCost"><path codeLine="7" d="M314,108.28 C314,128.09 314,133.18 314,149.91 " fill="none" id="Clickable-backto-ItemWithCost" style="stroke:#181818;stroke-width:1.0;stroke-dasharray:7.0,7.0;"/><polygon fill="none" points="314,90.28,308,108.28,320,108.28,314,90.28" style="stroke:#181818;stroke-width:1.0;"/></g><!--reverse link ItemWithCost to Consumable--><g id="link_ItemWithCost_Consumable"><path codeLine="37" d="M314,216.04 C314,231.35 314,234.81 314,257.79 " fill="none" id="ItemWithCost-backto-Consumable" style="stroke:#181818;stroke-width:1.0;"/><polygon fill="none" points="314,198.04,308,216.04,320,216.04,314,198.04" style="stroke:#181818;stroke-width:1.0;"/></g><!--reverse link Consumable to FoodWithContainer--><g id="link_Consumable_FoodWithContainer"><path codeLine="38" d="M314,535.37 C314,555.96 314,558.51 314,576.88 " fill="none" id="Consumable-backto-FoodWithContainer" style="stroke:#181818;stroke-width:1.0;"/><polygon fill="none" points="314,517.37,308,535.37,320,535.37,314,517.37" style="stroke:#181818;stroke-width:1.0;"/></g><!--reverse link FoodWithContainer to Potion--><g id="link_FoodWithContainer_Potion"><path codeLine="39" d="M314,731.03 C314,750.2 314,753.24 314,772.91 " fill="none" id="FoodWithContainer-backto-Potion" style="stroke:#181818;stroke-width:1.0;"/><polygon fill="none" points="314,713.03,308,731.03,320,731.03,314,713.03" style="stroke:#181818;stroke-width:1.0;"/></g><!--SRC=[jLJBRjim43o7Nx50BmuiwmE4N0BNHGgqW84Kw278WHBNqgOI6P1h5qQYVoyfMY-xpg50Jv9cbalE35TiNe4Dv8RPDA38Oi5aj23DQ7UoG5ZNLFoIUOtmzFGY3p8RA9SEtFCpl8aRwTSU9ECMRSSiRZCu65BYXjn6ctrPRJJQyXZmt9WQfHQjaBbZwvT2KKldu2jZyvEuMXl7_PQbR30bJwHJDcpQYl5yT-zfEbikOiUrqMxVJ2MC_Og1IyUoJWt02dSxRqS6c-uPaC9tlJ-fpC0x4K2rjpAdclZOGyknrqBxlH9Go99g_nng4uZj4vWsJU0tAQuIg93AofDCQ6z3ozxS870m5k1JYVo0Kg4Du2DRqkK9tbfp88NVISse9PluFaVzWgZpn_4L0pL-pUZxnkmrXuAJLizy7bHDS3V3pqpg1RIdZBuOes9isXlbRyc7KLrKzuaLFJ1LTb5zbicmw3oAluLr9PuhCLptUZpCoFHcR4sOmGyTY2Mzx3V7agbeeQQ6U4WW5lq7jKjoZopZs2t2qR9kxYPZ_G-EV0jdx-zFAsR_WRltrMeons8oqXrr4R6ul51TORJa3m00]--></g></svg>