<?xml version="1.0" encoding="us-ascii" standalone="no"?><svg xmlns="http://www.w3.org/2000/svg" xmlns:xlink="http://www.w3.org/1999/xlink" contentStyleType="text/css" height="1022px" preserveAspectRatio="none" style="width:1206px;height:1022px;background:#FFFFFF;" version="1.1" viewBox="0 0 1206 1022" width="1206px" zoomAndPan="magnify"><defs/><g><!--class TurnActivable--><a href="java:interfaces.TurnActivable" target="_top" title="java:interfaces.TurnActivable" xlink:actuate="onRequest" xlink:href="java:interfaces.TurnActivable" xlink:show="new" xlink:title="java:interfaces.TurnActivable" xlink:type="simple"><g id="elem_TurnActivable"><rect codeLine="2" fill="#F1F1F1" height="65.6094" id="TurnActivable" rx="2.5" ry="2.5" style="stroke:#181818;stroke-width:0.5;" width="157" x="252.5" y="665.5"/><ellipse cx="285.05" cy="681.5" fill="#B4A7E5" rx="11" ry="11" style="stroke:#181818;stroke-width:1.0;"/><path d="M286.0031,678.1406 L286.0031,684.7969 L287.7219,684.7969 Q288.3313,684.7969 288.5969,685.0313 Q288.8625,685.2656 288.8625,685.6563 Q288.8625,686.0313 288.5969,686.2656 Q288.3313,686.5 287.7219,686.5 L282.5813,686.5 Q281.9719,686.5 281.7063,686.2656 Q281.4406,686.0313 281.4406,685.6406 Q281.4406,685.2656 281.7063,685.0313 Q281.9719,684.7969 282.5813,684.7969 L284.3,684.7969 L284.3,678.1406 L282.5813,678.1406 Q281.9719,678.1406 281.7063,677.9063 Q281.4406,677.6719 281.4406,677.2813 Q281.4406,676.9063 281.7063,676.6719 Q281.9719,676.4375 282.5813,676.4375 L287.7219,676.4375 Q288.3313,676.4375 288.5969,676.6719 Q288.8625,676.9063 288.8625,677.2813 Q288.8625,677.6719 288.5969,677.9063 Q288.3313,678.1406 287.7219,678.1406 L286.0031,678.1406 Z " fill="#000000"/><text fill="#000000" font-family="sans-serif" font-size="14" font-style="italic" lengthAdjust="spacing" textLength="86" x="302.95" y="687.2285">TurnActivable</text><line style="stroke:#181818;stroke-width:0.5;" x1="253.5" x2="408.5" y1="697.5" y2="697.5"/><line style="stroke:#181818;stroke-width:0.5;" x1="253.5" x2="408.5" y1="705.5" y2="705.5"/><text fill="#000000" font-family="sans-serif" font-size="14" lengthAdjust="spacing" textLength="145" x="258.5" y="724.0332">activatePerTurn(): void</text></g></a><!--class ReStatable--><a href="java:interfaces.ReStatable" target="_top" title="java:interfaces.ReStatable" xlink:actuate="onRequest" xlink:href="java:interfaces.ReStatable" xlink:show="new" xlink:title="java:interfaces.ReStatable" xlink:type="simple"><g id="elem_ReStatable"><rect codeLine="5" fill="#F1F1F1" height="65.6094" id="ReStatable" rx="2.5" ry="2.5" style="stroke:#181818;stroke-width:0.5;" width="181" x="642.5" y="150"/><ellipse cx="693.75" cy="166" fill="#B4A7E5" rx="11" ry="11" style="stroke:#181818;stroke-width:1.0;"/><path d="M694.7031,162.6406 L694.7031,169.2969 L696.4219,169.2969 Q697.0313,169.2969 697.2969,169.5313 Q697.5625,169.7656 697.5625,170.1563 Q697.5625,170.5313 697.2969,170.7656 Q697.0313,171 696.4219,171 L691.2813,171 Q690.6719,171 690.4063,170.7656 Q690.1406,170.5313 690.1406,170.1406 Q690.1406,169.7656 690.4063,169.5313 Q690.6719,169.2969 691.2813,169.2969 L693,169.2969 L693,162.6406 L691.2813,162.6406 Q690.6719,162.6406 690.4063,162.4063 Q690.1406,162.1719 690.1406,161.7813 Q690.1406,161.4063 690.4063,161.1719 Q690.6719,160.9375 691.2813,160.9375 L696.4219,160.9375 Q697.0313,160.9375 697.2969,161.1719 Q697.5625,161.4063 697.5625,161.7813 Q697.5625,162.1719 697.2969,162.4063 Q697.0313,162.6406 696.4219,162.6406 L694.7031,162.6406 Z " fill="#000000"/><text fill="#000000" font-family="sans-serif" font-size="14" font-style="italic" lengthAdjust="spacing" textLength="70" x="714.25" y="171.7285">ReStatable</text><line style="stroke:#181818;stroke-width:0.5;" x1="643.5" x2="822.5" y1="182" y2="182"/><line style="stroke:#181818;stroke-width:0.5;" x1="643.5" x2="822.5" y1="190" y2="190"/><text fill="#000000" font-family="sans-serif" font-size="14" lengthAdjust="spacing" textLength="169" x="648.5" y="208.5332">reStatBeforeUpdate(): void</text></g></a><!--class Clickable--><a href="java:interfaces.Clickable" target="_top" title="java:interfaces.Clickable" xlink:actuate="onRequest" xlink:href="java:interfaces.Clickable" xlink:show="new" xlink:title="java:interfaces.Clickable" xlink:type="simple"><g id="elem_Clickable"><rect codeLine="8" fill="#F1F1F1" height="83.2188" id="Clickable" rx="2.5" ry="2.5" style="stroke:#181818;stroke-width:0.5;" width="185" x="824.5" y="7"/><ellipse cx="883.75" cy="23" fill="#B4A7E5" rx="11" ry="11" style="stroke:#181818;stroke-width:1.0;"/><path d="M884.7031,19.6406 L884.7031,26.2969 L886.4219,26.2969 Q887.0313,26.2969 887.2969,26.5313 Q887.5625,26.7656 887.5625,27.1563 Q887.5625,27.5313 887.2969,27.7656 Q887.0313,28 886.4219,28 L881.2813,28 Q880.6719,28 880.4063,27.7656 Q880.1406,27.5313 880.1406,27.1406 Q880.1406,26.7656 880.4063,26.5313 Q880.6719,26.2969 881.2813,26.2969 L883,26.2969 L883,19.6406 L881.2813,19.6406 Q880.6719,19.6406 880.4063,19.4063 Q880.1406,19.1719 880.1406,18.7813 Q880.1406,18.4063 880.4063,18.1719 Q880.6719,17.9375 881.2813,17.9375 L886.4219,17.9375 Q887.0313,17.9375 887.2969,18.1719 Q887.5625,18.4063 887.5625,18.7813 Q887.5625,19.1719 887.2969,19.4063 Q887.0313,19.6406 886.4219,19.6406 L884.7031,19.6406 Z " fill="#000000"/><text fill="#000000" font-family="sans-serif" font-size="14" font-style="italic" lengthAdjust="spacing" textLength="58" x="904.25" y="28.7285">Clickable</text><line style="stroke:#181818;stroke-width:0.5;" x1="825.5" x2="1008.5" y1="39" y2="39"/><line style="stroke:#181818;stroke-width:0.5;" x1="825.5" x2="1008.5" y1="47" y2="47"/><text fill="#000000" font-family="sans-serif" font-size="14" lengthAdjust="spacing" textLength="145" x="830.5" y="65.5332">activatePerClick(): void</text><text fill="#000000" font-family="sans-serif" font-size="14" lengthAdjust="spacing" textLength="173" x="830.5" y="83.1426">isEnoughEnergy(): boolean</text></g></a><!--class ItemWithCost--><a href="java:game.item.ItemWithCost" target="_top" title="java:game.item.ItemWithCost" xlink:actuate="onRequest" xlink:href="java:game.item.ItemWithCost" xlink:show="new" xlink:title="java:game.item.ItemWithCost" xlink:type="simple"><g id="elem_ItemWithCost"><rect codeLine="12" fill="#F1F1F1" height="48" id="ItemWithCost" rx="2.5" ry="2.5" style="stroke:#181818;stroke-width:0.5;" width="117" x="858.5" y="159"/><ellipse cx="873.5" cy="175" fill="#A9DCDF" rx="11" ry="11" style="stroke:#181818;stroke-width:1.0;"/><path d="M875.6875,176.7656 L871.5469,176.7656 L871.125,177.7969 L871.5469,177.7969 Q872.1563,177.7969 872.4219,178.0313 Q872.6875,178.2656 872.6875,178.6563 Q872.6875,179.0313 872.4219,179.2656 Q872.1563,179.5 871.5469,179.5 L869.25,179.5 Q868.6406,179.5 868.3906,179.2656 Q868.125,179.0313 868.125,178.6406 Q868.125,178.2656 868.4063,178.0313 Q868.6719,177.7813 869.2969,177.7969 L871.9688,171.1406 L870.8594,171.1406 Q870.25,171.1406 869.9844,170.9063 Q869.7188,170.6719 869.7188,170.2813 Q869.7188,169.9063 869.9844,169.6719 Q870.25,169.4375 870.8594,169.4375 L874.5313,169.4375 L877.9219,177.7969 Q878.5156,177.7969 878.7031,177.9375 Q879.0938,178.2031 879.0938,178.6563 Q879.0938,179.0313 878.8281,179.2656 Q878.5781,179.5 877.9688,179.5 L875.6719,179.5 Q875.0625,179.5 874.7969,179.2656 Q874.5313,179.0313 874.5313,178.6406 Q874.5313,178.2656 874.7969,178.0313 Q875.0625,177.7969 875.6719,177.7969 L876.0938,177.7969 L875.6875,176.7656 Z M874.9688,175.0625 L873.6094,171.6875 L872.2344,175.0625 L874.9688,175.0625 Z " fill="#000000"/><text fill="#000000" font-family="sans-serif" font-size="14" font-style="italic" lengthAdjust="spacing" textLength="85" x="887.5" y="180.7285">ItemWithCost</text><line style="stroke:#181818;stroke-width:0.5;" x1="859.5" x2="974.5" y1="191" y2="191"/><line style="stroke:#181818;stroke-width:0.5;" x1="859.5" x2="974.5" y1="199" y2="199"/></g></a><!--class Weapon--><a href="java:game.item.weapon.Weapon" target="_top" title="java:game.item.weapon.Weapon" xlink:actuate="onRequest" xlink:href="java:game.item.weapon.Weapon" xlink:show="new" xlink:title="java:game.item.weapon.Weapon" xlink:type="simple"><g id="elem_Weapon"><rect codeLine="14" fill="#F1F1F1" height="276.9219" id="Weapon" rx="2.5" ry="2.5" style="stroke:#181818;stroke-width:0.5;" width="444" x="603" y="276"/><ellipse cx="794.25" cy="292" fill="#ADD1B2" rx="11" ry="11" style="stroke:#181818;stroke-width:1.0;"/><path d="M797.0156,287.875 Q797.1719,287.6563 797.3594,287.5469 Q797.5469,287.4375 797.7656,287.4375 Q798.1406,287.4375 798.375,287.7031 Q798.6094,287.9531 798.6094,288.5625 L798.6094,290.0156 Q798.6094,290.625 798.375,290.8906 Q798.1406,291.1563 797.7656,291.1563 Q797.4219,291.1563 797.2188,290.9531 Q797.0156,290.7656 796.9063,290.25 Q796.8594,289.8906 796.6719,289.7031 Q796.3438,289.3281 795.7344,289.1094 Q795.125,288.8906 794.5,288.8906 Q793.7344,288.8906 793.0938,289.2188 Q792.4688,289.5469 791.9688,290.2969 Q791.4844,291.0469 791.4844,292.0781 L791.4844,293.1719 Q791.4844,294.4063 792.375,295.2344 Q793.2656,296.0469 794.8594,296.0469 Q795.7969,296.0469 796.4531,295.7969 Q796.8438,295.6406 797.2656,295.2031 Q797.5313,294.9375 797.6719,294.8594 Q797.8281,294.7813 798.0313,294.7813 Q798.3594,294.7813 798.6094,295.0469 Q798.875,295.2969 798.875,295.6406 Q798.875,295.9844 798.5313,296.3906 Q798.0313,296.9688 797.2344,297.2969 Q796.1563,297.75 794.8594,297.75 Q793.3438,297.75 792.1406,297.125 Q791.1563,296.625 790.4688,295.5625 Q789.7813,294.4844 789.7813,293.2031 L789.7813,292.0469 Q789.7813,290.7188 790.3906,289.5781 Q791.0156,288.4219 792.1094,287.8125 Q793.2031,287.1875 794.4375,287.1875 Q795.1719,287.1875 795.8125,287.3594 Q796.4688,287.5156 797.0156,287.875 Z " fill="#000000"/><text fill="#000000" font-family="sans-serif" font-size="14" lengthAdjust="spacing" textLength="53" x="814.75" y="297.7285">Weapon</text><line style="stroke:#181818;stroke-width:0.5;" x1="604" x2="1046" y1="308" y2="308"/><rect fill="none" height="6" style="stroke:#C82930;stroke-width:1.0;" width="6" x="611" y="319.3047"/><text fill="#000000" font-family="sans-serif" font-size="14" lengthAdjust="spacing" textLength="94" x="623" y="326.5332">initDamage: int</text><rect fill="none" height="6" style="stroke:#C82930;stroke-width:1.0;" width="6" x="611" y="336.9141"/><text fill="#000000" font-family="sans-serif" font-size="14" lengthAdjust="spacing" textLength="74" x="623" y="344.1426">damage: int</text><line style="stroke:#181818;stroke-width:0.5;" x1="604" x2="1046" y1="351.2188" y2="351.2188"/><ellipse cx="614" cy="365.5234" fill="#84BE84" rx="3" ry="3" style="stroke:#038048;stroke-width:1.0;"/><text fill="#000000" font-family="sans-serif" font-size="14" lengthAdjust="spacing" textLength="371" x="623" y="369.752">Weapon(name, detail, initDamage, costActivate, width, tier)</text><ellipse cx="614" cy="383.1328" fill="#84BE84" rx="3" ry="3" style="stroke:#038048;stroke-width:1.0;"/><text fill="#000000" font-family="sans-serif" font-size="14" lengthAdjust="spacing" textLength="418" x="623" y="387.3613">Weapon(name, detail, initDamage, costActivate, width, height, tier)</text><ellipse cx="614" cy="400.7422" fill="#84BE84" rx="3" ry="3" style="stroke:#038048;stroke-width:1.0;"/><text fill="#000000" font-family="sans-serif" font-size="14" lengthAdjust="spacing" textLength="169" x="623" y="404.9707">reStatBeforeUpdate(): void</text><ellipse cx="614" cy="418.3516" fill="#84BE84" rx="3" ry="3" style="stroke:#038048;stroke-width:1.0;"/><text fill="#000000" font-family="sans-serif" font-size="14" lengthAdjust="spacing" textLength="145" x="623" y="422.5801">activatePerClick(): void</text><ellipse cx="614" cy="435.9609" fill="#84BE84" rx="3" ry="3" style="stroke:#038048;stroke-width:1.0;"/><text fill="#000000" font-family="sans-serif" font-size="14" lengthAdjust="spacing" textLength="119" x="623" y="440.1895">activateItem(): void</text><ellipse cx="614" cy="453.5703" fill="#84BE84" rx="3" ry="3" style="stroke:#038048;stroke-width:1.0;"/><text fill="#000000" font-family="sans-serif" font-size="14" lengthAdjust="spacing" textLength="123" x="623" y="457.7988">getProvide(): String</text><ellipse cx="614" cy="471.1797" fill="#84BE84" rx="3" ry="3" style="stroke:#038048;stroke-width:1.0;"/><text fill="#000000" font-family="sans-serif" font-size="14" lengthAdjust="spacing" textLength="104" x="623" y="475.4082">toString(): String</text><ellipse cx="614" cy="488.7891" fill="#84BE84" rx="3" ry="3" style="stroke:#038048;stroke-width:1.0;"/><text fill="#000000" font-family="sans-serif" font-size="14" lengthAdjust="spacing" textLength="124" x="623" y="493.0176">getInitDamage(): int</text><ellipse cx="614" cy="506.3984" fill="#84BE84" rx="3" ry="3" style="stroke:#038048;stroke-width:1.0;"/><text fill="#000000" font-family="sans-serif" font-size="14" lengthAdjust="spacing" textLength="106" x="623" y="510.627">getDamage(): int</text><ellipse cx="614" cy="524.0078" fill="#84BE84" rx="3" ry="3" style="stroke:#038048;stroke-width:1.0;"/><text fill="#000000" font-family="sans-serif" font-size="14" lengthAdjust="spacing" textLength="190" x="623" y="528.2363">setDamage(damage: int): void</text><ellipse cx="614" cy="541.6172" fill="#84BE84" rx="3" ry="3" style="stroke:#038048;stroke-width:1.0;"/><text fill="#000000" font-family="sans-serif" font-size="14" lengthAdjust="spacing" textLength="195" x="623" y="545.8457">addDamage(damage: int): void</text></g></a><!--class SpecialWeapon--><a href="java:game.item.weapon.SpecialWeapon" target="_top" title="java:game.item.weapon.SpecialWeapon" xlink:actuate="onRequest" xlink:href="java:game.item.weapon.SpecialWeapon" xlink:show="new" xlink:title="java:game.item.weapon.SpecialWeapon" xlink:type="simple"><g id="elem_SpecialWeapon"><rect codeLine="29" fill="#F1F1F1" height="171.2656" id="SpecialWeapon" rx="2.5" ry="2.5" style="stroke:#181818;stroke-width:0.5;" width="520" x="565" y="613"/><ellipse cx="771.25" cy="629" fill="#ADD1B2" rx="11" ry="11" style="stroke:#181818;stroke-width:1.0;"/><path d="M774.0156,624.875 Q774.1719,624.6563 774.3594,624.5469 Q774.5469,624.4375 774.7656,624.4375 Q775.1406,624.4375 775.375,624.7031 Q775.6094,624.9531 775.6094,625.5625 L775.6094,627.0156 Q775.6094,627.625 775.375,627.8906 Q775.1406,628.1563 774.7656,628.1563 Q774.4219,628.1563 774.2188,627.9531 Q774.0156,627.7656 773.9063,627.25 Q773.8594,626.8906 773.6719,626.7031 Q773.3438,626.3281 772.7344,626.1094 Q772.125,625.8906 771.5,625.8906 Q770.7344,625.8906 770.0938,626.2188 Q769.4688,626.5469 768.9688,627.2969 Q768.4844,628.0469 768.4844,629.0781 L768.4844,630.1719 Q768.4844,631.4063 769.375,632.2344 Q770.2656,633.0469 771.8594,633.0469 Q772.7969,633.0469 773.4531,632.7969 Q773.8438,632.6406 774.2656,632.2031 Q774.5313,631.9375 774.6719,631.8594 Q774.8281,631.7813 775.0313,631.7813 Q775.3594,631.7813 775.6094,632.0469 Q775.875,632.2969 775.875,632.6406 Q775.875,632.9844 775.5313,633.3906 Q775.0313,633.9688 774.2344,634.2969 Q773.1563,634.75 771.8594,634.75 Q770.3438,634.75 769.1406,634.125 Q768.1563,633.625 767.4688,632.5625 Q766.7813,631.4844 766.7813,630.2031 L766.7813,629.0469 Q766.7813,627.7188 767.3906,626.5781 Q768.0156,625.4219 769.1094,624.8125 Q770.2031,624.1875 771.4375,624.1875 Q772.1719,624.1875 772.8125,624.3594 Q773.4688,624.5156 774.0156,624.875 Z " fill="#000000"/><text fill="#000000" font-family="sans-serif" font-size="14" lengthAdjust="spacing" textLength="99" x="791.75" y="634.7285">SpecialWeapon</text><line style="stroke:#181818;stroke-width:0.5;" x1="566" x2="1084" y1="645" y2="645"/><rect fill="none" height="6" style="stroke:#C82930;stroke-width:1.0;" width="6" x="573" y="656.3047"/><text fill="#000000" font-family="sans-serif" font-size="14" lengthAdjust="spacing" textLength="158" x="585" y="663.5332">effects: ArrayList&lt;Effect&gt;</text><line style="stroke:#181818;stroke-width:0.5;" x1="566" x2="1084" y1="670.6094" y2="670.6094"/><ellipse cx="576" cy="684.9141" fill="#84BE84" rx="3" ry="3" style="stroke:#038048;stroke-width:1.0;"/><text fill="#000000" font-family="sans-serif" font-size="14" lengthAdjust="spacing" textLength="447" x="585" y="689.1426">SpecialWeapon(name, detail, effects, damage, costActivate, width, tier)</text><ellipse cx="576" cy="702.5234" fill="#84BE84" rx="3" ry="3" style="stroke:#038048;stroke-width:1.0;"/><text fill="#000000" font-family="sans-serif" font-size="14" lengthAdjust="spacing" textLength="494" x="585" y="706.752">SpecialWeapon(name, detail, effects, damage, costActivate, width, height, tier)</text><ellipse cx="576" cy="720.1328" fill="#84BE84" rx="3" ry="3" style="stroke:#038048;stroke-width:1.0;"/><text fill="#000000" font-family="sans-serif" font-size="14" lengthAdjust="spacing" textLength="119" x="585" y="724.3613">activateItem(): void</text><ellipse cx="576" cy="737.7422" fill="#84BE84" rx="3" ry="3" style="stroke:#038048;stroke-width:1.0;"/><text fill="#000000" font-family="sans-serif" font-size="14" lengthAdjust="spacing" textLength="123" x="585" y="741.9707">getProvide(): String</text><ellipse cx="576" cy="755.3516" fill="#84BE84" rx="3" ry="3" style="stroke:#038048;stroke-width:1.0;"/><text fill="#000000" font-family="sans-serif" font-size="14" lengthAdjust="spacing" textLength="104" x="585" y="759.5801">toString(): String</text><ellipse cx="576" cy="772.9609" fill="#84BE84" rx="3" ry="3" style="stroke:#038048;stroke-width:1.0;"/><text fill="#000000" font-family="sans-serif" font-size="14" lengthAdjust="spacing" textLength="189" x="585" y="777.1895">getEffects(): ArrayList&lt;Effect&gt;</text></g></a><!--class ManaWeapon--><a href="java:game.item.weapon.ManaWeapon" target="_top" title="java:game.item.weapon.ManaWeapon" xlink:actuate="onRequest" xlink:href="java:game.item.weapon.ManaWeapon" xlink:show="new" xlink:title="java:game.item.weapon.ManaWeapon" xlink:type="simple"><g id="elem_ManaWeapon"><rect codeLine="38" fill="#F1F1F1" height="118.4375" id="ManaWeapon" rx="2.5" ry="2.5" style="stroke:#181818;stroke-width:0.5;" width="509" x="690.5" y="870.5"/><ellipse cx="896.75" cy="886.5" fill="#ADD1B2" rx="11" ry="11" style="stroke:#181818;stroke-width:1.0;"/><path d="M899.5156,882.375 Q899.6719,882.1563 899.8594,882.0469 Q900.0469,881.9375 900.2656,881.9375 Q900.6406,881.9375 900.875,882.2031 Q901.1094,882.4531 901.1094,883.0625 L901.1094,884.5156 Q901.1094,885.125 900.875,885.3906 Q900.6406,885.6563 900.2656,885.6563 Q899.9219,885.6563 899.7188,885.4531 Q899.5156,885.2656 899.4063,884.75 Q899.3594,884.3906 899.1719,884.2031 Q898.8438,883.8281 898.2344,883.6094 Q897.625,883.3906 897,883.3906 Q896.2344,883.3906 895.5938,883.7188 Q894.9688,884.0469 894.4688,884.7969 Q893.9844,885.5469 893.9844,886.5781 L893.9844,887.6719 Q893.9844,888.9063 894.875,889.7344 Q895.7656,890.5469 897.3594,890.5469 Q898.2969,890.5469 898.9531,890.2969 Q899.3438,890.1406 899.7656,889.7031 Q900.0313,889.4375 900.1719,889.3594 Q900.3281,889.2813 900.5313,889.2813 Q900.8594,889.2813 901.1094,889.5469 Q901.375,889.7969 901.375,890.1406 Q901.375,890.4844 901.0313,890.8906 Q900.5313,891.4688 899.7344,891.7969 Q898.6563,892.25 897.3594,892.25 Q895.8438,892.25 894.6406,891.625 Q893.6563,891.125 892.9688,890.0625 Q892.2813,888.9844 892.2813,887.7031 L892.2813,886.5469 Q892.2813,885.2188 892.8906,884.0781 Q893.5156,882.9219 894.6094,882.3125 Q895.7031,881.6875 896.9375,881.6875 Q897.6719,881.6875 898.3125,881.8594 Q898.9688,882.0156 899.5156,882.375 Z " fill="#000000"/><text fill="#000000" font-family="sans-serif" font-size="14" lengthAdjust="spacing" textLength="88" x="917.25" y="892.2285">ManaWeapon</text><line style="stroke:#181818;stroke-width:0.5;" x1="691.5" x2="1198.5" y1="902.5" y2="902.5"/><line style="stroke:#181818;stroke-width:0.5;" x1="691.5" x2="1198.5" y1="910.5" y2="910.5"/><ellipse cx="701.5" cy="924.8047" fill="#84BE84" rx="3" ry="3" style="stroke:#038048;stroke-width:1.0;"/><text fill="#000000" font-family="sans-serif" font-size="14" lengthAdjust="spacing" textLength="436" x="710.5" y="929.0332">ManaWeapon(name, detail, effects, damage, costActivate, width, tier)</text><ellipse cx="701.5" cy="942.4141" fill="#84BE84" rx="3" ry="3" style="stroke:#038048;stroke-width:1.0;"/><text fill="#000000" font-family="sans-serif" font-size="14" lengthAdjust="spacing" textLength="483" x="710.5" y="946.6426">ManaWeapon(name, detail, effects, damage, costActivate, width, height, tier)</text><ellipse cx="701.5" cy="960.0234" fill="#84BE84" rx="3" ry="3" style="stroke:#038048;stroke-width:1.0;"/><text fill="#000000" font-family="sans-serif" font-size="14" lengthAdjust="spacing" textLength="173" x="710.5" y="964.252">isEnoughEnergy(): boolean</text><ellipse cx="701.5" cy="977.6328" fill="#84BE84" rx="3" ry="3" style="stroke:#038048;stroke-width:1.0;"/><text fill="#000000" font-family="sans-serif" font-size="14" lengthAdjust="spacing" textLength="104" x="710.5" y="981.8613">toString(): String</text></g></a><!--class IncreaseCostWeapon--><a href="java:game.item.weapon.IncreaseCostWeapon" target="_top" title="java:game.item.weapon.IncreaseCostWeapon" xlink:actuate="onRequest" xlink:href="java:game.item.weapon.IncreaseCostWeapon" xlink:show="new" xlink:title="java:game.item.weapon.IncreaseCostWeapon" xlink:type="simple"><g id="elem_IncreaseCostWeapon"><rect codeLine="44" fill="#F1F1F1" height="171.2656" id="IncreaseCostWeapon" rx="2.5" ry="2.5" style="stroke:#181818;stroke-width:0.5;" width="648" x="7" y="844"/><ellipse cx="258.75" cy="860" fill="#ADD1B2" rx="11" ry="11" style="stroke:#181818;stroke-width:1.0;"/><path d="M261.5156,855.875 Q261.6719,855.6563 261.8594,855.5469 Q262.0469,855.4375 262.2656,855.4375 Q262.6406,855.4375 262.875,855.7031 Q263.1094,855.9531 263.1094,856.5625 L263.1094,858.0156 Q263.1094,858.625 262.875,858.8906 Q262.6406,859.1563 262.2656,859.1563 Q261.9219,859.1563 261.7188,858.9531 Q261.5156,858.7656 261.4063,858.25 Q261.3594,857.8906 261.1719,857.7031 Q260.8438,857.3281 260.2344,857.1094 Q259.625,856.8906 259,856.8906 Q258.2344,856.8906 257.5938,857.2188 Q256.9688,857.5469 256.4688,858.2969 Q255.9844,859.0469 255.9844,860.0781 L255.9844,861.1719 Q255.9844,862.4063 256.875,863.2344 Q257.7656,864.0469 259.3594,864.0469 Q260.2969,864.0469 260.9531,863.7969 Q261.3438,863.6406 261.7656,863.2031 Q262.0313,862.9375 262.1719,862.8594 Q262.3281,862.7813 262.5313,862.7813 Q262.8594,862.7813 263.1094,863.0469 Q263.375,863.2969 263.375,863.6406 Q263.375,863.9844 263.0313,864.3906 Q262.5313,864.9688 261.7344,865.2969 Q260.6563,865.75 259.3594,865.75 Q257.8438,865.75 256.6406,865.125 Q255.6563,864.625 254.9688,863.5625 Q254.2813,862.4844 254.2813,861.2031 L254.2813,860.0469 Q254.2813,858.7188 254.8906,857.5781 Q255.5156,856.4219 256.6094,855.8125 Q257.7031,855.1875 258.9375,855.1875 Q259.6719,855.1875 260.3125,855.3594 Q260.9688,855.5156 261.5156,855.875 Z " fill="#000000"/><text fill="#000000" font-family="sans-serif" font-size="14" lengthAdjust="spacing" textLength="136" x="279.25" y="865.7285">IncreaseCostWeapon</text><line style="stroke:#181818;stroke-width:0.5;" x1="8" x2="654" y1="876" y2="876"/><rect fill="none" height="6" style="stroke:#C82930;stroke-width:1.0;" width="6" x="15" y="887.3047"/><text fill="#000000" font-family="sans-serif" font-size="14" lengthAdjust="spacing" textLength="70" x="27" y="894.5332">initCost: int</text><rect fill="none" height="6" style="stroke:#C82930;stroke-width:1.0;" width="6" x="15" y="904.9141"/><text fill="#000000" font-family="sans-serif" font-size="14" lengthAdjust="spacing" textLength="106" x="27" y="912.1426">increaseCost: int</text><line style="stroke:#181818;stroke-width:0.5;" x1="8" x2="654" y1="919.2188" y2="919.2188"/><ellipse cx="18" cy="933.5234" fill="#84BE84" rx="3" ry="3" style="stroke:#038048;stroke-width:1.0;"/><text fill="#000000" font-family="sans-serif" font-size="14" lengthAdjust="spacing" textLength="575" x="27" y="937.752">IncreaseCostWeapon(name, detail, effects, damage, costActivate, increaseCost, width, tier)</text><ellipse cx="18" cy="951.1328" fill="#84BE84" rx="3" ry="3" style="stroke:#038048;stroke-width:1.0;"/><text fill="#000000" font-family="sans-serif" font-size="14" lengthAdjust="spacing" textLength="622" x="27" y="955.3613">IncreaseCostWeapon(name, detail, effects, damage, costActivate, increaseCost, width, height, tier)</text><ellipse cx="18" cy="968.7422" fill="#84BE84" rx="3" ry="3" style="stroke:#038048;stroke-width:1.0;"/><text fill="#000000" font-family="sans-serif" font-size="14" lengthAdjust="spacing" textLength="145" x="27" y="972.9707">activatePerTurn(): void</text><ellipse cx="18" cy="986.3516" fill="#84BE84" rx="3" ry="3" style="stroke:#038048;stroke-width:1.0;"/><text fill="#000000" font-family="sans-serif" font-size="14" lengthAdjust="spacing" textLength="119" x="27" y="990.5801">activateItem(): void</text><ellipse cx="18" cy="1003.9609" fill="#84BE84" rx="3" ry="3" style="stroke:#038048;stroke-width:1.0;"/><text fill="#000000" font-family="sans-serif" font-size="14" lengthAdjust="spacing" textLength="104" x="27" y="1008.1895">toString(): String</text></g></a><!--reverse link Clickable to ItemWithCost--><g id="link_Clickable_ItemWithCost"><path codeLine="13" d="M917,108.34 C917,130.84 917,139.96 917,158.84 " fill="none" id="Clickable-backto-ItemWithCost" style="stroke:#181818;stroke-width:1.0;stroke-dasharray:7.0,7.0;"/><polygon fill="none" points="917,90.34,911,108.34,923,108.34,917,90.34" style="stroke:#181818;stroke-width:1.0;"/></g><!--reverse link ItemWithCost to Weapon--><g id="link_ItemWithCost_Weapon"><path codeLine="53" d="M900.9766,223.9792 C894.1066,241.1292 890.82,249.31 880.16,275.9 " fill="none" id="ItemWithCost-backto-Weapon" style="stroke:#181818;stroke-width:1.0;"/><polygon fill="none" points="907.67,207.27,895.4068,221.7481,906.5463,226.2104,907.67,207.27" style="stroke:#181818;stroke-width:1.0;"/></g><!--reverse link ReStatable to Weapon--><g id="link_ReStatable_Weapon"><path codeLine="54" d="M752.6803,233.1005 C759.2103,249.4105 760.94,253.71 769.84,275.9 " fill="none" id="ReStatable-backto-Weapon" style="stroke:#181818;stroke-width:1.0;stroke-dasharray:7.0,7.0;"/><polygon fill="none" points="745.99,216.39,747.1102,235.3306,758.2505,230.8703,745.99,216.39" style="stroke:#181818;stroke-width:1.0;"/></g><!--reverse link Weapon to SpecialWeapon--><g id="link_Weapon_SpecialWeapon"><path codeLine="55" d="M825,571.2 C825,591.61 825,594.11 825,613 " fill="none" id="Weapon-backto-SpecialWeapon" style="stroke:#181818;stroke-width:1.0;"/><polygon fill="none" points="825,553.2,819,571.2,831,571.2,825,553.2" style="stroke:#181818;stroke-width:1.0;"/></g><!--reverse link SpecialWeapon to IncreaseCostWeapon--><g id="link_SpecialWeapon_IncreaseCostWeapon"><path codeLine="56" d="M626.1282,791.6879 C584.0682,811.1779 555.67,824.35 513.62,843.85 " fill="none" id="SpecialWeapon-backto-IncreaseCostWeapon" style="stroke:#181818;stroke-width:1.0;"/><polygon fill="none" points="642.46,784.12,623.6056,786.244,628.6509,797.1318,642.46,784.12" style="stroke:#181818;stroke-width:1.0;"/></g><!--reverse link TurnActivable to IncreaseCostWeapon--><g id="link_TurnActivable_IncreaseCostWeapon"><path codeLine="57" d="M331,749.82 C331,778.8 331,804.61 331,843.53 " fill="none" id="TurnActivable-backto-IncreaseCostWeapon" style="stroke:#181818;stroke-width:1.0;stroke-dasharray:7.0,7.0;"/><polygon fill="none" points="331,731.82,325,749.82,337,749.82,331,731.82" style="stroke:#181818;stroke-width:1.0;"/></g><!--reverse link SpecialWeapon to ManaWeapon--><g id="link_SpecialWeapon_ManaWeapon"><path codeLine="58" d="M877.6932,800.0644 C892.7132,828.7344 900.79,844.14 914.49,870.28 " fill="none" id="SpecialWeapon-backto-ManaWeapon" style="stroke:#181818;stroke-width:1.0;"/><polygon fill="none" points="869.34,784.12,872.3784,802.8488,883.008,797.28,869.34,784.12" style="stroke:#181818;stroke-width:1.0;"/></g><!--SRC=[jLN1Rjim33tNNw5ZYph-W20OaBKv1DY0ekdGGz63OZCsMqSA93P5iURV9ycEBLLniotRpNgFV9GUPOhaXf5aIqaarwn01JcX50aA0hNYER2x5oMc1jpoPGtiuU69R_cuetKMy8-Fx6TonjsIu0QKPSylncmhiKXsdkmjB8ZJW6PFDeBAhR_2IYhuiIcCz47Dgnhpvm79Zeksw9XExmprJCYNife9KEMRnPTIri25ASMNcfH9PNdDjMPpWlKzKdKbDUrBbdmD6HeYyrbRT9Vq-vkyPrcGdZIAzy0tKiHQhmxF6jgTWB4H2gHhlkObZ9avgOMAO7dPn9yBevEo0eXZdR8-BMMvAJrjhKZPAnPKfOmGrCNVfrU0PKMUp2VTC-nW9ppEEkNZ9T2DabiidDA258hIuYIRxn0rqVDkqvPgtJ5uXEaEywpqTrGKm_okxU9Y0pdo-aWpWwXzJs6rCd-W7hEfKlpj6sgQp1pqnLOFKZxqfSqqm6_rzdIfgC__h5lDYRN5Onls9d_dWXznk0zfxRtiaTFSEr4dicvuw1psQM_2NEGAk0OxGewO4OVwSyIYtHH1BxJxC-ByFpkwBneR-b_K1s_enuVfayjxqFnWy4_UHwDsS2VUg-P6V0kthN6HmO-NXAF21SHM9E4Rt3mUSTG1hVwU_W80]--></g></svg>