<?xml version="1.0" encoding="us-ascii" standalone="no"?><svg xmlns="http://www.w3.org/2000/svg" xmlns:xlink="http://www.w3.org/1999/xlink" contentStyleType="text/css" height="321px" preserveAspectRatio="none" style="width:1319px;height:321px;background:#FFFFFF;" version="1.1" viewBox="0 0 1319 321" width="1319px" zoomAndPan="magnify"><defs/><g><!--class Item--><a href="java:game.item.Item" target="_top" title="java:game.item.Item" xlink:actuate="onRequest" xlink:href="java:game.item.Item" xlink:show="new" xlink:title="java:game.item.Item" xlink:type="simple"><g id="elem_Item"><rect codeLine="2" fill="#F1F1F1" height="48" id="Item" rx="2.5" ry="2.5" style="stroke:#181818;stroke-width:0.5;" width="59" x="1253" y="240.5"/><ellipse cx="1268" cy="256.5" fill="#A9DCDF" rx="11" ry="11" style="stroke:#181818;stroke-width:1.0;"/><path d="M1270.1875,258.2656 L1266.0469,258.2656 L1265.625,259.2969 L1266.0469,259.2969 Q1266.6563,259.2969 1266.9219,259.5313 Q1267.1875,259.7656 1267.1875,260.1563 Q1267.1875,260.5313 1266.9219,260.7656 Q1266.6563,261 1266.0469,261 L1263.75,261 Q1263.1406,261 1262.8906,260.7656 Q1262.625,260.5313 1262.625,260.1406 Q1262.625,259.7656 1262.9063,259.5313 Q1263.1719,259.2813 1263.7969,259.2969 L1266.4688,252.6406 L1265.3594,252.6406 Q1264.75,252.6406 1264.4844,252.4063 Q1264.2188,252.1719 1264.2188,251.7813 Q1264.2188,251.4063 1264.4844,251.1719 Q1264.75,250.9375 1265.3594,250.9375 L1269.0313,250.9375 L1272.4219,259.2969 Q1273.0156,259.2969 1273.2031,259.4375 Q1273.5938,259.7031 1273.5938,260.1563 Q1273.5938,260.5313 1273.3281,260.7656 Q1273.0781,261 1272.4688,261 L1270.1719,261 Q1269.5625,261 1269.2969,260.7656 Q1269.0313,260.5313 1269.0313,260.1406 Q1269.0313,259.7656 1269.2969,259.5313 Q1269.5625,259.2969 1270.1719,259.2969 L1270.5938,259.2969 L1270.1875,258.2656 Z M1269.4688,256.5625 L1268.1094,253.1875 L1266.7344,256.5625 L1269.4688,256.5625 Z " fill="#000000"/><text fill="#000000" font-family="sans-serif" font-size="14" font-style="italic" lengthAdjust="spacing" textLength="27" x="1282" y="262.2285">Item</text><line style="stroke:#181818;stroke-width:0.5;" x1="1254" x2="1311" y1="272.5" y2="272.5"/><line style="stroke:#181818;stroke-width:0.5;" x1="1254" x2="1311" y1="280.5" y2="280.5"/></g></a><!--class ItemRandomizer--><a href="java:game.itemGenerator.ItemRandomizer" target="_top" title="java:game.itemGenerator.ItemRandomizer" xlink:actuate="onRequest" xlink:href="java:game.itemGenerator.ItemRandomizer" xlink:show="new" xlink:title="java:game.itemGenerator.ItemRandomizer" xlink:type="simple"><g id="elem_ItemRandomizer"><rect codeLine="3" fill="#F1F1F1" height="188.875" id="ItemRandomizer" rx="2.5" ry="2.5" style="stroke:#181818;stroke-width:0.5;" width="305" x="7" y="7"/><ellipse cx="104.75" cy="23" fill="#ADD1B2" rx="11" ry="11" style="stroke:#181818;stroke-width:1.0;"/><path d="M107.5156,18.875 Q107.6719,18.6563 107.8594,18.5469 Q108.0469,18.4375 108.2656,18.4375 Q108.6406,18.4375 108.875,18.7031 Q109.1094,18.9531 109.1094,19.5625 L109.1094,21.0156 Q109.1094,21.625 108.875,21.8906 Q108.6406,22.1563 108.2656,22.1563 Q107.9219,22.1563 107.7188,21.9531 Q107.5156,21.7656 107.4063,21.25 Q107.3594,20.8906 107.1719,20.7031 Q106.8438,20.3281 106.2344,20.1094 Q105.625,19.8906 105,19.8906 Q104.2344,19.8906 103.5938,20.2188 Q102.9688,20.5469 102.4688,21.2969 Q101.9844,22.0469 101.9844,23.0781 L101.9844,24.1719 Q101.9844,25.4063 102.875,26.2344 Q103.7656,27.0469 105.3594,27.0469 Q106.2969,27.0469 106.9531,26.7969 Q107.3438,26.6406 107.7656,26.2031 Q108.0313,25.9375 108.1719,25.8594 Q108.3281,25.7813 108.5313,25.7813 Q108.8594,25.7813 109.1094,26.0469 Q109.375,26.2969 109.375,26.6406 Q109.375,26.9844 109.0313,27.3906 Q108.5313,27.9688 107.7344,28.2969 Q106.6563,28.75 105.3594,28.75 Q103.8438,28.75 102.6406,28.125 Q101.6563,27.625 100.9688,26.5625 Q100.2813,25.4844 100.2813,24.2031 L100.2813,23.0469 Q100.2813,21.7188 100.8906,20.5781 Q101.5156,19.4219 102.6094,18.8125 Q103.7031,18.1875 104.9375,18.1875 Q105.6719,18.1875 106.3125,18.3594 Q106.9688,18.5156 107.5156,18.875 Z " fill="#000000"/><text fill="#000000" font-family="sans-serif" font-size="14" lengthAdjust="spacing" textLength="101" x="125.25" y="28.7285">ItemRandomizer</text><line style="stroke:#181818;stroke-width:0.5;" x1="8" x2="311" y1="39" y2="39"/><rect fill="none" height="6" style="stroke:#C82930;stroke-width:1.0;" width="6" x="15" y="50.3047"/><text fill="#000000" font-family="sans-serif" font-size="14" lengthAdjust="spacing" text-decoration="underline" textLength="106" x="27" y="57.5332">common: String[]</text><rect fill="none" height="6" style="stroke:#C82930;stroke-width:1.0;" width="6" x="15" y="67.9141"/><text fill="#000000" font-family="sans-serif" font-size="14" lengthAdjust="spacing" text-decoration="underline" textLength="122" x="27" y="75.1426">uncommon: String[]</text><rect fill="none" height="6" style="stroke:#C82930;stroke-width:1.0;" width="6" x="15" y="85.5234"/><text fill="#000000" font-family="sans-serif" font-size="14" lengthAdjust="spacing" text-decoration="underline" textLength="79" x="27" y="92.752">rare: String[]</text><rect fill="none" height="6" style="stroke:#C82930;stroke-width:1.0;" width="6" x="15" y="103.1328"/><text fill="#000000" font-family="sans-serif" font-size="14" lengthAdjust="spacing" text-decoration="underline" textLength="79" x="27" y="110.3613">epic: String[]</text><rect fill="none" height="6" style="stroke:#C82930;stroke-width:1.0;" width="6" x="15" y="120.7422"/><text fill="#000000" font-family="sans-serif" font-size="14" lengthAdjust="spacing" text-decoration="underline" textLength="96" x="27" y="127.9707">legend: String[]</text><line style="stroke:#181818;stroke-width:0.5;" x1="8" x2="311" y1="135.0469" y2="135.0469"/><rect fill="#F24D5C" height="6" style="stroke:#C82930;stroke-width:1.0;" width="6" x="15" y="146.3516"/><text fill="#000000" font-family="sans-serif" font-size="14" lengthAdjust="spacing" text-decoration="underline" textLength="114" x="27" y="153.5801">getTier(): ItemTier</text><ellipse cx="18" cy="166.9609" fill="#84BE84" rx="3" ry="3" style="stroke:#038048;stroke-width:1.0;"/><text fill="#000000" font-family="sans-serif" font-size="14" lengthAdjust="spacing" text-decoration="underline" textLength="279" x="27" y="171.1895">getNameFromTier(itemTier: ItemTier): String</text><ellipse cx="18" cy="184.5703" fill="#84BE84" rx="3" ry="3" style="stroke:#038048;stroke-width:1.0;"/><text fill="#000000" font-family="sans-serif" font-size="14" lengthAdjust="spacing" text-decoration="underline" textLength="190" x="27" y="188.7988">getRandomItemName(): String</text></g></a><!--class ResourceLoader--><a href="java:game.itemGenerator.ResourceLoader" target="_top" title="java:game.itemGenerator.ResourceLoader" xlink:actuate="onRequest" xlink:href="java:game.itemGenerator.ResourceLoader" xlink:show="new" xlink:title="java:game.itemGenerator.ResourceLoader" xlink:type="simple"><g id="elem_ResourceLoader"><rect codeLine="13" fill="#F1F1F1" height="65.6094" id="ResourceLoader" rx="2.5" ry="2.5" style="stroke:#181818;stroke-width:0.5;" width="201" x="59" y="231.5"/><ellipse cx="102.35" cy="247.5" fill="#ADD1B2" rx="11" ry="11" style="stroke:#181818;stroke-width:1.0;"/><path d="M105.1156,243.375 Q105.2719,243.1563 105.4594,243.0469 Q105.6469,242.9375 105.8656,242.9375 Q106.2406,242.9375 106.475,243.2031 Q106.7094,243.4531 106.7094,244.0625 L106.7094,245.5156 Q106.7094,246.125 106.475,246.3906 Q106.2406,246.6563 105.8656,246.6563 Q105.5219,246.6563 105.3188,246.4531 Q105.1156,246.2656 105.0063,245.75 Q104.9594,245.3906 104.7719,245.2031 Q104.4438,244.8281 103.8344,244.6094 Q103.225,244.3906 102.6,244.3906 Q101.8344,244.3906 101.1938,244.7188 Q100.5688,245.0469 100.0688,245.7969 Q99.5844,246.5469 99.5844,247.5781 L99.5844,248.6719 Q99.5844,249.9063 100.475,250.7344 Q101.3656,251.5469 102.9594,251.5469 Q103.8969,251.5469 104.5531,251.2969 Q104.9438,251.1406 105.3656,250.7031 Q105.6313,250.4375 105.7719,250.3594 Q105.9281,250.2813 106.1313,250.2813 Q106.4594,250.2813 106.7094,250.5469 Q106.975,250.7969 106.975,251.1406 Q106.975,251.4844 106.6313,251.8906 Q106.1313,252.4688 105.3344,252.7969 Q104.2563,253.25 102.9594,253.25 Q101.4438,253.25 100.2406,252.625 Q99.2563,252.125 98.5688,251.0625 Q97.8813,249.9844 97.8813,248.7031 L97.8813,247.5469 Q97.8813,246.2188 98.4906,245.0781 Q99.1156,243.9219 100.2094,243.3125 Q101.3031,242.6875 102.5375,242.6875 Q103.2719,242.6875 103.9125,242.8594 Q104.5688,243.0156 105.1156,243.375 Z " fill="#000000"/><text fill="#000000" font-family="sans-serif" font-size="14" lengthAdjust="spacing" textLength="106" x="122.65" y="253.2285">ResourceLoader</text><line style="stroke:#181818;stroke-width:0.5;" x1="60" x2="259" y1="263.5" y2="263.5"/><line style="stroke:#181818;stroke-width:0.5;" x1="60" x2="259" y1="271.5" y2="271.5"/><ellipse cx="70" cy="285.8047" fill="#84BE84" rx="3" ry="3" style="stroke:#038048;stroke-width:1.0;"/><text fill="#000000" font-family="sans-serif" font-size="14" lengthAdjust="spacing" text-decoration="underline" textLength="175" x="79" y="290.0332">newItem(name: String): Item</text></g></a><!--class Resource--><a href="java:game.itemGenerator.Resource" target="_top" title="java:game.itemGenerator.Resource" xlink:actuate="onRequest" xlink:href="java:game.itemGenerator.Resource" xlink:show="new" xlink:title="java:game.itemGenerator.Resource" xlink:type="simple"><g id="elem_Resource"><rect codeLine="16" fill="#F1F1F1" height="100.8281" id="Resource" rx="2.5" ry="2.5" style="stroke:#181818;stroke-width:0.5;" width="330" x="805" y="214"/><ellipse cx="935.25" cy="230" fill="#ADD1B2" rx="11" ry="11" style="stroke:#181818;stroke-width:1.0;"/><path d="M938.0156,225.875 Q938.1719,225.6563 938.3594,225.5469 Q938.5469,225.4375 938.7656,225.4375 Q939.1406,225.4375 939.375,225.7031 Q939.6094,225.9531 939.6094,226.5625 L939.6094,228.0156 Q939.6094,228.625 939.375,228.8906 Q939.1406,229.1563 938.7656,229.1563 Q938.4219,229.1563 938.2188,228.9531 Q938.0156,228.7656 937.9063,228.25 Q937.8594,227.8906 937.6719,227.7031 Q937.3438,227.3281 936.7344,227.1094 Q936.125,226.8906 935.5,226.8906 Q934.7344,226.8906 934.0938,227.2188 Q933.4688,227.5469 932.9688,228.2969 Q932.4844,229.0469 932.4844,230.0781 L932.4844,231.1719 Q932.4844,232.4063 933.375,233.2344 Q934.2656,234.0469 935.8594,234.0469 Q936.7969,234.0469 937.4531,233.7969 Q937.8438,233.6406 938.2656,233.2031 Q938.5313,232.9375 938.6719,232.8594 Q938.8281,232.7813 939.0313,232.7813 Q939.3594,232.7813 939.6094,233.0469 Q939.875,233.2969 939.875,233.6406 Q939.875,233.9844 939.5313,234.3906 Q939.0313,234.9688 938.2344,235.2969 Q937.1563,235.75 935.8594,235.75 Q934.3438,235.75 933.1406,235.125 Q932.1563,234.625 931.4688,233.5625 Q930.7813,232.4844 930.7813,231.2031 L930.7813,230.0469 Q930.7813,228.7188 931.3906,227.5781 Q932.0156,226.4219 933.1094,225.8125 Q934.2031,225.1875 935.4375,225.1875 Q936.1719,225.1875 936.8125,225.3594 Q937.4688,225.5156 938.0156,225.875 Z " fill="#000000"/><text fill="#000000" font-family="sans-serif" font-size="14" lengthAdjust="spacing" textLength="61" x="955.75" y="235.7285">Resource</text><line style="stroke:#181818;stroke-width:0.5;" x1="806" x2="1134" y1="246" y2="246"/><rect fill="none" height="6" style="stroke:#C82930;stroke-width:1.0;" width="6" x="813" y="257.3047"/><text fill="#000000" font-family="sans-serif" font-size="14" lengthAdjust="spacing" textLength="84" x="825" y="264.5332">image: Image</text><rect fill="none" height="6" style="stroke:#C82930;stroke-width:1.0;" width="6" x="813" y="274.9141"/><text fill="#000000" font-family="sans-serif" font-size="14" lengthAdjust="spacing" textLength="73" x="825" y="282.1426">path: String</text><line style="stroke:#181818;stroke-width:0.5;" x1="806" x2="1134" y1="289.2188" y2="289.2188"/><ellipse cx="816" cy="303.5234" fill="#84BE84" rx="3" ry="3" style="stroke:#038048;stroke-width:1.0;"/><text fill="#000000" font-family="sans-serif" font-size="14" lengthAdjust="spacing" textLength="304" x="825" y="307.752">Resource(supplier: Supplier&lt;Item&gt;, path: String)</text></g></a><!--class ItemList--><a href="java:game.itemGenerator.ItemList" target="_top" title="java:game.itemGenerator.ItemList" xlink:actuate="onRequest" xlink:href="java:game.itemGenerator.ItemList" xlink:show="new" xlink:title="java:game.itemGenerator.ItemList" xlink:type="simple"><g id="elem_ItemList"><rect codeLine="21" fill="#F1F1F1" height="83.2188" id="ItemList" rx="2.5" ry="2.5" style="stroke:#181818;stroke-width:0.5;" width="294" x="399" y="223"/><ellipse cx="517.75" cy="239" fill="#ADD1B2" rx="11" ry="11" style="stroke:#181818;stroke-width:1.0;"/><path d="M520.5156,234.875 Q520.6719,234.6563 520.8594,234.5469 Q521.0469,234.4375 521.2656,234.4375 Q521.6406,234.4375 521.875,234.7031 Q522.1094,234.9531 522.1094,235.5625 L522.1094,237.0156 Q522.1094,237.625 521.875,237.8906 Q521.6406,238.1563 521.2656,238.1563 Q520.9219,238.1563 520.7188,237.9531 Q520.5156,237.7656 520.4063,237.25 Q520.3594,236.8906 520.1719,236.7031 Q519.8438,236.3281 519.2344,236.1094 Q518.625,235.8906 518,235.8906 Q517.2344,235.8906 516.5938,236.2188 Q515.9688,236.5469 515.4688,237.2969 Q514.9844,238.0469 514.9844,239.0781 L514.9844,240.1719 Q514.9844,241.4063 515.875,242.2344 Q516.7656,243.0469 518.3594,243.0469 Q519.2969,243.0469 519.9531,242.7969 Q520.3438,242.6406 520.7656,242.2031 Q521.0313,241.9375 521.1719,241.8594 Q521.3281,241.7813 521.5313,241.7813 Q521.8594,241.7813 522.1094,242.0469 Q522.375,242.2969 522.375,242.6406 Q522.375,242.9844 522.0313,243.3906 Q521.5313,243.9688 520.7344,244.2969 Q519.6563,244.75 518.3594,244.75 Q516.8438,244.75 515.6406,244.125 Q514.6563,243.625 513.9688,242.5625 Q513.2813,241.4844 513.2813,240.2031 L513.2813,239.0469 Q513.2813,237.7188 513.8906,236.5781 Q514.5156,235.4219 515.6094,234.8125 Q516.7031,234.1875 517.9375,234.1875 Q518.6719,234.1875 519.3125,234.3594 Q519.9688,234.5156 520.5156,234.875 Z " fill="#000000"/><text fill="#000000" font-family="sans-serif" font-size="14" lengthAdjust="spacing" textLength="48" x="538.25" y="244.7285">ItemList</text><line style="stroke:#181818;stroke-width:0.5;" x1="400" x2="692" y1="255" y2="255"/><rect fill="none" height="6" style="stroke:#C82930;stroke-width:1.0;" width="6" x="407" y="266.3047"/><text fill="#000000" font-family="sans-serif" font-size="14" lengthAdjust="spacing" text-decoration="underline" textLength="238" x="419" y="273.5332">itemMap: HashMap&lt;String,Resource&gt;</text><line style="stroke:#181818;stroke-width:0.5;" x1="400" x2="692" y1="280.6094" y2="280.6094"/><ellipse cx="410" cy="294.9141" fill="#84BE84" rx="3" ry="3" style="stroke:#038048;stroke-width:1.0;"/><text fill="#000000" font-family="sans-serif" font-size="14" lengthAdjust="spacing" text-decoration="underline" textLength="268" x="419" y="299.1426">getItemMap(): HashMap&lt;String,Resource&gt;</text></g></a><!--link ResourceLoader to ItemList--><g id="link_ResourceLoader_ItemList"><path codeLine="26" d="M260.02,264.5 C302.3,264.5 346.44,264.5 392.79,264.5 " fill="none" id="ResourceLoader-to-ItemList" style="stroke:#181818;stroke-width:1.0;"/><polygon fill="#181818" points="398.79,264.5,389.79,260.5,393.79,264.5,389.79,268.5,398.79,264.5" style="stroke:#181818;stroke-width:1.0;"/><text fill="#000000" font-family="sans-serif" font-size="13" lengthAdjust="spacing" textLength="25" x="343" y="260.9951">item</text><text fill="#000000" font-family="sans-serif" font-size="13" lengthAdjust="spacing" textLength="7" x="384.019" y="278.411">1</text></g><!--link ItemList to Resource--><g id="link_ItemList_Resource"><path codeLine="27" d="M693.12,264.5 C729.19,264.5 762.08,264.5 798.95,264.5 " fill="none" id="ItemList-to-Resource" style="stroke:#181818;stroke-width:1.0;"/><polygon fill="#181818" points="804.95,264.5,795.95,260.5,799.95,264.5,795.95,268.5,804.95,264.5" style="stroke:#181818;stroke-width:1.0;"/><text fill="#000000" font-family="sans-serif" font-size="13" lengthAdjust="spacing" textLength="50" x="724" y="260.9951">resource</text><text fill="#000000" font-family="sans-serif" font-size="13" lengthAdjust="spacing" textLength="7" x="789.7859" y="278.3953">1</text></g><!--link Resource to Item--><g id="link_Resource_Item"><path codeLine="28" d="M1135.34,264.5 C1180.73,264.5 1219.07,264.5 1246.79,264.5 " fill="none" id="Resource-to-Item" style="stroke:#181818;stroke-width:1.0;"/><polygon fill="#181818" points="1252.79,264.5,1243.79,260.5,1247.79,264.5,1243.79,268.5,1252.79,264.5" style="stroke:#181818;stroke-width:1.0;"/><text fill="#000000" font-family="sans-serif" font-size="13" lengthAdjust="spacing" textLength="45" x="1171.5" y="260.9951">supplier</text><text fill="#000000" font-family="sans-serif" font-size="13" lengthAdjust="spacing" textLength="88" x="1157.1887" y="278.8382">Supplier&lt;Item&gt;</text></g><!--link Resource to Item--><g id="link_Resource_Item"><path codeLine="29" d="M1135.14,296.2 C1164.56,297.7 1194.82,296.48 1223,290.5 C1233.11,288.35 1238.1479,286.845 1247.3979,282.595 " fill="none" id="Resource-to-Item-1" style="stroke:#181818;stroke-width:1.0;"/><polygon fill="#181818" points="1252.85,280.09,1243.0019,280.2128,1248.3066,282.1775,1246.3419,287.4822,1252.85,280.09" style="stroke:#181818;stroke-width:1.0;"/><text fill="#000000" font-family="sans-serif" font-size="13" lengthAdjust="spacing" textLength="56" x="1166" y="286.9951">newItem()</text><text fill="#000000" font-family="sans-serif" font-size="13" lengthAdjust="spacing" textLength="7" x="1238.1841" y="299.081">1</text></g><!--SRC=[ZP9DRy8m38RFv5T4d5eDaBXMYECs9BO3x8OuUAbNChL9bPXD6kA_BscRjXJsSOeJFtuTlqcERyH9SoEp0_5K6XGajMBmQic082voi9Ql20k-sxt31oGP53YJxc3cJ_TxVZgpZjg0IdKXlz1SyG-eq01fCxi4lGGRJK-MWAGuSw6BGgk4Ryb8bUts_TnH_POrOF1s1aifRcTop52bjtCPqej44yL9DPkFsUYkdtvsmzqRNQKYsJ0T7GVTGLazlAUyGDHXmSeDMdqq0jSQqb-jl0HhAxjM2ZzzaqYvmj2Z6UQgrJ-QD2yb2yYStCelRbi27Nfp1ZYonxBCApksJRJmZPSJtg-8MV_xhAMbFpwEHuPVnbDFK2Ry4Up11OjQUnBkiXpulwfvR_oF5MV61gymdIxvU3xkBffKZLcx3q1hQS9D4xPQDNJfI2tfw63PW9wtG7ZGcB5l]--></g></svg>