<?xml version="1.0" encoding="us-ascii" standalone="no"?><svg xmlns="http://www.w3.org/2000/svg" xmlns:xlink="http://www.w3.org/1999/xlink" contentStyleType="text/css" height="614px" preserveAspectRatio="none" style="width:1260px;height:614px;background:#FFFFFF;" version="1.1" viewBox="0 0 1260 614" width="1260px" zoomAndPan="magnify"><defs/><g><!--class ReRenderable--><a href="java:interfaces.ReRenderable" target="_top" title="java:interfaces.ReRenderable" xlink:actuate="onRequest" xlink:href="java:interfaces.ReRenderable" xlink:show="new" xlink:title="java:interfaces.ReRenderable" xlink:type="simple"><g id="elem_ReRenderable"><rect codeLine="1" fill="#F1F1F1" height="65.6094" id="ReRenderable" rx="2.5" ry="2.5" style="stroke:#181818;stroke-width:0.5;" width="124" x="248.5" y="7"/><ellipse cx="263.5" cy="23" fill="#B4A7E5" rx="11" ry="11" style="stroke:#181818;stroke-width:1.0;"/><path d="M264.4531,19.6406 L264.4531,26.2969 L266.1719,26.2969 Q266.7813,26.2969 267.0469,26.5313 Q267.3125,26.7656 267.3125,27.1563 Q267.3125,27.5313 267.0469,27.7656 Q266.7813,28 266.1719,28 L261.0313,28 Q260.4219,28 260.1563,27.7656 Q259.8906,27.5313 259.8906,27.1406 Q259.8906,26.7656 260.1563,26.5313 Q260.4219,26.2969 261.0313,26.2969 L262.75,26.2969 L262.75,19.6406 L261.0313,19.6406 Q260.4219,19.6406 260.1563,19.4063 Q259.8906,19.1719 259.8906,18.7813 Q259.8906,18.4063 260.1563,18.1719 Q260.4219,17.9375 261.0313,17.9375 L266.1719,17.9375 Q266.7813,17.9375 267.0469,18.1719 Q267.3125,18.4063 267.3125,18.7813 Q267.3125,19.1719 267.0469,19.4063 Q266.7813,19.6406 266.1719,19.6406 L264.4531,19.6406 Z " fill="#000000"/><text fill="#000000" font-family="sans-serif" font-size="14" font-style="italic" lengthAdjust="spacing" textLength="92" x="277.5" y="28.7285">ReRenderable</text><line style="stroke:#181818;stroke-width:0.5;" x1="249.5" x2="371.5" y1="39" y2="39"/><line style="stroke:#181818;stroke-width:0.5;" x1="249.5" x2="371.5" y1="47" y2="47"/><text fill="#000000" font-family="sans-serif" font-size="14" lengthAdjust="spacing" textLength="86" x="254.5" y="65.5332">render(): void</text></g></a><!--class StackPane--><g id="elem_StackPane"><rect codeLine="4" fill="#F1F1F1" height="48" id="StackPane" rx="2.5" ry="2.5" style="stroke:#181818;stroke-width:0.5;" width="100" x="1074.5" y="16"/><ellipse cx="1089.5" cy="32" fill="#ADD1B2" rx="11" ry="11" style="stroke:#181818;stroke-width:1.0;"/><path d="M1092.2656,27.875 Q1092.4219,27.6563 1092.6094,27.5469 Q1092.7969,27.4375 1093.0156,27.4375 Q1093.3906,27.4375 1093.625,27.7031 Q1093.8594,27.9531 1093.8594,28.5625 L1093.8594,30.0156 Q1093.8594,30.625 1093.625,30.8906 Q1093.3906,31.1563 1093.0156,31.1563 Q1092.6719,31.1563 1092.4688,30.9531 Q1092.2656,30.7656 1092.1563,30.25 Q1092.1094,29.8906 1091.9219,29.7031 Q1091.5938,29.3281 1090.9844,29.1094 Q1090.375,28.8906 1089.75,28.8906 Q1088.9844,28.8906 1088.3438,29.2188 Q1087.7188,29.5469 1087.2188,30.2969 Q1086.7344,31.0469 1086.7344,32.0781 L1086.7344,33.1719 Q1086.7344,34.4063 1087.625,35.2344 Q1088.5156,36.0469 1090.1094,36.0469 Q1091.0469,36.0469 1091.7031,35.7969 Q1092.0938,35.6406 1092.5156,35.2031 Q1092.7813,34.9375 1092.9219,34.8594 Q1093.0781,34.7813 1093.2813,34.7813 Q1093.6094,34.7813 1093.8594,35.0469 Q1094.125,35.2969 1094.125,35.6406 Q1094.125,35.9844 1093.7813,36.3906 Q1093.2813,36.9688 1092.4844,37.2969 Q1091.4063,37.75 1090.1094,37.75 Q1088.5938,37.75 1087.3906,37.125 Q1086.4063,36.625 1085.7188,35.5625 Q1085.0313,34.4844 1085.0313,33.2031 L1085.0313,32.0469 Q1085.0313,30.7188 1085.6406,29.5781 Q1086.2656,28.4219 1087.3594,27.8125 Q1088.4531,27.1875 1089.6875,27.1875 Q1090.4219,27.1875 1091.0625,27.3594 Q1091.7188,27.5156 1092.2656,27.875 Z " fill="#000000"/><text fill="#000000" font-family="sans-serif" font-size="14" lengthAdjust="spacing" textLength="68" x="1103.5" y="37.7285">StackPane</text><line style="stroke:#181818;stroke-width:0.5;" x1="1075.5" x2="1173.5" y1="48" y2="48"/><line style="stroke:#181818;stroke-width:0.5;" x1="1075.5" x2="1173.5" y1="56" y2="56"/></g><!--class HBox--><g id="elem_HBox"><rect codeLine="5" fill="#F1F1F1" height="48" id="HBox" rx="2.5" ry="2.5" style="stroke:#181818;stroke-width:0.5;" width="64" x="461.5" y="16"/><ellipse cx="476.5" cy="32" fill="#ADD1B2" rx="11" ry="11" style="stroke:#181818;stroke-width:1.0;"/><path d="M479.2656,27.875 Q479.4219,27.6563 479.6094,27.5469 Q479.7969,27.4375 480.0156,27.4375 Q480.3906,27.4375 480.625,27.7031 Q480.8594,27.9531 480.8594,28.5625 L480.8594,30.0156 Q480.8594,30.625 480.625,30.8906 Q480.3906,31.1563 480.0156,31.1563 Q479.6719,31.1563 479.4688,30.9531 Q479.2656,30.7656 479.1563,30.25 Q479.1094,29.8906 478.9219,29.7031 Q478.5938,29.3281 477.9844,29.1094 Q477.375,28.8906 476.75,28.8906 Q475.9844,28.8906 475.3438,29.2188 Q474.7188,29.5469 474.2188,30.2969 Q473.7344,31.0469 473.7344,32.0781 L473.7344,33.1719 Q473.7344,34.4063 474.625,35.2344 Q475.5156,36.0469 477.1094,36.0469 Q478.0469,36.0469 478.7031,35.7969 Q479.0938,35.6406 479.5156,35.2031 Q479.7813,34.9375 479.9219,34.8594 Q480.0781,34.7813 480.2813,34.7813 Q480.6094,34.7813 480.8594,35.0469 Q481.125,35.2969 481.125,35.6406 Q481.125,35.9844 480.7813,36.3906 Q480.2813,36.9688 479.4844,37.2969 Q478.4063,37.75 477.1094,37.75 Q475.5938,37.75 474.3906,37.125 Q473.4063,36.625 472.7188,35.5625 Q472.0313,34.4844 472.0313,33.2031 L472.0313,32.0469 Q472.0313,30.7188 472.6406,29.5781 Q473.2656,28.4219 474.3594,27.8125 Q475.4531,27.1875 476.6875,27.1875 Q477.4219,27.1875 478.0625,27.3594 Q478.7188,27.5156 479.2656,27.875 Z " fill="#000000"/><text fill="#000000" font-family="sans-serif" font-size="14" lengthAdjust="spacing" textLength="32" x="490.5" y="37.7285">HBox</text><line style="stroke:#181818;stroke-width:0.5;" x1="462.5" x2="524.5" y1="48" y2="48"/><line style="stroke:#181818;stroke-width:0.5;" x1="462.5" x2="524.5" y1="56" y2="56"/></g><!--class Item--><a href="java:game.item.Item" target="_top" title="java:game.item.Item" xlink:actuate="onRequest" xlink:href="java:game.item.Item" xlink:show="new" xlink:title="java:game.item.Item" xlink:type="simple"><g id="elem_Item"><rect codeLine="6" fill="#F1F1F1" height="48" id="Item" rx="2.5" ry="2.5" style="stroke:#181818;stroke-width:0.5;" width="59" x="1095" y="559"/><ellipse cx="1110" cy="575" fill="#A9DCDF" rx="11" ry="11" style="stroke:#181818;stroke-width:1.0;"/><path d="M1112.1875,576.7656 L1108.0469,576.7656 L1107.625,577.7969 L1108.0469,577.7969 Q1108.6563,577.7969 1108.9219,578.0313 Q1109.1875,578.2656 1109.1875,578.6563 Q1109.1875,579.0313 1108.9219,579.2656 Q1108.6563,579.5 1108.0469,579.5 L1105.75,579.5 Q1105.1406,579.5 1104.8906,579.2656 Q1104.625,579.0313 1104.625,578.6406 Q1104.625,578.2656 1104.9063,578.0313 Q1105.1719,577.7813 1105.7969,577.7969 L1108.4688,571.1406 L1107.3594,571.1406 Q1106.75,571.1406 1106.4844,570.9063 Q1106.2188,570.6719 1106.2188,570.2813 Q1106.2188,569.9063 1106.4844,569.6719 Q1106.75,569.4375 1107.3594,569.4375 L1111.0313,569.4375 L1114.4219,577.7969 Q1115.0156,577.7969 1115.2031,577.9375 Q1115.5938,578.2031 1115.5938,578.6563 Q1115.5938,579.0313 1115.3281,579.2656 Q1115.0781,579.5 1114.4688,579.5 L1112.1719,579.5 Q1111.5625,579.5 1111.2969,579.2656 Q1111.0313,579.0313 1111.0313,578.6406 Q1111.0313,578.2656 1111.2969,578.0313 Q1111.5625,577.7969 1112.1719,577.7969 L1112.5938,577.7969 L1112.1875,576.7656 Z M1111.4688,575.0625 L1110.1094,571.6875 L1108.7344,575.0625 L1111.4688,575.0625 Z " fill="#000000"/><text fill="#000000" font-family="sans-serif" font-size="14" font-style="italic" lengthAdjust="spacing" textLength="27" x="1124" y="580.7285">Item</text><line style="stroke:#181818;stroke-width:0.5;" x1="1096" x2="1153" y1="591" y2="591"/><line style="stroke:#181818;stroke-width:0.5;" x1="1096" x2="1153" y1="599" y2="599"/></g></a><!--class Game--><a href="java:game.Game" target="_top" title="java:game.Game" xlink:actuate="onRequest" xlink:href="java:game.Game" xlink:show="new" xlink:title="java:game.Game" xlink:type="simple"><g id="elem_Game"><rect codeLine="7" fill="#F1F1F1" height="153.6563" id="Game" rx="2.5" ry="2.5" style="stroke:#181818;stroke-width:0.5;" width="257" x="996" y="230.5"/><ellipse cx="1101.25" cy="246.5" fill="#ADD1B2" rx="11" ry="11" style="stroke:#181818;stroke-width:1.0;"/><path d="M1104.0156,242.375 Q1104.1719,242.1563 1104.3594,242.0469 Q1104.5469,241.9375 1104.7656,241.9375 Q1105.1406,241.9375 1105.375,242.2031 Q1105.6094,242.4531 1105.6094,243.0625 L1105.6094,244.5156 Q1105.6094,245.125 1105.375,245.3906 Q1105.1406,245.6563 1104.7656,245.6563 Q1104.4219,245.6563 1104.2188,245.4531 Q1104.0156,245.2656 1103.9063,244.75 Q1103.8594,244.3906 1103.6719,244.2031 Q1103.3438,243.8281 1102.7344,243.6094 Q1102.125,243.3906 1101.5,243.3906 Q1100.7344,243.3906 1100.0938,243.7188 Q1099.4688,244.0469 1098.9688,244.7969 Q1098.4844,245.5469 1098.4844,246.5781 L1098.4844,247.6719 Q1098.4844,248.9063 1099.375,249.7344 Q1100.2656,250.5469 1101.8594,250.5469 Q1102.7969,250.5469 1103.4531,250.2969 Q1103.8438,250.1406 1104.2656,249.7031 Q1104.5313,249.4375 1104.6719,249.3594 Q1104.8281,249.2813 1105.0313,249.2813 Q1105.3594,249.2813 1105.6094,249.5469 Q1105.875,249.7969 1105.875,250.1406 Q1105.875,250.4844 1105.5313,250.8906 Q1105.0313,251.4688 1104.2344,251.7969 Q1103.1563,252.25 1101.8594,252.25 Q1100.3438,252.25 1099.1406,251.625 Q1098.1563,251.125 1097.4688,250.0625 Q1096.7813,248.9844 1096.7813,247.7031 L1096.7813,246.5469 Q1096.7813,245.2188 1097.3906,244.0781 Q1098.0156,242.9219 1099.1094,242.3125 Q1100.2031,241.6875 1101.4375,241.6875 Q1102.1719,241.6875 1102.8125,241.8594 Q1103.4688,242.0156 1104.0156,242.375 Z " fill="#000000"/><text fill="#000000" font-family="sans-serif" font-size="14" lengthAdjust="spacing" textLength="38" x="1121.75" y="252.2285">Game</text><line style="stroke:#181818;stroke-width:0.5;" x1="997" x2="1252" y1="262.5" y2="262.5"/><rect fill="none" height="6" style="stroke:#C82930;stroke-width:1.0;" width="6" x="1004" y="273.8047"/><text fill="#000000" font-family="sans-serif" font-size="14" lengthAdjust="spacing" text-decoration="underline" textLength="99" x="1016" y="281.0332">instance: Game</text><line style="stroke:#181818;stroke-width:0.5;" x1="997" x2="1252" y1="288.1094" y2="288.1094"/><ellipse cx="1007" cy="302.4141" fill="#84BE84" rx="3" ry="3" style="stroke:#038048;stroke-width:1.0;"/><text fill="#000000" font-family="sans-serif" font-size="14" lengthAdjust="spacing" textLength="48" x="1016" y="306.6426">Game()</text><ellipse cx="1007" cy="320.0234" fill="#84BE84" rx="3" ry="3" style="stroke:#038048;stroke-width:1.0;"/><text fill="#000000" font-family="sans-serif" font-size="14" lengthAdjust="spacing" textLength="231" x="1016" y="324.252">addItemsToGame(items: Item[]): void</text><ellipse cx="1007" cy="337.6328" fill="#84BE84" rx="3" ry="3" style="stroke:#038048;stroke-width:1.0;"/><text fill="#000000" font-family="sans-serif" font-size="14" lengthAdjust="spacing" textLength="125" x="1016" y="341.8613">initializeFight(): void</text><ellipse cx="1007" cy="355.2422" fill="#84BE84" rx="3" ry="3" style="stroke:#038048;stroke-width:1.0;"/><text fill="#000000" font-family="sans-serif" font-size="14" lengthAdjust="spacing" text-decoration="underline" textLength="129" x="1016" y="359.4707">getInstance(): Game</text><ellipse cx="1007" cy="372.8516" fill="#84BE84" rx="3" ry="3" style="stroke:#038048;stroke-width:1.0;"/><text fill="#000000" font-family="sans-serif" font-size="14" lengthAdjust="spacing" text-decoration="underline" textLength="215" x="1016" y="377.0801">setInstance(instance: Game): void</text></g></a><!--class GameHeader--><a href="java:game.GameHeader" target="_top" title="java:game.GameHeader" xlink:actuate="onRequest" xlink:href="java:game.GameHeader" xlink:show="new" xlink:title="java:game.GameHeader" xlink:type="simple"><g id="elem_GameHeader"><rect codeLine="15" fill="#F1F1F1" height="347.3594" id="GameHeader" rx="2.5" ry="2.5" style="stroke:#181818;stroke-width:0.5;" width="332" x="327.5" y="134"/><ellipse cx="447.25" cy="150" fill="#ADD1B2" rx="11" ry="11" style="stroke:#181818;stroke-width:1.0;"/><path d="M450.0156,145.875 Q450.1719,145.6563 450.3594,145.5469 Q450.5469,145.4375 450.7656,145.4375 Q451.1406,145.4375 451.375,145.7031 Q451.6094,145.9531 451.6094,146.5625 L451.6094,148.0156 Q451.6094,148.625 451.375,148.8906 Q451.1406,149.1563 450.7656,149.1563 Q450.4219,149.1563 450.2188,148.9531 Q450.0156,148.7656 449.9063,148.25 Q449.8594,147.8906 449.6719,147.7031 Q449.3438,147.3281 448.7344,147.1094 Q448.125,146.8906 447.5,146.8906 Q446.7344,146.8906 446.0938,147.2188 Q445.4688,147.5469 444.9688,148.2969 Q444.4844,149.0469 444.4844,150.0781 L444.4844,151.1719 Q444.4844,152.4063 445.375,153.2344 Q446.2656,154.0469 447.8594,154.0469 Q448.7969,154.0469 449.4531,153.7969 Q449.8438,153.6406 450.2656,153.2031 Q450.5313,152.9375 450.6719,152.8594 Q450.8281,152.7813 451.0313,152.7813 Q451.3594,152.7813 451.6094,153.0469 Q451.875,153.2969 451.875,153.6406 Q451.875,153.9844 451.5313,154.3906 Q451.0313,154.9688 450.2344,155.2969 Q449.1563,155.75 447.8594,155.75 Q446.3438,155.75 445.1406,155.125 Q444.1563,154.625 443.4688,153.5625 Q442.7813,152.4844 442.7813,151.2031 L442.7813,150.0469 Q442.7813,148.7188 443.3906,147.5781 Q444.0156,146.4219 445.1094,145.8125 Q446.2031,145.1875 447.4375,145.1875 Q448.1719,145.1875 448.8125,145.3594 Q449.4688,145.5156 450.0156,145.875 Z " fill="#000000"/><text fill="#000000" font-family="sans-serif" font-size="14" lengthAdjust="spacing" textLength="84" x="467.75" y="155.7285">GameHeader</text><line style="stroke:#181818;stroke-width:0.5;" x1="328.5" x2="658.5" y1="166" y2="166"/><rect fill="none" height="6" style="stroke:#C82930;stroke-width:1.0;" width="6" x="335.5" y="177.3047"/><text fill="#000000" font-family="sans-serif" font-size="14" lengthAdjust="spacing" text-decoration="underline" textLength="145" x="347.5" y="184.5332">instance: GameHeader</text><rect fill="none" height="6" style="stroke:#C82930;stroke-width:1.0;" width="6" x="335.5" y="194.9141"/><text fill="#000000" font-family="sans-serif" font-size="14" lengthAdjust="spacing" textLength="90" x="347.5" y="202.1426">floorText: Text</text><rect fill="none" height="6" style="stroke:#C82930;stroke-width:1.0;" width="6" x="335.5" y="212.5234"/><text fill="#000000" font-family="sans-serif" font-size="14" lengthAdjust="spacing" textLength="131" x="347.5" y="219.752">experienceText: Text</text><rect fill="none" height="6" style="stroke:#C82930;stroke-width:1.0;" width="6" x="335.5" y="230.1328"/><text fill="#000000" font-family="sans-serif" font-size="14" lengthAdjust="spacing" textLength="95" x="347.5" y="237.3613">coinsText: Text</text><rect fill="none" height="6" style="stroke:#C82930;stroke-width:1.0;" width="6" x="335.5" y="247.7422"/><text fill="#000000" font-family="sans-serif" font-size="14" lengthAdjust="spacing" textLength="143" x="347.5" y="254.9707">mapButton: ImageView</text><rect fill="none" height="6" style="stroke:#C82930;stroke-width:1.0;" width="6" x="335.5" y="265.3516"/><text fill="#000000" font-family="sans-serif" font-size="14" lengthAdjust="spacing" textLength="158" x="347.5" y="272.5801">settingButton: ImageView</text><rect fill="none" height="6" style="stroke:#C82930;stroke-width:1.0;" width="6" x="335.5" y="282.9609"/><text fill="#000000" font-family="sans-serif" font-size="14" lengthAdjust="spacing" textLength="142" x="347.5" y="290.1895">moneySlot: StackPane</text><rect fill="none" height="6" style="stroke:#C82930;stroke-width:1.0;" width="6" x="335.5" y="300.5703"/><text fill="#000000" font-family="sans-serif" font-size="14" lengthAdjust="spacing" textLength="122" x="347.5" y="307.7988">expSlot: StackPane</text><rect fill="none" height="6" style="stroke:#C82930;stroke-width:1.0;" width="6" x="335.5" y="318.1797"/><text fill="#000000" font-family="sans-serif" font-size="14" lengthAdjust="spacing" textLength="63" x="347.5" y="325.4082">stat: VBox</text><line style="stroke:#181818;stroke-width:0.5;" x1="328.5" x2="658.5" y1="332.4844" y2="332.4844"/><ellipse cx="338.5" cy="346.7891" fill="#84BE84" rx="3" ry="3" style="stroke:#038048;stroke-width:1.0;"/><text fill="#000000" font-family="sans-serif" font-size="14" lengthAdjust="spacing" textLength="94" x="347.5" y="351.0176">GameHeader()</text><ellipse cx="338.5" cy="364.3984" fill="#84BE84" rx="3" ry="3" style="stroke:#038048;stroke-width:1.0;"/><text fill="#000000" font-family="sans-serif" font-size="14" lengthAdjust="spacing" textLength="86" x="347.5" y="368.627">render(): void</text><ellipse cx="338.5" cy="382.0078" fill="#84BE84" rx="3" ry="3" style="stroke:#038048;stroke-width:1.0;"/><text fill="#000000" font-family="sans-serif" font-size="14" lengthAdjust="spacing" text-decoration="underline" textLength="175" x="347.5" y="386.2363">getInstance(): GameHeader</text><ellipse cx="338.5" cy="399.6172" fill="#84BE84" rx="3" ry="3" style="stroke:#038048;stroke-width:1.0;"/><text fill="#000000" font-family="sans-serif" font-size="14" lengthAdjust="spacing" textLength="173" x="347.5" y="403.8457">getMapButton(): ImageView</text><ellipse cx="338.5" cy="417.2266" fill="#84BE84" rx="3" ry="3" style="stroke:#038048;stroke-width:1.0;"/><text fill="#000000" font-family="sans-serif" font-size="14" lengthAdjust="spacing" textLength="274" x="347.5" y="421.4551">setMapButton(mapButton: ImageView): void</text><ellipse cx="338.5" cy="434.8359" fill="#84BE84" rx="3" ry="3" style="stroke:#038048;stroke-width:1.0;"/><text fill="#000000" font-family="sans-serif" font-size="14" lengthAdjust="spacing" textLength="190" x="347.5" y="439.0645">getSettingButton(): ImageView</text><ellipse cx="338.5" cy="452.4453" fill="#84BE84" rx="3" ry="3" style="stroke:#038048;stroke-width:1.0;"/><text fill="#000000" font-family="sans-serif" font-size="14" lengthAdjust="spacing" textLength="306" x="347.5" y="456.6738">setSettingButton(settingButton: ImageView): void</text><ellipse cx="338.5" cy="470.0547" fill="#84BE84" rx="3" ry="3" style="stroke:#038048;stroke-width:1.0;"/><text fill="#000000" font-family="sans-serif" font-size="14" lengthAdjust="spacing" text-decoration="underline" textLength="261" x="347.5" y="474.2832">setInstance(instance: GameHeader): void</text></g></a><!--class GameTop--><a href="java:game.GameTop" target="_top" title="java:game.GameTop" xlink:actuate="onRequest" xlink:href="java:game.GameTop" xlink:show="new" xlink:title="java:game.GameTop" xlink:type="simple"><g id="elem_GameTop"><rect codeLine="34" fill="#F1F1F1" height="224.0938" id="GameTop" rx="2.5" ry="2.5" style="stroke:#181818;stroke-width:0.5;" width="266" x="694.5" y="195.5"/><ellipse cx="791.75" cy="211.5" fill="#ADD1B2" rx="11" ry="11" style="stroke:#181818;stroke-width:1.0;"/><path d="M794.5156,207.375 Q794.6719,207.1563 794.8594,207.0469 Q795.0469,206.9375 795.2656,206.9375 Q795.6406,206.9375 795.875,207.2031 Q796.1094,207.4531 796.1094,208.0625 L796.1094,209.5156 Q796.1094,210.125 795.875,210.3906 Q795.6406,210.6563 795.2656,210.6563 Q794.9219,210.6563 794.7188,210.4531 Q794.5156,210.2656 794.4063,209.75 Q794.3594,209.3906 794.1719,209.2031 Q793.8438,208.8281 793.2344,208.6094 Q792.625,208.3906 792,208.3906 Q791.2344,208.3906 790.5938,208.7188 Q789.9688,209.0469 789.4688,209.7969 Q788.9844,210.5469 788.9844,211.5781 L788.9844,212.6719 Q788.9844,213.9063 789.875,214.7344 Q790.7656,215.5469 792.3594,215.5469 Q793.2969,215.5469 793.9531,215.2969 Q794.3438,215.1406 794.7656,214.7031 Q795.0313,214.4375 795.1719,214.3594 Q795.3281,214.2813 795.5313,214.2813 Q795.8594,214.2813 796.1094,214.5469 Q796.375,214.7969 796.375,215.1406 Q796.375,215.4844 796.0313,215.8906 Q795.5313,216.4688 794.7344,216.7969 Q793.6563,217.25 792.3594,217.25 Q790.8438,217.25 789.6406,216.625 Q788.6563,216.125 787.9688,215.0625 Q787.2813,213.9844 787.2813,212.7031 L787.2813,211.5469 Q787.2813,210.2188 787.8906,209.0781 Q788.5156,207.9219 789.6094,207.3125 Q790.7031,206.6875 791.9375,206.6875 Q792.6719,206.6875 793.3125,206.8594 Q793.9688,207.0156 794.5156,207.375 Z " fill="#000000"/><text fill="#000000" font-family="sans-serif" font-size="14" lengthAdjust="spacing" textLength="63" x="812.25" y="217.2285">GameTop</text><line style="stroke:#181818;stroke-width:0.5;" x1="695.5" x2="959.5" y1="227.5" y2="227.5"/><rect fill="none" height="6" style="stroke:#C82930;stroke-width:1.0;" width="6" x="702.5" y="238.8047"/><text fill="#000000" font-family="sans-serif" font-size="14" lengthAdjust="spacing" text-decoration="underline" textLength="124" x="714.5" y="246.0332">instance: GameTop</text><rect fill="none" height="6" style="stroke:#C82930;stroke-width:1.0;" width="6" x="702.5" y="256.4141"/><text fill="#000000" font-family="sans-serif" font-size="14" lengthAdjust="spacing" text-decoration="underline" textLength="103" x="714.5" y="263.6426">map: StackPane</text><rect fill="none" height="6" style="stroke:#C82930;stroke-width:1.0;" width="6" x="702.5" y="274.0234"/><text fill="#000000" font-family="sans-serif" font-size="14" lengthAdjust="spacing" textLength="130" x="714.5" y="281.252">isBackpack: boolean</text><line style="stroke:#181818;stroke-width:0.5;" x1="695.5" x2="959.5" y1="288.3281" y2="288.3281"/><ellipse cx="705.5" cy="302.6328" fill="#84BE84" rx="3" ry="3" style="stroke:#038048;stroke-width:1.0;"/><text fill="#000000" font-family="sans-serif" font-size="14" lengthAdjust="spacing" textLength="73" x="714.5" y="306.8613">GameTop()</text><ellipse cx="705.5" cy="320.2422" fill="#84BE84" rx="3" ry="3" style="stroke:#038048;stroke-width:1.0;"/><text fill="#000000" font-family="sans-serif" font-size="14" lengthAdjust="spacing" textLength="128" x="714.5" y="324.4707">useBackpack(): void</text><ellipse cx="705.5" cy="337.8516" fill="#84BE84" rx="3" ry="3" style="stroke:#038048;stroke-width:1.0;"/><text fill="#000000" font-family="sans-serif" font-size="14" lengthAdjust="spacing" textLength="94" x="714.5" y="342.0801">useMap(): void</text><ellipse cx="705.5" cy="355.4609" fill="#84BE84" rx="3" ry="3" style="stroke:#038048;stroke-width:1.0;"/><text fill="#000000" font-family="sans-serif" font-size="14" lengthAdjust="spacing" textLength="140" x="714.5" y="359.6895">isBackpack(): boolean</text><ellipse cx="705.5" cy="373.0703" fill="#84BE84" rx="3" ry="3" style="stroke:#038048;stroke-width:1.0;"/><text fill="#000000" font-family="sans-serif" font-size="14" lengthAdjust="spacing" text-decoration="underline" textLength="154" x="714.5" y="377.2988">getInstance(): GameTop</text><ellipse cx="705.5" cy="390.6797" fill="#84BE84" rx="3" ry="3" style="stroke:#038048;stroke-width:1.0;"/><text fill="#000000" font-family="sans-serif" font-size="14" lengthAdjust="spacing" text-decoration="underline" textLength="133" x="714.5" y="394.9082">getMap(): StackPane</text><ellipse cx="705.5" cy="408.2891" fill="#84BE84" rx="3" ry="3" style="stroke:#038048;stroke-width:1.0;"/><text fill="#000000" font-family="sans-serif" font-size="14" lengthAdjust="spacing" text-decoration="underline" textLength="240" x="714.5" y="412.5176">setInstance(instance: GameTop): void</text></g></a><!--class GameBottom--><a href="java:game.GameBottom" target="_top" title="java:game.GameBottom" xlink:actuate="onRequest" xlink:href="java:game.GameBottom" xlink:show="new" xlink:title="java:game.GameBottom" xlink:type="simple"><g id="elem_GameBottom"><rect codeLine="46" fill="#F1F1F1" height="241.7031" id="GameBottom" rx="2.5" ry="2.5" style="stroke:#181818;stroke-width:0.5;" width="285" x="7" y="186.5"/><ellipse cx="104.25" cy="202.5" fill="#ADD1B2" rx="11" ry="11" style="stroke:#181818;stroke-width:1.0;"/><path d="M107.0156,198.375 Q107.1719,198.1563 107.3594,198.0469 Q107.5469,197.9375 107.7656,197.9375 Q108.1406,197.9375 108.375,198.2031 Q108.6094,198.4531 108.6094,199.0625 L108.6094,200.5156 Q108.6094,201.125 108.375,201.3906 Q108.1406,201.6563 107.7656,201.6563 Q107.4219,201.6563 107.2188,201.4531 Q107.0156,201.2656 106.9063,200.75 Q106.8594,200.3906 106.6719,200.2031 Q106.3438,199.8281 105.7344,199.6094 Q105.125,199.3906 104.5,199.3906 Q103.7344,199.3906 103.0938,199.7188 Q102.4688,200.0469 101.9688,200.7969 Q101.4844,201.5469 101.4844,202.5781 L101.4844,203.6719 Q101.4844,204.9063 102.375,205.7344 Q103.2656,206.5469 104.8594,206.5469 Q105.7969,206.5469 106.4531,206.2969 Q106.8438,206.1406 107.2656,205.7031 Q107.5313,205.4375 107.6719,205.3594 Q107.8281,205.2813 108.0313,205.2813 Q108.3594,205.2813 108.6094,205.5469 Q108.875,205.7969 108.875,206.1406 Q108.875,206.4844 108.5313,206.8906 Q108.0313,207.4688 107.2344,207.7969 Q106.1563,208.25 104.8594,208.25 Q103.3438,208.25 102.1406,207.625 Q101.1563,207.125 100.4688,206.0625 Q99.7813,204.9844 99.7813,203.7031 L99.7813,202.5469 Q99.7813,201.2188 100.3906,200.0781 Q101.0156,198.9219 102.1094,198.3125 Q103.2031,197.6875 104.4375,197.6875 Q105.1719,197.6875 105.8125,197.8594 Q106.4688,198.0156 107.0156,198.375 Z " fill="#000000"/><text fill="#000000" font-family="sans-serif" font-size="14" lengthAdjust="spacing" textLength="82" x="124.75" y="208.2285">GameBottom</text><line style="stroke:#181818;stroke-width:0.5;" x1="8" x2="291" y1="218.5" y2="218.5"/><rect fill="none" height="6" style="stroke:#C82930;stroke-width:1.0;" width="6" x="15" y="229.8047"/><text fill="#000000" font-family="sans-serif" font-size="14" lengthAdjust="spacing" text-decoration="underline" textLength="143" x="27" y="237.0332">instance: GameBottom</text><rect fill="none" height="6" style="stroke:#C82930;stroke-width:1.0;" width="6" x="15" y="247.4141"/><text fill="#000000" font-family="sans-serif" font-size="14" lengthAdjust="spacing" textLength="105" x="27" y="254.6426">enemyBox: HBox</text><line style="stroke:#181818;stroke-width:0.5;" x1="8" x2="291" y1="261.7188" y2="261.7188"/><ellipse cx="18" cy="276.0234" fill="#84BE84" rx="3" ry="3" style="stroke:#038048;stroke-width:1.0;"/><text fill="#000000" font-family="sans-serif" font-size="14" lengthAdjust="spacing" textLength="92" x="27" y="280.252">GameBottom()</text><ellipse cx="18" cy="293.6328" fill="#84BE84" rx="3" ry="3" style="stroke:#038048;stroke-width:1.0;"/><text fill="#000000" font-family="sans-serif" font-size="14" lengthAdjust="spacing" textLength="86" x="27" y="297.8613">render(): void</text><ellipse cx="18" cy="311.2422" fill="#84BE84" rx="3" ry="3" style="stroke:#038048;stroke-width:1.0;"/><text fill="#000000" font-family="sans-serif" font-size="14" lengthAdjust="spacing" textLength="179" x="27" y="315.4707">renderTarget(e: Entity): void</text><ellipse cx="18" cy="328.8516" fill="#84BE84" rx="3" ry="3" style="stroke:#038048;stroke-width:1.0;"/><text fill="#000000" font-family="sans-serif" font-size="14" lengthAdjust="spacing" textLength="136" x="27" y="333.0801">getEnemyBox(): HBox</text><ellipse cx="18" cy="346.4609" fill="#84BE84" rx="3" ry="3" style="stroke:#038048;stroke-width:1.0;"/><text fill="#000000" font-family="sans-serif" font-size="14" lengthAdjust="spacing" text-decoration="underline" textLength="173" x="27" y="350.6895">getInstance(): GameBottom</text><ellipse cx="18" cy="364.0703" fill="#84BE84" rx="3" ry="3" style="stroke:#038048;stroke-width:1.0;"/><text fill="#000000" font-family="sans-serif" font-size="14" lengthAdjust="spacing" textLength="183" x="27" y="368.2988">addEntity(name: String): void</text><ellipse cx="18" cy="381.6797" fill="#84BE84" rx="3" ry="3" style="stroke:#038048;stroke-width:1.0;"/><text fill="#000000" font-family="sans-serif" font-size="14" lengthAdjust="spacing" textLength="126" x="27" y="385.9082">removeEntity(): void</text><rect fill="#F24D5C" height="6" style="stroke:#C82930;stroke-width:1.0;" width="6" x="15" y="396.2891"/><text fill="#000000" font-family="sans-serif" font-size="14" lengthAdjust="spacing" textLength="187" x="27" y="403.5176">animateLayoutChange(): void</text><ellipse cx="18" cy="416.8984" fill="#84BE84" rx="3" ry="3" style="stroke:#038048;stroke-width:1.0;"/><text fill="#000000" font-family="sans-serif" font-size="14" lengthAdjust="spacing" text-decoration="underline" textLength="259" x="27" y="421.127">setInstance(instance: GameBottom): void</text></g></a><!--reverse link StackPane to Game--><g id="link_StackPane_Game"><path codeLine="59" d="M1124.5,82.1 C1124.5,118.75 1124.5,173.84 1124.5,230.23 " fill="none" id="StackPane-backto-Game" style="stroke:#181818;stroke-width:1.0;"/><polygon fill="none" points="1124.5,64.1,1118.5,82.1,1130.5,82.1,1124.5,64.1" style="stroke:#181818;stroke-width:1.0;"/></g><!--link Game to Item--><g id="link_Game_Item"><path codeLine="60" d="M1124.5,384.68 C1124.5,443.48 1124.5,515 1124.5,553 " fill="none" id="Game-to-Item" style="stroke:#181818;stroke-width:1.0;"/><polygon fill="#181818" points="1124.5,559,1128.5,550,1124.5,554,1120.5,550,1124.5,559" style="stroke:#181818;stroke-width:1.0;"/><text fill="#000000" font-family="sans-serif" font-size="13" lengthAdjust="spacing" textLength="103" x="1125.5" y="525.4951">getItemsInGame()</text><text fill="#000000" font-family="sans-serif" font-size="13" lengthAdjust="spacing" textLength="5" x="1118.8594" y="548.3402">*</text></g><!--reverse link HBox to GameHeader--><g id="link_HBox_GameHeader"><path codeLine="61" d="M493.5,82.1 C493.5,99.19 493.5,106.22 493.5,133.78 " fill="none" id="HBox-backto-GameHeader" style="stroke:#181818;stroke-width:1.0;"/><polygon fill="none" points="493.5,64.1,487.5,82.1,499.5,82.1,493.5,64.1" style="stroke:#181818;stroke-width:1.0;"/></g><!--reverse link ReRenderable to GameHeader--><g id="link_ReRenderable_GameHeader"><path codeLine="62" d="M342.7898,87.8474 C354.0598,104.1874 358.51,110.65 374.41,133.72 " fill="none" id="ReRenderable-backto-GameHeader" style="stroke:#181818;stroke-width:1.0;stroke-dasharray:7.0,7.0;"/><polygon fill="none" points="332.57,73.03,337.8507,91.254,347.729,84.4408,332.57,73.03" style="stroke:#181818;stroke-width:1.0;"/></g><!--reverse link HBox to GameTop--><g id="link_HBox_GameTop"><path codeLine="63" d="M542.3493,59.3471 C580.8593,74.4371 629.49,96.62 677.5,134 C700.36,151.8 722.38,173.47 742.18,195.36 " fill="none" id="HBox-backto-GameTop" style="stroke:#181818;stroke-width:1.0;"/><polygon fill="none" points="525.59,52.78,540.1603,64.9335,544.5383,53.7606,525.59,52.78" style="stroke:#181818;stroke-width:1.0;"/></g><!--reverse link HBox to GameBottom--><g id="link_HBox_GameBottom"><path codeLine="64" d="M444.5643,59.8823 C406.2043,75.2723 357.96,97.5 309.5,134 C289.11,149.36 269.13,167.5 250.59,186.15 " fill="none" id="HBox-backto-GameBottom" style="stroke:#181818;stroke-width:1.0;"/><polygon fill="none" points="461.27,53.18,442.3302,54.3137,446.7984,65.4509,461.27,53.18" style="stroke:#181818;stroke-width:1.0;"/></g><!--reverse link ReRenderable to GameBottom--><g id="link_ReRenderable_GameBottom"><path codeLine="65" d="M281.7459,88.4207 C264.5159,116.8307 247.57,144.78 222.3,186.44 " fill="none" id="ReRenderable-backto-GameBottom" style="stroke:#181818;stroke-width:1.0;stroke-dasharray:7.0,7.0;"/><polygon fill="none" points="291.08,73.03,276.6156,85.3094,286.8761,91.5321,291.08,73.03" style="stroke:#181818;stroke-width:1.0;"/></g><!--SRC=[bLNRRjf047s6hrZboIao7s15VQ3A1QcLge3oWdWOpCJPrDv5teL2IVwzinVRky6nsWV0UyxiNCwC1ouqri-G8tl4HnHRh65J8bkjNk406MzODGtfzPgTnwFQdfFhZ1qatuxVnta9Ih65XlpNJn38pWtqC9D7SuADqZNacZbuhh5g8XLGuPGJC3Me2T1SlYSciZA0oo0zAmsQv- -C2teIEMRMV3oQc9_acXvWkpKUrL9Qo8HGcGszMZUfZoPSSCsXv7_mZXSlEkcODaI1UkwZ6Dh7QMaLq74s7mKos0C2QNTHbeE7YtCsn3-NKjPBFEgCcMz2yBZ3cYEPHd0koKE4LB2RxRMMWfIeeC0dZhy9fXeq5qKVLKc1fqKfoKVRO1Vn4ZHvP-o9ckuRuLAsxVWmDCFwDgLEYFlHf6p88BE92hc-mhfOv6OHbjZZAkO_4wGd_S_xxwhecuAbt5sC0673_IU3aAIAO_Mvcj5XHv-CRQGi4OHl0zsqFTWhR4o2HX1AEWP0vyY0dQkXZjda8WllCyZmNpGZFts2pIGrehhGpC73iZaRCx82gnFDPcRNafV6iVqJwe0br5HDGjvkXURw54tLhVTfRdclGoerkPZbvBmbWc2ZKatZ5eQkv06zIGkd87W56h_3IUxrjnSG1IR_DP8kWKxXRcVVlAMfssrsxwRfLtRrvSgjwipMOXReNFZzQZTxUyU_hz4_oStRT1gIyGqpBp7YjUdtuSc_]--></g></svg>